<svg xmlns="http://www.w3.org/2000/svg" xmlns:xlink="http://www.w3.org/1999/xlink" width="500" zoomAndPan="magnify" viewBox="0 0 375 374.999991" height="500" preserveAspectRatio="xMidYMid meet" version="1.0"><defs><g/><clipPath id="57b863c189"><path d="M 112.5 72.035156 L 262.5 72.035156 L 262.5 222.035156 L 112.5 222.035156 Z M 112.5 72.035156 " clip-rule="nonzero"/></clipPath></defs><rect x="-37.5" width="450" fill="#ffffff" y="-37.499999" height="449.999989" fill-opacity="1"/><rect x="-37.5" width="450" fill="#ffffff" y="-37.499999" height="449.999989" fill-opacity="1"/><g clip-path="url(#57b863c189)"><path fill="#004aad" d="M 262.558594 147.078125 C 262.558594 148.304688 262.527344 149.53125 262.46875 150.757812 C 262.40625 151.984375 262.316406 153.207031 262.195312 154.429688 C 262.078125 155.652344 261.925781 156.871094 261.746094 158.082031 C 261.566406 159.296875 261.355469 160.507812 261.117188 161.710938 C 260.878906 162.914062 260.609375 164.113281 260.308594 165.304688 C 260.011719 166.496094 259.683594 167.679688 259.328125 168.851562 C 258.972656 170.027344 258.585938 171.191406 258.171875 172.347656 C 257.761719 173.503906 257.316406 174.648438 256.847656 175.785156 C 256.378906 176.917969 255.882812 178.039062 255.355469 179.148438 C 254.832031 180.261719 254.28125 181.355469 253.699219 182.4375 C 253.121094 183.523438 252.515625 184.589844 251.886719 185.640625 C 251.253906 186.695312 250.597656 187.730469 249.917969 188.753906 C 249.234375 189.773438 248.527344 190.777344 247.796875 191.761719 C 247.066406 192.75 246.308594 193.71875 245.53125 194.664062 C 244.753906 195.613281 243.949219 196.542969 243.125 197.453125 C 242.300781 198.363281 241.457031 199.253906 240.585938 200.121094 C 239.71875 200.988281 238.828125 201.835938 237.921875 202.660156 C 237.011719 203.484375 236.082031 204.285156 235.132812 205.0625 C 234.183594 205.84375 233.214844 206.597656 232.230469 207.328125 C 231.242188 208.0625 230.242188 208.769531 229.21875 209.449219 C 228.199219 210.132812 227.160156 210.789062 226.109375 211.417969 C 225.054688 212.050781 223.988281 212.65625 222.90625 213.234375 C 221.824219 213.8125 220.726562 214.363281 219.617188 214.890625 C 218.507812 215.414062 217.382812 215.910156 216.25 216.382812 C 215.117188 216.851562 213.972656 217.292969 212.816406 217.707031 C 211.660156 218.121094 210.492188 218.503906 209.320312 218.863281 C 208.144531 219.21875 206.960938 219.546875 205.769531 219.84375 C 204.578125 220.140625 203.382812 220.410156 202.179688 220.652344 C 200.972656 220.890625 199.765625 221.101562 198.550781 221.28125 C 197.335938 221.460938 196.117188 221.609375 194.894531 221.730469 C 193.675781 221.851562 192.449219 221.941406 191.222656 222 C 189.996094 222.0625 188.769531 222.09375 187.542969 222.09375 C 186.316406 222.09375 185.089844 222.0625 183.863281 222 C 182.636719 221.941406 181.414062 221.851562 180.191406 221.730469 C 178.96875 221.609375 177.75 221.460938 176.535156 221.28125 C 175.320312 221.101562 174.113281 220.890625 172.910156 220.652344 C 171.703125 220.410156 170.507812 220.140625 169.316406 219.84375 C 168.125 219.546875 166.941406 219.21875 165.769531 218.863281 C 164.59375 218.503906 163.425781 218.121094 162.273438 217.707031 C 161.117188 217.292969 159.96875 216.851562 158.835938 216.382812 C 157.703125 215.910156 156.582031 215.414062 155.46875 214.890625 C 154.359375 214.363281 153.265625 213.8125 152.179688 213.234375 C 151.097656 212.65625 150.03125 212.050781 148.976562 211.417969 C 147.925781 210.789062 146.886719 210.132812 145.867188 209.449219 C 144.847656 208.769531 143.84375 208.0625 142.855469 207.328125 C 141.871094 206.597656 140.902344 205.84375 139.953125 205.0625 C 139.003906 204.285156 138.074219 203.484375 137.167969 202.660156 C 136.257812 201.835938 135.367188 200.988281 134.5 200.121094 C 133.632812 199.253906 132.785156 198.363281 131.960938 197.453125 C 131.136719 196.542969 130.335938 195.613281 129.554688 194.664062 C 128.777344 193.71875 128.023438 192.75 127.289062 191.761719 C 126.558594 190.777344 125.851562 189.773438 125.171875 188.753906 C 124.488281 187.730469 123.832031 186.695312 123.199219 185.640625 C 122.570312 184.589844 121.964844 183.523438 121.386719 182.4375 C 120.808594 181.355469 120.253906 180.261719 119.730469 179.148438 C 119.207031 178.039062 118.707031 176.917969 118.238281 175.785156 C 117.769531 174.648438 117.328125 173.503906 116.914062 172.347656 C 116.5 171.191406 116.113281 170.027344 115.757812 168.851562 C 115.402344 167.679688 115.074219 166.496094 114.777344 165.304688 C 114.476562 164.113281 114.210938 162.914062 113.96875 161.710938 C 113.730469 160.507812 113.519531 159.296875 113.339844 158.082031 C 113.160156 156.871094 113.011719 155.652344 112.890625 154.429688 C 112.769531 153.207031 112.679688 151.984375 112.617188 150.757812 C 112.558594 149.53125 112.527344 148.304688 112.527344 147.078125 C 112.527344 145.847656 112.558594 144.621094 112.617188 143.394531 C 112.679688 142.171875 112.769531 140.945312 112.890625 139.722656 C 113.011719 138.503906 113.160156 137.285156 113.339844 136.070312 C 113.519531 134.855469 113.730469 133.644531 113.96875 132.441406 C 114.210938 131.238281 114.476562 130.039062 114.777344 128.851562 C 115.074219 127.660156 115.402344 126.476562 115.757812 125.300781 C 116.113281 124.125 116.5 122.960938 116.914062 121.804688 C 117.328125 120.648438 117.769531 119.503906 118.238281 118.371094 C 118.707031 117.234375 119.207031 116.113281 119.730469 115.003906 C 120.253906 113.894531 120.808594 112.796875 121.386719 111.714844 C 121.964844 110.632812 122.570312 109.566406 123.199219 108.511719 C 123.832031 107.457031 124.488281 106.421875 125.171875 105.402344 C 125.851562 104.378906 126.558594 103.375 127.289062 102.390625 C 128.023438 101.40625 128.777344 100.4375 129.554688 99.488281 C 130.335938 98.539062 131.136719 97.609375 131.960938 96.699219 C 132.785156 95.789062 133.632812 94.902344 134.5 94.035156 C 135.367188 93.164062 136.257812 92.320312 137.167969 91.496094 C 138.074219 90.671875 139.003906 89.867188 139.953125 89.089844 C 140.902344 88.3125 141.871094 87.554688 142.855469 86.824219 C 143.84375 86.09375 144.847656 85.386719 145.867188 84.703125 C 146.886719 84.023438 147.925781 83.367188 148.976562 82.734375 C 150.03125 82.101562 151.097656 81.5 152.179688 80.917969 C 153.265625 80.339844 154.359375 79.789062 155.46875 79.265625 C 156.582031 78.738281 157.703125 78.242188 158.835938 77.773438 C 159.96875 77.300781 161.117188 76.859375 162.273438 76.445312 C 163.425781 76.035156 164.59375 75.648438 165.769531 75.292969 C 166.941406 74.9375 168.125 74.609375 169.316406 74.308594 C 170.507812 74.011719 171.703125 73.742188 172.910156 73.503906 C 174.113281 73.265625 175.320312 73.054688 176.535156 72.875 C 177.75 72.695312 178.96875 72.542969 180.191406 72.421875 C 181.414062 72.304688 182.636719 72.210938 183.863281 72.152344 C 185.089844 72.09375 186.316406 72.0625 187.542969 72.0625 C 188.769531 72.0625 189.996094 72.09375 191.222656 72.152344 C 192.449219 72.210938 193.675781 72.304688 194.894531 72.421875 C 196.117188 72.542969 197.335938 72.695312 198.550781 72.875 C 199.765625 73.054688 200.972656 73.265625 202.179688 73.503906 C 203.382812 73.742188 204.578125 74.011719 205.769531 74.308594 C 206.960938 74.609375 208.144531 74.9375 209.320312 75.292969 C 210.492188 75.648438 211.660156 76.035156 212.816406 76.445312 C 213.972656 76.859375 215.117188 77.300781 216.25 77.773438 C 217.382812 78.242188 218.507812 78.738281 219.617188 79.265625 C 220.726562 79.789062 221.824219 80.339844 222.90625 80.917969 C 223.988281 81.5 225.054688 82.101562 226.109375 82.734375 C 227.160156 83.367188 228.199219 84.023438 229.21875 84.703125 C 230.242188 85.386719 231.242188 86.09375 232.230469 86.824219 C 233.214844 87.554688 234.183594 88.3125 235.132812 89.089844 C 236.082031 89.867188 237.011719 90.671875 237.921875 91.496094 C 238.828125 92.320312 239.71875 93.164062 240.585938 94.035156 C 241.457031 94.902344 242.300781 95.789062 243.125 96.699219 C 243.949219 97.609375 244.753906 98.539062 245.53125 99.488281 C 246.308594 100.4375 247.066406 101.40625 247.796875 102.390625 C 248.527344 103.375 249.234375 104.378906 249.917969 105.402344 C 250.597656 106.421875 251.253906 107.457031 251.886719 108.511719 C 252.515625 109.566406 253.121094 110.632812 253.699219 111.714844 C 254.28125 112.796875 254.832031 113.894531 255.355469 115.003906 C 255.882812 116.113281 256.378906 117.234375 256.847656 118.371094 C 257.316406 119.503906 257.761719 120.648438 258.171875 121.804688 C 258.585938 122.960938 258.972656 124.125 259.328125 125.300781 C 259.683594 126.476562 260.011719 127.660156 260.308594 128.851562 C 260.609375 130.039062 260.878906 131.238281 261.117188 132.441406 C 261.355469 133.644531 261.566406 134.855469 261.746094 136.070312 C 261.925781 137.285156 262.078125 138.503906 262.195312 139.722656 C 262.316406 140.945312 262.40625 142.171875 262.46875 143.394531 C 262.527344 144.621094 262.558594 145.847656 262.558594 147.078125 Z M 262.558594 147.078125 " fill-opacity="1" fill-rule="nonzero"/></g><path fill="#fefefe" d="M 150.851562 139.875 C 148.59375 139.875 146.617188 140.746094 145.289062 142.320312 C 143.929688 143.9375 143.402344 146.105469 143.800781 148.421875 L 150.050781 184.492188 C 150.902344 189.402344 155.582031 193.398438 160.488281 193.398438 L 224.222656 193.398438 C 226.480469 193.398438 228.453125 192.53125 229.78125 190.953125 C 231.140625 189.335938 231.671875 187.171875 231.269531 184.851562 L 225.023438 148.78125 C 224.171875 143.871094 219.488281 139.875 214.585938 139.875 Z M 224.222656 195.515625 L 160.488281 195.515625 C 154.601562 195.515625 148.984375 190.730469 147.964844 184.851562 L 141.71875 148.78125 C 141.207031 145.839844 141.902344 143.0625 143.671875 140.960938 C 145.40625 138.894531 147.957031 137.761719 150.851562 137.761719 L 214.585938 137.761719 C 220.472656 137.761719 226.085938 142.542969 227.105469 148.421875 L 233.355469 184.492188 C 233.863281 187.433594 233.167969 190.214844 231.398438 192.316406 C 229.664062 194.378906 227.113281 195.515625 224.222656 195.515625 Z M 224.222656 195.515625 " fill-opacity="1" fill-rule="evenodd"/><path fill="#fefefe" d="M 232.457031 187.5625 C 231.871094 187.5625 231.398438 187.089844 231.398438 186.503906 L 231.414062 138.660156 C 231.414062 134.886719 228.285156 131.777344 224.289062 131.585938 L 215.714844 131.171875 C 215.132812 131.148438 214.679688 130.652344 214.710938 130.066406 C 214.738281 129.484375 215.230469 129.039062 215.816406 129.058594 L 224.386719 129.472656 C 229.515625 129.71875 233.53125 133.753906 233.53125 138.664062 L 233.511719 186.503906 C 233.511719 187.089844 233.039062 187.5625 232.457031 187.5625 Z M 232.457031 187.5625 " fill-opacity="1" fill-rule="evenodd"/><path fill="#fefefe" d="M 230.808594 177.050781 L 147.503906 177.050781 C 146.921875 177.050781 146.445312 176.574219 146.445312 175.992188 C 146.449219 175.40625 146.921875 174.933594 147.503906 174.933594 L 230.808594 174.933594 C 231.390625 174.933594 231.867188 175.40625 231.867188 175.992188 C 231.867188 176.574219 231.390625 177.050781 230.808594 177.050781 Z M 230.808594 177.050781 " fill-opacity="1" fill-rule="evenodd"/><path fill="#fefefe" d="M 215.765625 139.945312 C 215.183594 139.945312 214.707031 139.472656 214.707031 138.886719 L 214.707031 102.320312 C 214.707031 101.484375 213.59375 100.753906 212.320312 100.753906 L 167.515625 100.753906 C 166.246094 100.753906 165.128906 101.484375 165.128906 102.324219 L 165.128906 138.820312 C 165.128906 139.402344 164.65625 139.875 164.070312 139.875 C 163.488281 139.875 163.011719 139.402344 163.011719 138.820312 L 163.011719 102.320312 C 163.011719 100.289062 165.035156 98.636719 167.515625 98.636719 L 212.320312 98.636719 C 214.804688 98.636719 216.824219 100.289062 216.824219 102.324219 L 216.824219 138.886719 C 216.824219 139.472656 216.351562 139.945312 215.765625 139.945312 Z M 215.765625 139.945312 " fill-opacity="1" fill-rule="evenodd"/><path fill="#fefefe" d="M 199.511719 130.652344 L 180.324219 130.652344 C 179.738281 130.652344 179.265625 130.179688 179.265625 129.597656 C 179.265625 129.011719 179.738281 128.539062 180.324219 128.539062 L 199.511719 128.539062 C 200.097656 128.539062 200.570312 129.011719 200.570312 129.597656 C 200.570312 130.179688 200.097656 130.652344 199.511719 130.652344 Z M 199.511719 130.652344 " fill-opacity="1" fill-rule="evenodd"/><path fill="#fefefe" d="M 199.511719 122.183594 L 180.324219 122.183594 C 179.738281 122.183594 179.265625 121.710938 179.265625 121.125 C 179.265625 120.542969 179.738281 120.070312 180.324219 120.070312 L 199.511719 120.070312 C 200.097656 120.070312 200.570312 120.542969 200.570312 121.125 C 200.570312 121.710938 200.097656 122.183594 199.511719 122.183594 Z M 199.511719 122.183594 " fill-opacity="1" fill-rule="evenodd"/><path fill="#fefefe" d="M 199.511719 113.714844 L 180.324219 113.714844 C 179.738281 113.714844 179.265625 113.242188 179.265625 112.65625 C 179.265625 112.074219 179.738281 111.601562 180.324219 111.601562 L 199.511719 111.601562 C 200.097656 111.601562 200.570312 112.074219 200.570312 112.65625 C 200.570312 113.242188 200.097656 113.714844 199.511719 113.714844 Z M 199.511719 113.714844 " fill-opacity="1" fill-rule="evenodd"/><path fill="#fefefe" d="M 145.828125 141.488281 C 145.246094 141.488281 144.773438 141.015625 144.773438 140.433594 L 144.773438 138.253906 C 144.773438 133.183594 148.894531 129.0625 153.964844 129.0625 L 164.070312 129.0625 C 164.652344 129.0625 165.128906 129.535156 165.128906 130.117188 C 165.128906 130.703125 164.652344 131.175781 164.070312 131.175781 L 153.964844 131.175781 C 150.0625 131.175781 146.886719 134.351562 146.886719 138.253906 L 146.886719 140.429688 C 146.886719 141.015625 146.414062 141.488281 145.828125 141.488281 Z M 145.828125 141.488281 " fill-opacity="1" fill-rule="evenodd"/><g fill="#ffffff" fill-opacity="1"><g transform="translate(153.339838, 171.674638)"><g><path d="M 27 0 L 20.953125 0 L 20.953125 -12.328125 L 9.65625 -12.328125 L 9.65625 0 L 3.59375 0 L 3.59375 -28.5625 L 9.65625 -28.5625 L 9.65625 -17.359375 L 20.953125 -17.359375 L 20.953125 -28.5625 L 27 -28.5625 Z M 27 0 "/></g></g></g><g fill="#ffffff" fill-opacity="1"><g transform="translate(183.942322, 171.674638)"><g><path d="M 15.6875 0 L 8.8125 -22.40625 L 8.640625 -22.40625 C 8.878906 -17.84375 9 -14.800781 9 -13.28125 L 9 0 L 3.59375 0 L 3.59375 -28.5625 L 11.84375 -28.5625 L 18.59375 -6.71875 L 18.71875 -6.71875 L 25.875 -28.5625 L 34.125 -28.5625 L 34.125 0 L 28.484375 0 L 28.484375 -13.515625 C 28.484375 -14.148438 28.488281 -14.882812 28.5 -15.71875 C 28.519531 -16.550781 28.609375 -18.765625 28.765625 -22.359375 L 28.59375 -22.359375 L 21.234375 0 Z M 15.6875 0 "/></g></g></g><g fill="#000000" fill-opacity="1"><g transform="translate(52.464846, 269.433556)"><g/></g></g><g fill="#000000" fill-opacity="1"><g transform="translate(58.183595, 269.433556)"><g><path d="M 1.984375 0 L 1.984375 -15.703125 L 5.3125 -15.703125 L 5.3125 0 Z M 1.984375 0 "/></g></g></g><g fill="#000000" fill-opacity="1"><g transform="translate(65.465505, 269.433556)"><g><path d="M 5.25 0 L 1.984375 0 L 1.984375 -15.703125 L 10.984375 -15.703125 L 10.984375 -12.984375 L 5.25 -12.984375 L 5.25 -8.921875 L 10.578125 -8.921875 L 10.578125 -6.203125 L 5.25 -6.203125 Z M 5.25 0 "/></g></g></g><g fill="#000000" fill-opacity="1"><g transform="translate(77.537579, 269.433556)"><g><path d="M 11.25 -4.359375 C 11.25 -2.941406 10.738281 -1.820312 9.71875 -1 C 8.695312 -0.1875 7.273438 0.21875 5.453125 0.21875 C 3.773438 0.21875 2.296875 -0.0976562 1.015625 -0.734375 L 1.015625 -3.828125 C 2.066406 -3.347656 2.957031 -3.007812 3.6875 -2.8125 C 4.425781 -2.625 5.101562 -2.53125 5.71875 -2.53125 C 6.445312 -2.53125 7.003906 -2.671875 7.390625 -2.953125 C 7.785156 -3.234375 7.984375 -3.648438 7.984375 -4.203125 C 7.984375 -4.503906 7.894531 -4.773438 7.71875 -5.015625 C 7.550781 -5.253906 7.300781 -5.484375 6.96875 -5.703125 C 6.632812 -5.929688 5.957031 -6.289062 4.9375 -6.78125 C 3.96875 -7.226562 3.242188 -7.660156 2.765625 -8.078125 C 2.285156 -8.492188 1.898438 -8.976562 1.609375 -9.53125 C 1.328125 -10.082031 1.1875 -10.726562 1.1875 -11.46875 C 1.1875 -12.851562 1.65625 -13.941406 2.59375 -14.734375 C 3.539062 -15.535156 4.847656 -15.9375 6.515625 -15.9375 C 7.328125 -15.9375 8.101562 -15.835938 8.84375 -15.640625 C 9.582031 -15.441406 10.359375 -15.171875 11.171875 -14.828125 L 10.09375 -12.234375 C 9.257812 -12.578125 8.566406 -12.816406 8.015625 -12.953125 C 7.472656 -13.085938 6.9375 -13.15625 6.40625 -13.15625 C 5.769531 -13.15625 5.285156 -13.007812 4.953125 -12.71875 C 4.617188 -12.425781 4.453125 -12.039062 4.453125 -11.5625 C 4.453125 -11.269531 4.519531 -11.015625 4.65625 -10.796875 C 4.789062 -10.578125 5.003906 -10.363281 5.296875 -10.15625 C 5.597656 -9.957031 6.300781 -9.59375 7.40625 -9.0625 C 8.875 -8.363281 9.878906 -7.660156 10.421875 -6.953125 C 10.972656 -6.242188 11.25 -5.378906 11.25 -4.359375 Z M 11.25 -4.359375 "/></g></g></g><g fill="#000000" fill-opacity="1"><g transform="translate(89.652614, 269.433556)"><g><path d="M 5.3125 -8.3125 L 6.40625 -8.3125 C 7.425781 -8.3125 8.191406 -8.515625 8.703125 -8.921875 C 9.210938 -9.328125 9.46875 -9.914062 9.46875 -10.6875 C 9.46875 -11.46875 9.253906 -12.046875 8.828125 -12.421875 C 8.398438 -12.796875 7.734375 -12.984375 6.828125 -12.984375 L 5.3125 -12.984375 Z M 12.828125 -10.8125 C 12.828125 -9.113281 12.296875 -7.816406 11.234375 -6.921875 C 10.179688 -6.035156 8.679688 -5.59375 6.734375 -5.59375 L 5.3125 -5.59375 L 5.3125 0 L 1.984375 0 L 1.984375 -15.703125 L 7 -15.703125 C 8.894531 -15.703125 10.335938 -15.289062 11.328125 -14.46875 C 12.328125 -13.65625 12.828125 -12.4375 12.828125 -10.8125 Z M 12.828125 -10.8125 "/></g></g></g><g fill="#000000" fill-opacity="1"><g transform="translate(103.464613, 269.433556)"><g/></g></g><g fill="#000000" fill-opacity="1"><g transform="translate(109.178442, 269.433556)"><g><path d="M 0.65625 -4.5625 L 0.65625 -7.234375 L 6.421875 -7.234375 L 6.421875 -4.5625 Z M 0.65625 -4.5625 "/></g></g></g><g fill="#000000" fill-opacity="1"><g transform="translate(116.256292, 269.433556)"><g/></g></g><g fill="#000000" fill-opacity="1"><g transform="translate(121.970121, 269.433556)"><g><path d="M 8.640625 -13.15625 C 7.390625 -13.15625 6.421875 -12.679688 5.734375 -11.734375 C 5.046875 -10.796875 4.703125 -9.488281 4.703125 -7.8125 C 4.703125 -4.3125 6.015625 -2.5625 8.640625 -2.5625 C 9.742188 -2.5625 11.082031 -2.835938 12.65625 -3.390625 L 12.65625 -0.59375 C 11.363281 -0.0507812 9.925781 0.21875 8.34375 0.21875 C 6.050781 0.21875 4.300781 -0.472656 3.09375 -1.859375 C 1.882812 -3.242188 1.28125 -5.234375 1.28125 -7.828125 C 1.28125 -9.460938 1.578125 -10.894531 2.171875 -12.125 C 2.765625 -13.351562 3.617188 -14.296875 4.734375 -14.953125 C 5.847656 -15.609375 7.148438 -15.9375 8.640625 -15.9375 C 10.171875 -15.9375 11.707031 -15.566406 13.25 -14.828125 L 12.171875 -12.125 C 11.585938 -12.394531 10.992188 -12.632812 10.390625 -12.84375 C 9.796875 -13.050781 9.210938 -13.15625 8.640625 -13.15625 Z M 8.640625 -13.15625 "/></g></g></g><g fill="#000000" fill-opacity="1"><g transform="translate(135.986191, 269.433556)"><g><path d="M 9.34375 0 L 8.71875 -1.640625 L 8.625 -1.640625 C 8.070312 -0.941406 7.503906 -0.457031 6.921875 -0.1875 C 6.335938 0.0820312 5.578125 0.21875 4.640625 0.21875 C 3.484375 0.21875 2.570312 -0.109375 1.90625 -0.765625 C 1.25 -1.429688 0.921875 -2.375 0.921875 -3.59375 C 0.921875 -4.863281 1.363281 -5.800781 2.25 -6.40625 C 3.144531 -7.007812 4.492188 -7.34375 6.296875 -7.40625 L 8.375 -7.484375 L 8.375 -8 C 8.375 -9.21875 7.753906 -9.828125 6.515625 -9.828125 C 5.554688 -9.828125 4.425781 -9.535156 3.125 -8.953125 L 2.046875 -11.171875 C 3.421875 -11.890625 4.953125 -12.25 6.640625 -12.25 C 8.253906 -12.25 9.488281 -11.898438 10.34375 -11.203125 C 11.207031 -10.503906 11.640625 -9.4375 11.640625 -8 L 11.640625 0 Z M 8.375 -5.5625 L 7.109375 -5.515625 C 6.160156 -5.492188 5.453125 -5.320312 4.984375 -5 C 4.515625 -4.6875 4.28125 -4.207031 4.28125 -3.5625 C 4.28125 -2.644531 4.8125 -2.1875 5.875 -2.1875 C 6.632812 -2.1875 7.238281 -2.398438 7.6875 -2.828125 C 8.144531 -3.265625 8.375 -3.847656 8.375 -4.578125 Z M 9.0625 -13.3125 C 7.9375 -13.976562 7.097656 -14.609375 6.546875 -15.203125 C 5.984375 -14.628906 5.160156 -14 4.078125 -13.3125 L 1.90625 -13.3125 L 1.90625 -13.609375 C 3.257812 -14.960938 4.175781 -16.039062 4.65625 -16.84375 L 8.484375 -16.84375 C 8.710938 -16.46875 9.097656 -15.957031 9.640625 -15.3125 C 10.191406 -14.675781 10.722656 -14.109375 11.234375 -13.609375 L 11.234375 -13.3125 Z M 9.0625 -13.3125 "/></g></g></g><g fill="#000000" fill-opacity="1"><g transform="translate(149.271923, 269.433556)"><g><path d="M 12.46875 0 L 9.203125 0 L 9.203125 -7.015625 C 9.203125 -7.878906 9.054688 -8.523438 8.765625 -8.953125 C 8.472656 -9.390625 8.015625 -9.609375 7.390625 -9.609375 C 6.554688 -9.609375 5.945312 -9.300781 5.5625 -8.6875 C 5.1875 -8.070312 5 -7.0625 5 -5.65625 L 5 0 L 1.71875 0 L 1.71875 -12.015625 L 4.21875 -12.015625 L 4.65625 -10.46875 L 4.84375 -10.46875 C 5.164062 -11.019531 5.628906 -11.453125 6.234375 -11.765625 C 6.847656 -12.078125 7.550781 -12.234375 8.34375 -12.234375 C 10.132812 -12.234375 11.347656 -11.644531 11.984375 -10.46875 L 12.28125 -10.46875 C 12.601562 -11.03125 13.078125 -11.460938 13.703125 -11.765625 C 14.328125 -12.078125 15.035156 -12.234375 15.828125 -12.234375 C 17.179688 -12.234375 18.207031 -11.882812 18.90625 -11.1875 C 19.601562 -10.488281 19.953125 -9.367188 19.953125 -7.828125 L 19.953125 0 L 16.671875 0 L 16.671875 -7.015625 C 16.671875 -7.878906 16.523438 -8.523438 16.234375 -8.953125 C 15.941406 -9.390625 15.488281 -9.609375 14.875 -9.609375 C 14.070312 -9.609375 13.46875 -9.320312 13.0625 -8.75 C 12.664062 -8.175781 12.46875 -7.269531 12.46875 -6.03125 Z M 12.46875 0 "/></g></g></g><g fill="#000000" fill-opacity="1"><g transform="translate(170.87063, 269.433556)"><g><path d="M 8.3125 0.21875 C 6.90625 0.21875 5.800781 -0.296875 5 -1.328125 L 4.828125 -1.328125 C 4.941406 -0.316406 5 0.265625 5 0.421875 L 5 5.28125 L 1.71875 5.28125 L 1.71875 -12.015625 L 4.390625 -12.015625 L 4.84375 -10.453125 L 5 -10.453125 C 5.757812 -11.640625 6.894531 -12.234375 8.40625 -12.234375 C 9.820312 -12.234375 10.929688 -11.6875 11.734375 -10.59375 C 12.535156 -9.5 12.9375 -7.976562 12.9375 -6.03125 C 12.9375 -4.75 12.75 -3.632812 12.375 -2.6875 C 12 -1.738281 11.460938 -1.015625 10.765625 -0.515625 C 10.066406 -0.0234375 9.25 0.21875 8.3125 0.21875 Z M 7.34375 -9.609375 C 6.539062 -9.609375 5.953125 -9.359375 5.578125 -8.859375 C 5.203125 -8.367188 5.007812 -7.550781 5 -6.40625 L 5 -6.046875 C 5 -4.753906 5.1875 -3.828125 5.5625 -3.265625 C 5.945312 -2.710938 6.554688 -2.4375 7.390625 -2.4375 C 8.859375 -2.4375 9.59375 -3.644531 9.59375 -6.0625 C 9.59375 -7.25 9.410156 -8.132812 9.046875 -8.71875 C 8.691406 -9.3125 8.125 -9.609375 7.34375 -9.609375 Z M 7.34375 -9.609375 "/></g></g></g><g fill="#000000" fill-opacity="1"><g transform="translate(184.790032, 269.433556)"><g><path d="M 10.234375 0 L 9.78125 -1.53125 L 9.609375 -1.53125 C 9.265625 -0.976562 8.769531 -0.546875 8.125 -0.234375 C 7.476562 0.0664062 6.742188 0.21875 5.921875 0.21875 C 4.503906 0.21875 3.4375 -0.15625 2.71875 -0.90625 C 2.007812 -1.664062 1.65625 -2.753906 1.65625 -4.171875 L 1.65625 -12.015625 L 4.9375 -12.015625 L 4.9375 -5 C 4.9375 -4.132812 5.085938 -3.484375 5.390625 -3.046875 C 5.703125 -2.609375 6.191406 -2.390625 6.859375 -2.390625 C 7.773438 -2.390625 8.4375 -2.695312 8.84375 -3.3125 C 9.257812 -3.925781 9.46875 -4.941406 9.46875 -6.359375 L 9.46875 -12.015625 L 12.734375 -12.015625 L 12.734375 0 Z M 10.234375 0 "/></g></g></g><g fill="#000000" fill-opacity="1"><g transform="translate(199.246449, 269.433556)"><g><path d="M 10.09375 -3.5625 C 10.09375 -2.332031 9.664062 -1.394531 8.8125 -0.75 C 7.957031 -0.101562 6.675781 0.21875 4.96875 0.21875 C 4.09375 0.21875 3.347656 0.15625 2.734375 0.03125 C 2.117188 -0.0820312 1.546875 -0.253906 1.015625 -0.484375 L 1.015625 -3.1875 C 1.617188 -2.90625 2.300781 -2.664062 3.0625 -2.46875 C 3.832031 -2.28125 4.503906 -2.1875 5.078125 -2.1875 C 6.265625 -2.1875 6.859375 -2.53125 6.859375 -3.21875 C 6.859375 -3.46875 6.78125 -3.671875 6.625 -3.828125 C 6.46875 -3.992188 6.195312 -4.175781 5.8125 -4.375 C 5.425781 -4.582031 4.910156 -4.828125 4.265625 -5.109375 C 3.335938 -5.492188 2.65625 -5.847656 2.21875 -6.171875 C 1.789062 -6.503906 1.476562 -6.882812 1.28125 -7.3125 C 1.082031 -7.738281 0.984375 -8.265625 0.984375 -8.890625 C 0.984375 -9.953125 1.394531 -10.773438 2.21875 -11.359375 C 3.050781 -11.941406 4.226562 -12.234375 5.75 -12.234375 C 7.195312 -12.234375 8.601562 -11.921875 9.96875 -11.296875 L 8.984375 -8.921875 C 8.378906 -9.179688 7.816406 -9.394531 7.296875 -9.5625 C 6.773438 -9.726562 6.238281 -9.8125 5.6875 -9.8125 C 4.726562 -9.8125 4.25 -9.550781 4.25 -9.03125 C 4.25 -8.726562 4.398438 -8.46875 4.703125 -8.25 C 5.015625 -8.039062 5.695312 -7.726562 6.75 -7.3125 C 7.695312 -6.925781 8.382812 -6.566406 8.8125 -6.234375 C 9.25 -5.910156 9.570312 -5.53125 9.78125 -5.09375 C 9.988281 -4.664062 10.09375 -4.15625 10.09375 -3.5625 Z M 10.09375 -3.5625 "/></g></g></g><g fill="#000000" fill-opacity="1"><g transform="translate(210.180053, 269.433556)"><g/></g></g><g fill="#000000" fill-opacity="1"><g transform="translate(215.893882, 269.433556)"><g><path d="M 11.25 -4.359375 C 11.25 -2.941406 10.738281 -1.820312 9.71875 -1 C 8.695312 -0.1875 7.273438 0.21875 5.453125 0.21875 C 3.773438 0.21875 2.296875 -0.0976562 1.015625 -0.734375 L 1.015625 -3.828125 C 2.066406 -3.347656 2.957031 -3.007812 3.6875 -2.8125 C 4.425781 -2.625 5.101562 -2.53125 5.71875 -2.53125 C 6.445312 -2.53125 7.003906 -2.671875 7.390625 -2.953125 C 7.785156 -3.234375 7.984375 -3.648438 7.984375 -4.203125 C 7.984375 -4.503906 7.894531 -4.773438 7.71875 -5.015625 C 7.550781 -5.253906 7.300781 -5.484375 6.96875 -5.703125 C 6.632812 -5.929688 5.957031 -6.289062 4.9375 -6.78125 C 3.96875 -7.226562 3.242188 -7.660156 2.765625 -8.078125 C 2.285156 -8.492188 1.898438 -8.976562 1.609375 -9.53125 C 1.328125 -10.082031 1.1875 -10.726562 1.1875 -11.46875 C 1.1875 -12.851562 1.65625 -13.941406 2.59375 -14.734375 C 3.539062 -15.535156 4.847656 -15.9375 6.515625 -15.9375 C 7.328125 -15.9375 8.101562 -15.835938 8.84375 -15.640625 C 9.582031 -15.441406 10.359375 -15.171875 11.171875 -14.828125 L 10.09375 -12.234375 C 9.257812 -12.578125 8.566406 -12.816406 8.015625 -12.953125 C 7.472656 -13.085938 6.9375 -13.15625 6.40625 -13.15625 C 5.769531 -13.15625 5.285156 -13.007812 4.953125 -12.71875 C 4.617188 -12.425781 4.453125 -12.039062 4.453125 -11.5625 C 4.453125 -11.269531 4.519531 -11.015625 4.65625 -10.796875 C 4.789062 -10.578125 5.003906 -10.363281 5.296875 -10.15625 C 5.597656 -9.957031 6.300781 -9.59375 7.40625 -9.0625 C 8.875 -8.363281 9.878906 -7.660156 10.421875 -6.953125 C 10.972656 -6.242188 11.25 -5.378906 11.25 -4.359375 Z M 11.25 -4.359375 "/></g></g></g><g fill="#000000" fill-opacity="1"><g transform="translate(228.008917, 269.433556)"><g><path d="M 9.34375 0 L 8.71875 -1.640625 L 8.625 -1.640625 C 8.070312 -0.941406 7.503906 -0.457031 6.921875 -0.1875 C 6.335938 0.0820312 5.578125 0.21875 4.640625 0.21875 C 3.484375 0.21875 2.570312 -0.109375 1.90625 -0.765625 C 1.25 -1.429688 0.921875 -2.375 0.921875 -3.59375 C 0.921875 -4.863281 1.363281 -5.800781 2.25 -6.40625 C 3.144531 -7.007812 4.492188 -7.34375 6.296875 -7.40625 L 8.375 -7.484375 L 8.375 -8 C 8.375 -9.21875 7.753906 -9.828125 6.515625 -9.828125 C 5.554688 -9.828125 4.425781 -9.535156 3.125 -8.953125 L 2.046875 -11.171875 C 3.421875 -11.890625 4.953125 -12.25 6.640625 -12.25 C 8.253906 -12.25 9.488281 -11.898438 10.34375 -11.203125 C 11.207031 -10.503906 11.640625 -9.4375 11.640625 -8 L 11.640625 0 Z M 8.375 -5.5625 L 7.109375 -5.515625 C 6.160156 -5.492188 5.453125 -5.320312 4.984375 -5 C 4.515625 -4.6875 4.28125 -4.207031 4.28125 -3.5625 C 4.28125 -2.644531 4.8125 -2.1875 5.875 -2.1875 C 6.632812 -2.1875 7.238281 -2.398438 7.6875 -2.828125 C 8.144531 -3.265625 8.375 -3.847656 8.375 -4.578125 Z M 5.015625 -14.453125 C 4.796875 -14.453125 4.582031 -14.359375 4.375 -14.171875 C 4.175781 -13.984375 4.03125 -13.695312 3.9375 -13.3125 L 2.328125 -13.3125 C 2.410156 -14.351562 2.707031 -15.164062 3.21875 -15.75 C 3.726562 -16.332031 4.40625 -16.625 5.25 -16.625 C 5.550781 -16.625 5.84375 -16.566406 6.125 -16.453125 C 6.40625 -16.335938 6.679688 -16.207031 6.953125 -16.0625 C 7.234375 -15.925781 7.503906 -15.800781 7.765625 -15.6875 C 8.035156 -15.570312 8.296875 -15.515625 8.546875 -15.515625 C 8.773438 -15.515625 8.988281 -15.609375 9.1875 -15.796875 C 9.394531 -15.984375 9.546875 -16.269531 9.640625 -16.65625 L 11.234375 -16.65625 C 11.160156 -15.613281 10.863281 -14.796875 10.34375 -14.203125 C 9.820312 -13.617188 9.144531 -13.328125 8.3125 -13.328125 C 8.019531 -13.328125 7.734375 -13.382812 7.453125 -13.5 C 7.171875 -13.625 6.890625 -13.753906 6.609375 -13.890625 C 6.335938 -14.035156 6.066406 -14.164062 5.796875 -14.28125 C 5.535156 -14.394531 5.273438 -14.453125 5.015625 -14.453125 Z M 5.015625 -14.453125 "/></g></g></g><g fill="#000000" fill-opacity="1"><g transform="translate(241.294649, 269.433556)"><g><path d="M 4.328125 -6.03125 C 4.328125 -4.84375 4.519531 -3.941406 4.90625 -3.328125 C 5.300781 -2.722656 5.941406 -2.421875 6.828125 -2.421875 C 7.691406 -2.421875 8.316406 -2.722656 8.703125 -3.328125 C 9.085938 -3.929688 9.28125 -4.832031 9.28125 -6.03125 C 9.28125 -7.21875 9.085938 -8.109375 8.703125 -8.703125 C 8.316406 -9.296875 7.679688 -9.59375 6.796875 -9.59375 C 5.921875 -9.59375 5.289062 -9.296875 4.90625 -8.703125 C 4.519531 -8.117188 4.328125 -7.226562 4.328125 -6.03125 Z M 12.640625 -6.03125 C 12.640625 -4.070312 12.125 -2.539062 11.09375 -1.4375 C 10.0625 -0.332031 8.625 0.21875 6.78125 0.21875 C 5.625 0.21875 4.601562 -0.03125 3.71875 -0.53125 C 2.84375 -1.039062 2.164062 -1.769531 1.6875 -2.71875 C 1.21875 -3.664062 0.984375 -4.769531 0.984375 -6.03125 C 0.984375 -7.988281 1.492188 -9.507812 2.515625 -10.59375 C 3.546875 -11.6875 4.988281 -12.234375 6.84375 -12.234375 C 8 -12.234375 9.015625 -11.984375 9.890625 -11.484375 C 10.773438 -10.984375 11.453125 -10.265625 11.921875 -9.328125 C 12.398438 -8.390625 12.640625 -7.289062 12.640625 -6.03125 Z M 12.640625 -6.03125 "/></g></g></g><g fill="#000000" fill-opacity="1"><g transform="translate(254.913335, 269.433556)"><g/></g></g><g fill="#000000" fill-opacity="1"><g transform="translate(260.627163, 269.433556)"><g><path d="M 5.3125 -8.3125 L 6.40625 -8.3125 C 7.425781 -8.3125 8.191406 -8.515625 8.703125 -8.921875 C 9.210938 -9.328125 9.46875 -9.914062 9.46875 -10.6875 C 9.46875 -11.46875 9.253906 -12.046875 8.828125 -12.421875 C 8.398438 -12.796875 7.734375 -12.984375 6.828125 -12.984375 L 5.3125 -12.984375 Z M 12.828125 -10.8125 C 12.828125 -9.113281 12.296875 -7.816406 11.234375 -6.921875 C 10.179688 -6.035156 8.679688 -5.59375 6.734375 -5.59375 L 5.3125 -5.59375 L 5.3125 0 L 1.984375 0 L 1.984375 -15.703125 L 7 -15.703125 C 8.894531 -15.703125 10.335938 -15.289062 11.328125 -14.46875 C 12.328125 -13.65625 12.828125 -12.4375 12.828125 -10.8125 Z M 12.828125 -10.8125 "/></g></g></g><g fill="#000000" fill-opacity="1"><g transform="translate(274.439151, 269.433556)"><g><path d="M 9.34375 0 L 8.71875 -1.640625 L 8.625 -1.640625 C 8.070312 -0.941406 7.503906 -0.457031 6.921875 -0.1875 C 6.335938 0.0820312 5.578125 0.21875 4.640625 0.21875 C 3.484375 0.21875 2.570312 -0.109375 1.90625 -0.765625 C 1.25 -1.429688 0.921875 -2.375 0.921875 -3.59375 C 0.921875 -4.863281 1.363281 -5.800781 2.25 -6.40625 C 3.144531 -7.007812 4.492188 -7.34375 6.296875 -7.40625 L 8.375 -7.484375 L 8.375 -8 C 8.375 -9.21875 7.753906 -9.828125 6.515625 -9.828125 C 5.554688 -9.828125 4.425781 -9.535156 3.125 -8.953125 L 2.046875 -11.171875 C 3.421875 -11.890625 4.953125 -12.25 6.640625 -12.25 C 8.253906 -12.25 9.488281 -11.898438 10.34375 -11.203125 C 11.207031 -10.503906 11.640625 -9.4375 11.640625 -8 L 11.640625 0 Z M 8.375 -5.5625 L 7.109375 -5.515625 C 6.160156 -5.492188 5.453125 -5.320312 4.984375 -5 C 4.515625 -4.6875 4.28125 -4.207031 4.28125 -3.5625 C 4.28125 -2.644531 4.8125 -2.1875 5.875 -2.1875 C 6.632812 -2.1875 7.238281 -2.398438 7.6875 -2.828125 C 8.144531 -3.265625 8.375 -3.847656 8.375 -4.578125 Z M 8.375 -5.5625 "/></g></g></g><g fill="#000000" fill-opacity="1"><g transform="translate(287.724871, 269.433556)"><g><path d="M 10.234375 0 L 9.78125 -1.53125 L 9.609375 -1.53125 C 9.265625 -0.976562 8.769531 -0.546875 8.125 -0.234375 C 7.476562 0.0664062 6.742188 0.21875 5.921875 0.21875 C 4.503906 0.21875 3.4375 -0.15625 2.71875 -0.90625 C 2.007812 -1.664062 1.65625 -2.753906 1.65625 -4.171875 L 1.65625 -12.015625 L 4.9375 -12.015625 L 4.9375 -5 C 4.9375 -4.132812 5.085938 -3.484375 5.390625 -3.046875 C 5.703125 -2.609375 6.191406 -2.390625 6.859375 -2.390625 C 7.773438 -2.390625 8.4375 -2.695312 8.84375 -3.3125 C 9.257812 -3.925781 9.46875 -4.941406 9.46875 -6.359375 L 9.46875 -12.015625 L 12.734375 -12.015625 L 12.734375 0 Z M 10.234375 0 "/></g></g></g><g fill="#000000" fill-opacity="1"><g transform="translate(302.181276, 269.433556)"><g><path d="M 5 0 L 1.71875 0 L 1.71875 -16.71875 L 5 -16.71875 Z M 5 0 "/></g></g></g><g fill="#000000" fill-opacity="1"><g transform="translate(308.893968, 269.433556)"><g><path d="M 4.328125 -6.03125 C 4.328125 -4.84375 4.519531 -3.941406 4.90625 -3.328125 C 5.300781 -2.722656 5.941406 -2.421875 6.828125 -2.421875 C 7.691406 -2.421875 8.316406 -2.722656 8.703125 -3.328125 C 9.085938 -3.929688 9.28125 -4.832031 9.28125 -6.03125 C 9.28125 -7.21875 9.085938 -8.109375 8.703125 -8.703125 C 8.316406 -9.296875 7.679688 -9.59375 6.796875 -9.59375 C 5.921875 -9.59375 5.289062 -9.296875 4.90625 -8.703125 C 4.519531 -8.117188 4.328125 -7.226562 4.328125 -6.03125 Z M 12.640625 -6.03125 C 12.640625 -4.070312 12.125 -2.539062 11.09375 -1.4375 C 10.0625 -0.332031 8.625 0.21875 6.78125 0.21875 C 5.625 0.21875 4.601562 -0.03125 3.71875 -0.53125 C 2.84375 -1.039062 2.164062 -1.769531 1.6875 -2.71875 C 1.21875 -3.664062 0.984375 -4.769531 0.984375 -6.03125 C 0.984375 -7.988281 1.492188 -9.507812 2.515625 -10.59375 C 3.546875 -11.6875 4.988281 -12.234375 6.84375 -12.234375 C 8 -12.234375 9.015625 -11.984375 9.890625 -11.484375 C 10.773438 -10.984375 11.453125 -10.265625 11.921875 -9.328125 C 12.398438 -8.390625 12.640625 -7.289062 12.640625 -6.03125 Z M 12.640625 -6.03125 "/></g></g></g><g fill="#000000" fill-opacity="1"><g transform="translate(79.136719, 243.083554)"><g/></g></g><g fill="#000000" fill-opacity="1"><g transform="translate(84.855469, 243.083554)"><g><path d="M 14.84375 0 L 11.53125 0 L 11.53125 -6.78125 L 5.3125 -6.78125 L 5.3125 0 L 1.984375 0 L 1.984375 -15.703125 L 5.3125 -15.703125 L 5.3125 -9.546875 L 11.53125 -9.546875 L 11.53125 -15.703125 L 14.84375 -15.703125 Z M 14.84375 0 "/></g></g></g><g fill="#000000" fill-opacity="1"><g transform="translate(101.685492, 243.083554)"><g><path d="M 1.578125 -15.109375 C 1.578125 -16.179688 2.171875 -16.71875 3.359375 -16.71875 C 4.546875 -16.71875 5.140625 -16.179688 5.140625 -15.109375 C 5.140625 -14.609375 4.988281 -14.210938 4.6875 -13.921875 C 4.394531 -13.640625 3.953125 -13.5 3.359375 -13.5 C 2.171875 -13.5 1.578125 -14.035156 1.578125 -15.109375 Z M 5 0 L 1.71875 0 L 1.71875 -12.015625 L 5 -12.015625 Z M 5 0 "/></g></g></g><g fill="#000000" fill-opacity="1"><g transform="translate(108.398173, 243.083554)"><g><path d="M 10.09375 -3.5625 C 10.09375 -2.332031 9.664062 -1.394531 8.8125 -0.75 C 7.957031 -0.101562 6.675781 0.21875 4.96875 0.21875 C 4.09375 0.21875 3.347656 0.15625 2.734375 0.03125 C 2.117188 -0.0820312 1.546875 -0.253906 1.015625 -0.484375 L 1.015625 -3.1875 C 1.617188 -2.90625 2.300781 -2.664062 3.0625 -2.46875 C 3.832031 -2.28125 4.503906 -2.1875 5.078125 -2.1875 C 6.265625 -2.1875 6.859375 -2.53125 6.859375 -3.21875 C 6.859375 -3.46875 6.78125 -3.671875 6.625 -3.828125 C 6.46875 -3.992188 6.195312 -4.175781 5.8125 -4.375 C 5.425781 -4.582031 4.910156 -4.828125 4.265625 -5.109375 C 3.335938 -5.492188 2.65625 -5.847656 2.21875 -6.171875 C 1.789062 -6.503906 1.476562 -6.882812 1.28125 -7.3125 C 1.082031 -7.738281 0.984375 -8.265625 0.984375 -8.890625 C 0.984375 -9.953125 1.394531 -10.773438 2.21875 -11.359375 C 3.050781 -11.941406 4.226562 -12.234375 5.75 -12.234375 C 7.195312 -12.234375 8.601562 -11.921875 9.96875 -11.296875 L 8.984375 -8.921875 C 8.378906 -9.179688 7.816406 -9.394531 7.296875 -9.5625 C 6.773438 -9.726562 6.238281 -9.8125 5.6875 -9.8125 C 4.726562 -9.8125 4.25 -9.550781 4.25 -9.03125 C 4.25 -8.726562 4.398438 -8.46875 4.703125 -8.25 C 5.015625 -8.039062 5.695312 -7.726562 6.75 -7.3125 C 7.695312 -6.925781 8.382812 -6.566406 8.8125 -6.234375 C 9.25 -5.910156 9.570312 -5.53125 9.78125 -5.09375 C 9.988281 -4.664062 10.09375 -4.15625 10.09375 -3.5625 Z M 10.09375 -3.5625 "/></g></g></g><g fill="#000000" fill-opacity="1"><g transform="translate(119.331777, 243.083554)"><g><path d="M 6.78125 -2.390625 C 7.351562 -2.390625 8.039062 -2.515625 8.84375 -2.765625 L 8.84375 -0.328125 C 8.019531 0.0351562 7.015625 0.21875 5.828125 0.21875 C 4.523438 0.21875 3.570312 -0.109375 2.96875 -0.765625 C 2.375 -1.429688 2.078125 -2.429688 2.078125 -3.765625 L 2.078125 -9.546875 L 0.5 -9.546875 L 0.5 -10.9375 L 2.3125 -12.03125 L 3.25 -14.5625 L 5.34375 -14.5625 L 5.34375 -12.015625 L 8.71875 -12.015625 L 8.71875 -9.546875 L 5.34375 -9.546875 L 5.34375 -3.765625 C 5.34375 -3.296875 5.472656 -2.945312 5.734375 -2.71875 C 6.003906 -2.5 6.351562 -2.390625 6.78125 -2.390625 Z M 6.78125 -2.390625 "/></g></g></g><g fill="#000000" fill-opacity="1"><g transform="translate(128.879891, 243.083554)"><g><path d="M 4.328125 -6.03125 C 4.328125 -4.84375 4.519531 -3.941406 4.90625 -3.328125 C 5.300781 -2.722656 5.941406 -2.421875 6.828125 -2.421875 C 7.691406 -2.421875 8.316406 -2.722656 8.703125 -3.328125 C 9.085938 -3.929688 9.28125 -4.832031 9.28125 -6.03125 C 9.28125 -7.21875 9.085938 -8.109375 8.703125 -8.703125 C 8.316406 -9.296875 7.679688 -9.59375 6.796875 -9.59375 C 5.921875 -9.59375 5.289062 -9.296875 4.90625 -8.703125 C 4.519531 -8.117188 4.328125 -7.226562 4.328125 -6.03125 Z M 12.640625 -6.03125 C 12.640625 -4.070312 12.125 -2.539062 11.09375 -1.4375 C 10.0625 -0.332031 8.625 0.21875 6.78125 0.21875 C 5.625 0.21875 4.601562 -0.03125 3.71875 -0.53125 C 2.84375 -1.039062 2.164062 -1.769531 1.6875 -2.71875 C 1.21875 -3.664062 0.984375 -4.769531 0.984375 -6.03125 C 0.984375 -7.988281 1.492188 -9.507812 2.515625 -10.59375 C 3.546875 -11.6875 4.988281 -12.234375 6.84375 -12.234375 C 8 -12.234375 9.015625 -11.984375 9.890625 -11.484375 C 10.773438 -10.984375 11.453125 -10.265625 11.921875 -9.328125 C 12.398438 -8.390625 12.640625 -7.289062 12.640625 -6.03125 Z M 5.015625 -13.328125 L 5.015625 -13.625 C 6.253906 -15.050781 7.097656 -16.128906 7.546875 -16.859375 L 11.21875 -16.859375 L 11.21875 -16.625 C 10.84375 -16.257812 10.207031 -15.707031 9.3125 -14.96875 C 8.414062 -14.238281 7.710938 -13.691406 7.203125 -13.328125 Z M 5.015625 -13.328125 "/></g></g></g><g fill="#000000" fill-opacity="1"><g transform="translate(142.498566, 243.083554)"><g><path d="M 8.421875 -12.234375 C 8.867188 -12.234375 9.238281 -12.203125 9.53125 -12.140625 L 9.28125 -9.0625 C 9.019531 -9.132812 8.695312 -9.171875 8.3125 -9.171875 C 7.269531 -9.171875 6.457031 -8.898438 5.875 -8.359375 C 5.289062 -7.828125 5 -7.078125 5 -6.109375 L 5 0 L 1.71875 0 L 1.71875 -12.015625 L 4.203125 -12.015625 L 4.6875 -9.984375 L 4.84375 -9.984375 C 5.21875 -10.660156 5.722656 -11.203125 6.359375 -11.609375 C 6.992188 -12.023438 7.679688 -12.234375 8.421875 -12.234375 Z M 8.421875 -12.234375 "/></g></g></g><g fill="#000000" fill-opacity="1"><g transform="translate(152.487026, 243.083554)"><g><path d="M 1.578125 -15.109375 C 1.578125 -16.179688 2.171875 -16.71875 3.359375 -16.71875 C 4.546875 -16.71875 5.140625 -16.179688 5.140625 -15.109375 C 5.140625 -14.609375 4.988281 -14.210938 4.6875 -13.921875 C 4.394531 -13.640625 3.953125 -13.5 3.359375 -13.5 C 2.171875 -13.5 1.578125 -14.035156 1.578125 -15.109375 Z M 5 0 L 1.71875 0 L 1.71875 -12.015625 L 5 -12.015625 Z M 5 0 "/></g></g></g><g fill="#000000" fill-opacity="1"><g transform="translate(159.199706, 243.083554)"><g><path d="M 9.34375 0 L 8.71875 -1.640625 L 8.625 -1.640625 C 8.070312 -0.941406 7.503906 -0.457031 6.921875 -0.1875 C 6.335938 0.0820312 5.578125 0.21875 4.640625 0.21875 C 3.484375 0.21875 2.570312 -0.109375 1.90625 -0.765625 C 1.25 -1.429688 0.921875 -2.375 0.921875 -3.59375 C 0.921875 -4.863281 1.363281 -5.800781 2.25 -6.40625 C 3.144531 -7.007812 4.492188 -7.34375 6.296875 -7.40625 L 8.375 -7.484375 L 8.375 -8 C 8.375 -9.21875 7.753906 -9.828125 6.515625 -9.828125 C 5.554688 -9.828125 4.425781 -9.535156 3.125 -8.953125 L 2.046875 -11.171875 C 3.421875 -11.890625 4.953125 -12.25 6.640625 -12.25 C 8.253906 -12.25 9.488281 -11.898438 10.34375 -11.203125 C 11.207031 -10.503906 11.640625 -9.4375 11.640625 -8 L 11.640625 0 Z M 8.375 -5.5625 L 7.109375 -5.515625 C 6.160156 -5.492188 5.453125 -5.320312 4.984375 -5 C 4.515625 -4.6875 4.28125 -4.207031 4.28125 -3.5625 C 4.28125 -2.644531 4.8125 -2.1875 5.875 -2.1875 C 6.632812 -2.1875 7.238281 -2.398438 7.6875 -2.828125 C 8.144531 -3.265625 8.375 -3.847656 8.375 -4.578125 Z M 8.375 -5.5625 "/></g></g></g><g fill="#000000" fill-opacity="1"><g transform="translate(172.485438, 243.083554)"><g/></g></g><g fill="#000000" fill-opacity="1"><g transform="translate(178.199267, 243.083554)"><g><path d="M 6.6875 -9.90625 C 6 -9.90625 5.457031 -9.679688 5.0625 -9.234375 C 4.664062 -8.796875 4.441406 -8.175781 4.390625 -7.375 L 8.984375 -7.375 C 8.960938 -8.175781 8.75 -8.796875 8.34375 -9.234375 C 7.9375 -9.679688 7.382812 -9.90625 6.6875 -9.90625 Z M 7.15625 0.21875 C 5.21875 0.21875 3.703125 -0.3125 2.609375 -1.375 C 1.523438 -2.445312 0.984375 -3.960938 0.984375 -5.921875 C 0.984375 -7.929688 1.484375 -9.484375 2.484375 -10.578125 C 3.492188 -11.679688 4.890625 -12.234375 6.671875 -12.234375 C 8.367188 -12.234375 9.6875 -11.75 10.625 -10.78125 C 11.570312 -9.8125 12.046875 -8.476562 12.046875 -6.78125 L 12.046875 -5.1875 L 4.3125 -5.1875 C 4.34375 -4.257812 4.613281 -3.53125 5.125 -3 C 5.644531 -2.476562 6.375 -2.21875 7.3125 -2.21875 C 8.03125 -2.21875 8.710938 -2.289062 9.359375 -2.4375 C 10.003906 -2.59375 10.675781 -2.835938 11.375 -3.171875 L 11.375 -0.640625 C 10.800781 -0.347656 10.1875 -0.132812 9.53125 0 C 8.882812 0.144531 8.09375 0.21875 7.15625 0.21875 Z M 7.15625 0.21875 "/></g></g></g><g fill="#000000" fill-opacity="1"><g transform="translate(191.195005, 243.083554)"><g/></g></g><g fill="#000000" fill-opacity="1"><g transform="translate(196.908833, 243.083554)"><g><path d="M 8.625 0 L 4.84375 -12.328125 L 4.75 -12.328125 C 4.882812 -9.816406 4.953125 -8.144531 4.953125 -7.3125 L 4.953125 0 L 1.984375 0 L 1.984375 -15.703125 L 6.515625 -15.703125 L 10.234375 -3.703125 L 10.296875 -3.703125 L 14.234375 -15.703125 L 18.765625 -15.703125 L 18.765625 0 L 15.65625 0 L 15.65625 -7.4375 C 15.65625 -7.78125 15.660156 -8.179688 15.671875 -8.640625 C 15.679688 -9.097656 15.734375 -10.316406 15.828125 -12.296875 L 15.734375 -12.296875 L 11.671875 0 Z M 8.625 0 "/></g></g></g><g fill="#000000" fill-opacity="1"><g transform="translate(217.648319, 243.083554)"><g><path d="M 6.6875 -9.90625 C 6 -9.90625 5.457031 -9.679688 5.0625 -9.234375 C 4.664062 -8.796875 4.441406 -8.175781 4.390625 -7.375 L 8.984375 -7.375 C 8.960938 -8.175781 8.75 -8.796875 8.34375 -9.234375 C 7.9375 -9.679688 7.382812 -9.90625 6.6875 -9.90625 Z M 7.15625 0.21875 C 5.21875 0.21875 3.703125 -0.3125 2.609375 -1.375 C 1.523438 -2.445312 0.984375 -3.960938 0.984375 -5.921875 C 0.984375 -7.929688 1.484375 -9.484375 2.484375 -10.578125 C 3.492188 -11.679688 4.890625 -12.234375 6.671875 -12.234375 C 8.367188 -12.234375 9.6875 -11.75 10.625 -10.78125 C 11.570312 -9.8125 12.046875 -8.476562 12.046875 -6.78125 L 12.046875 -5.1875 L 4.3125 -5.1875 C 4.34375 -4.257812 4.613281 -3.53125 5.125 -3 C 5.644531 -2.476562 6.375 -2.21875 7.3125 -2.21875 C 8.03125 -2.21875 8.710938 -2.289062 9.359375 -2.4375 C 10.003906 -2.59375 10.675781 -2.835938 11.375 -3.171875 L 11.375 -0.640625 C 10.800781 -0.347656 10.1875 -0.132812 9.53125 0 C 8.882812 0.144531 8.09375 0.21875 7.15625 0.21875 Z M 7.15625 0.21875 "/></g></g></g><g fill="#000000" fill-opacity="1"><g transform="translate(230.644057, 243.083554)"><g><path d="M 12.46875 0 L 9.203125 0 L 9.203125 -7.015625 C 9.203125 -7.878906 9.054688 -8.523438 8.765625 -8.953125 C 8.472656 -9.390625 8.015625 -9.609375 7.390625 -9.609375 C 6.554688 -9.609375 5.945312 -9.300781 5.5625 -8.6875 C 5.1875 -8.070312 5 -7.0625 5 -5.65625 L 5 0 L 1.71875 0 L 1.71875 -12.015625 L 4.21875 -12.015625 L 4.65625 -10.46875 L 4.84375 -10.46875 C 5.164062 -11.019531 5.628906 -11.453125 6.234375 -11.765625 C 6.847656 -12.078125 7.550781 -12.234375 8.34375 -12.234375 C 10.132812 -12.234375 11.347656 -11.644531 11.984375 -10.46875 L 12.28125 -10.46875 C 12.601562 -11.03125 13.078125 -11.460938 13.703125 -11.765625 C 14.328125 -12.078125 15.035156 -12.234375 15.828125 -12.234375 C 17.179688 -12.234375 18.207031 -11.882812 18.90625 -11.1875 C 19.601562 -10.488281 19.953125 -9.367188 19.953125 -7.828125 L 19.953125 0 L 16.671875 0 L 16.671875 -7.015625 C 16.671875 -7.878906 16.523438 -8.523438 16.234375 -8.953125 C 15.941406 -9.390625 15.488281 -9.609375 14.875 -9.609375 C 14.070312 -9.609375 13.46875 -9.320312 13.0625 -8.75 C 12.664062 -8.175781 12.46875 -7.269531 12.46875 -6.03125 Z M 12.46875 0 "/></g></g></g><g fill="#000000" fill-opacity="1"><g transform="translate(252.242765, 243.083554)"><g><path d="M 4.328125 -6.03125 C 4.328125 -4.84375 4.519531 -3.941406 4.90625 -3.328125 C 5.300781 -2.722656 5.941406 -2.421875 6.828125 -2.421875 C 7.691406 -2.421875 8.316406 -2.722656 8.703125 -3.328125 C 9.085938 -3.929688 9.28125 -4.832031 9.28125 -6.03125 C 9.28125 -7.21875 9.085938 -8.109375 8.703125 -8.703125 C 8.316406 -9.296875 7.679688 -9.59375 6.796875 -9.59375 C 5.921875 -9.59375 5.289062 -9.296875 4.90625 -8.703125 C 4.519531 -8.117188 4.328125 -7.226562 4.328125 -6.03125 Z M 12.640625 -6.03125 C 12.640625 -4.070312 12.125 -2.539062 11.09375 -1.4375 C 10.0625 -0.332031 8.625 0.21875 6.78125 0.21875 C 5.625 0.21875 4.601562 -0.03125 3.71875 -0.53125 C 2.84375 -1.039062 2.164062 -1.769531 1.6875 -2.71875 C 1.21875 -3.664062 0.984375 -4.769531 0.984375 -6.03125 C 0.984375 -7.988281 1.492188 -9.507812 2.515625 -10.59375 C 3.546875 -11.6875 4.988281 -12.234375 6.84375 -12.234375 C 8 -12.234375 9.015625 -11.984375 9.890625 -11.484375 C 10.773438 -10.984375 11.453125 -10.265625 11.921875 -9.328125 C 12.398438 -8.390625 12.640625 -7.289062 12.640625 -6.03125 Z M 5.015625 -13.328125 L 5.015625 -13.625 C 6.253906 -15.050781 7.097656 -16.128906 7.546875 -16.859375 L 11.21875 -16.859375 L 11.21875 -16.625 C 10.84375 -16.257812 10.207031 -15.707031 9.3125 -14.96875 C 8.414062 -14.238281 7.710938 -13.691406 7.203125 -13.328125 Z M 5.015625 -13.328125 "/></g></g></g><g fill="#000000" fill-opacity="1"><g transform="translate(265.861439, 243.083554)"><g><path d="M 8.421875 -12.234375 C 8.867188 -12.234375 9.238281 -12.203125 9.53125 -12.140625 L 9.28125 -9.0625 C 9.019531 -9.132812 8.695312 -9.171875 8.3125 -9.171875 C 7.269531 -9.171875 6.457031 -8.898438 5.875 -8.359375 C 5.289062 -7.828125 5 -7.078125 5 -6.109375 L 5 0 L 1.71875 0 L 1.71875 -12.015625 L 4.203125 -12.015625 L 4.6875 -9.984375 L 4.84375 -9.984375 C 5.21875 -10.660156 5.722656 -11.203125 6.359375 -11.609375 C 6.992188 -12.023438 7.679688 -12.234375 8.421875 -12.234375 Z M 8.421875 -12.234375 "/></g></g></g><g fill="#000000" fill-opacity="1"><g transform="translate(275.849899, 243.083554)"><g><path d="M 1.578125 -15.109375 C 1.578125 -16.179688 2.171875 -16.71875 3.359375 -16.71875 C 4.546875 -16.71875 5.140625 -16.179688 5.140625 -15.109375 C 5.140625 -14.609375 4.988281 -14.210938 4.6875 -13.921875 C 4.394531 -13.640625 3.953125 -13.5 3.359375 -13.5 C 2.171875 -13.5 1.578125 -14.035156 1.578125 -15.109375 Z M 5 0 L 1.71875 0 L 1.71875 -12.015625 L 5 -12.015625 Z M 5 0 "/></g></g></g><g fill="#000000" fill-opacity="1"><g transform="translate(282.56258, 243.083554)"><g><path d="M 9.34375 0 L 8.71875 -1.640625 L 8.625 -1.640625 C 8.070312 -0.941406 7.503906 -0.457031 6.921875 -0.1875 C 6.335938 0.0820312 5.578125 0.21875 4.640625 0.21875 C 3.484375 0.21875 2.570312 -0.109375 1.90625 -0.765625 C 1.25 -1.429688 0.921875 -2.375 0.921875 -3.59375 C 0.921875 -4.863281 1.363281 -5.800781 2.25 -6.40625 C 3.144531 -7.007812 4.492188 -7.34375 6.296875 -7.40625 L 8.375 -7.484375 L 8.375 -8 C 8.375 -9.21875 7.753906 -9.828125 6.515625 -9.828125 C 5.554688 -9.828125 4.425781 -9.535156 3.125 -8.953125 L 2.046875 -11.171875 C 3.421875 -11.890625 4.953125 -12.25 6.640625 -12.25 C 8.253906 -12.25 9.488281 -11.898438 10.34375 -11.203125 C 11.207031 -10.503906 11.640625 -9.4375 11.640625 -8 L 11.640625 0 Z M 8.375 -5.5625 L 7.109375 -5.515625 C 6.160156 -5.492188 5.453125 -5.320312 4.984375 -5 C 4.515625 -4.6875 4.28125 -4.207031 4.28125 -3.5625 C 4.28125 -2.644531 4.8125 -2.1875 5.875 -2.1875 C 6.632812 -2.1875 7.238281 -2.398438 7.6875 -2.828125 C 8.144531 -3.265625 8.375 -3.847656 8.375 -4.578125 Z M 8.375 -5.5625 "/></g></g></g></svg>