<svg xmlns="http://www.w3.org/2000/svg" xmlns:xlink="http://www.w3.org/1999/xlink" width="540" zoomAndPan="magnify" viewBox="0 0 404.88 149.999998" height="200" preserveAspectRatio="xMidYMid meet" version="1.0"><defs><g/></defs><g fill="#ffffff" fill-opacity="1"><g transform="translate(127.462217, 56.303086)"><g><path d="M 1.15625 0 L 1.15625 -9.84375 L 3.359375 -9.84375 L 3.3125 -5.9375 L 6.5625 -5.9375 L 6.53125 -9.84375 L 8.71875 -9.84375 L 8.71875 0 L 6.53125 0 L 6.5625 -4.0625 L 3.3125 -4.0625 L 3.359375 0 Z M 1.15625 0 "/></g></g></g><g fill="#ffffff" fill-opacity="1"><g transform="translate(137.344507, 56.303086)"><g><path d="M 3.34375 0 L 1.171875 0 L 1.171875 -8.234375 L 3.34375 -8.234375 Z M 3.484375 -9.203125 L 1.03125 -9.203125 L 1.03125 -10.65625 L 3.484375 -10.65625 Z M 3.484375 -9.203125 "/></g></g></g><g fill="#ffffff" fill-opacity="1"><g transform="translate(141.865724, 56.303086)"><g><path d="M 3.625 -6.671875 C 3.269531 -6.671875 3.035156 -6.625 2.921875 -6.53125 C 2.816406 -6.445312 2.765625 -6.316406 2.765625 -6.140625 C 2.765625 -5.960938 2.84375 -5.804688 3 -5.671875 C 3.164062 -5.535156 3.328125 -5.4375 3.484375 -5.375 C 3.640625 -5.320312 3.820312 -5.265625 4.03125 -5.203125 C 4.25 -5.140625 4.5625 -5.046875 4.96875 -4.921875 C 5.382812 -4.804688 5.71875 -4.679688 5.96875 -4.546875 C 6.6875 -4.148438 7.046875 -3.507812 7.046875 -2.625 C 7.046875 -1.738281 6.773438 -1.046875 6.234375 -0.546875 C 5.691406 -0.0546875 4.929688 0.1875 3.953125 0.1875 C 3.429688 0.1875 2.890625 0.117188 2.328125 -0.015625 C 1.773438 -0.148438 1.34375 -0.285156 1.03125 -0.421875 L 0.59375 -0.625 L 1.125 -2.34375 C 2.300781 -1.832031 3.269531 -1.578125 4.03125 -1.578125 C 4.320312 -1.578125 4.535156 -1.628906 4.671875 -1.734375 C 4.816406 -1.835938 4.890625 -2.023438 4.890625 -2.296875 C 4.890625 -2.460938 4.859375 -2.582031 4.796875 -2.65625 C 4.742188 -2.726562 4.695312 -2.785156 4.65625 -2.828125 C 4.625 -2.867188 4.566406 -2.910156 4.484375 -2.953125 C 4.410156 -3.003906 4.347656 -3.039062 4.296875 -3.0625 C 4.253906 -3.082031 4.179688 -3.109375 4.078125 -3.140625 C 3.972656 -3.179688 3.890625 -3.210938 3.828125 -3.234375 C 3.773438 -3.253906 3.679688 -3.28125 3.546875 -3.3125 C 3.421875 -3.351562 3.273438 -3.398438 3.109375 -3.453125 C 2.953125 -3.503906 2.832031 -3.539062 2.75 -3.5625 C 2.664062 -3.59375 2.5 -3.65625 2.25 -3.75 C 2 -3.84375 1.820312 -3.925781 1.71875 -4 C 1.625 -4.070312 1.488281 -4.175781 1.3125 -4.3125 C 1.144531 -4.445312 1.023438 -4.585938 0.953125 -4.734375 C 0.753906 -5.140625 0.65625 -5.550781 0.65625 -5.96875 C 0.65625 -6.726562 0.910156 -7.320312 1.421875 -7.75 C 1.941406 -8.1875 2.710938 -8.40625 3.734375 -8.40625 C 4.753906 -8.40625 5.738281 -8.25 6.6875 -7.9375 L 6.375 -6.265625 C 5.300781 -6.535156 4.382812 -6.671875 3.625 -6.671875 Z M 3.625 -6.671875 "/></g></g></g><g fill="#ffffff" fill-opacity="1"><g transform="translate(149.382425, 56.303086)"><g><path d="M 3.46875 -7.828125 L 5.15625 -7.828125 L 5.15625 -6.15625 L 3.4375 -6.15625 L 3.4375 -2.703125 C 3.4375 -2.253906 3.476562 -1.96875 3.5625 -1.84375 C 3.65625 -1.726562 3.816406 -1.671875 4.046875 -1.671875 L 5.125 -1.734375 L 5.125 0.03125 C 4.664062 0.132812 4.160156 0.1875 3.609375 0.1875 C 2.796875 0.1875 2.203125 -0.015625 1.828125 -0.421875 C 1.460938 -0.828125 1.28125 -1.609375 1.28125 -2.765625 L 1.28125 -6.203125 L 0.328125 -6.203125 L 0.328125 -7.5625 L 1.375 -7.75 L 1.6875 -9.703125 L 3.46875 -9.703125 Z M 3.46875 -7.828125 "/></g></g></g><g fill="#ffffff" fill-opacity="1"><g transform="translate(154.981457, 56.303086)"><g><path d="M 1.5 -7.3125 C 2.0625 -8.039062 2.992188 -8.40625 4.296875 -8.40625 C 5.609375 -8.40625 6.535156 -8.039062 7.078125 -7.3125 C 7.617188 -6.59375 7.890625 -5.523438 7.890625 -4.109375 C 7.890625 -2.703125 7.617188 -1.632812 7.078125 -0.90625 C 6.535156 -0.175781 5.609375 0.1875 4.296875 0.1875 C 2.992188 0.1875 2.0625 -0.175781 1.5 -0.90625 C 0.945312 -1.644531 0.671875 -2.710938 0.671875 -4.109375 C 0.671875 -5.515625 0.945312 -6.582031 1.5 -7.3125 Z M 5.6875 -4.109375 C 5.6875 -5.179688 5.585938 -5.890625 5.390625 -6.234375 C 5.203125 -6.585938 4.832031 -6.765625 4.28125 -6.765625 C 3.738281 -6.765625 3.367188 -6.585938 3.171875 -6.234375 C 2.984375 -5.878906 2.890625 -5.171875 2.890625 -4.109375 C 2.890625 -3.054688 2.984375 -2.351562 3.171875 -2 C 3.367188 -1.644531 3.738281 -1.46875 4.28125 -1.46875 C 4.832031 -1.46875 5.203125 -1.640625 5.390625 -1.984375 C 5.585938 -2.335938 5.6875 -3.046875 5.6875 -4.109375 Z M 6.1875 -11.421875 L 6.625 -9.859375 L 2.390625 -9.046875 L 2.09375 -10.203125 Z M 6.1875 -11.421875 "/></g></g></g><g fill="#ffffff" fill-opacity="1"><g transform="translate(163.547974, 56.303086)"><g><path d="M 3.1875 -7.640625 C 3.34375 -7.765625 3.617188 -7.921875 4.015625 -8.109375 C 4.410156 -8.304688 4.78125 -8.40625 5.125 -8.40625 C 5.476562 -8.40625 5.757812 -8.359375 5.96875 -8.265625 L 5.796875 -6.390625 C 5.535156 -6.410156 5.28125 -6.421875 5.03125 -6.421875 C 4.40625 -6.421875 3.820312 -6.253906 3.28125 -5.921875 L 3.28125 0 L 1.109375 0 L 1.109375 -8.234375 L 2.453125 -8.234375 L 2.734375 -7.359375 L 2.8125 -7.359375 C 2.90625 -7.429688 3.03125 -7.523438 3.1875 -7.640625 Z M 3.1875 -7.640625 "/></g></g></g><g fill="#ffffff" fill-opacity="1"><g transform="translate(169.566931, 56.303086)"><g><path d="M 3.34375 0 L 1.171875 0 L 1.171875 -8.234375 L 3.34375 -8.234375 Z M 3.484375 -9.203125 L 1.03125 -9.203125 L 1.03125 -10.65625 L 3.484375 -10.65625 Z M 3.484375 -9.203125 "/></g></g></g><g fill="#ffffff" fill-opacity="1"><g transform="translate(174.088147, 56.303086)"><g><path d="M 3.109375 0.1875 C 2.421875 0.1875 1.847656 -0.0507812 1.390625 -0.53125 C 0.941406 -1.007812 0.71875 -1.703125 0.71875 -2.609375 C 0.71875 -3.515625 1.035156 -4.171875 1.671875 -4.578125 C 2.304688 -4.984375 3.238281 -5.1875 4.46875 -5.1875 L 5.515625 -5.1875 C 5.515625 -5.8125 5.453125 -6.210938 5.328125 -6.390625 C 5.210938 -6.578125 4.941406 -6.671875 4.515625 -6.671875 C 4.085938 -6.671875 3.613281 -6.625 3.09375 -6.53125 C 2.582031 -6.4375 2.007812 -6.300781 1.375 -6.125 L 0.921875 -7.6875 C 1.304688 -7.863281 1.851562 -8.023438 2.5625 -8.171875 C 3.28125 -8.328125 3.921875 -8.40625 4.484375 -8.40625 C 5.628906 -8.40625 6.445312 -8.140625 6.9375 -7.609375 C 7.4375 -7.085938 7.6875 -6.320312 7.6875 -5.3125 L 7.6875 0 L 6.3125 0 L 6.03125 -0.90625 L 5.953125 -0.90625 C 5.835938 -0.820312 5.6875 -0.71875 5.5 -0.59375 C 5.320312 -0.476562 4.976562 -0.316406 4.46875 -0.109375 C 3.96875 0.0859375 3.515625 0.1875 3.109375 0.1875 Z M 5.515625 -3.578125 C 5.191406 -3.628906 4.753906 -3.65625 4.203125 -3.65625 C 3.660156 -3.65625 3.3125 -3.582031 3.15625 -3.4375 C 3 -3.300781 2.921875 -3.035156 2.921875 -2.640625 C 2.921875 -2.253906 2.984375 -1.984375 3.109375 -1.828125 C 3.234375 -1.671875 3.429688 -1.59375 3.703125 -1.59375 C 4.179688 -1.59375 4.691406 -1.722656 5.234375 -1.984375 L 5.515625 -2.125 Z M 5.515625 -3.578125 "/></g></g></g><g fill="#ffffff" fill-opacity="1"><g transform="translate(182.794639, 56.303086)"><g><path d="M 3.625 -6.671875 C 3.269531 -6.671875 3.035156 -6.625 2.921875 -6.53125 C 2.816406 -6.445312 2.765625 -6.316406 2.765625 -6.140625 C 2.765625 -5.960938 2.84375 -5.804688 3 -5.671875 C 3.164062 -5.535156 3.328125 -5.4375 3.484375 -5.375 C 3.640625 -5.320312 3.820312 -5.265625 4.03125 -5.203125 C 4.25 -5.140625 4.5625 -5.046875 4.96875 -4.921875 C 5.382812 -4.804688 5.71875 -4.679688 5.96875 -4.546875 C 6.6875 -4.148438 7.046875 -3.507812 7.046875 -2.625 C 7.046875 -1.738281 6.773438 -1.046875 6.234375 -0.546875 C 5.691406 -0.0546875 4.929688 0.1875 3.953125 0.1875 C 3.429688 0.1875 2.890625 0.117188 2.328125 -0.015625 C 1.773438 -0.148438 1.34375 -0.285156 1.03125 -0.421875 L 0.59375 -0.625 L 1.125 -2.34375 C 2.300781 -1.832031 3.269531 -1.578125 4.03125 -1.578125 C 4.320312 -1.578125 4.535156 -1.628906 4.671875 -1.734375 C 4.816406 -1.835938 4.890625 -2.023438 4.890625 -2.296875 C 4.890625 -2.460938 4.859375 -2.582031 4.796875 -2.65625 C 4.742188 -2.726562 4.695312 -2.785156 4.65625 -2.828125 C 4.625 -2.867188 4.566406 -2.910156 4.484375 -2.953125 C 4.410156 -3.003906 4.347656 -3.039062 4.296875 -3.0625 C 4.253906 -3.082031 4.179688 -3.109375 4.078125 -3.140625 C 3.972656 -3.179688 3.890625 -3.210938 3.828125 -3.234375 C 3.773438 -3.253906 3.679688 -3.28125 3.546875 -3.3125 C 3.421875 -3.351562 3.273438 -3.398438 3.109375 -3.453125 C 2.953125 -3.503906 2.832031 -3.539062 2.75 -3.5625 C 2.664062 -3.59375 2.5 -3.65625 2.25 -3.75 C 2 -3.84375 1.820312 -3.925781 1.71875 -4 C 1.625 -4.070312 1.488281 -4.175781 1.3125 -4.3125 C 1.144531 -4.445312 1.023438 -4.585938 0.953125 -4.734375 C 0.753906 -5.140625 0.65625 -5.550781 0.65625 -5.96875 C 0.65625 -6.726562 0.910156 -7.320312 1.421875 -7.75 C 1.941406 -8.1875 2.710938 -8.40625 3.734375 -8.40625 C 4.753906 -8.40625 5.738281 -8.25 6.6875 -7.9375 L 6.375 -6.265625 C 5.300781 -6.535156 4.382812 -6.671875 3.625 -6.671875 Z M 3.625 -6.671875 "/></g></g></g><g fill="#ffffff" fill-opacity="1"><g transform="translate(190.31134, 56.303086)"><g/></g></g><g fill="#ffffff" fill-opacity="1"><g transform="translate(193.670758, 56.303086)"><g><path d="M 6.984375 -1.09375 C 6.035156 -0.238281 5 0.1875 3.875 0.1875 C 2.75 0.1875 1.859375 -0.113281 1.203125 -0.71875 C 0.554688 -1.332031 0.234375 -2.03125 0.234375 -2.8125 C 0.234375 -3.945312 0.832031 -4.816406 2.03125 -5.421875 C 1.3125 -5.992188 0.953125 -6.660156 0.953125 -7.421875 C 0.953125 -8.179688 1.226562 -8.804688 1.78125 -9.296875 C 2.332031 -9.785156 3.101562 -10.03125 4.09375 -10.03125 C 5.082031 -10.03125 5.832031 -9.78125 6.34375 -9.28125 C 6.851562 -8.789062 7.109375 -8.203125 7.109375 -7.515625 C 7.109375 -6.640625 6.65625 -5.90625 5.75 -5.3125 C 6.195312 -5 6.648438 -4.613281 7.109375 -4.15625 C 7.359375 -4.601562 7.601562 -5.125 7.84375 -5.71875 L 9.703125 -5.1875 C 9.367188 -4.34375 8.925781 -3.507812 8.375 -2.6875 C 8.9375 -1.863281 9.398438 -0.929688 9.765625 0.109375 L 7.609375 0.1875 C 7.492188 -0.144531 7.285156 -0.570312 6.984375 -1.09375 Z M 2.484375 -2.75 C 2.484375 -2.382812 2.601562 -2.082031 2.84375 -1.84375 C 3.09375 -1.601562 3.410156 -1.484375 3.796875 -1.484375 C 4.191406 -1.484375 4.582031 -1.585938 4.96875 -1.796875 C 5.363281 -2.003906 5.707031 -2.28125 6 -2.625 C 5.363281 -3.375 4.679688 -3.96875 3.953125 -4.40625 C 3.515625 -4.238281 3.160156 -4.007812 2.890625 -3.71875 C 2.617188 -3.4375 2.484375 -3.113281 2.484375 -2.75 Z M 4.015625 -8.40625 C 3.441406 -8.40625 3.15625 -8.113281 3.15625 -7.53125 C 3.15625 -7 3.441406 -6.582031 4.015625 -6.28125 C 4.609375 -6.582031 4.90625 -7.003906 4.90625 -7.546875 C 4.90625 -7.796875 4.832031 -8 4.6875 -8.15625 C 4.539062 -8.320312 4.316406 -8.40625 4.015625 -8.40625 Z M 4.015625 -8.40625 "/></g></g></g><g fill="#ffffff" fill-opacity="1"><g transform="translate(203.497061, 56.303086)"><g/></g></g><g fill="#ffffff" fill-opacity="1"><g transform="translate(206.856474, 56.303086)"><g><path d="M 7.015625 -2.265625 L 4.796875 -2.265625 L 3.296875 -7.375 L 3.203125 -7.375 L 3.296875 0 L 1.109375 0 L 1.4375 -9.84375 L 4.25 -9.84375 L 5.859375 -4.34375 L 5.9375 -4.34375 L 7.515625 -9.84375 L 10.3125 -9.84375 L 10.703125 0 L 8.515625 0 L 8.5625 -7.375 L 8.484375 -7.375 Z M 7.015625 -2.265625 "/></g></g></g><g fill="#ffffff" fill-opacity="1"><g transform="translate(218.65643, 56.303086)"><g><path d="M 4.484375 0.1875 C 1.941406 0.1875 0.671875 -1.242188 0.671875 -4.109375 C 0.671875 -6.972656 1.929688 -8.40625 4.453125 -8.40625 C 5.578125 -8.40625 6.425781 -8.101562 7 -7.5 C 7.570312 -6.90625 7.859375 -5.910156 7.859375 -4.515625 L 7.859375 -3.359375 L 2.921875 -3.359375 C 2.921875 -2.578125 3.066406 -2.0625 3.359375 -1.8125 C 3.554688 -1.632812 3.832031 -1.546875 4.1875 -1.546875 C 4.84375 -1.546875 5.671875 -1.691406 6.671875 -1.984375 L 7.171875 -2.140625 L 7.703125 -0.578125 C 7.273438 -0.378906 6.75 -0.203125 6.125 -0.046875 C 5.5 0.109375 4.953125 0.1875 4.484375 0.1875 Z M 5.390625 -6.390625 C 5.222656 -6.597656 4.882812 -6.703125 4.375 -6.703125 C 3.875 -6.703125 3.515625 -6.582031 3.296875 -6.34375 C 3.085938 -6.101562 2.96875 -5.628906 2.9375 -4.921875 L 5.640625 -4.984375 C 5.617188 -5.722656 5.535156 -6.191406 5.390625 -6.390625 Z M 5.390625 -6.390625 "/></g></g></g><g fill="#ffffff" fill-opacity="1"><g transform="translate(227.110972, 56.303086)"><g><path d="M 3.28125 0 L 1.109375 0 L 1.109375 -8.234375 L 2.484375 -8.234375 L 2.75 -7.40625 L 2.828125 -7.40625 C 3.171875 -7.613281 3.441406 -7.769531 3.640625 -7.875 C 3.835938 -7.976562 4.132812 -8.097656 4.53125 -8.234375 C 4.9375 -8.367188 5.316406 -8.4375 5.671875 -8.4375 C 6.515625 -8.4375 7.113281 -8.082031 7.46875 -7.375 C 7.8125 -7.59375 8.085938 -7.757812 8.296875 -7.875 C 8.515625 -8 8.8125 -8.125 9.1875 -8.25 C 9.5625 -8.375 9.921875 -8.4375 10.265625 -8.4375 C 11.066406 -8.4375 11.628906 -8.164062 11.953125 -7.625 C 12.285156 -7.09375 12.453125 -6.347656 12.453125 -5.390625 L 12.453125 0 L 10.265625 0 L 10.265625 -5.015625 C 10.265625 -5.734375 10.203125 -6.164062 10.078125 -6.3125 C 9.953125 -6.46875 9.753906 -6.546875 9.484375 -6.546875 C 8.960938 -6.546875 8.410156 -6.347656 7.828125 -5.953125 C 7.847656 -5.648438 7.859375 -5.414062 7.859375 -5.25 L 7.859375 0 L 5.6875 0 L 5.6875 -5.015625 C 5.6875 -5.742188 5.625 -6.179688 5.5 -6.328125 C 5.375 -6.472656 5.1875 -6.546875 4.9375 -6.546875 C 4.6875 -6.546875 4.398438 -6.488281 4.078125 -6.375 C 3.765625 -6.257812 3.5 -6.125 3.28125 -5.96875 Z M 3.28125 0 "/></g></g></g><g fill="#ffffff" fill-opacity="1"><g transform="translate(240.492659, 56.303086)"><g><path d="M 1.5 -7.3125 C 2.0625 -8.039062 2.992188 -8.40625 4.296875 -8.40625 C 5.609375 -8.40625 6.535156 -8.039062 7.078125 -7.3125 C 7.617188 -6.59375 7.890625 -5.523438 7.890625 -4.109375 C 7.890625 -2.703125 7.617188 -1.632812 7.078125 -0.90625 C 6.535156 -0.175781 5.609375 0.1875 4.296875 0.1875 C 2.992188 0.1875 2.0625 -0.175781 1.5 -0.90625 C 0.945312 -1.644531 0.671875 -2.710938 0.671875 -4.109375 C 0.671875 -5.515625 0.945312 -6.582031 1.5 -7.3125 Z M 5.6875 -4.109375 C 5.6875 -5.179688 5.585938 -5.890625 5.390625 -6.234375 C 5.203125 -6.585938 4.832031 -6.765625 4.28125 -6.765625 C 3.738281 -6.765625 3.367188 -6.585938 3.171875 -6.234375 C 2.984375 -5.878906 2.890625 -5.171875 2.890625 -4.109375 C 2.890625 -3.054688 2.984375 -2.351562 3.171875 -2 C 3.367188 -1.644531 3.738281 -1.46875 4.28125 -1.46875 C 4.832031 -1.46875 5.203125 -1.640625 5.390625 -1.984375 C 5.585938 -2.335938 5.6875 -3.046875 5.6875 -4.109375 Z M 6.1875 -11.421875 L 6.625 -9.859375 L 2.390625 -9.046875 L 2.09375 -10.203125 Z M 6.1875 -11.421875 "/></g></g></g><g fill="#ffffff" fill-opacity="1"><g transform="translate(249.059176, 56.303086)"><g><path d="M 3.1875 -7.640625 C 3.34375 -7.765625 3.617188 -7.921875 4.015625 -8.109375 C 4.410156 -8.304688 4.78125 -8.40625 5.125 -8.40625 C 5.476562 -8.40625 5.757812 -8.359375 5.96875 -8.265625 L 5.796875 -6.390625 C 5.535156 -6.410156 5.28125 -6.421875 5.03125 -6.421875 C 4.40625 -6.421875 3.820312 -6.253906 3.28125 -5.921875 L 3.28125 0 L 1.109375 0 L 1.109375 -8.234375 L 2.453125 -8.234375 L 2.734375 -7.359375 L 2.8125 -7.359375 C 2.90625 -7.429688 3.03125 -7.523438 3.1875 -7.640625 Z M 3.1875 -7.640625 "/></g></g></g><g fill="#ffffff" fill-opacity="1"><g transform="translate(255.078128, 56.303086)"><g><path d="M 3.34375 0 L 1.171875 0 L 1.171875 -8.234375 L 3.34375 -8.234375 Z M 3.484375 -9.203125 L 1.03125 -9.203125 L 1.03125 -10.65625 L 3.484375 -10.65625 Z M 3.484375 -9.203125 "/></g></g></g><g fill="#ffffff" fill-opacity="1"><g transform="translate(259.599341, 56.303086)"><g><path d="M 3.109375 0.1875 C 2.421875 0.1875 1.847656 -0.0507812 1.390625 -0.53125 C 0.941406 -1.007812 0.71875 -1.703125 0.71875 -2.609375 C 0.71875 -3.515625 1.035156 -4.171875 1.671875 -4.578125 C 2.304688 -4.984375 3.238281 -5.1875 4.46875 -5.1875 L 5.515625 -5.1875 C 5.515625 -5.8125 5.453125 -6.210938 5.328125 -6.390625 C 5.210938 -6.578125 4.941406 -6.671875 4.515625 -6.671875 C 4.085938 -6.671875 3.613281 -6.625 3.09375 -6.53125 C 2.582031 -6.4375 2.007812 -6.300781 1.375 -6.125 L 0.921875 -7.6875 C 1.304688 -7.863281 1.851562 -8.023438 2.5625 -8.171875 C 3.28125 -8.328125 3.921875 -8.40625 4.484375 -8.40625 C 5.628906 -8.40625 6.445312 -8.140625 6.9375 -7.609375 C 7.4375 -7.085938 7.6875 -6.320312 7.6875 -5.3125 L 7.6875 0 L 6.3125 0 L 6.03125 -0.90625 L 5.953125 -0.90625 C 5.835938 -0.820312 5.6875 -0.71875 5.5 -0.59375 C 5.320312 -0.476562 4.976562 -0.316406 4.46875 -0.109375 C 3.96875 0.0859375 3.515625 0.1875 3.109375 0.1875 Z M 5.515625 -3.578125 C 5.191406 -3.628906 4.753906 -3.65625 4.203125 -3.65625 C 3.660156 -3.65625 3.3125 -3.582031 3.15625 -3.4375 C 3 -3.300781 2.921875 -3.035156 2.921875 -2.640625 C 2.921875 -2.253906 2.984375 -1.984375 3.109375 -1.828125 C 3.234375 -1.671875 3.429688 -1.59375 3.703125 -1.59375 C 4.179688 -1.59375 4.691406 -1.722656 5.234375 -1.984375 L 5.515625 -2.125 Z M 5.515625 -3.578125 "/></g></g></g><g fill="#ffffff" fill-opacity="1"><g transform="translate(268.305832, 56.303086)"><g><path d="M 3.625 -6.671875 C 3.269531 -6.671875 3.035156 -6.625 2.921875 -6.53125 C 2.816406 -6.445312 2.765625 -6.316406 2.765625 -6.140625 C 2.765625 -5.960938 2.84375 -5.804688 3 -5.671875 C 3.164062 -5.535156 3.328125 -5.4375 3.484375 -5.375 C 3.640625 -5.320312 3.820312 -5.265625 4.03125 -5.203125 C 4.25 -5.140625 4.5625 -5.046875 4.96875 -4.921875 C 5.382812 -4.804688 5.71875 -4.679688 5.96875 -4.546875 C 6.6875 -4.148438 7.046875 -3.507812 7.046875 -2.625 C 7.046875 -1.738281 6.773438 -1.046875 6.234375 -0.546875 C 5.691406 -0.0546875 4.929688 0.1875 3.953125 0.1875 C 3.429688 0.1875 2.890625 0.117188 2.328125 -0.015625 C 1.773438 -0.148438 1.34375 -0.285156 1.03125 -0.421875 L 0.59375 -0.625 L 1.125 -2.34375 C 2.300781 -1.832031 3.269531 -1.578125 4.03125 -1.578125 C 4.320312 -1.578125 4.535156 -1.628906 4.671875 -1.734375 C 4.816406 -1.835938 4.890625 -2.023438 4.890625 -2.296875 C 4.890625 -2.460938 4.859375 -2.582031 4.796875 -2.65625 C 4.742188 -2.726562 4.695312 -2.785156 4.65625 -2.828125 C 4.625 -2.867188 4.566406 -2.910156 4.484375 -2.953125 C 4.410156 -3.003906 4.347656 -3.039062 4.296875 -3.0625 C 4.253906 -3.082031 4.179688 -3.109375 4.078125 -3.140625 C 3.972656 -3.179688 3.890625 -3.210938 3.828125 -3.234375 C 3.773438 -3.253906 3.679688 -3.28125 3.546875 -3.3125 C 3.421875 -3.351562 3.273438 -3.398438 3.109375 -3.453125 C 2.953125 -3.503906 2.832031 -3.539062 2.75 -3.5625 C 2.664062 -3.59375 2.5 -3.65625 2.25 -3.75 C 2 -3.84375 1.820312 -3.925781 1.71875 -4 C 1.625 -4.070312 1.488281 -4.175781 1.3125 -4.3125 C 1.144531 -4.445312 1.023438 -4.585938 0.953125 -4.734375 C 0.753906 -5.140625 0.65625 -5.550781 0.65625 -5.96875 C 0.65625 -6.726562 0.910156 -7.320312 1.421875 -7.75 C 1.941406 -8.1875 2.710938 -8.40625 3.734375 -8.40625 C 4.753906 -8.40625 5.738281 -8.25 6.6875 -7.9375 L 6.375 -6.265625 C 5.300781 -6.535156 4.382812 -6.671875 3.625 -6.671875 Z M 3.625 -6.671875 "/></g></g></g><g fill="#ffffff" fill-opacity="1"><g transform="translate(275.825357, 56.303086)"><g/></g></g><g fill="#ffffff" fill-opacity="1"><g transform="translate(145.629575, 66.968445)"><g><path d="M 3.1875 0.125 C 2.382812 0.125 1.753906 -0.148438 1.296875 -0.703125 C 0.847656 -1.265625 0.625 -2.15625 0.625 -3.375 C 0.625 -5.03125 0.992188 -6.109375 1.734375 -6.609375 C 1.972656 -6.765625 2.21875 -6.867188 2.46875 -6.921875 C 2.726562 -6.984375 3.109375 -7.015625 3.609375 -7.015625 C 4.117188 -7.015625 4.640625 -6.953125 5.171875 -6.828125 L 5.046875 -5.859375 C 4.429688 -5.953125 3.859375 -6 3.328125 -6 C 2.804688 -6 2.476562 -5.921875 2.34375 -5.765625 C 2.019531 -5.429688 1.859375 -4.625 1.859375 -3.34375 C 1.859375 -2.738281 1.910156 -2.238281 2.015625 -1.84375 C 2.128906 -1.445312 2.265625 -1.179688 2.421875 -1.046875 C 2.578125 -0.910156 2.800781 -0.84375 3.09375 -0.84375 C 3.394531 -0.84375 3.707031 -0.890625 4.03125 -0.984375 C 4.363281 -1.078125 4.722656 -1.210938 5.109375 -1.390625 L 5.46875 -0.515625 C 5.394531 -0.460938 5.289062 -0.398438 5.15625 -0.328125 C 5.03125 -0.265625 4.769531 -0.171875 4.375 -0.046875 C 3.976562 0.0664062 3.582031 0.125 3.1875 0.125 Z M 3.1875 0.125 "/></g></g></g><g fill="#ffffff" fill-opacity="1"><g transform="translate(151.58393, 66.968445)"><g><path d="M 2.125 0.125 C 1.625 0.125 1.21875 -0.03125 0.90625 -0.34375 C 0.601562 -0.664062 0.453125 -1.144531 0.453125 -1.78125 C 0.453125 -2.414062 0.65625 -2.875 1.0625 -3.15625 C 1.476562 -3.445312 2.070312 -3.59375 2.84375 -3.59375 L 3.796875 -3.59375 C 3.796875 -4.226562 3.742188 -4.613281 3.640625 -4.75 C 3.535156 -4.882812 3.335938 -4.953125 3.046875 -4.953125 C 2.753906 -4.953125 2.425781 -4.914062 2.0625 -4.84375 C 1.695312 -4.769531 1.304688 -4.65625 0.890625 -4.5 L 0.59375 -5.34375 C 0.6875 -5.382812 0.804688 -5.4375 0.953125 -5.5 C 1.109375 -5.5625 1.394531 -5.640625 1.8125 -5.734375 C 2.238281 -5.835938 2.628906 -5.890625 2.984375 -5.890625 C 4.285156 -5.890625 4.9375 -5.179688 4.9375 -3.765625 L 4.9375 0 L 4.203125 0 L 4.046875 -0.625 L 4 -0.625 C 3.925781 -0.5625 3.828125 -0.488281 3.703125 -0.40625 C 3.585938 -0.320312 3.363281 -0.210938 3.03125 -0.078125 C 2.695312 0.0546875 2.394531 0.125 2.125 0.125 Z M 3.796875 -2.65625 C 3.523438 -2.695312 3.160156 -2.71875 2.703125 -2.71875 C 2.242188 -2.71875 1.957031 -2.660156 1.84375 -2.546875 C 1.695312 -2.421875 1.625 -2.171875 1.625 -1.796875 C 1.625 -1.429688 1.671875 -1.179688 1.765625 -1.046875 C 1.859375 -0.910156 2.007812 -0.84375 2.21875 -0.84375 C 2.4375 -0.84375 2.675781 -0.878906 2.9375 -0.953125 C 3.195312 -1.023438 3.484375 -1.132812 3.796875 -1.28125 Z M 1.484375 -6.375 L 1.15625 -6.875 L 2.59375 -7.921875 L 3.1875 -7.921875 L 4.640625 -6.875 L 4.296875 -6.375 L 2.921875 -7.0625 L 2.859375 -7.0625 Z M 1.484375 -6.375 "/></g></g></g><g fill="#ffffff" fill-opacity="1"><g transform="translate(157.380551, 66.968445)"><g><path d="M 0.921875 0 L 0.921875 -5.765625 L 1.671875 -5.765625 L 1.796875 -5.203125 L 1.84375 -5.203125 C 2.632812 -5.671875 3.3125 -5.90625 3.875 -5.90625 C 4.445312 -5.90625 4.835938 -5.65625 5.046875 -5.15625 C 5.304688 -5.3125 5.503906 -5.429688 5.640625 -5.515625 C 5.785156 -5.597656 5.992188 -5.679688 6.265625 -5.765625 C 6.535156 -5.859375 6.796875 -5.90625 7.046875 -5.90625 C 7.578125 -5.90625 7.945312 -5.722656 8.15625 -5.359375 C 8.375 -4.992188 8.484375 -4.46875 8.484375 -3.78125 L 8.484375 0 L 7.34375 0 L 7.34375 -3.515625 C 7.34375 -4.054688 7.304688 -4.414062 7.234375 -4.59375 C 7.160156 -4.78125 6.992188 -4.875 6.734375 -4.875 C 6.472656 -4.875 6.195312 -4.816406 5.90625 -4.703125 C 5.625 -4.585938 5.398438 -4.476562 5.234375 -4.375 C 5.265625 -4.113281 5.28125 -3.910156 5.28125 -3.765625 L 5.28125 0 L 4.125 0 L 4.125 -3.53125 C 4.125 -4.257812 4.039062 -4.679688 3.875 -4.796875 C 3.789062 -4.847656 3.671875 -4.875 3.515625 -4.875 C 3.109375 -4.875 2.625 -4.71875 2.0625 -4.40625 L 2.0625 0 Z M 0.921875 0 "/></g></g></g><g fill="#ffffff" fill-opacity="1"><g transform="translate(166.65712, 66.968445)"><g><path d="M 0.8125 1.640625 L 0.8125 -5.765625 L 1.5625 -5.765625 L 1.703125 -5.171875 L 1.75 -5.171875 C 1.757812 -5.179688 1.816406 -5.222656 1.921875 -5.296875 C 2.023438 -5.367188 2.101562 -5.421875 2.15625 -5.453125 C 2.207031 -5.492188 2.296875 -5.546875 2.421875 -5.609375 C 2.546875 -5.671875 2.65625 -5.722656 2.75 -5.765625 C 3.03125 -5.847656 3.285156 -5.890625 3.515625 -5.890625 C 4.085938 -5.890625 4.535156 -5.648438 4.859375 -5.171875 C 5.191406 -4.703125 5.359375 -3.972656 5.359375 -2.984375 C 5.359375 -0.910156 4.609375 0.125 3.109375 0.125 C 2.828125 0.125 2.441406 0.0859375 1.953125 0.015625 L 1.953125 1.640625 Z M 1.953125 -1 C 2.398438 -0.882812 2.78125 -0.828125 3.09375 -0.828125 C 3.40625 -0.828125 3.625 -0.875 3.75 -0.96875 C 4.03125 -1.1875 4.171875 -1.894531 4.171875 -3.09375 C 4.171875 -3.53125 4.15625 -3.875 4.125 -4.125 C 4.101562 -4.375 4.054688 -4.550781 3.984375 -4.65625 C 3.910156 -4.769531 3.835938 -4.835938 3.765625 -4.859375 C 3.703125 -4.878906 3.578125 -4.890625 3.390625 -4.890625 C 3.210938 -4.890625 3 -4.847656 2.75 -4.765625 C 2.507812 -4.691406 2.242188 -4.578125 1.953125 -4.421875 Z M 1.953125 -1 "/></g></g></g><g fill="#ffffff" fill-opacity="1"><g transform="translate(172.621331, 66.968445)"><g><path d="M 0.78125 -1.96875 L 0.78125 -5.765625 L 1.9375 -5.765625 L 1.9375 -2.1875 C 1.9375 -1.5625 1.976562 -1.1875 2.0625 -1.0625 C 2.15625 -0.945312 2.320312 -0.890625 2.5625 -0.890625 C 2.957031 -0.890625 3.453125 -1.046875 4.046875 -1.359375 L 4.046875 -5.765625 L 5.1875 -5.765625 L 5.1875 0 L 4.4375 0 L 4.296875 -0.578125 L 4.25 -0.578125 C 4.238281 -0.566406 4.160156 -0.519531 4.015625 -0.4375 C 3.878906 -0.363281 3.78125 -0.3125 3.71875 -0.28125 C 3.664062 -0.257812 3.566406 -0.210938 3.421875 -0.140625 C 3.285156 -0.078125 3.164062 -0.03125 3.0625 0 C 2.789062 0.0820312 2.539062 0.125 2.3125 0.125 C 1.289062 0.125 0.78125 -0.570312 0.78125 -1.96875 Z M 0.78125 -1.96875 "/></g></g></g><g fill="#ffffff" fill-opacity="1"><g transform="translate(178.723559, 66.968445)"><g><path d="M 2.65625 -0.8125 C 2.914062 -0.8125 3.109375 -0.867188 3.234375 -0.984375 C 3.367188 -1.109375 3.4375 -1.300781 3.4375 -1.5625 C 3.4375 -1.832031 3.347656 -2.023438 3.171875 -2.140625 C 3.003906 -2.253906 2.804688 -2.34375 2.578125 -2.40625 C 2.347656 -2.476562 2.21875 -2.519531 2.1875 -2.53125 C 2.164062 -2.539062 2.09375 -2.5625 1.96875 -2.59375 C 1.84375 -2.632812 1.722656 -2.675781 1.609375 -2.71875 C 1.503906 -2.757812 1.363281 -2.828125 1.1875 -2.921875 C 1.007812 -3.015625 0.882812 -3.113281 0.8125 -3.21875 C 0.59375 -3.476562 0.484375 -3.804688 0.484375 -4.203125 C 0.484375 -4.722656 0.648438 -5.132812 0.984375 -5.4375 C 1.316406 -5.738281 1.796875 -5.890625 2.421875 -5.890625 C 3.054688 -5.890625 3.679688 -5.785156 4.296875 -5.578125 L 4.125 -4.671875 C 3.4375 -4.835938 2.882812 -4.921875 2.46875 -4.921875 C 2.0625 -4.921875 1.8125 -4.863281 1.71875 -4.75 C 1.625 -4.644531 1.578125 -4.492188 1.578125 -4.296875 C 1.578125 -4.097656 1.671875 -3.9375 1.859375 -3.8125 C 2.046875 -3.695312 2.3125 -3.585938 2.65625 -3.484375 C 3 -3.378906 3.207031 -3.316406 3.28125 -3.296875 C 3.351562 -3.273438 3.460938 -3.234375 3.609375 -3.171875 C 3.765625 -3.117188 3.875 -3.066406 3.9375 -3.015625 C 4 -2.972656 4.078125 -2.910156 4.171875 -2.828125 C 4.273438 -2.753906 4.347656 -2.664062 4.390625 -2.5625 C 4.503906 -2.320312 4.5625 -2.0625 4.5625 -1.78125 C 4.5625 -1.195312 4.382812 -0.734375 4.03125 -0.390625 C 3.6875 -0.046875 3.203125 0.125 2.578125 0.125 C 2.253906 0.125 1.914062 0.0820312 1.5625 0 C 1.21875 -0.0820312 0.851562 -0.210938 0.46875 -0.390625 L 0.734375 -1.3125 C 1.503906 -0.976562 2.144531 -0.8125 2.65625 -0.8125 Z M 2.65625 -0.8125 "/></g></g></g><g fill="#ffffff" fill-opacity="1"><g transform="translate(183.770959, 66.968445)"><g/></g></g><g fill="#ffffff" fill-opacity="1"><g transform="translate(186.087637, 66.968445)"><g><path d="M 2.796875 -0.90625 C 3.367188 -0.90625 3.65625 -1.222656 3.65625 -1.859375 C 3.65625 -2.117188 3.546875 -2.34375 3.328125 -2.53125 C 3.109375 -2.71875 2.804688 -2.894531 2.421875 -3.0625 C 2.046875 -3.238281 1.828125 -3.34375 1.765625 -3.375 C 1.710938 -3.40625 1.613281 -3.457031 1.46875 -3.53125 C 1.320312 -3.613281 1.21875 -3.679688 1.15625 -3.734375 C 1.101562 -3.785156 1.023438 -3.863281 0.921875 -3.96875 C 0.828125 -4.070312 0.757812 -4.175781 0.71875 -4.28125 C 0.601562 -4.5625 0.546875 -4.835938 0.546875 -5.109375 C 0.546875 -5.660156 0.738281 -6.113281 1.125 -6.46875 C 1.507812 -6.832031 2.054688 -7.015625 2.765625 -7.015625 C 3.285156 -7.015625 3.800781 -6.941406 4.3125 -6.796875 L 4.578125 -6.734375 L 4.390625 -5.765625 C 3.671875 -5.898438 3.117188 -5.96875 2.734375 -5.96875 C 2.359375 -5.96875 2.097656 -5.90625 1.953125 -5.78125 C 1.816406 -5.664062 1.75 -5.472656 1.75 -5.203125 C 1.75 -4.941406 1.835938 -4.738281 2.015625 -4.59375 C 2.191406 -4.445312 2.398438 -4.3125 2.640625 -4.1875 C 2.878906 -4.070312 3.070312 -3.984375 3.21875 -3.921875 C 3.375 -3.859375 3.488281 -3.804688 3.5625 -3.765625 C 3.632812 -3.734375 3.738281 -3.675781 3.875 -3.59375 C 4.007812 -3.519531 4.109375 -3.453125 4.171875 -3.390625 C 4.242188 -3.328125 4.328125 -3.242188 4.421875 -3.140625 C 4.523438 -3.046875 4.601562 -2.945312 4.65625 -2.84375 C 4.78125 -2.582031 4.84375 -2.304688 4.84375 -2.015625 C 4.84375 -1.378906 4.632812 -0.863281 4.21875 -0.46875 C 3.800781 -0.0703125 3.257812 0.125 2.59375 0.125 C 2.25 0.125 1.890625 0.078125 1.515625 -0.015625 C 1.148438 -0.117188 0.867188 -0.21875 0.671875 -0.3125 L 0.359375 -0.46875 C 0.421875 -0.644531 0.472656 -0.785156 0.515625 -0.890625 C 0.554688 -1.003906 0.585938 -1.097656 0.609375 -1.171875 C 0.640625 -1.253906 0.671875 -1.335938 0.703125 -1.421875 C 1.453125 -1.078125 2.148438 -0.90625 2.796875 -0.90625 Z M 2.796875 -0.90625 "/></g></g></g><g fill="#ffffff" fill-opacity="1"><g transform="translate(191.430783, 66.968445)"><g><path d="M 2.125 0.125 C 1.625 0.125 1.21875 -0.03125 0.90625 -0.34375 C 0.601562 -0.664062 0.453125 -1.144531 0.453125 -1.78125 C 0.453125 -2.414062 0.65625 -2.875 1.0625 -3.15625 C 1.476562 -3.445312 2.070312 -3.59375 2.84375 -3.59375 L 3.796875 -3.59375 C 3.796875 -4.226562 3.742188 -4.613281 3.640625 -4.75 C 3.535156 -4.882812 3.335938 -4.953125 3.046875 -4.953125 C 2.753906 -4.953125 2.425781 -4.914062 2.0625 -4.84375 C 1.695312 -4.769531 1.304688 -4.65625 0.890625 -4.5 L 0.59375 -5.34375 C 0.6875 -5.382812 0.804688 -5.4375 0.953125 -5.5 C 1.109375 -5.5625 1.394531 -5.640625 1.8125 -5.734375 C 2.238281 -5.835938 2.628906 -5.890625 2.984375 -5.890625 C 4.285156 -5.890625 4.9375 -5.179688 4.9375 -3.765625 L 4.9375 0 L 4.203125 0 L 4.046875 -0.625 L 4 -0.625 C 3.925781 -0.5625 3.828125 -0.488281 3.703125 -0.40625 C 3.585938 -0.320312 3.363281 -0.210938 3.03125 -0.078125 C 2.695312 0.0546875 2.394531 0.125 2.125 0.125 Z M 3.796875 -2.65625 C 3.523438 -2.695312 3.160156 -2.71875 2.703125 -2.71875 C 2.242188 -2.71875 1.957031 -2.660156 1.84375 -2.546875 C 1.695312 -2.421875 1.625 -2.171875 1.625 -1.796875 C 1.625 -1.429688 1.671875 -1.179688 1.765625 -1.046875 C 1.859375 -0.910156 2.007812 -0.84375 2.21875 -0.84375 C 2.4375 -0.84375 2.675781 -0.878906 2.9375 -0.953125 C 3.195312 -1.023438 3.484375 -1.132812 3.796875 -1.28125 Z M 1.890625 -7.75 C 2.078125 -7.75 2.4375 -7.675781 2.96875 -7.53125 C 3.5 -7.394531 3.785156 -7.328125 3.828125 -7.328125 C 3.921875 -7.328125 4.019531 -7.460938 4.125 -7.734375 L 4.75 -7.65625 C 4.738281 -6.894531 4.46875 -6.515625 3.9375 -6.515625 C 3.738281 -6.515625 3.375 -6.585938 2.84375 -6.734375 C 2.3125 -6.878906 2.019531 -6.953125 1.96875 -6.953125 C 1.875 -6.953125 1.773438 -6.8125 1.671875 -6.53125 L 1.0625 -6.609375 C 1.0625 -7.367188 1.335938 -7.75 1.890625 -7.75 Z M 1.890625 -7.75 "/></g></g></g><g fill="#ffffff" fill-opacity="1"><g transform="translate(197.227404, 66.968445)"><g><path d="M 5.28125 -2.875 C 5.28125 -1.894531 5.101562 -1.148438 4.75 -0.640625 C 4.394531 -0.128906 3.796875 0.125 2.953125 0.125 C 2.109375 0.125 1.503906 -0.128906 1.140625 -0.640625 C 0.785156 -1.148438 0.609375 -1.894531 0.609375 -2.875 C 0.609375 -3.863281 0.785156 -4.613281 1.140625 -5.125 C 1.503906 -5.632812 2.109375 -5.890625 2.953125 -5.890625 C 3.796875 -5.890625 4.394531 -5.632812 4.75 -5.125 C 5.101562 -4.613281 5.28125 -3.863281 5.28125 -2.875 Z M 2.03125 -1.1875 C 2.195312 -0.914062 2.503906 -0.78125 2.953125 -0.78125 C 3.410156 -0.78125 3.71875 -0.914062 3.875 -1.1875 C 4.03125 -1.457031 4.109375 -2.019531 4.109375 -2.875 C 4.109375 -3.738281 4.03125 -4.304688 3.875 -4.578125 C 3.71875 -4.847656 3.410156 -4.984375 2.953125 -4.984375 C 2.503906 -4.984375 2.195312 -4.847656 2.03125 -4.578125 C 1.875 -4.304688 1.796875 -3.738281 1.796875 -2.875 C 1.796875 -2.019531 1.875 -1.457031 2.03125 -1.1875 Z M 2.03125 -1.1875 "/></g></g></g><g fill="#ffffff" fill-opacity="1"><g transform="translate(203.122611, 66.968445)"><g/></g></g><g fill="#ffffff" fill-opacity="1"><g transform="translate(205.439289, 66.968445)"><g><path d="M 0.953125 -6.875 C 1.878906 -6.96875 2.679688 -7.015625 3.359375 -7.015625 C 4.046875 -7.015625 4.5625 -6.8125 4.90625 -6.40625 C 5.257812 -6.007812 5.4375 -5.425781 5.4375 -4.65625 C 5.4375 -3.707031 5.203125 -3.050781 4.734375 -2.6875 C 4.328125 -2.351562 3.816406 -2.1875 3.203125 -2.1875 L 2.109375 -2.234375 L 2.109375 0 L 0.953125 0 L 1 -3.203125 Z M 2.109375 -3.265625 C 2.492188 -3.203125 2.890625 -3.171875 3.296875 -3.171875 C 3.710938 -3.171875 3.972656 -3.265625 4.078125 -3.453125 C 4.179688 -3.640625 4.234375 -4.066406 4.234375 -4.734375 C 4.234375 -5.410156 4.144531 -5.816406 3.96875 -5.953125 C 3.84375 -6.054688 3.582031 -6.109375 3.1875 -6.109375 C 2.800781 -6.109375 2.441406 -6.082031 2.109375 -6.03125 Z M 2.109375 -3.265625 "/></g></g></g><g fill="#ffffff" fill-opacity="1"><g transform="translate(211.393644, 66.968445)"><g><path d="M 2.125 0.125 C 1.625 0.125 1.21875 -0.03125 0.90625 -0.34375 C 0.601562 -0.664062 0.453125 -1.144531 0.453125 -1.78125 C 0.453125 -2.414062 0.65625 -2.875 1.0625 -3.15625 C 1.476562 -3.445312 2.070312 -3.59375 2.84375 -3.59375 L 3.796875 -3.59375 C 3.796875 -4.226562 3.742188 -4.613281 3.640625 -4.75 C 3.535156 -4.882812 3.335938 -4.953125 3.046875 -4.953125 C 2.753906 -4.953125 2.425781 -4.914062 2.0625 -4.84375 C 1.695312 -4.769531 1.304688 -4.65625 0.890625 -4.5 L 0.59375 -5.34375 C 0.6875 -5.382812 0.804688 -5.4375 0.953125 -5.5 C 1.109375 -5.5625 1.394531 -5.640625 1.8125 -5.734375 C 2.238281 -5.835938 2.628906 -5.890625 2.984375 -5.890625 C 4.285156 -5.890625 4.9375 -5.179688 4.9375 -3.765625 L 4.9375 0 L 4.203125 0 L 4.046875 -0.625 L 4 -0.625 C 3.925781 -0.5625 3.828125 -0.488281 3.703125 -0.40625 C 3.585938 -0.320312 3.363281 -0.210938 3.03125 -0.078125 C 2.695312 0.0546875 2.394531 0.125 2.125 0.125 Z M 3.796875 -2.65625 C 3.523438 -2.695312 3.160156 -2.71875 2.703125 -2.71875 C 2.242188 -2.71875 1.957031 -2.660156 1.84375 -2.546875 C 1.695312 -2.421875 1.625 -2.171875 1.625 -1.796875 C 1.625 -1.429688 1.671875 -1.179688 1.765625 -1.046875 C 1.859375 -0.910156 2.007812 -0.84375 2.21875 -0.84375 C 2.4375 -0.84375 2.675781 -0.878906 2.9375 -0.953125 C 3.195312 -1.023438 3.484375 -1.132812 3.796875 -1.28125 Z M 3.796875 -2.65625 "/></g></g></g><g fill="#ffffff" fill-opacity="1"><g transform="translate(217.190265, 66.968445)"><g><path d="M 0.78125 -1.96875 L 0.78125 -5.765625 L 1.9375 -5.765625 L 1.9375 -2.1875 C 1.9375 -1.5625 1.976562 -1.1875 2.0625 -1.0625 C 2.15625 -0.945312 2.320312 -0.890625 2.5625 -0.890625 C 2.957031 -0.890625 3.453125 -1.046875 4.046875 -1.359375 L 4.046875 -5.765625 L 5.1875 -5.765625 L 5.1875 0 L 4.4375 0 L 4.296875 -0.578125 L 4.25 -0.578125 C 4.238281 -0.566406 4.160156 -0.519531 4.015625 -0.4375 C 3.878906 -0.363281 3.78125 -0.3125 3.71875 -0.28125 C 3.664062 -0.257812 3.566406 -0.210938 3.421875 -0.140625 C 3.285156 -0.078125 3.164062 -0.03125 3.0625 0 C 2.789062 0.0820312 2.539062 0.125 2.3125 0.125 C 1.289062 0.125 0.78125 -0.570312 0.78125 -1.96875 Z M 0.78125 -1.96875 "/></g></g></g><g fill="#ffffff" fill-opacity="1"><g transform="translate(223.292489, 66.968445)"><g><path d="M 0.8125 0 L 0.8125 -7.46875 L 1.953125 -7.46875 L 1.953125 0 Z M 0.8125 0 "/></g></g></g><g fill="#ffffff" fill-opacity="1"><g transform="translate(226.052783, 66.968445)"><g><path d="M 5.28125 -2.875 C 5.28125 -1.894531 5.101562 -1.148438 4.75 -0.640625 C 4.394531 -0.128906 3.796875 0.125 2.953125 0.125 C 2.109375 0.125 1.503906 -0.128906 1.140625 -0.640625 C 0.785156 -1.148438 0.609375 -1.894531 0.609375 -2.875 C 0.609375 -3.863281 0.785156 -4.613281 1.140625 -5.125 C 1.503906 -5.632812 2.109375 -5.890625 2.953125 -5.890625 C 3.796875 -5.890625 4.394531 -5.632812 4.75 -5.125 C 5.101562 -4.613281 5.28125 -3.863281 5.28125 -2.875 Z M 2.03125 -1.1875 C 2.195312 -0.914062 2.503906 -0.78125 2.953125 -0.78125 C 3.410156 -0.78125 3.71875 -0.914062 3.875 -1.1875 C 4.03125 -1.457031 4.109375 -2.019531 4.109375 -2.875 C 4.109375 -3.738281 4.03125 -4.304688 3.875 -4.578125 C 3.71875 -4.847656 3.410156 -4.984375 2.953125 -4.984375 C 2.503906 -4.984375 2.195312 -4.847656 2.03125 -4.578125 C 1.875 -4.304688 1.796875 -3.738281 1.796875 -2.875 C 1.796875 -2.019531 1.875 -1.457031 2.03125 -1.1875 Z M 2.03125 -1.1875 "/></g></g></g><g fill="#ffffff" fill-opacity="1"><g transform="translate(231.947989, 66.968445)"><g/></g></g><g fill="#ffffff" fill-opacity="1"><g transform="translate(234.264663, 66.968445)"><g><path d="M 0.375 -2.734375 L 0.375 -3.703125 L 2.765625 -3.703125 L 2.765625 -2.734375 Z M 0.375 -2.734375 "/></g></g></g><g fill="#ffffff" fill-opacity="1"><g transform="translate(237.409432, 66.968445)"><g/></g></g><g fill="#ffffff" fill-opacity="1"><g transform="translate(239.726114, 66.968445)"><g><path d="M 0.953125 0.015625 L 1 -3.171875 L 0.953125 -6.890625 L 2.125 -6.890625 L 2.078125 -3.828125 L 2.125 0.015625 Z M 0.953125 0.015625 "/></g></g></g><g fill="#ffffff" fill-opacity="1"><g transform="translate(242.811731, 66.968445)"><g><path d="M 0.953125 0 L 0.953125 -6.890625 L 4.6875 -6.890625 L 4.6875 -5.859375 L 2.09375 -5.890625 L 2.0625 -3.96875 L 4.375 -3.96875 L 4.375 -3 L 2.0625 -3 L 2.109375 0 Z M 0.953125 0 "/></g></g></g><g fill="#ffffff" fill-opacity="1"><g transform="translate(247.947859, 66.968445)"><g><path d="M 2.796875 -0.90625 C 3.367188 -0.90625 3.65625 -1.222656 3.65625 -1.859375 C 3.65625 -2.117188 3.546875 -2.34375 3.328125 -2.53125 C 3.109375 -2.71875 2.804688 -2.894531 2.421875 -3.0625 C 2.046875 -3.238281 1.828125 -3.34375 1.765625 -3.375 C 1.710938 -3.40625 1.613281 -3.457031 1.46875 -3.53125 C 1.320312 -3.613281 1.21875 -3.679688 1.15625 -3.734375 C 1.101562 -3.785156 1.023438 -3.863281 0.921875 -3.96875 C 0.828125 -4.070312 0.757812 -4.175781 0.71875 -4.28125 C 0.601562 -4.5625 0.546875 -4.835938 0.546875 -5.109375 C 0.546875 -5.660156 0.738281 -6.113281 1.125 -6.46875 C 1.507812 -6.832031 2.054688 -7.015625 2.765625 -7.015625 C 3.285156 -7.015625 3.800781 -6.941406 4.3125 -6.796875 L 4.578125 -6.734375 L 4.390625 -5.765625 C 3.671875 -5.898438 3.117188 -5.96875 2.734375 -5.96875 C 2.359375 -5.96875 2.097656 -5.90625 1.953125 -5.78125 C 1.816406 -5.664062 1.75 -5.472656 1.75 -5.203125 C 1.75 -4.941406 1.835938 -4.738281 2.015625 -4.59375 C 2.191406 -4.445312 2.398438 -4.3125 2.640625 -4.1875 C 2.878906 -4.070312 3.070312 -3.984375 3.21875 -3.921875 C 3.375 -3.859375 3.488281 -3.804688 3.5625 -3.765625 C 3.632812 -3.734375 3.738281 -3.675781 3.875 -3.59375 C 4.007812 -3.519531 4.109375 -3.453125 4.171875 -3.390625 C 4.242188 -3.328125 4.328125 -3.242188 4.421875 -3.140625 C 4.523438 -3.046875 4.601562 -2.945312 4.65625 -2.84375 C 4.78125 -2.582031 4.84375 -2.304688 4.84375 -2.015625 C 4.84375 -1.378906 4.632812 -0.863281 4.21875 -0.46875 C 3.800781 -0.0703125 3.257812 0.125 2.59375 0.125 C 2.25 0.125 1.890625 0.078125 1.515625 -0.015625 C 1.148438 -0.117188 0.867188 -0.21875 0.671875 -0.3125 L 0.359375 -0.46875 C 0.421875 -0.644531 0.472656 -0.785156 0.515625 -0.890625 C 0.554688 -1.003906 0.585938 -1.097656 0.609375 -1.171875 C 0.640625 -1.253906 0.671875 -1.335938 0.703125 -1.421875 C 1.453125 -1.078125 2.148438 -0.90625 2.796875 -0.90625 Z M 2.796875 -0.90625 "/></g></g></g><g fill="#ffffff" fill-opacity="1"><g transform="translate(253.291005, 66.968445)"><g><path d="M 0.953125 -6.875 C 1.878906 -6.96875 2.679688 -7.015625 3.359375 -7.015625 C 4.046875 -7.015625 4.5625 -6.8125 4.90625 -6.40625 C 5.257812 -6.007812 5.4375 -5.425781 5.4375 -4.65625 C 5.4375 -3.707031 5.203125 -3.050781 4.734375 -2.6875 C 4.328125 -2.351562 3.816406 -2.1875 3.203125 -2.1875 L 2.109375 -2.234375 L 2.109375 0 L 0.953125 0 L 1 -3.203125 Z M 2.109375 -3.265625 C 2.492188 -3.203125 2.890625 -3.171875 3.296875 -3.171875 C 3.710938 -3.171875 3.972656 -3.265625 4.078125 -3.453125 C 4.179688 -3.640625 4.234375 -4.066406 4.234375 -4.734375 C 4.234375 -5.410156 4.144531 -5.816406 3.96875 -5.953125 C 3.84375 -6.054688 3.582031 -6.109375 3.1875 -6.109375 C 2.800781 -6.109375 2.441406 -6.082031 2.109375 -6.03125 Z M 2.109375 -3.265625 "/></g></g></g></svg>