<svg xmlns="http://www.w3.org/2000/svg" xmlns:xlink="http://www.w3.org/1999/xlink" width="1080" zoomAndPan="magnify" viewBox="0 0 810 149.999998" height="200" preserveAspectRatio="xMidYMid meet" version="1.0"><defs><g/></defs><g fill="#ffffff" fill-opacity="1"><g transform="translate(11.30023, 58.849024)"><g><path d="M 6.03125 0 L 6.03125 -51.09375 L 17.4375 -51.09375 L 17.234375 -30.8125 L 34.09375 -30.8125 L 33.875 -51.09375 L 45.28125 -51.09375 L 45.28125 0 L 33.875 0 L 34.09375 -21.078125 L 17.234375 -21.078125 L 17.4375 0 Z M 6.03125 0 "/></g></g></g><g fill="#ffffff" fill-opacity="1"><g transform="translate(62.587101, 58.849024)"><g><path d="M 17.375 0 L 6.109375 0 L 6.109375 -42.734375 L 17.375 -42.734375 Z M 18.09375 -47.75 L 5.375 -47.75 L 5.375 -55.3125 L 18.09375 -55.3125 Z M 18.09375 -47.75 "/></g></g></g><g fill="#ffffff" fill-opacity="1"><g transform="translate(86.051208, 58.849024)"><g><path d="M 18.828125 -34.671875 C 16.984375 -34.671875 15.78125 -34.441406 15.21875 -33.984375 C 14.664062 -33.523438 14.390625 -32.832031 14.390625 -31.90625 C 14.390625 -30.988281 14.800781 -30.175781 15.625 -29.46875 C 16.445312 -28.769531 17.269531 -28.257812 18.09375 -27.9375 C 18.914062 -27.625 19.875 -27.3125 20.96875 -27 C 22.0625 -26.6875 23.6875 -26.210938 25.84375 -25.578125 C 28 -24.953125 29.707031 -24.300781 30.96875 -23.625 C 34.695312 -21.539062 36.5625 -18.207031 36.5625 -13.625 C 36.5625 -9.050781 35.15625 -5.476562 32.34375 -2.90625 C 29.53125 -0.34375 25.582031 0.9375 20.5 0.9375 C 17.832031 0.9375 15.046875 0.585938 12.140625 -0.109375 C 9.234375 -0.804688 6.976562 -1.5 5.375 -2.1875 L 3.046875 -3.265625 L 5.8125 -12.140625 C 11.96875 -9.523438 17.007812 -8.21875 20.9375 -8.21875 C 22.4375 -8.21875 23.550781 -8.484375 24.28125 -9.015625 C 25.007812 -9.546875 25.375 -10.515625 25.375 -11.921875 C 25.375 -12.796875 25.226562 -13.425781 24.9375 -13.8125 C 24.644531 -14.195312 24.398438 -14.5 24.203125 -14.71875 C 24.015625 -14.9375 23.722656 -15.15625 23.328125 -15.375 C 22.941406 -15.59375 22.613281 -15.757812 22.34375 -15.875 C 22.082031 -16 21.6875 -16.15625 21.15625 -16.34375 C 20.625 -16.539062 20.210938 -16.6875 19.921875 -16.78125 C 19.628906 -16.882812 19.140625 -17.03125 18.453125 -17.21875 C 17.773438 -17.414062 17.015625 -17.644531 16.171875 -17.90625 C 15.328125 -18.175781 14.6875 -18.382812 14.25 -18.53125 C 13.8125 -18.675781 12.945312 -18.988281 11.65625 -19.46875 C 10.375 -19.957031 9.476562 -20.382812 8.96875 -20.75 C 8.46875 -21.113281 7.769531 -21.644531 6.875 -22.34375 C 5.976562 -23.050781 5.332031 -23.789062 4.9375 -24.5625 C 3.925781 -26.695312 3.421875 -28.832031 3.421875 -30.96875 C 3.421875 -34.9375 4.75 -38.046875 7.40625 -40.296875 C 10.070312 -42.554688 14.054688 -43.6875 19.359375 -43.6875 C 24.671875 -43.6875 29.800781 -42.863281 34.75 -41.21875 L 33.078125 -32.484375 C 27.503906 -33.941406 22.753906 -34.671875 18.828125 -34.671875 Z M 18.828125 -34.671875 "/></g></g></g><g fill="#ffffff" fill-opacity="1"><g transform="translate(125.061193, 58.849024)"><g><path d="M 18.03125 -40.625 L 26.75 -40.625 L 26.75 -31.984375 L 17.875 -31.984375 L 17.875 -14.03125 C 17.875 -11.707031 18.09375 -10.226562 18.53125 -9.59375 C 18.96875 -8.96875 19.789062 -8.65625 21 -8.65625 L 26.609375 -9.015625 L 26.609375 0.140625 C 24.234375 0.671875 21.613281 0.9375 18.75 0.9375 C 14.53125 0.9375 11.453125 -0.113281 9.515625 -2.21875 C 7.578125 -4.320312 6.609375 -8.351562 6.609375 -14.3125 L 6.609375 -32.203125 L 1.671875 -32.203125 L 1.671875 -39.25 L 7.125 -40.265625 L 8.796875 -50.375 L 18.03125 -50.375 Z M 18.03125 -40.625 "/></g></g></g><g fill="#ffffff" fill-opacity="1"><g transform="translate(154.118911, 58.849024)"><g><path d="M 7.8125 -37.96875 C 10.695312 -41.78125 15.53125 -43.6875 22.3125 -43.6875 C 29.09375 -43.6875 33.898438 -41.796875 36.734375 -38.015625 C 39.578125 -34.234375 41 -28.679688 41 -21.359375 C 41 -14.046875 39.578125 -8.5 36.734375 -4.71875 C 33.898438 -0.945312 29.09375 0.9375 22.3125 0.9375 C 15.53125 0.9375 10.695312 -0.960938 7.8125 -4.765625 C 4.925781 -8.566406 3.484375 -14.097656 3.484375 -21.359375 C 3.484375 -28.628906 4.925781 -34.164062 7.8125 -37.96875 Z M 29.515625 -21.359375 C 29.515625 -26.890625 29.015625 -30.5625 28.015625 -32.375 C 27.023438 -34.195312 25.113281 -35.109375 22.28125 -35.109375 C 19.445312 -35.109375 17.519531 -34.1875 16.5 -32.34375 C 15.476562 -30.5 14.96875 -26.835938 14.96875 -21.359375 C 14.96875 -15.890625 15.476562 -12.234375 16.5 -10.390625 C 17.519531 -8.546875 19.445312 -7.625 22.28125 -7.625 C 25.113281 -7.625 27.023438 -8.53125 28.015625 -10.34375 C 29.015625 -12.164062 29.515625 -15.835938 29.515625 -21.359375 Z M 32.125 -59.3125 L 34.375 -51.171875 L 12.421875 -46.953125 L 10.828125 -52.984375 Z M 32.125 -59.3125 "/></g></g></g><g fill="#ffffff" fill-opacity="1"><g transform="translate(198.577218, 58.849024)"><g><path d="M 16.53125 -39.71875 C 17.332031 -40.320312 18.765625 -41.132812 20.828125 -42.15625 C 22.890625 -43.175781 24.828125 -43.6875 26.640625 -43.6875 C 28.453125 -43.6875 29.894531 -43.421875 30.96875 -42.890625 L 30.09375 -33.140625 C 28.738281 -33.285156 27.40625 -33.359375 26.09375 -33.359375 C 22.84375 -33.359375 19.816406 -32.488281 17.015625 -30.75 L 17.015625 0 L 5.75 0 L 5.75 -42.734375 L 12.71875 -42.734375 L 14.171875 -38.234375 L 14.609375 -38.234375 C 15.097656 -38.617188 15.738281 -39.113281 16.53125 -39.71875 Z M 16.53125 -39.71875 "/></g></g></g><g fill="#ffffff" fill-opacity="1"><g transform="translate(229.814264, 58.849024)"><g><path d="M 17.375 0 L 6.109375 0 L 6.109375 -42.734375 L 17.375 -42.734375 Z M 18.09375 -47.75 L 5.375 -47.75 L 5.375 -55.3125 L 18.09375 -55.3125 Z M 18.09375 -47.75 "/></g></g></g><g fill="#ffffff" fill-opacity="1"><g transform="translate(253.278371, 58.849024)"><g><path d="M 16.140625 0.9375 C 12.546875 0.9375 9.570312 -0.296875 7.21875 -2.765625 C 4.875 -5.234375 3.703125 -8.816406 3.703125 -13.515625 C 3.703125 -18.222656 5.363281 -21.640625 8.6875 -23.765625 C 12.007812 -25.898438 16.84375 -26.96875 23.1875 -26.96875 L 28.640625 -26.96875 C 28.640625 -30.21875 28.320312 -32.3125 27.6875 -33.25 C 27.0625 -34.195312 25.644531 -34.671875 23.4375 -34.671875 C 21.238281 -34.671875 18.789062 -34.425781 16.09375 -33.9375 C 13.40625 -33.457031 10.414062 -32.734375 7.125 -31.765625 L 4.796875 -39.90625 C 6.785156 -40.820312 9.632812 -41.679688 13.34375 -42.484375 C 17.050781 -43.285156 20.359375 -43.6875 23.265625 -43.6875 C 29.222656 -43.6875 33.484375 -42.316406 36.046875 -39.578125 C 38.617188 -36.835938 39.90625 -32.851562 39.90625 -27.625 L 39.90625 0 L 32.78125 0 L 31.328125 -4.71875 L 30.890625 -4.71875 C 30.304688 -4.289062 29.539062 -3.757812 28.59375 -3.125 C 27.65625 -2.5 25.875 -1.664062 23.25 -0.625 C 20.632812 0.414062 18.265625 0.9375 16.140625 0.9375 Z M 28.640625 -18.609375 C 26.941406 -18.847656 24.675781 -18.96875 21.84375 -18.96875 C 19.007812 -18.96875 17.191406 -18.601562 16.390625 -17.875 C 15.585938 -17.15625 15.1875 -15.773438 15.1875 -13.734375 C 15.1875 -11.703125 15.515625 -10.285156 16.171875 -9.484375 C 16.828125 -8.679688 17.832031 -8.28125 19.1875 -8.28125 C 21.707031 -8.28125 24.375 -8.960938 27.1875 -10.328125 L 28.640625 -11.046875 Z M 28.640625 -18.609375 "/></g></g></g><g fill="#ffffff" fill-opacity="1"><g transform="translate(298.463121, 58.849024)"><g><path d="M 18.828125 -34.671875 C 16.984375 -34.671875 15.78125 -34.441406 15.21875 -33.984375 C 14.664062 -33.523438 14.390625 -32.832031 14.390625 -31.90625 C 14.390625 -30.988281 14.800781 -30.175781 15.625 -29.46875 C 16.445312 -28.769531 17.269531 -28.257812 18.09375 -27.9375 C 18.914062 -27.625 19.875 -27.3125 20.96875 -27 C 22.0625 -26.6875 23.6875 -26.210938 25.84375 -25.578125 C 28 -24.953125 29.707031 -24.300781 30.96875 -23.625 C 34.695312 -21.539062 36.5625 -18.207031 36.5625 -13.625 C 36.5625 -9.050781 35.15625 -5.476562 32.34375 -2.90625 C 29.53125 -0.34375 25.582031 0.9375 20.5 0.9375 C 17.832031 0.9375 15.046875 0.585938 12.140625 -0.109375 C 9.234375 -0.804688 6.976562 -1.5 5.375 -2.1875 L 3.046875 -3.265625 L 5.8125 -12.140625 C 11.96875 -9.523438 17.007812 -8.21875 20.9375 -8.21875 C 22.4375 -8.21875 23.550781 -8.484375 24.28125 -9.015625 C 25.007812 -9.546875 25.375 -10.515625 25.375 -11.921875 C 25.375 -12.796875 25.226562 -13.425781 24.9375 -13.8125 C 24.644531 -14.195312 24.398438 -14.5 24.203125 -14.71875 C 24.015625 -14.9375 23.722656 -15.15625 23.328125 -15.375 C 22.941406 -15.59375 22.613281 -15.757812 22.34375 -15.875 C 22.082031 -16 21.6875 -16.15625 21.15625 -16.34375 C 20.625 -16.539062 20.210938 -16.6875 19.921875 -16.78125 C 19.628906 -16.882812 19.140625 -17.03125 18.453125 -17.21875 C 17.773438 -17.414062 17.015625 -17.644531 16.171875 -17.90625 C 15.328125 -18.175781 14.6875 -18.382812 14.25 -18.53125 C 13.8125 -18.675781 12.945312 -18.988281 11.65625 -19.46875 C 10.375 -19.957031 9.476562 -20.382812 8.96875 -20.75 C 8.46875 -21.113281 7.769531 -21.644531 6.875 -22.34375 C 5.976562 -23.050781 5.332031 -23.789062 4.9375 -24.5625 C 3.925781 -26.695312 3.421875 -28.832031 3.421875 -30.96875 C 3.421875 -34.9375 4.75 -38.046875 7.40625 -40.296875 C 10.070312 -42.554688 14.054688 -43.6875 19.359375 -43.6875 C 24.671875 -43.6875 29.800781 -42.863281 34.75 -41.21875 L 33.078125 -32.484375 C 27.503906 -33.941406 22.753906 -34.671875 18.828125 -34.671875 Z M 18.828125 -34.671875 "/></g></g></g><g fill="#ffffff" fill-opacity="1"><g transform="translate(337.473107, 58.849024)"><g/></g></g><g fill="#ffffff" fill-opacity="1"><g transform="translate(354.907737, 58.849024)"><g><path d="M 36.265625 -5.671875 C 31.328125 -1.265625 25.9375 0.9375 20.09375 0.9375 C 14.257812 0.9375 9.65625 -0.632812 6.28125 -3.78125 C 2.914062 -6.925781 1.234375 -10.535156 1.234375 -14.609375 C 1.234375 -20.472656 4.335938 -24.976562 10.546875 -28.125 C 6.804688 -31.132812 4.9375 -34.613281 4.9375 -38.5625 C 4.9375 -42.507812 6.363281 -45.742188 9.21875 -48.265625 C 12.082031 -50.785156 16.082031 -52.046875 21.21875 -52.046875 C 26.351562 -52.046875 30.253906 -50.769531 32.921875 -48.21875 C 35.585938 -45.675781 36.921875 -42.613281 36.921875 -39.03125 C 36.921875 -34.476562 34.570312 -30.675781 29.875 -27.625 C 32.195312 -25.976562 34.546875 -23.96875 36.921875 -21.59375 C 38.234375 -23.914062 39.492188 -26.601562 40.703125 -29.65625 L 50.375 -26.96875 C 48.625 -22.5625 46.320312 -18.222656 43.46875 -13.953125 C 46.375 -9.691406 48.769531 -4.847656 50.65625 0.578125 L 39.46875 0.9375 C 38.882812 -0.75 37.816406 -2.953125 36.265625 -5.671875 Z M 12.9375 -14.28125 C 12.9375 -12.363281 13.566406 -10.785156 14.828125 -9.546875 C 16.085938 -8.316406 17.734375 -7.703125 19.765625 -7.703125 C 21.804688 -7.703125 23.832031 -8.242188 25.84375 -9.328125 C 27.851562 -10.421875 29.632812 -11.84375 31.1875 -13.59375 C 27.84375 -17.519531 24.28125 -20.617188 20.5 -22.890625 C 18.21875 -22.023438 16.382812 -20.851562 15 -19.375 C 13.625 -17.894531 12.9375 -16.195312 12.9375 -14.28125 Z M 20.859375 -43.6875 C 17.859375 -43.6875 16.359375 -42.160156 16.359375 -39.109375 C 16.359375 -36.347656 17.859375 -34.191406 20.859375 -32.640625 C 23.910156 -34.191406 25.4375 -36.367188 25.4375 -39.171875 C 25.4375 -40.484375 25.0625 -41.5625 24.3125 -42.40625 C 23.5625 -43.257812 22.410156 -43.6875 20.859375 -43.6875 Z M 20.859375 -43.6875 "/></g></g></g><g fill="#ffffff" fill-opacity="1"><g transform="translate(405.904031, 58.849024)"><g/></g></g><g fill="#ffffff" fill-opacity="1"><g transform="translate(423.338661, 58.849024)"><g><path d="M 36.421875 -11.78125 L 24.9375 -11.78125 L 17.078125 -38.3125 L 16.640625 -38.3125 L 17.078125 0 L 5.75 0 L 7.484375 -51.09375 L 22.09375 -51.09375 L 30.390625 -22.53125 L 30.8125 -22.53125 L 39.03125 -51.09375 L 53.578125 -51.09375 L 55.53125 0 L 44.1875 0 L 44.484375 -38.3125 L 44.046875 -38.3125 Z M 36.421875 -11.78125 "/></g></g></g><g fill="#ffffff" fill-opacity="1"><g transform="translate(484.577801, 58.849024)"><g><path d="M 23.265625 0.9375 C 10.078125 0.9375 3.484375 -6.5 3.484375 -21.375 C 3.484375 -36.25 10.023438 -43.6875 23.109375 -43.6875 C 28.972656 -43.6875 33.382812 -42.125 36.34375 -39 C 39.300781 -35.875 40.78125 -30.703125 40.78125 -23.484375 L 40.78125 -17.4375 L 15.1875 -17.4375 C 15.1875 -13.375 15.9375 -10.6875 17.4375 -9.375 C 18.457031 -8.457031 19.890625 -8 21.734375 -8 C 25.128906 -8 29.441406 -8.773438 34.671875 -10.328125 L 37.21875 -11.125 L 39.984375 -2.984375 C 37.796875 -1.960938 35.078125 -1.050781 31.828125 -0.25 C 28.585938 0.539062 25.734375 0.9375 23.265625 0.9375 Z M 27.984375 -33.21875 C 27.109375 -34.28125 25.363281 -34.8125 22.75 -34.8125 C 20.132812 -34.8125 18.269531 -34.179688 17.15625 -32.921875 C 16.039062 -31.660156 15.410156 -29.21875 15.265625 -25.59375 L 29.296875 -25.875 C 29.191406 -29.707031 28.753906 -32.15625 27.984375 -33.21875 Z M 27.984375 -33.21875 "/></g></g></g><g fill="#ffffff" fill-opacity="1"><g transform="translate(528.454954, 58.849024)"><g><path d="M 17.015625 0 L 5.75 0 L 5.75 -42.734375 L 12.9375 -42.734375 L 14.25 -38.453125 L 14.6875 -38.453125 C 16.476562 -39.515625 17.878906 -40.320312 18.890625 -40.875 C 19.910156 -41.4375 21.460938 -42.066406 23.546875 -42.765625 C 25.628906 -43.472656 27.59375 -43.828125 29.4375 -43.828125 C 33.84375 -43.828125 36.96875 -41.988281 38.8125 -38.3125 C 40.5625 -39.425781 41.992188 -40.296875 43.109375 -40.921875 C 44.222656 -41.554688 45.75 -42.195312 47.6875 -42.84375 C 49.625 -43.5 51.488281 -43.828125 53.28125 -43.828125 C 57.445312 -43.828125 60.390625 -42.429688 62.109375 -39.640625 C 63.828125 -36.859375 64.6875 -32.972656 64.6875 -27.984375 L 64.6875 0 L 53.28125 0 L 53.28125 -26.015625 C 53.28125 -29.753906 52.953125 -32.019531 52.296875 -32.8125 C 51.640625 -33.613281 50.609375 -34.015625 49.203125 -34.015625 C 46.546875 -34.015625 43.6875 -32.972656 40.625 -30.890625 C 40.726562 -29.335938 40.78125 -28.125 40.78125 -27.25 L 40.78125 0 L 29.515625 0 L 29.515625 -26.015625 C 29.515625 -29.796875 29.195312 -32.070312 28.5625 -32.84375 C 27.9375 -33.625 26.96875 -34.015625 25.65625 -34.015625 C 24.351562 -34.015625 22.875 -33.710938 21.21875 -33.109375 C 19.570312 -32.503906 18.171875 -31.789062 17.015625 -30.96875 Z M 17.015625 0 "/></g></g></g><g fill="#ffffff" fill-opacity="1"><g transform="translate(597.9029, 58.849024)"><g><path d="M 7.8125 -37.96875 C 10.695312 -41.78125 15.53125 -43.6875 22.3125 -43.6875 C 29.09375 -43.6875 33.898438 -41.796875 36.734375 -38.015625 C 39.578125 -34.234375 41 -28.679688 41 -21.359375 C 41 -14.046875 39.578125 -8.5 36.734375 -4.71875 C 33.898438 -0.945312 29.09375 0.9375 22.3125 0.9375 C 15.53125 0.9375 10.695312 -0.960938 7.8125 -4.765625 C 4.925781 -8.566406 3.484375 -14.097656 3.484375 -21.359375 C 3.484375 -28.628906 4.925781 -34.164062 7.8125 -37.96875 Z M 29.515625 -21.359375 C 29.515625 -26.890625 29.015625 -30.5625 28.015625 -32.375 C 27.023438 -34.195312 25.113281 -35.109375 22.28125 -35.109375 C 19.445312 -35.109375 17.519531 -34.1875 16.5 -32.34375 C 15.476562 -30.5 14.96875 -26.835938 14.96875 -21.359375 C 14.96875 -15.890625 15.476562 -12.234375 16.5 -10.390625 C 17.519531 -8.546875 19.445312 -7.625 22.28125 -7.625 C 25.113281 -7.625 27.023438 -8.53125 28.015625 -10.34375 C 29.015625 -12.164062 29.515625 -15.835938 29.515625 -21.359375 Z M 32.125 -59.3125 L 34.375 -51.171875 L 12.421875 -46.953125 L 10.828125 -52.984375 Z M 32.125 -59.3125 "/></g></g></g><g fill="#ffffff" fill-opacity="1"><g transform="translate(642.361207, 58.849024)"><g><path d="M 16.53125 -39.71875 C 17.332031 -40.320312 18.765625 -41.132812 20.828125 -42.15625 C 22.890625 -43.175781 24.828125 -43.6875 26.640625 -43.6875 C 28.453125 -43.6875 29.894531 -43.421875 30.96875 -42.890625 L 30.09375 -33.140625 C 28.738281 -33.285156 27.40625 -33.359375 26.09375 -33.359375 C 22.84375 -33.359375 19.816406 -32.488281 17.015625 -30.75 L 17.015625 0 L 5.75 0 L 5.75 -42.734375 L 12.71875 -42.734375 L 14.171875 -38.234375 L 14.609375 -38.234375 C 15.097656 -38.617188 15.738281 -39.113281 16.53125 -39.71875 Z M 16.53125 -39.71875 "/></g></g></g><g fill="#ffffff" fill-opacity="1"><g transform="translate(673.598254, 58.849024)"><g><path d="M 17.375 0 L 6.109375 0 L 6.109375 -42.734375 L 17.375 -42.734375 Z M 18.09375 -47.75 L 5.375 -47.75 L 5.375 -55.3125 L 18.09375 -55.3125 Z M 18.09375 -47.75 "/></g></g></g><g fill="#ffffff" fill-opacity="1"><g transform="translate(697.06236, 58.849024)"><g><path d="M 16.140625 0.9375 C 12.546875 0.9375 9.570312 -0.296875 7.21875 -2.765625 C 4.875 -5.234375 3.703125 -8.816406 3.703125 -13.515625 C 3.703125 -18.222656 5.363281 -21.640625 8.6875 -23.765625 C 12.007812 -25.898438 16.84375 -26.96875 23.1875 -26.96875 L 28.640625 -26.96875 C 28.640625 -30.21875 28.320312 -32.3125 27.6875 -33.25 C 27.0625 -34.195312 25.644531 -34.671875 23.4375 -34.671875 C 21.238281 -34.671875 18.789062 -34.425781 16.09375 -33.9375 C 13.40625 -33.457031 10.414062 -32.734375 7.125 -31.765625 L 4.796875 -39.90625 C 6.785156 -40.820312 9.632812 -41.679688 13.34375 -42.484375 C 17.050781 -43.285156 20.359375 -43.6875 23.265625 -43.6875 C 29.222656 -43.6875 33.484375 -42.316406 36.046875 -39.578125 C 38.617188 -36.835938 39.90625 -32.851562 39.90625 -27.625 L 39.90625 0 L 32.78125 0 L 31.328125 -4.71875 L 30.890625 -4.71875 C 30.304688 -4.289062 29.539062 -3.757812 28.59375 -3.125 C 27.65625 -2.5 25.875 -1.664062 23.25 -0.625 C 20.632812 0.414062 18.265625 0.9375 16.140625 0.9375 Z M 28.640625 -18.609375 C 26.941406 -18.847656 24.675781 -18.96875 21.84375 -18.96875 C 19.007812 -18.96875 17.191406 -18.601562 16.390625 -17.875 C 15.585938 -17.15625 15.1875 -15.773438 15.1875 -13.734375 C 15.1875 -11.703125 15.515625 -10.285156 16.171875 -9.484375 C 16.828125 -8.679688 17.832031 -8.28125 19.1875 -8.28125 C 21.707031 -8.28125 24.375 -8.960938 27.1875 -10.328125 L 28.640625 -11.046875 Z M 28.640625 -18.609375 "/></g></g></g><g fill="#ffffff" fill-opacity="1"><g transform="translate(742.247111, 58.849024)"><g><path d="M 18.828125 -34.671875 C 16.984375 -34.671875 15.78125 -34.441406 15.21875 -33.984375 C 14.664062 -33.523438 14.390625 -32.832031 14.390625 -31.90625 C 14.390625 -30.988281 14.800781 -30.175781 15.625 -29.46875 C 16.445312 -28.769531 17.269531 -28.257812 18.09375 -27.9375 C 18.914062 -27.625 19.875 -27.3125 20.96875 -27 C 22.0625 -26.6875 23.6875 -26.210938 25.84375 -25.578125 C 28 -24.953125 29.707031 -24.300781 30.96875 -23.625 C 34.695312 -21.539062 36.5625 -18.207031 36.5625 -13.625 C 36.5625 -9.050781 35.15625 -5.476562 32.34375 -2.90625 C 29.53125 -0.34375 25.582031 0.9375 20.5 0.9375 C 17.832031 0.9375 15.046875 0.585938 12.140625 -0.109375 C 9.234375 -0.804688 6.976562 -1.5 5.375 -2.1875 L 3.046875 -3.265625 L 5.8125 -12.140625 C 11.96875 -9.523438 17.007812 -8.21875 20.9375 -8.21875 C 22.4375 -8.21875 23.550781 -8.484375 24.28125 -9.015625 C 25.007812 -9.546875 25.375 -10.515625 25.375 -11.921875 C 25.375 -12.796875 25.226562 -13.425781 24.9375 -13.8125 C 24.644531 -14.195312 24.398438 -14.5 24.203125 -14.71875 C 24.015625 -14.9375 23.722656 -15.15625 23.328125 -15.375 C 22.941406 -15.59375 22.613281 -15.757812 22.34375 -15.875 C 22.082031 -16 21.6875 -16.15625 21.15625 -16.34375 C 20.625 -16.539062 20.210938 -16.6875 19.921875 -16.78125 C 19.628906 -16.882812 19.140625 -17.03125 18.453125 -17.21875 C 17.773438 -17.414062 17.015625 -17.644531 16.171875 -17.90625 C 15.328125 -18.175781 14.6875 -18.382812 14.25 -18.53125 C 13.8125 -18.675781 12.945312 -18.988281 11.65625 -19.46875 C 10.375 -19.957031 9.476562 -20.382812 8.96875 -20.75 C 8.46875 -21.113281 7.769531 -21.644531 6.875 -22.34375 C 5.976562 -23.050781 5.332031 -23.789062 4.9375 -24.5625 C 3.925781 -26.695312 3.421875 -28.832031 3.421875 -30.96875 C 3.421875 -34.9375 4.75 -38.046875 7.40625 -40.296875 C 10.070312 -42.554688 14.054688 -43.6875 19.359375 -43.6875 C 24.671875 -43.6875 29.800781 -42.863281 34.75 -41.21875 L 33.078125 -32.484375 C 27.503906 -33.941406 22.753906 -34.671875 18.828125 -34.671875 Z M 18.828125 -34.671875 "/></g></g></g><g fill="#ffffff" fill-opacity="1"><g transform="translate(781.265185, 58.849024)"><g/></g></g><g fill="#ffffff" fill-opacity="1"><g transform="translate(140.238703, 121.71225)"><g><path d="M 14.890625 0.59375 C 11.148438 0.59375 8.222656 -0.707031 6.109375 -3.3125 C 3.992188 -5.914062 2.9375 -10.050781 2.9375 -15.71875 C 2.9375 -23.46875 4.65625 -28.492188 8.09375 -30.796875 C 9.195312 -31.535156 10.34375 -32.039062 11.53125 -32.3125 C 12.726562 -32.59375 14.5 -32.734375 16.84375 -32.734375 C 19.1875 -32.734375 21.617188 -32.425781 24.140625 -31.8125 L 23.53125 -27.3125 C 20.65625 -27.738281 18 -27.953125 15.5625 -27.953125 C 13.125 -27.953125 11.566406 -27.597656 10.890625 -26.890625 C 9.390625 -25.328125 8.640625 -21.554688 8.640625 -15.578125 C 8.640625 -12.796875 8.898438 -10.476562 9.421875 -8.625 C 9.941406 -6.769531 10.5625 -5.523438 11.28125 -4.890625 C 12 -4.265625 13.054688 -3.953125 14.453125 -3.953125 C 15.847656 -3.953125 17.3125 -4.164062 18.84375 -4.59375 C 20.375 -5.019531 22.03125 -5.648438 23.8125 -6.484375 L 25.46875 -2.390625 C 25.132812 -2.171875 24.664062 -1.894531 24.0625 -1.5625 C 23.46875 -1.226562 22.25 -0.785156 20.40625 -0.234375 C 18.570312 0.316406 16.734375 0.59375 14.890625 0.59375 Z M 14.890625 0.59375 "/></g></g></g><g fill="#ffffff" fill-opacity="1"><g transform="translate(167.988736, 121.71225)"><g><path d="M 9.921875 0.59375 C 7.566406 0.59375 5.675781 -0.144531 4.25 -1.625 C 2.820312 -3.113281 2.109375 -5.335938 2.109375 -8.296875 C 2.109375 -11.253906 3.066406 -13.40625 4.984375 -14.75 C 6.898438 -16.101562 9.664062 -16.78125 13.28125 -16.78125 L 17.703125 -16.734375 C 17.703125 -19.703125 17.460938 -21.5 16.984375 -22.125 C 16.503906 -22.757812 15.578125 -23.078125 14.203125 -23.078125 C 12.828125 -23.078125 11.285156 -22.90625 9.578125 -22.5625 C 7.878906 -22.226562 6.082031 -21.707031 4.1875 -21 L 2.765625 -24.921875 C 3.191406 -25.097656 3.765625 -25.332031 4.484375 -25.625 C 5.203125 -25.914062 6.539062 -26.296875 8.5 -26.765625 C 10.46875 -27.242188 12.257812 -27.484375 13.875 -27.484375 C 19.976562 -27.484375 23.03125 -24.175781 23.03125 -17.5625 L 23.03125 0 L 19.625 0 L 18.890625 -2.890625 L 18.65625 -2.890625 C 18.320312 -2.617188 17.867188 -2.289062 17.296875 -1.90625 C 16.734375 -1.519531 15.675781 -1.003906 14.125 -0.359375 C 12.582031 0.273438 11.179688 0.59375 9.921875 0.59375 Z M 17.703125 -12.40625 C 16.441406 -12.59375 14.738281 -12.6875 12.59375 -12.6875 C 10.445312 -12.6875 9.113281 -12.425781 8.59375 -11.90625 C 7.914062 -11.289062 7.578125 -10.117188 7.578125 -8.390625 C 7.578125 -6.660156 7.800781 -5.476562 8.25 -4.84375 C 8.695312 -4.21875 9.414062 -3.90625 10.40625 -3.90625 C 11.40625 -3.90625 12.507812 -4.082031 13.71875 -4.4375 C 14.925781 -4.789062 16.253906 -5.300781 17.703125 -5.96875 Z M 6.890625 -29.734375 L 5.375 -32.046875 L 12.09375 -36.953125 L 14.890625 -36.953125 L 21.65625 -32.046875 L 20.046875 -29.734375 L 13.65625 -32.90625 L 13.328125 -32.90625 Z M 6.890625 -29.734375 "/></g></g></g><g fill="#ffffff" fill-opacity="1"><g transform="translate(195.003657, 121.71225)"><g><path d="M 4.28125 0 L 4.28125 -26.890625 L 7.765625 -26.890625 L 8.359375 -24.21875 L 8.59375 -24.21875 C 12.300781 -26.425781 15.472656 -27.53125 18.109375 -27.53125 C 20.742188 -27.53125 22.550781 -26.367188 23.53125 -24.046875 C 24.726562 -24.773438 25.660156 -25.332031 26.328125 -25.71875 C 27.003906 -26.101562 27.972656 -26.5 29.234375 -26.90625 C 30.492188 -27.320312 31.691406 -27.53125 32.828125 -27.53125 C 35.304688 -27.53125 37.050781 -26.679688 38.0625 -24.984375 C 39.070312 -23.285156 39.578125 -20.84375 39.578125 -17.65625 L 39.578125 0 L 34.25 0 L 34.25 -16.359375 C 34.25 -18.910156 34.070312 -20.601562 33.71875 -21.4375 C 33.363281 -22.28125 32.582031 -22.703125 31.375 -22.703125 C 30.164062 -22.703125 28.894531 -22.441406 27.5625 -21.921875 C 26.226562 -21.398438 25.175781 -20.894531 24.40625 -20.40625 C 24.53125 -19.1875 24.59375 -18.238281 24.59375 -17.5625 L 24.59375 0 L 19.265625 0 L 19.265625 -16.453125 C 19.265625 -19.859375 18.863281 -21.820312 18.0625 -22.34375 C 17.695312 -22.582031 17.128906 -22.703125 16.359375 -22.703125 C 14.460938 -22.703125 12.210938 -21.984375 9.609375 -20.546875 L 9.609375 0 Z M 4.28125 0 "/></g></g></g><g fill="#ffffff" fill-opacity="1"><g transform="translate(238.2367, 121.71225)"><g><path d="M 3.765625 7.625 L 3.765625 -26.890625 L 7.265625 -26.890625 L 7.90625 -24.140625 L 8.140625 -24.140625 C 8.203125 -24.160156 8.46875 -24.335938 8.9375 -24.671875 C 9.414062 -25.015625 9.785156 -25.269531 10.046875 -25.4375 C 10.304688 -25.613281 10.71875 -25.851562 11.28125 -26.15625 C 11.851562 -26.457031 12.367188 -26.6875 12.828125 -26.84375 C 14.109375 -27.269531 15.285156 -27.484375 16.359375 -27.484375 C 19.023438 -27.484375 21.125 -26.375 22.65625 -24.15625 C 24.195312 -21.9375 24.96875 -18.523438 24.96875 -13.921875 C 24.96875 -4.242188 21.472656 0.59375 14.484375 0.59375 C 13.160156 0.59375 11.367188 0.410156 9.109375 0.046875 L 9.109375 7.625 Z M 9.109375 -4.6875 C 11.191406 -4.132812 12.96875 -3.859375 14.4375 -3.859375 C 15.90625 -3.859375 16.929688 -4.070312 17.515625 -4.5 C 18.796875 -5.507812 19.4375 -8.804688 19.4375 -14.390625 C 19.4375 -16.441406 19.382812 -18.050781 19.28125 -19.21875 C 19.175781 -20.382812 18.945312 -21.226562 18.59375 -21.75 C 18.238281 -22.269531 17.898438 -22.570312 17.578125 -22.65625 C 17.253906 -22.75 16.671875 -22.796875 15.828125 -22.796875 C 14.992188 -22.796875 14 -22.613281 12.84375 -22.25 C 11.695312 -21.882812 10.453125 -21.347656 9.109375 -20.640625 Z M 9.109375 -4.6875 "/></g></g></g><g fill="#ffffff" fill-opacity="1"><g transform="translate(266.032638, 121.71225)"><g><path d="M 3.671875 -9.140625 L 3.671875 -26.890625 L 9.015625 -26.890625 L 9.015625 -10.203125 C 9.015625 -7.265625 9.210938 -5.503906 9.609375 -4.921875 C 10.035156 -4.398438 10.816406 -4.140625 11.953125 -4.140625 C 13.785156 -4.140625 16.082031 -4.875 18.84375 -6.34375 L 18.84375 -26.890625 L 24.171875 -26.890625 L 24.171875 0 L 20.6875 0 L 20.046875 -2.671875 L 19.8125 -2.671875 C 19.78125 -2.640625 19.4375 -2.4375 18.78125 -2.0625 C 18.125 -1.695312 17.664062 -1.453125 17.40625 -1.328125 C 17.144531 -1.210938 16.675781 -0.992188 16 -0.671875 C 15.320312 -0.347656 14.753906 -0.125 14.296875 0 C 13.003906 0.394531 11.835938 0.59375 10.796875 0.59375 C 6.046875 0.59375 3.671875 -2.648438 3.671875 -9.140625 Z M 3.671875 -9.140625 "/></g></g></g><g fill="#ffffff" fill-opacity="1"><g transform="translate(294.471827, 121.71225)"><g><path d="M 12.40625 -3.8125 C 13.601562 -3.8125 14.507812 -4.085938 15.125 -4.640625 C 15.738281 -5.191406 16.046875 -6.078125 16.046875 -7.296875 C 16.046875 -8.523438 15.644531 -9.40625 14.84375 -9.9375 C 14.050781 -10.476562 13.117188 -10.910156 12.046875 -11.234375 C 10.972656 -11.554688 10.375 -11.738281 10.25 -11.78125 C 10.125 -11.832031 9.769531 -11.945312 9.1875 -12.125 C 8.613281 -12.3125 8.0625 -12.5 7.53125 -12.6875 C 7.007812 -12.875 6.34375 -13.179688 5.53125 -13.609375 C 4.726562 -14.035156 4.140625 -14.492188 3.765625 -14.984375 C 2.753906 -16.210938 2.25 -17.742188 2.25 -19.578125 C 2.25 -22.003906 3.019531 -23.925781 4.5625 -25.34375 C 6.113281 -26.769531 8.367188 -27.484375 11.328125 -27.484375 C 14.285156 -27.484375 17.191406 -26.992188 20.046875 -26.015625 L 19.21875 -21.796875 C 16.03125 -22.554688 13.476562 -22.9375 11.5625 -22.9375 C 9.644531 -22.9375 8.460938 -22.679688 8.015625 -22.171875 C 7.578125 -21.671875 7.359375 -20.957031 7.359375 -20.03125 C 7.359375 -19.113281 7.789062 -18.375 8.65625 -17.8125 C 9.53125 -17.25 10.769531 -16.726562 12.375 -16.25 C 13.988281 -15.769531 14.960938 -15.476562 15.296875 -15.375 C 15.640625 -15.269531 16.160156 -15.085938 16.859375 -14.828125 C 17.566406 -14.566406 18.066406 -14.328125 18.359375 -14.109375 C 18.648438 -13.898438 19.023438 -13.601562 19.484375 -13.21875 C 19.953125 -12.832031 20.289062 -12.410156 20.5 -11.953125 C 20.988281 -10.847656 21.234375 -9.625 21.234375 -8.28125 C 21.234375 -5.582031 20.425781 -3.425781 18.8125 -1.8125 C 17.207031 -0.207031 14.9375 0.59375 12 0.59375 C 10.53125 0.59375 8.972656 0.394531 7.328125 0 C 5.691406 -0.394531 3.96875 -0.992188 2.15625 -1.796875 L 3.453125 -6.109375 C 7.035156 -4.578125 10.019531 -3.8125 12.40625 -3.8125 Z M 12.40625 -3.8125 "/></g></g></g><g fill="#ffffff" fill-opacity="1"><g transform="translate(317.995014, 121.71225)"><g/></g></g><g fill="#ffffff" fill-opacity="1"><g transform="translate(328.791812, 121.71225)"><g><path d="M 13.015625 -4.234375 C 15.703125 -4.234375 17.046875 -5.703125 17.046875 -8.640625 C 17.046875 -9.898438 16.539062 -10.957031 15.53125 -11.8125 C 14.519531 -12.664062 13.117188 -13.5 11.328125 -14.3125 C 9.535156 -15.125 8.507812 -15.597656 8.25 -15.734375 C 7.988281 -15.878906 7.519531 -16.132812 6.84375 -16.5 C 6.175781 -16.863281 5.710938 -17.171875 5.453125 -17.421875 C 5.191406 -17.671875 4.820312 -18.03125 4.34375 -18.5 C 3.863281 -18.976562 3.535156 -19.460938 3.359375 -19.953125 C 2.835938 -21.265625 2.578125 -22.550781 2.578125 -23.8125 C 2.578125 -26.414062 3.472656 -28.550781 5.265625 -30.21875 C 7.054688 -31.894531 9.609375 -32.734375 12.921875 -32.734375 C 15.335938 -32.734375 17.726562 -32.394531 20.09375 -31.71875 L 21.328125 -31.390625 L 20.453125 -26.890625 C 17.117188 -27.535156 14.566406 -27.859375 12.796875 -27.859375 C 11.035156 -27.859375 9.816406 -27.570312 9.140625 -27 C 8.472656 -26.4375 8.140625 -25.535156 8.140625 -24.296875 C 8.140625 -23.054688 8.5625 -22.085938 9.40625 -21.390625 C 10.25 -20.703125 11.226562 -20.085938 12.34375 -19.546875 C 13.457031 -19.015625 14.359375 -18.59375 15.046875 -18.28125 C 15.742188 -17.976562 16.265625 -17.742188 16.609375 -17.578125 C 16.960938 -17.410156 17.445312 -17.148438 18.0625 -16.796875 C 18.675781 -16.441406 19.148438 -16.117188 19.484375 -15.828125 C 19.828125 -15.546875 20.226562 -15.164062 20.6875 -14.6875 C 21.144531 -14.207031 21.484375 -13.722656 21.703125 -13.234375 C 22.285156 -12.046875 22.578125 -10.757812 22.578125 -9.375 C 22.578125 -6.40625 21.609375 -4 19.671875 -2.15625 C 17.742188 -0.320312 15.21875 0.59375 12.09375 0.59375 C 10.5 0.59375 8.832031 0.363281 7.09375 -0.09375 C 5.363281 -0.550781 4.039062 -1.007812 3.125 -1.46875 L 1.703125 -2.203125 C 1.972656 -3.035156 2.203125 -3.703125 2.390625 -4.203125 C 2.578125 -4.710938 2.726562 -5.140625 2.84375 -5.484375 C 2.96875 -5.835938 3.109375 -6.21875 3.265625 -6.625 C 6.785156 -5.03125 10.035156 -4.234375 13.015625 -4.234375 Z M 13.015625 -4.234375 "/></g></g></g><g fill="#ffffff" fill-opacity="1"><g transform="translate(353.693309, 121.71225)"><g><path d="M 9.921875 0.59375 C 7.566406 0.59375 5.675781 -0.144531 4.25 -1.625 C 2.820312 -3.113281 2.109375 -5.335938 2.109375 -8.296875 C 2.109375 -11.253906 3.066406 -13.40625 4.984375 -14.75 C 6.898438 -16.101562 9.664062 -16.78125 13.28125 -16.78125 L 17.703125 -16.734375 C 17.703125 -19.703125 17.460938 -21.5 16.984375 -22.125 C 16.503906 -22.757812 15.578125 -23.078125 14.203125 -23.078125 C 12.828125 -23.078125 11.285156 -22.90625 9.578125 -22.5625 C 7.878906 -22.226562 6.082031 -21.707031 4.1875 -21 L 2.765625 -24.921875 C 3.191406 -25.097656 3.765625 -25.332031 4.484375 -25.625 C 5.203125 -25.914062 6.539062 -26.296875 8.5 -26.765625 C 10.46875 -27.242188 12.257812 -27.484375 13.875 -27.484375 C 19.976562 -27.484375 23.03125 -24.175781 23.03125 -17.5625 L 23.03125 0 L 19.625 0 L 18.890625 -2.890625 L 18.65625 -2.890625 C 18.320312 -2.617188 17.867188 -2.289062 17.296875 -1.90625 C 16.734375 -1.519531 15.675781 -1.003906 14.125 -0.359375 C 12.582031 0.273438 11.179688 0.59375 9.921875 0.59375 Z M 17.703125 -12.40625 C 16.441406 -12.59375 14.738281 -12.6875 12.59375 -12.6875 C 10.445312 -12.6875 9.113281 -12.425781 8.59375 -11.90625 C 7.914062 -11.289062 7.578125 -10.117188 7.578125 -8.390625 C 7.578125 -6.660156 7.800781 -5.476562 8.25 -4.84375 C 8.695312 -4.21875 9.414062 -3.90625 10.40625 -3.90625 C 11.40625 -3.90625 12.507812 -4.082031 13.71875 -4.4375 C 14.925781 -4.789062 16.253906 -5.300781 17.703125 -5.96875 Z M 8.78125 -36.125 C 9.695312 -36.125 11.390625 -35.796875 13.859375 -35.140625 C 16.328125 -34.484375 17.664062 -34.15625 17.875 -34.15625 C 18.28125 -34.15625 18.726562 -34.796875 19.21875 -36.078125 L 22.109375 -35.671875 C 22.078125 -32.148438 20.820312 -30.390625 18.34375 -30.390625 C 17.457031 -30.390625 15.765625 -30.734375 13.265625 -31.421875 C 10.765625 -32.109375 9.40625 -32.453125 9.1875 -32.453125 C 8.757812 -32.453125 8.300781 -31.796875 7.8125 -30.484375 L 4.921875 -30.84375 C 4.953125 -34.363281 6.238281 -36.125 8.78125 -36.125 Z M 8.78125 -36.125 "/></g></g></g><g fill="#ffffff" fill-opacity="1"><g transform="translate(380.70823, 121.71225)"><g><path d="M 24.640625 -13.421875 C 24.640625 -8.828125 23.8125 -5.34375 22.15625 -2.96875 C 20.5 -0.59375 17.703125 0.59375 13.765625 0.59375 C 9.828125 0.59375 7.019531 -0.59375 5.34375 -2.96875 C 3.675781 -5.34375 2.84375 -8.828125 2.84375 -13.421875 C 2.84375 -18.015625 3.675781 -21.503906 5.34375 -23.890625 C 7.019531 -26.285156 9.828125 -27.484375 13.765625 -27.484375 C 17.703125 -27.484375 20.5 -26.285156 22.15625 -23.890625 C 23.8125 -21.503906 24.640625 -18.015625 24.640625 -13.421875 Z M 9.484375 -5.53125 C 10.242188 -4.257812 11.679688 -3.625 13.796875 -3.625 C 15.910156 -3.625 17.332031 -4.257812 18.0625 -5.53125 C 18.800781 -6.8125 19.171875 -9.445312 19.171875 -13.4375 C 19.171875 -17.4375 18.800781 -20.066406 18.0625 -21.328125 C 17.332031 -22.585938 15.910156 -23.21875 13.796875 -23.21875 C 11.679688 -23.21875 10.242188 -22.585938 9.484375 -21.328125 C 8.734375 -20.066406 8.359375 -17.4375 8.359375 -13.4375 C 8.359375 -9.445312 8.734375 -6.8125 9.484375 -5.53125 Z M 9.484375 -5.53125 "/></g></g></g><g fill="#ffffff" fill-opacity="1"><g transform="translate(408.182569, 121.71225)"><g/></g></g><g fill="#ffffff" fill-opacity="1"><g transform="translate(418.979368, 121.71225)"><g><path d="M 4.453125 -32.09375 C 8.773438 -32.519531 12.53125 -32.734375 15.71875 -32.734375 C 18.90625 -32.734375 21.3125 -31.796875 22.9375 -29.921875 C 24.5625 -28.054688 25.375 -25.316406 25.375 -21.703125 C 25.375 -17.285156 24.269531 -14.21875 22.0625 -12.5 C 20.164062 -10.96875 17.789062 -10.203125 14.9375 -10.203125 L 9.84375 -10.4375 L 9.84375 0 L 4.453125 0 L 4.640625 -14.9375 Z M 9.84375 -15.21875 C 11.613281 -14.90625 13.460938 -14.75 15.390625 -14.75 C 17.328125 -14.75 18.539062 -15.1875 19.03125 -16.0625 C 19.519531 -16.9375 19.765625 -18.941406 19.765625 -22.078125 C 19.765625 -25.222656 19.335938 -27.117188 18.484375 -27.765625 C 17.929688 -28.222656 16.734375 -28.453125 14.890625 -28.453125 C 13.054688 -28.453125 11.375 -28.332031 9.84375 -28.09375 Z M 9.84375 -15.21875 "/></g></g></g><g fill="#ffffff" fill-opacity="1"><g transform="translate(446.729401, 121.71225)"><g><path d="M 9.921875 0.59375 C 7.566406 0.59375 5.675781 -0.144531 4.25 -1.625 C 2.820312 -3.113281 2.109375 -5.335938 2.109375 -8.296875 C 2.109375 -11.253906 3.066406 -13.40625 4.984375 -14.75 C 6.898438 -16.101562 9.664062 -16.78125 13.28125 -16.78125 L 17.703125 -16.734375 C 17.703125 -19.703125 17.460938 -21.5 16.984375 -22.125 C 16.503906 -22.757812 15.578125 -23.078125 14.203125 -23.078125 C 12.828125 -23.078125 11.285156 -22.90625 9.578125 -22.5625 C 7.878906 -22.226562 6.082031 -21.707031 4.1875 -21 L 2.765625 -24.921875 C 3.191406 -25.097656 3.765625 -25.332031 4.484375 -25.625 C 5.203125 -25.914062 6.539062 -26.296875 8.5 -26.765625 C 10.46875 -27.242188 12.257812 -27.484375 13.875 -27.484375 C 19.976562 -27.484375 23.03125 -24.175781 23.03125 -17.5625 L 23.03125 0 L 19.625 0 L 18.890625 -2.890625 L 18.65625 -2.890625 C 18.320312 -2.617188 17.867188 -2.289062 17.296875 -1.90625 C 16.734375 -1.519531 15.675781 -1.003906 14.125 -0.359375 C 12.582031 0.273438 11.179688 0.59375 9.921875 0.59375 Z M 17.703125 -12.40625 C 16.441406 -12.59375 14.738281 -12.6875 12.59375 -12.6875 C 10.445312 -12.6875 9.113281 -12.425781 8.59375 -11.90625 C 7.914062 -11.289062 7.578125 -10.117188 7.578125 -8.390625 C 7.578125 -6.660156 7.800781 -5.476562 8.25 -4.84375 C 8.695312 -4.21875 9.414062 -3.90625 10.40625 -3.90625 C 11.40625 -3.90625 12.507812 -4.082031 13.71875 -4.4375 C 14.925781 -4.789062 16.253906 -5.300781 17.703125 -5.96875 Z M 17.703125 -12.40625 "/></g></g></g><g fill="#ffffff" fill-opacity="1"><g transform="translate(473.744322, 121.71225)"><g><path d="M 3.671875 -9.140625 L 3.671875 -26.890625 L 9.015625 -26.890625 L 9.015625 -10.203125 C 9.015625 -7.265625 9.210938 -5.503906 9.609375 -4.921875 C 10.035156 -4.398438 10.816406 -4.140625 11.953125 -4.140625 C 13.785156 -4.140625 16.082031 -4.875 18.84375 -6.34375 L 18.84375 -26.890625 L 24.171875 -26.890625 L 24.171875 0 L 20.6875 0 L 20.046875 -2.671875 L 19.8125 -2.671875 C 19.78125 -2.640625 19.4375 -2.4375 18.78125 -2.0625 C 18.125 -1.695312 17.664062 -1.453125 17.40625 -1.328125 C 17.144531 -1.210938 16.675781 -0.992188 16 -0.671875 C 15.320312 -0.347656 14.753906 -0.125 14.296875 0 C 13.003906 0.394531 11.835938 0.59375 10.796875 0.59375 C 6.046875 0.59375 3.671875 -2.648438 3.671875 -9.140625 Z M 3.671875 -9.140625 "/></g></g></g><g fill="#ffffff" fill-opacity="1"><g transform="translate(502.183511, 121.71225)"><g><path d="M 3.765625 0 L 3.765625 -34.796875 L 9.109375 -34.796875 L 9.109375 0 Z M 3.765625 0 "/></g></g></g><g fill="#ffffff" fill-opacity="1"><g transform="translate(515.047775, 121.71225)"><g><path d="M 24.640625 -13.421875 C 24.640625 -8.828125 23.8125 -5.34375 22.15625 -2.96875 C 20.5 -0.59375 17.703125 0.59375 13.765625 0.59375 C 9.828125 0.59375 7.019531 -0.59375 5.34375 -2.96875 C 3.675781 -5.34375 2.84375 -8.828125 2.84375 -13.421875 C 2.84375 -18.015625 3.675781 -21.503906 5.34375 -23.890625 C 7.019531 -26.285156 9.828125 -27.484375 13.765625 -27.484375 C 17.703125 -27.484375 20.5 -26.285156 22.15625 -23.890625 C 23.8125 -21.503906 24.640625 -18.015625 24.640625 -13.421875 Z M 9.484375 -5.53125 C 10.242188 -4.257812 11.679688 -3.625 13.796875 -3.625 C 15.910156 -3.625 17.332031 -4.257812 18.0625 -5.53125 C 18.800781 -6.8125 19.171875 -9.445312 19.171875 -13.4375 C 19.171875 -17.4375 18.800781 -20.066406 18.0625 -21.328125 C 17.332031 -22.585938 15.910156 -23.21875 13.796875 -23.21875 C 11.679688 -23.21875 10.242188 -22.585938 9.484375 -21.328125 C 8.734375 -20.066406 8.359375 -17.4375 8.359375 -13.4375 C 8.359375 -9.445312 8.734375 -6.8125 9.484375 -5.53125 Z M 9.484375 -5.53125 "/></g></g></g><g fill="#ffffff" fill-opacity="1"><g transform="translate(542.522114, 121.71225)"><g/></g></g><g fill="#ffffff" fill-opacity="1"><g transform="translate(553.318912, 121.71225)"><g><path d="M 1.75 -12.78125 L 1.75 -17.28125 L 12.921875 -17.28125 L 12.921875 -12.78125 Z M 1.75 -12.78125 "/></g></g></g><g fill="#ffffff" fill-opacity="1"><g transform="translate(567.974946, 121.71225)"><g/></g></g><g fill="#ffffff" fill-opacity="1"><g transform="translate(578.771744, 121.71225)"><g><path d="M 4.453125 0.046875 L 4.640625 -14.75 L 4.453125 -32.125 L 9.890625 -32.125 L 9.703125 -17.875 L 9.890625 0.046875 Z M 4.453125 0.046875 "/></g></g></g><g fill="#ffffff" fill-opacity="1"><g transform="translate(593.152138, 121.71225)"><g><path d="M 4.453125 0 L 4.453125 -32.125 L 21.828125 -32.125 L 21.828125 -27.3125 L 9.796875 -27.4375 L 9.609375 -18.484375 L 20.359375 -18.484375 L 20.359375 -13.96875 L 9.609375 -13.96875 L 9.84375 0 Z M 4.453125 0 "/></g></g></g><g fill="#ffffff" fill-opacity="1"><g transform="translate(617.08884, 121.71225)"><g><path d="M 13.015625 -4.234375 C 15.703125 -4.234375 17.046875 -5.703125 17.046875 -8.640625 C 17.046875 -9.898438 16.539062 -10.957031 15.53125 -11.8125 C 14.519531 -12.664062 13.117188 -13.5 11.328125 -14.3125 C 9.535156 -15.125 8.507812 -15.597656 8.25 -15.734375 C 7.988281 -15.878906 7.519531 -16.132812 6.84375 -16.5 C 6.175781 -16.863281 5.710938 -17.171875 5.453125 -17.421875 C 5.191406 -17.671875 4.820312 -18.03125 4.34375 -18.5 C 3.863281 -18.976562 3.535156 -19.460938 3.359375 -19.953125 C 2.835938 -21.265625 2.578125 -22.550781 2.578125 -23.8125 C 2.578125 -26.414062 3.472656 -28.550781 5.265625 -30.21875 C 7.054688 -31.894531 9.609375 -32.734375 12.921875 -32.734375 C 15.335938 -32.734375 17.726562 -32.394531 20.09375 -31.71875 L 21.328125 -31.390625 L 20.453125 -26.890625 C 17.117188 -27.535156 14.566406 -27.859375 12.796875 -27.859375 C 11.035156 -27.859375 9.816406 -27.570312 9.140625 -27 C 8.472656 -26.4375 8.140625 -25.535156 8.140625 -24.296875 C 8.140625 -23.054688 8.5625 -22.085938 9.40625 -21.390625 C 10.25 -20.703125 11.226562 -20.085938 12.34375 -19.546875 C 13.457031 -19.015625 14.359375 -18.59375 15.046875 -18.28125 C 15.742188 -17.976562 16.265625 -17.742188 16.609375 -17.578125 C 16.960938 -17.410156 17.445312 -17.148438 18.0625 -16.796875 C 18.675781 -16.441406 19.148438 -16.117188 19.484375 -15.828125 C 19.828125 -15.546875 20.226562 -15.164062 20.6875 -14.6875 C 21.144531 -14.207031 21.484375 -13.722656 21.703125 -13.234375 C 22.285156 -12.046875 22.578125 -10.757812 22.578125 -9.375 C 22.578125 -6.40625 21.609375 -4 19.671875 -2.15625 C 17.742188 -0.320312 15.21875 0.59375 12.09375 0.59375 C 10.5 0.59375 8.832031 0.363281 7.09375 -0.09375 C 5.363281 -0.550781 4.039062 -1.007812 3.125 -1.46875 L 1.703125 -2.203125 C 1.972656 -3.035156 2.203125 -3.703125 2.390625 -4.203125 C 2.578125 -4.710938 2.726562 -5.140625 2.84375 -5.484375 C 2.96875 -5.835938 3.109375 -6.21875 3.265625 -6.625 C 6.785156 -5.03125 10.035156 -4.234375 13.015625 -4.234375 Z M 13.015625 -4.234375 "/></g></g></g><g fill="#ffffff" fill-opacity="1"><g transform="translate(641.990337, 121.71225)"><g><path d="M 4.453125 -32.09375 C 8.773438 -32.519531 12.53125 -32.734375 15.71875 -32.734375 C 18.90625 -32.734375 21.3125 -31.796875 22.9375 -29.921875 C 24.5625 -28.054688 25.375 -25.316406 25.375 -21.703125 C 25.375 -17.285156 24.269531 -14.21875 22.0625 -12.5 C 20.164062 -10.96875 17.789062 -10.203125 14.9375 -10.203125 L 9.84375 -10.4375 L 9.84375 0 L 4.453125 0 L 4.640625 -14.9375 Z M 9.84375 -15.21875 C 11.613281 -14.90625 13.460938 -14.75 15.390625 -14.75 C 17.328125 -14.75 18.539062 -15.1875 19.03125 -16.0625 C 19.519531 -16.9375 19.765625 -18.941406 19.765625 -22.078125 C 19.765625 -25.222656 19.335938 -27.117188 18.484375 -27.765625 C 17.929688 -28.222656 16.734375 -28.453125 14.890625 -28.453125 C 13.054688 -28.453125 11.375 -28.332031 9.84375 -28.09375 Z M 9.84375 -15.21875 "/></g></g></g></svg>