<svg xmlns="http://www.w3.org/2000/svg" xmlns:xlink="http://www.w3.org/1999/xlink" width="810" zoomAndPan="magnify" viewBox="0 0 607.5 112.499997" height="150" preserveAspectRatio="xMidYMid meet" version="1.0"><path fill="#030119" d="M 14.035156 43.941406 L 14.035156 5.789062 L 22.554688 5.789062 L 22.402344 20.933594 L 34.988281 20.933594 L 34.828125 5.789062 L 43.34375 5.789062 L 43.34375 43.941406 L 34.828125 43.941406 L 34.988281 28.203125 L 22.402344 28.203125 L 22.554688 43.941406 Z M 14.035156 43.941406 " fill-opacity="1" fill-rule="nonzero"/><path fill="#030119" d="M 60.800781 43.941406 L 52.390625 43.941406 L 52.390625 12.03125 L 60.800781 12.03125 Z M 61.339844 8.289062 L 51.839844 8.289062 L 51.839844 2.640625 L 61.339844 2.640625 Z M 61.339844 8.289062 " fill-opacity="1" fill-rule="nonzero"/><path fill="#030119" d="M 79.40625 18.050781 C 78.03125 18.050781 77.132812 18.226562 76.710938 18.566406 C 76.296875 18.910156 76.09375 19.425781 76.09375 20.117188 C 76.09375 20.804688 76.398438 21.410156 77.015625 21.9375 C 77.628906 22.460938 78.242188 22.84375 78.859375 23.082031 C 79.46875 23.3125 80.1875 23.546875 81.003906 23.78125 C 81.820312 24.015625 83.035156 24.371094 84.644531 24.84375 C 86.253906 25.308594 87.53125 25.796875 88.472656 26.300781 C 91.253906 27.859375 92.648438 30.347656 92.648438 33.769531 C 92.648438 37.183594 91.597656 39.851562 89.5 41.769531 C 87.398438 43.683594 84.449219 44.640625 80.65625 44.640625 C 78.664062 44.640625 76.582031 44.378906 74.414062 43.859375 C 72.242188 43.339844 70.558594 42.820312 69.359375 42.308594 L 67.621094 41.503906 L 69.6875 34.875 C 74.285156 36.832031 78.046875 37.804688 80.980469 37.804688 C 82.101562 37.804688 82.933594 37.605469 83.476562 37.210938 C 84.019531 36.8125 84.292969 36.089844 84.292969 35.039062 C 84.292969 34.386719 84.183594 33.917969 83.96875 33.628906 C 83.75 33.34375 83.566406 33.113281 83.417969 32.953125 C 83.28125 32.789062 83.0625 32.625 82.765625 32.460938 C 82.476562 32.296875 82.234375 32.175781 82.03125 32.085938 C 81.835938 31.996094 81.542969 31.878906 81.144531 31.738281 C 80.75 31.59375 80.4375 31.480469 80.222656 31.410156 C 80.003906 31.335938 79.640625 31.222656 79.125 31.085938 C 78.617188 30.9375 78.054688 30.765625 77.421875 30.570312 C 76.792969 30.371094 76.316406 30.214844 75.988281 30.105469 C 75.660156 29.996094 75.015625 29.761719 74.050781 29.40625 C 73.09375 29.039062 72.421875 28.722656 72.042969 28.449219 C 71.671875 28.175781 71.148438 27.78125 70.480469 27.257812 C 69.808594 26.730469 69.328125 26.179688 69.035156 25.601562 C 68.277344 24.007812 67.902344 22.414062 67.902344 20.816406 C 67.902344 17.855469 68.894531 15.53125 70.878906 13.851562 C 72.867188 12.167969 75.84375 11.320312 79.804688 11.320312 C 83.769531 11.320312 87.597656 11.9375 91.296875 13.164062 L 90.046875 19.6875 C 85.882812 18.597656 82.335938 18.050781 79.40625 18.050781 Z M 79.40625 18.050781 " fill-opacity="1" fill-rule="nonzero"/><path fill="#030119" d="M 107.941406 13.609375 L 114.449219 13.609375 L 114.449219 20.058594 L 107.824219 20.058594 L 107.824219 33.464844 C 107.824219 35.199219 107.984375 36.304688 108.3125 36.777344 C 108.640625 37.246094 109.253906 37.476562 110.15625 37.476562 L 114.34375 37.210938 L 114.34375 44.046875 C 112.570312 44.441406 110.613281 44.640625 108.476562 44.640625 C 105.324219 44.640625 103.027344 43.855469 101.582031 42.285156 C 100.132812 40.714844 99.410156 37.707031 99.410156 33.253906 L 99.410156 19.894531 L 95.722656 19.894531 L 95.722656 14.632812 L 99.796875 13.875 L 101.042969 6.328125 L 107.941406 6.328125 Z M 107.941406 13.609375 " fill-opacity="1" fill-rule="nonzero"/><path fill="#030119" d="M 122.007812 15.589844 C 124.160156 12.746094 127.769531 11.320312 132.832031 11.320312 C 137.898438 11.320312 141.484375 12.734375 143.601562 15.554688 C 145.726562 18.378906 146.785156 22.527344 146.785156 27.992188 C 146.785156 33.453125 145.726562 37.59375 143.601562 40.417969 C 141.484375 43.234375 137.898438 44.640625 132.832031 44.640625 C 127.769531 44.640625 124.160156 43.222656 122.007812 40.382812 C 119.851562 37.546875 118.773438 33.414062 118.773438 27.992188 C 118.773438 22.566406 119.851562 18.433594 122.007812 15.589844 Z M 138.210938 27.992188 C 138.210938 23.863281 137.839844 21.121094 137.089844 19.769531 C 136.351562 18.410156 134.925781 17.726562 132.808594 17.726562 C 130.691406 17.726562 129.253906 18.414062 128.492188 19.789062 C 127.730469 21.167969 127.351562 23.902344 127.351562 27.992188 C 127.351562 32.078125 127.730469 34.804688 128.492188 36.183594 C 129.253906 37.558594 130.691406 38.246094 132.808594 38.246094 C 134.925781 38.246094 136.351562 37.570312 137.089844 36.21875 C 137.839844 34.859375 138.210938 32.117188 138.210938 27.992188 Z M 140.160156 -0.347656 L 141.839844 5.730469 L 125.449219 8.882812 L 124.257812 4.378906 Z M 140.160156 -0.347656 " fill-opacity="1" fill-rule="nonzero"/><path fill="#030119" d="M 161.710938 14.285156 C 162.308594 13.835938 163.378906 13.226562 164.921875 12.464844 C 166.460938 11.703125 167.90625 11.320312 169.261719 11.320312 C 170.613281 11.320312 171.691406 11.519531 172.492188 11.914062 L 171.839844 19.195312 C 170.828125 19.089844 169.832031 19.03125 168.851562 19.03125 C 166.425781 19.03125 164.164062 19.683594 162.074219 20.980469 L 162.074219 43.941406 L 153.664062 43.941406 L 153.664062 12.03125 L 158.867188 12.03125 L 159.949219 15.390625 L 160.277344 15.390625 C 160.640625 15.105469 161.121094 14.734375 161.710938 14.285156 Z M 161.710938 14.285156 " fill-opacity="1" fill-rule="nonzero"/><path fill="#030119" d="M 185.667969 43.941406 L 177.253906 43.941406 L 177.253906 12.03125 L 185.667969 12.03125 Z M 186.203125 8.289062 L 176.707031 8.289062 L 176.707031 2.640625 L 186.203125 2.640625 Z M 186.203125 8.289062 " fill-opacity="1" fill-rule="nonzero"/><path fill="#030119" d="M 202.265625 44.640625 C 199.582031 44.640625 197.359375 43.71875 195.601562 41.875 C 193.851562 40.03125 192.976562 37.359375 192.976562 33.847656 C 192.976562 30.335938 194.21875 27.78125 196.699219 26.195312 C 199.179688 24.605469 202.789062 23.804688 207.527344 23.804688 L 211.597656 23.804688 C 211.597656 21.378906 211.359375 19.8125 210.886719 19.113281 C 210.421875 18.410156 209.363281 18.050781 207.714844 18.050781 C 206.070312 18.050781 204.242188 18.238281 202.230469 18.601562 C 200.222656 18.960938 197.988281 19.5 195.535156 20.222656 L 193.792969 14.144531 C 195.28125 13.460938 197.40625 12.820312 200.175781 12.21875 C 202.945312 11.621094 205.414062 11.320312 207.585938 11.320312 C 212.03125 11.320312 215.214844 12.34375 217.128906 14.390625 C 219.046875 16.4375 220.011719 19.410156 220.011719 23.3125 L 220.011719 43.941406 L 214.691406 43.941406 L 213.605469 40.417969 L 213.277344 40.417969 C 212.839844 40.738281 212.269531 41.136719 211.5625 41.609375 C 210.863281 42.074219 209.535156 42.699219 207.574219 43.476562 C 205.621094 44.25 203.851562 44.640625 202.265625 44.640625 Z M 211.597656 30.046875 C 210.328125 29.867188 208.636719 29.777344 206.523438 29.777344 C 204.40625 29.777344 203.050781 30.050781 202.453125 30.59375 C 201.851562 31.132812 201.554688 32.164062 201.554688 33.6875 C 201.554688 35.203125 201.796875 36.261719 202.289062 36.859375 C 202.777344 37.460938 203.527344 37.757812 204.539062 37.757812 C 206.421875 37.757812 208.414062 37.25 210.511719 36.230469 L 211.597656 35.691406 Z M 211.597656 30.046875 " fill-opacity="1" fill-rule="nonzero"/><path fill="#030119" d="M 238.011719 18.050781 C 236.632812 18.050781 235.734375 18.226562 235.316406 18.566406 C 234.902344 18.910156 234.695312 19.425781 234.695312 20.117188 C 234.695312 20.804688 235.003906 21.410156 235.617188 21.9375 C 236.230469 22.460938 236.847656 22.84375 237.460938 23.082031 C 238.074219 23.3125 238.792969 23.546875 239.609375 23.78125 C 240.425781 24.015625 241.640625 24.371094 243.25 24.84375 C 244.859375 25.308594 246.132812 25.796875 247.074219 26.300781 C 249.859375 27.859375 251.253906 30.347656 251.253906 33.769531 C 251.253906 37.183594 250.203125 39.851562 248.101562 41.769531 C 246.003906 43.683594 243.054688 44.640625 239.257812 44.640625 C 237.265625 44.640625 235.1875 44.378906 233.015625 43.859375 C 230.847656 43.339844 229.160156 42.820312 227.964844 42.308594 L 226.226562 41.503906 L 228.292969 34.875 C 232.890625 36.832031 236.652344 37.804688 239.585938 37.804688 C 240.707031 37.804688 241.535156 37.605469 242.082031 37.210938 C 242.625 36.8125 242.898438 36.089844 242.898438 35.039062 C 242.898438 34.386719 242.789062 33.917969 242.574219 33.628906 C 242.355469 33.34375 242.167969 33.113281 242.023438 32.953125 C 241.882812 32.789062 241.664062 32.625 241.371094 32.460938 C 241.082031 32.296875 240.835938 32.175781 240.636719 32.085938 C 240.441406 31.996094 240.144531 31.878906 239.75 31.738281 C 239.351562 31.59375 239.042969 31.480469 238.828125 31.410156 C 238.609375 31.335938 238.242188 31.222656 237.730469 31.085938 C 237.222656 30.9375 236.65625 30.765625 236.027344 30.570312 C 235.398438 30.371094 234.917969 30.214844 234.59375 30.105469 C 234.265625 29.996094 233.617188 29.761719 232.65625 29.40625 C 231.699219 29.039062 231.027344 28.722656 230.648438 28.449219 C 230.273438 28.175781 229.753906 27.78125 229.085938 27.257812 C 228.414062 26.730469 227.933594 26.179688 227.636719 25.601562 C 226.882812 24.007812 226.507812 22.414062 226.507812 20.816406 C 226.507812 17.855469 227.5 15.53125 229.480469 13.851562 C 231.472656 12.167969 234.445312 11.320312 238.40625 11.320312 C 242.375 11.320312 246.203125 11.9375 249.898438 13.164062 L 248.652344 19.6875 C 244.488281 18.597656 240.941406 18.050781 238.011719 18.050781 Z M 238.011719 18.050781 " fill-opacity="1" fill-rule="nonzero"/><path fill="#030119" d="M 293.175781 39.707031 C 289.492188 42.996094 285.464844 44.640625 281.101562 44.640625 C 276.746094 44.640625 273.308594 43.46875 270.789062 41.117188 C 268.273438 38.769531 267.019531 36.074219 267.019531 33.03125 C 267.019531 28.65625 269.335938 25.292969 273.972656 22.941406 C 271.179688 20.695312 269.785156 18.097656 269.785156 15.148438 C 269.785156 12.203125 270.851562 9.785156 272.980469 7.902344 C 275.121094 6.019531 278.105469 5.078125 281.941406 5.078125 C 285.773438 5.078125 288.6875 6.03125 290.679688 7.9375 C 292.667969 9.835938 293.667969 12.121094 293.667969 14.796875 C 293.667969 18.199219 291.910156 21.035156 288.40625 23.3125 C 290.136719 24.546875 291.894531 26.042969 293.667969 27.816406 C 294.648438 26.085938 295.585938 24.078125 296.492188 21.796875 L 303.710938 23.804688 C 302.40625 27.09375 300.683594 30.335938 298.554688 33.523438 C 300.726562 36.703125 302.511719 40.320312 303.921875 44.375 L 295.570312 44.640625 C 295.132812 43.382812 294.335938 41.738281 293.175781 39.707031 Z M 275.757812 33.277344 C 275.757812 34.710938 276.226562 35.886719 277.171875 36.8125 C 278.109375 37.730469 279.339844 38.191406 280.855469 38.191406 C 282.378906 38.191406 283.894531 37.789062 285.394531 36.976562 C 286.894531 36.160156 288.222656 35.097656 289.386719 33.792969 C 286.890625 30.859375 284.230469 28.546875 281.40625 26.847656 C 279.703125 27.496094 278.332031 28.371094 277.296875 29.472656 C 276.273438 30.578125 275.757812 31.847656 275.757812 33.277344 Z M 281.671875 11.320312 C 279.433594 11.320312 278.3125 12.460938 278.3125 14.738281 C 278.3125 16.800781 279.433594 18.410156 281.671875 19.570312 C 283.953125 18.410156 285.09375 16.785156 285.09375 14.691406 C 285.09375 13.710938 284.8125 12.90625 284.253906 12.277344 C 283.691406 11.640625 282.832031 11.320312 281.671875 11.320312 Z M 281.671875 11.320312 " fill-opacity="1" fill-rule="nonzero"/><path fill="#030119" d="M 344.390625 35.144531 L 335.816406 35.144531 L 329.945312 15.335938 L 329.621094 15.335938 L 329.945312 43.941406 L 321.488281 43.941406 L 322.78125 5.789062 L 333.691406 5.789062 L 339.886719 27.117188 L 340.203125 27.117188 L 346.339844 5.789062 L 357.199219 5.789062 L 358.660156 43.941406 L 350.1875 43.941406 L 350.410156 15.335938 L 350.082031 15.335938 Z M 344.390625 35.144531 " fill-opacity="1" fill-rule="nonzero"/><path fill="#030119" d="M 380.292969 44.640625 C 370.445312 44.640625 365.523438 39.089844 365.523438 27.980469 C 365.523438 16.875 370.40625 11.320312 380.175781 11.320312 C 384.554688 11.320312 387.847656 12.488281 390.058594 14.820312 C 392.265625 17.152344 393.371094 21.015625 393.371094 26.40625 L 393.371094 30.921875 L 374.261719 30.921875 C 374.261719 33.953125 374.820312 35.960938 375.941406 36.941406 C 376.703125 37.625 377.773438 37.96875 379.148438 37.96875 C 381.683594 37.96875 384.902344 37.390625 388.808594 36.230469 L 390.710938 35.632812 L 392.777344 41.714844 C 391.144531 42.476562 389.113281 43.15625 386.6875 43.753906 C 384.265625 44.34375 382.136719 44.640625 380.292969 44.640625 Z M 383.816406 19.136719 C 383.164062 18.34375 381.859375 17.949219 379.90625 17.949219 C 377.953125 17.949219 376.5625 18.421875 375.730469 19.359375 C 374.898438 20.300781 374.425781 22.125 374.320312 24.832031 L 384.796875 24.621094 C 384.71875 21.757812 384.390625 19.929688 383.816406 19.136719 Z M 383.816406 19.136719 " fill-opacity="1" fill-rule="nonzero"/><path fill="#030119" d="M 408.386719 43.941406 L 399.976562 43.941406 L 399.976562 12.03125 L 405.34375 12.03125 L 406.324219 15.230469 L 406.648438 15.230469 C 407.984375 14.4375 409.03125 13.835938 409.789062 13.421875 C 410.550781 13 411.707031 12.53125 413.265625 12.007812 C 414.820312 11.480469 416.285156 11.214844 417.664062 11.214844 C 420.953125 11.214844 423.285156 12.589844 424.664062 15.335938 C 425.96875 14.503906 427.039062 13.851562 427.871094 13.386719 C 428.703125 12.914062 429.84375 12.433594 431.289062 11.949219 C 432.738281 11.460938 434.128906 11.214844 435.464844 11.214844 C 438.574219 11.214844 440.773438 12.261719 442.058594 14.34375 C 443.34375 16.417969 443.984375 19.320312 443.984375 23.046875 L 443.984375 43.941406 L 435.464844 43.941406 L 435.464844 24.515625 C 435.464844 21.726562 435.222656 20.03125 434.730469 19.441406 C 434.242188 18.84375 433.472656 18.542969 432.421875 18.542969 C 430.4375 18.542969 428.304688 19.320312 426.015625 20.875 C 426.09375 22.035156 426.132812 22.941406 426.132812 23.59375 L 426.132812 43.941406 L 417.722656 43.941406 L 417.722656 24.515625 C 417.722656 21.691406 417.480469 19.996094 417.007812 19.417969 C 416.542969 18.835938 415.820312 18.542969 414.839844 18.542969 C 413.867188 18.542969 412.761719 18.769531 411.527344 19.21875 C 410.296875 19.671875 409.25 20.207031 408.386719 20.816406 Z M 408.386719 43.941406 " fill-opacity="1" fill-rule="nonzero"/><path fill="#030119" d="M 453.371094 15.589844 C 455.523438 12.746094 459.136719 11.320312 464.199219 11.320312 C 469.261719 11.320312 472.847656 12.734375 474.96875 15.554688 C 477.089844 18.378906 478.152344 22.527344 478.152344 27.992188 C 478.152344 33.453125 477.089844 37.59375 474.96875 40.417969 C 472.847656 43.234375 469.261719 44.640625 464.199219 44.640625 C 459.136719 44.640625 455.523438 43.222656 453.371094 40.382812 C 451.214844 37.546875 450.140625 33.414062 450.140625 27.992188 C 450.140625 22.566406 451.214844 18.433594 453.371094 15.589844 Z M 469.578125 27.992188 C 469.578125 23.863281 469.203125 21.121094 468.457031 19.769531 C 467.714844 18.410156 466.289062 17.726562 464.175781 17.726562 C 462.058594 17.726562 460.621094 18.414062 459.859375 19.789062 C 459.09375 21.167969 458.714844 23.902344 458.714844 27.992188 C 458.714844 32.078125 459.09375 34.804688 459.859375 36.183594 C 460.621094 37.558594 462.058594 38.246094 464.175781 38.246094 C 466.289062 38.246094 467.714844 37.570312 468.457031 36.21875 C 469.203125 34.859375 469.578125 32.117188 469.578125 27.992188 Z M 471.523438 -0.347656 L 473.207031 5.730469 L 456.8125 8.882812 L 455.625 4.378906 Z M 471.523438 -0.347656 " fill-opacity="1" fill-rule="nonzero"/><path fill="#030119" d="M 493.078125 14.285156 C 493.675781 13.835938 494.746094 13.226562 496.285156 12.464844 C 497.824219 11.703125 499.273438 11.320312 500.625 11.320312 C 501.980469 11.320312 503.054688 11.519531 503.859375 11.914062 L 503.203125 19.195312 C 502.191406 19.089844 501.199219 19.03125 500.21875 19.03125 C 497.792969 19.03125 495.53125 19.683594 493.4375 20.980469 L 493.4375 43.941406 L 485.027344 43.941406 L 485.027344 12.03125 L 490.230469 12.03125 L 491.316406 15.390625 L 491.644531 15.390625 C 492.007812 15.105469 492.484375 14.734375 493.078125 14.285156 Z M 493.078125 14.285156 " fill-opacity="1" fill-rule="nonzero"/><path fill="#030119" d="M 517.03125 43.941406 L 508.621094 43.941406 L 508.621094 12.03125 L 517.03125 12.03125 Z M 517.570312 8.289062 L 508.070312 8.289062 L 508.070312 2.640625 L 517.570312 2.640625 Z M 517.570312 8.289062 " fill-opacity="1" fill-rule="nonzero"/><path fill="#030119" d="M 533.628906 44.640625 C 530.945312 44.640625 528.722656 43.71875 526.96875 41.875 C 525.21875 40.03125 524.34375 37.359375 524.34375 33.847656 C 524.34375 30.335938 525.582031 27.78125 528.066406 26.195312 C 530.542969 24.605469 534.15625 23.804688 538.890625 23.804688 L 542.964844 23.804688 C 542.964844 21.378906 542.722656 19.8125 542.253906 19.113281 C 541.785156 18.410156 540.726562 18.050781 539.078125 18.050781 C 537.4375 18.050781 535.609375 18.238281 533.59375 18.601562 C 531.589844 18.960938 529.355469 19.5 526.898438 20.222656 L 525.160156 14.144531 C 526.644531 13.460938 528.769531 12.820312 531.542969 12.21875 C 534.308594 11.621094 536.78125 11.320312 538.949219 11.320312 C 543.398438 11.320312 546.582031 12.34375 548.492188 14.390625 C 550.414062 16.4375 551.375 19.410156 551.375 23.3125 L 551.375 43.941406 L 546.054688 43.941406 L 544.96875 40.417969 L 544.644531 40.417969 C 544.207031 40.738281 543.632812 41.136719 542.929688 41.609375 C 542.230469 42.074219 540.898438 42.699219 538.9375 43.476562 C 536.984375 44.25 535.21875 44.640625 533.628906 44.640625 Z M 542.964844 30.046875 C 541.695312 29.867188 540.003906 29.777344 537.890625 29.777344 C 535.769531 29.777344 534.414062 30.050781 533.816406 30.59375 C 533.214844 31.132812 532.917969 32.164062 532.917969 33.6875 C 532.917969 35.203125 533.164062 36.261719 533.652344 36.859375 C 534.144531 37.460938 534.894531 37.757812 535.90625 37.757812 C 537.785156 37.757812 539.777344 37.25 541.878906 36.230469 L 542.964844 35.691406 Z M 542.964844 30.046875 " fill-opacity="1" fill-rule="nonzero"/><path fill="#030119" d="M 569.375 18.050781 C 568 18.050781 567.101562 18.226562 566.679688 18.566406 C 566.265625 18.910156 566.0625 19.425781 566.0625 20.117188 C 566.0625 20.804688 566.367188 21.410156 566.984375 21.9375 C 567.597656 22.460938 568.210938 22.84375 568.828125 23.082031 C 569.441406 23.3125 570.15625 23.546875 570.972656 23.78125 C 571.789062 24.015625 573.003906 24.371094 574.613281 24.84375 C 576.222656 25.308594 577.5 25.796875 578.441406 26.300781 C 581.222656 27.859375 582.617188 30.347656 582.617188 33.769531 C 582.617188 37.183594 581.566406 39.851562 579.46875 41.769531 C 577.367188 43.683594 574.417969 44.640625 570.625 44.640625 C 568.632812 44.640625 566.550781 44.378906 564.382812 43.859375 C 562.210938 43.339844 560.527344 42.820312 559.332031 42.308594 L 557.59375 41.503906 L 559.65625 34.875 C 564.253906 36.832031 568.015625 37.804688 570.949219 37.804688 C 572.070312 37.804688 572.902344 37.605469 573.449219 37.210938 C 573.988281 36.8125 574.265625 36.089844 574.265625 35.039062 C 574.265625 34.386719 574.152344 33.917969 573.9375 33.628906 C 573.71875 33.34375 573.535156 33.113281 573.390625 32.953125 C 573.25 32.789062 573.03125 32.625 572.734375 32.460938 C 572.445312 32.296875 572.203125 32.175781 572 32.085938 C 571.804688 31.996094 571.511719 31.878906 571.113281 31.738281 C 570.71875 31.59375 570.410156 31.480469 570.191406 31.410156 C 569.972656 31.335938 569.609375 31.222656 569.097656 31.085938 C 568.589844 30.9375 568.023438 30.765625 567.390625 30.570312 C 566.761719 30.371094 566.285156 30.214844 565.957031 30.105469 C 565.628906 29.996094 564.984375 29.761719 564.019531 29.40625 C 563.0625 29.039062 562.394531 28.722656 562.015625 28.449219 C 561.640625 28.175781 561.117188 27.78125 560.449219 27.257812 C 559.78125 26.730469 559.296875 26.179688 559.003906 25.601562 C 558.25 24.007812 557.871094 22.414062 557.871094 20.816406 C 557.871094 17.855469 558.863281 15.53125 560.847656 13.851562 C 562.835938 12.167969 565.8125 11.320312 569.773438 11.320312 C 573.738281 11.320312 577.570312 11.9375 581.265625 13.164062 L 580.015625 19.6875 C 575.855469 18.597656 572.308594 18.050781 569.375 18.050781 Z M 569.375 18.050781 " fill-opacity="1" fill-rule="nonzero"/><path fill="#030119" d="M 116.925781 91.324219 C 114.132812 91.324219 111.949219 90.351562 110.371094 88.40625 C 108.789062 86.464844 108.003906 83.375 108.003906 79.144531 C 108.003906 73.355469 109.285156 69.605469 111.851562 67.882812 C 112.675781 67.332031 113.53125 66.957031 114.417969 66.753906 C 115.3125 66.542969 116.636719 66.4375 118.386719 66.4375 C 120.136719 66.4375 121.949219 66.667969 123.835938 67.125 L 123.378906 70.488281 C 121.234375 70.167969 119.25 70.007812 117.429688 70.007812 C 115.609375 70.007812 114.445312 70.273438 113.941406 70.800781 C 112.820312 71.96875 112.261719 74.785156 112.261719 79.25 C 112.261719 81.324219 112.453125 83.058594 112.84375 84.441406 C 113.230469 85.824219 113.695312 86.753906 114.234375 87.226562 C 114.769531 87.695312 115.558594 87.929688 116.601562 87.929688 C 117.640625 87.929688 118.734375 87.769531 119.878906 87.449219 C 121.023438 87.132812 122.257812 86.664062 123.589844 86.039062 L 124.824219 89.09375 C 124.574219 89.257812 124.226562 89.464844 123.777344 89.714844 C 123.332031 89.964844 122.421875 90.292969 121.046875 90.707031 C 119.675781 91.117188 118.304688 91.324219 116.925781 91.324219 Z M 116.925781 91.324219 " fill-opacity="1" fill-rule="nonzero"/><path fill="#030119" d="M 133.9375 91.324219 C 132.179688 91.324219 130.765625 90.773438 129.703125 89.667969 C 128.636719 88.554688 128.105469 86.894531 128.105469 84.683594 C 128.105469 82.476562 128.820312 80.871094 130.25 79.867188 C 131.679688 78.855469 133.746094 78.351562 136.445312 78.351562 L 139.746094 78.386719 C 139.746094 76.167969 139.566406 74.828125 139.210938 74.359375 C 138.851562 73.886719 138.160156 73.648438 137.132812 73.648438 C 136.109375 73.648438 134.957031 73.777344 133.679688 74.03125 C 132.414062 74.285156 131.070312 74.671875 129.65625 75.199219 L 128.59375 72.269531 C 128.914062 72.140625 129.339844 71.964844 129.878906 71.746094 C 130.414062 71.53125 131.410156 71.246094 132.875 70.894531 C 134.347656 70.539062 135.683594 70.359375 136.890625 70.359375 C 141.445312 70.359375 143.726562 72.828125 143.726562 77.765625 L 143.726562 90.878906 L 141.183594 90.878906 L 140.632812 88.722656 L 140.460938 88.722656 C 140.207031 88.925781 139.871094 89.171875 139.445312 89.457031 C 139.023438 89.746094 138.234375 90.128906 137.078125 90.613281 C 135.925781 91.085938 134.878906 91.324219 133.9375 91.324219 Z M 139.746094 81.617188 C 138.804688 81.476562 137.535156 81.40625 135.933594 81.40625 C 134.328125 81.40625 133.335938 81.601562 132.945312 81.988281 C 132.4375 82.449219 132.1875 83.324219 132.1875 84.613281 C 132.1875 85.90625 132.355469 86.789062 132.691406 87.261719 C 133.023438 87.730469 133.558594 87.964844 134.300781 87.964844 C 135.046875 87.964844 135.867188 87.832031 136.773438 87.566406 C 137.675781 87.304688 138.664062 86.921875 139.746094 86.421875 Z M 131.675781 68.679688 L 130.542969 66.953125 L 135.558594 63.289062 L 137.648438 63.289062 L 142.699219 66.953125 L 141.496094 68.679688 L 136.726562 66.308594 L 136.480469 66.308594 Z M 131.675781 68.679688 " fill-opacity="1" fill-rule="nonzero"/><path fill="#030119" d="M 149.898438 90.878906 L 149.898438 70.800781 L 152.5 70.800781 L 152.941406 72.796875 L 153.117188 72.796875 C 155.886719 71.148438 158.253906 70.324219 160.222656 70.324219 C 162.1875 70.324219 163.539062 71.191406 164.269531 72.925781 C 165.164062 72.382812 165.859375 71.964844 166.359375 71.675781 C 166.863281 71.390625 167.585938 71.09375 168.53125 70.789062 C 169.46875 70.480469 170.363281 70.324219 171.214844 70.324219 C 173.0625 70.324219 174.367188 70.957031 175.121094 72.226562 C 175.875 73.492188 176.253906 75.316406 176.253906 77.695312 L 176.253906 90.878906 L 172.273438 90.878906 L 172.273438 78.664062 C 172.273438 76.761719 172.140625 75.496094 171.878906 74.875 C 171.613281 74.242188 171.03125 73.929688 170.128906 73.929688 C 169.222656 73.929688 168.277344 74.125 167.28125 74.511719 C 166.285156 74.902344 165.5 75.277344 164.925781 75.644531 C 165.019531 76.554688 165.066406 77.261719 165.066406 77.765625 L 165.066406 90.878906 L 161.085938 90.878906 L 161.085938 78.59375 C 161.085938 76.050781 160.785156 74.585938 160.1875 74.195312 C 159.914062 74.019531 159.492188 73.929688 158.917969 73.929688 C 157.5 73.929688 155.820312 74.464844 153.875 75.539062 L 153.875 90.878906 Z M 149.898438 90.878906 " fill-opacity="1" fill-rule="nonzero"/><path fill="#030119" d="M 181.792969 96.574219 L 181.792969 70.800781 L 184.40625 70.800781 L 184.886719 72.855469 L 185.0625 72.855469 C 185.105469 72.839844 185.304688 72.707031 185.65625 72.457031 C 186.011719 72.203125 186.289062 72.011719 186.484375 71.886719 C 186.675781 71.753906 186.984375 71.578125 187.40625 71.351562 C 187.832031 71.125 188.214844 70.953125 188.5625 70.835938 C 189.515625 70.519531 190.394531 70.359375 191.199219 70.359375 C 193.1875 70.359375 194.757812 71.1875 195.898438 72.84375 C 197.046875 74.5 197.625 77.050781 197.625 80.484375 C 197.625 87.710938 195.015625 91.324219 189.796875 91.324219 C 188.808594 91.324219 187.46875 91.1875 185.785156 90.914062 L 185.785156 96.574219 Z M 185.785156 87.378906 C 187.339844 87.792969 188.664062 88 189.761719 88 C 190.859375 88 191.625 87.839844 192.0625 87.519531 C 193.015625 86.765625 193.496094 84.304688 193.496094 80.136719 C 193.496094 78.605469 193.453125 77.402344 193.378906 76.53125 C 193.300781 75.660156 193.128906 75.03125 192.867188 74.640625 C 192.601562 74.25 192.347656 74.027344 192.109375 73.964844 C 191.867188 73.894531 191.429688 73.859375 190.800781 73.859375 C 190.175781 73.859375 189.4375 73.996094 188.574219 74.265625 C 187.714844 74.539062 186.789062 74.941406 185.785156 75.46875 Z M 185.785156 87.378906 " fill-opacity="1" fill-rule="nonzero"/><path fill="#030119" d="M 202.480469 84.054688 L 202.480469 70.800781 L 206.46875 70.800781 L 206.46875 83.261719 C 206.46875 85.453125 206.613281 86.769531 206.914062 87.203125 C 207.230469 87.597656 207.8125 87.789062 208.664062 87.789062 C 210.03125 87.789062 211.746094 87.238281 213.808594 86.144531 L 213.808594 70.800781 L 217.785156 70.800781 L 217.785156 90.878906 L 215.183594 90.878906 L 214.707031 88.886719 L 214.53125 88.886719 C 214.507812 88.910156 214.25 89.058594 213.761719 89.339844 C 213.269531 89.613281 212.925781 89.796875 212.734375 89.886719 C 212.539062 89.976562 212.1875 90.140625 211.683594 90.378906 C 211.175781 90.621094 210.753906 90.785156 210.414062 90.878906 C 209.445312 91.175781 208.574219 91.324219 207.800781 91.324219 C 204.253906 91.324219 202.480469 88.902344 202.480469 84.054688 Z M 202.480469 84.054688 " fill-opacity="1" fill-rule="nonzero"/><path fill="#030119" d="M 230.234375 88.035156 C 231.128906 88.035156 231.804688 87.828125 232.265625 87.414062 C 232.722656 87.003906 232.953125 86.339844 232.953125 85.433594 C 232.953125 84.515625 232.652344 83.855469 232.054688 83.460938 C 231.464844 83.058594 230.765625 82.734375 229.96875 82.492188 C 229.164062 82.253906 228.71875 82.117188 228.625 82.082031 C 228.53125 82.046875 228.265625 81.960938 227.832031 81.828125 C 227.402344 81.6875 226.992188 81.546875 226.59375 81.40625 C 226.203125 81.265625 225.707031 81.039062 225.101562 80.71875 C 224.5 80.398438 224.0625 80.058594 223.785156 79.691406 C 223.027344 78.777344 222.652344 77.632812 222.652344 76.261719 C 222.652344 74.449219 223.226562 73.015625 224.378906 71.957031 C 225.535156 70.890625 227.21875 70.359375 229.429688 70.359375 C 231.636719 70.359375 233.808594 70.726562 235.941406 71.453125 L 235.320312 74.605469 C 232.941406 74.039062 231.035156 73.753906 229.605469 73.753906 C 228.171875 73.753906 227.289062 73.945312 226.957031 74.324219 C 226.628906 74.699219 226.46875 75.230469 226.46875 75.921875 C 226.46875 76.609375 226.789062 77.160156 227.433594 77.578125 C 228.089844 78 229.011719 78.390625 230.210938 78.746094 C 231.417969 79.105469 232.144531 79.324219 232.394531 79.398438 C 232.652344 79.480469 233.039062 79.617188 233.558594 79.808594 C 234.089844 80.003906 234.460938 80.179688 234.679688 80.34375 C 234.894531 80.503906 235.175781 80.722656 235.519531 81.011719 C 235.871094 81.296875 236.121094 81.613281 236.277344 81.953125 C 236.644531 82.78125 236.828125 83.691406 236.828125 84.695312 C 236.828125 86.710938 236.222656 88.320312 235.019531 89.527344 C 233.820312 90.726562 232.125 91.324219 229.933594 91.324219 C 228.835938 91.324219 227.671875 91.175781 226.445312 90.878906 C 225.222656 90.585938 223.933594 90.140625 222.582031 89.539062 L 223.550781 86.316406 C 226.226562 87.460938 228.453125 88.035156 230.234375 88.035156 Z M 230.234375 88.035156 " fill-opacity="1" fill-rule="nonzero"/><path fill="#030119" d="M 256.316406 87.71875 C 258.324219 87.71875 259.328125 86.621094 259.328125 84.429688 C 259.328125 83.488281 258.949219 82.699219 258.195312 82.058594 C 257.441406 81.425781 256.390625 80.800781 255.054688 80.191406 C 253.71875 79.585938 252.949219 79.234375 252.757812 79.132812 C 252.5625 79.023438 252.210938 78.835938 251.707031 78.558594 C 251.210938 78.289062 250.863281 78.058594 250.667969 77.871094 C 250.472656 77.683594 250.195312 77.417969 249.839844 77.066406 C 249.484375 76.710938 249.238281 76.347656 249.105469 75.980469 C 248.714844 75 248.523438 74.042969 248.523438 73.101562 C 248.523438 71.15625 249.191406 69.5625 250.53125 68.316406 C 251.867188 67.066406 253.773438 66.4375 256.246094 66.4375 C 258.050781 66.4375 259.835938 66.691406 261.601562 67.195312 L 262.523438 67.441406 L 261.871094 70.800781 C 259.378906 70.320312 257.472656 70.078125 256.152344 70.078125 C 254.835938 70.078125 253.925781 70.292969 253.421875 70.71875 C 252.925781 71.140625 252.675781 71.8125 252.675781 72.738281 C 252.675781 73.664062 252.992188 74.390625 253.621094 74.90625 C 254.25 75.421875 254.980469 75.882812 255.816406 76.285156 C 256.644531 76.679688 257.320312 76.996094 257.832031 77.230469 C 258.351562 77.457031 258.742188 77.632812 259 77.753906 C 259.261719 77.878906 259.625 78.074219 260.085938 78.339844 C 260.542969 78.605469 260.894531 78.84375 261.148438 79.0625 C 261.402344 79.273438 261.699219 79.558594 262.046875 79.914062 C 262.386719 80.273438 262.640625 80.632812 262.804688 81 C 263.238281 81.886719 263.457031 82.847656 263.457031 83.878906 C 263.457031 86.097656 262.734375 87.894531 261.285156 89.269531 C 259.847656 90.640625 257.960938 91.324219 255.628906 91.324219 C 254.4375 91.324219 253.191406 91.152344 251.894531 90.808594 C 250.601562 90.46875 249.613281 90.128906 248.929688 89.785156 L 247.871094 89.234375 C 248.070312 88.613281 248.242188 88.113281 248.382812 87.742188 C 248.523438 87.363281 248.632812 87.042969 248.722656 86.785156 C 248.816406 86.523438 248.917969 86.238281 249.035156 85.933594 C 251.664062 87.125 254.089844 87.71875 256.316406 87.71875 Z M 256.316406 87.71875 " fill-opacity="1" fill-rule="nonzero"/><path fill="#030119" d="M 272.597656 91.324219 C 270.839844 91.324219 269.429688 90.773438 268.363281 89.667969 C 267.296875 88.554688 266.765625 86.894531 266.765625 84.683594 C 266.765625 82.476562 267.480469 80.871094 268.914062 79.867188 C 270.34375 78.855469 272.40625 78.351562 275.109375 78.351562 L 278.410156 78.386719 C 278.410156 76.167969 278.230469 74.828125 277.871094 74.359375 C 277.515625 73.886719 276.824219 73.648438 275.796875 73.648438 C 274.769531 73.648438 273.617188 73.777344 272.34375 74.03125 C 271.074219 74.285156 269.734375 74.671875 268.316406 75.199219 L 267.257812 72.269531 C 267.574219 72.140625 268.003906 71.964844 268.539062 71.746094 C 269.078125 71.53125 270.074219 71.246094 271.539062 70.894531 C 273.007812 70.539062 274.34375 70.359375 275.550781 70.359375 C 280.105469 70.359375 282.386719 72.828125 282.386719 77.765625 L 282.386719 90.878906 L 279.84375 90.878906 L 279.296875 88.722656 L 279.121094 88.722656 C 278.871094 88.925781 278.53125 89.171875 278.105469 89.457031 C 277.6875 89.746094 276.894531 90.128906 275.738281 90.613281 C 274.585938 91.085938 273.539062 91.324219 272.597656 91.324219 Z M 278.410156 81.617188 C 277.46875 81.476562 276.195312 81.40625 274.59375 81.40625 C 272.992188 81.40625 271.996094 81.601562 271.609375 81.988281 C 271.101562 82.449219 270.847656 83.324219 270.847656 84.613281 C 270.847656 85.90625 271.015625 86.789062 271.351562 87.261719 C 271.683594 87.730469 272.21875 87.964844 272.960938 87.964844 C 273.707031 87.964844 274.53125 87.832031 275.433594 87.566406 C 276.335938 87.304688 277.328125 86.921875 278.410156 86.421875 Z M 271.746094 63.90625 C 272.429688 63.90625 273.695312 64.152344 275.539062 64.640625 C 277.382812 65.132812 278.378906 65.375 278.539062 65.375 C 278.839844 65.375 279.175781 64.898438 279.542969 63.941406 L 281.699219 64.246094 C 281.675781 66.875 280.738281 68.1875 278.886719 68.1875 C 278.226562 68.1875 276.964844 67.929688 275.097656 67.417969 C 273.230469 66.90625 272.214844 66.648438 272.050781 66.648438 C 271.730469 66.648438 271.390625 67.136719 271.023438 68.117188 L 268.867188 67.851562 C 268.890625 65.222656 269.847656 63.90625 271.746094 63.90625 Z M 271.746094 63.90625 " fill-opacity="1" fill-rule="nonzero"/><path fill="#030119" d="M 303.761719 80.859375 C 303.761719 84.289062 303.144531 86.890625 301.90625 88.664062 C 300.667969 90.4375 298.582031 91.324219 295.640625 91.324219 C 292.703125 91.324219 290.605469 90.4375 289.351562 88.664062 C 288.105469 86.890625 287.484375 84.289062 287.484375 80.859375 C 287.484375 77.429688 288.105469 74.824219 289.351562 73.042969 C 290.605469 71.253906 292.703125 70.359375 295.640625 70.359375 C 298.582031 70.359375 300.667969 71.253906 301.90625 73.042969 C 303.144531 74.824219 303.761719 77.429688 303.761719 80.859375 Z M 292.445312 86.75 C 293.011719 87.699219 294.082031 88.171875 295.664062 88.171875 C 297.242188 88.171875 298.304688 87.699219 298.851562 86.75 C 299.402344 85.792969 299.679688 83.828125 299.679688 80.847656 C 299.679688 77.859375 299.402344 75.898438 298.851562 74.953125 C 298.304688 74.015625 297.242188 73.542969 295.664062 73.542969 C 294.082031 73.542969 293.011719 74.015625 292.445312 74.953125 C 291.882812 75.898438 291.605469 77.859375 291.605469 80.847656 C 291.605469 83.828125 291.882812 85.792969 292.445312 86.75 Z M 292.445312 86.75 " fill-opacity="1" fill-rule="nonzero"/><path fill="#030119" d="M 317.265625 66.917969 C 320.492188 66.597656 323.296875 66.4375 325.675781 66.4375 C 328.058594 66.4375 329.851562 67.136719 331.066406 68.539062 C 332.28125 69.933594 332.886719 71.976562 332.886719 74.675781 C 332.886719 77.972656 332.0625 80.261719 330.414062 81.546875 C 328.996094 82.691406 327.222656 83.261719 325.09375 83.261719 L 321.289062 83.085938 L 321.289062 90.878906 L 317.265625 90.878906 L 317.40625 79.726562 Z M 321.289062 79.515625 C 322.609375 79.75 323.992188 79.867188 325.429688 79.867188 C 326.878906 79.867188 327.78125 79.539062 328.148438 78.886719 C 328.515625 78.234375 328.699219 76.738281 328.699219 74.394531 C 328.699219 72.046875 328.378906 70.632812 327.742188 70.148438 C 327.328125 69.808594 326.433594 69.632812 325.058594 69.632812 C 323.6875 69.632812 322.433594 69.726562 321.289062 69.902344 Z M 321.289062 79.515625 " fill-opacity="1" fill-rule="nonzero"/><path fill="#030119" d="M 342.070312 91.324219 C 340.308594 91.324219 338.898438 90.773438 337.832031 89.667969 C 336.765625 88.554688 336.234375 86.894531 336.234375 84.683594 C 336.234375 82.476562 336.949219 80.871094 338.382812 79.867188 C 339.8125 78.855469 341.875 78.351562 344.578125 78.351562 L 347.878906 78.386719 C 347.878906 76.167969 347.699219 74.828125 347.34375 74.359375 C 346.984375 73.886719 346.292969 73.648438 345.265625 73.648438 C 344.238281 73.648438 343.085938 73.777344 341.8125 74.03125 C 340.542969 74.285156 339.203125 74.671875 337.785156 75.199219 L 336.726562 72.269531 C 337.042969 72.140625 337.472656 71.964844 338.007812 71.746094 C 338.546875 71.53125 339.542969 71.246094 341.007812 70.894531 C 342.476562 70.539062 343.8125 70.359375 345.019531 70.359375 C 349.578125 70.359375 351.855469 72.828125 351.855469 77.765625 L 351.855469 90.878906 L 349.3125 90.878906 L 348.765625 88.722656 L 348.589844 88.722656 C 348.339844 88.925781 348 89.171875 347.574219 89.457031 C 347.15625 89.746094 346.363281 90.128906 345.207031 90.613281 C 344.054688 91.085938 343.007812 91.324219 342.070312 91.324219 Z M 347.878906 81.617188 C 346.9375 81.476562 345.664062 81.40625 344.0625 81.40625 C 342.460938 81.40625 341.464844 81.601562 341.078125 81.988281 C 340.570312 82.449219 340.320312 83.324219 340.320312 84.613281 C 340.320312 85.90625 340.484375 86.789062 340.820312 87.261719 C 341.152344 87.730469 341.6875 87.964844 342.429688 87.964844 C 343.175781 87.964844 344 87.832031 344.902344 87.566406 C 345.804688 87.304688 346.796875 86.921875 347.878906 86.421875 Z M 347.878906 81.617188 " fill-opacity="1" fill-rule="nonzero"/><path fill="#030119" d="M 357.574219 84.054688 L 357.574219 70.800781 L 361.5625 70.800781 L 361.5625 83.261719 C 361.5625 85.453125 361.707031 86.769531 362.007812 87.203125 C 362.324219 87.597656 362.90625 87.789062 363.757812 87.789062 C 365.125 87.789062 366.839844 87.238281 368.902344 86.144531 L 368.902344 70.800781 L 372.878906 70.800781 L 372.878906 90.878906 L 370.277344 90.878906 L 369.800781 88.886719 L 369.625 88.886719 C 369.601562 88.910156 369.34375 89.058594 368.855469 89.339844 C 368.363281 89.613281 368.019531 89.796875 367.828125 89.886719 C 367.632812 89.976562 367.28125 90.140625 366.777344 90.378906 C 366.269531 90.621094 365.847656 90.785156 365.507812 90.878906 C 364.539062 91.175781 363.667969 91.324219 362.894531 91.324219 C 359.347656 91.324219 357.574219 88.902344 357.574219 84.054688 Z M 357.574219 84.054688 " fill-opacity="1" fill-rule="nonzero"/><path fill="#030119" d="M 378.878906 64.898438 L 382.867188 64.898438 L 382.867188 90.878906 L 378.878906 90.878906 Z M 378.878906 64.898438 " fill-opacity="1" fill-rule="nonzero"/><path fill="#030119" d="M 404.070312 80.859375 C 404.070312 84.289062 403.453125 86.890625 402.214844 88.664062 C 400.980469 90.4375 398.890625 91.324219 395.949219 91.324219 C 393.011719 91.324219 390.914062 90.4375 389.660156 88.664062 C 388.417969 86.890625 387.796875 84.289062 387.796875 80.859375 C 387.796875 77.429688 388.417969 74.824219 389.660156 73.042969 C 390.914062 71.253906 393.011719 70.359375 395.949219 70.359375 C 398.890625 70.359375 400.980469 71.253906 402.214844 73.042969 C 403.453125 74.824219 404.070312 77.429688 404.070312 80.859375 Z M 392.753906 86.75 C 393.320312 87.699219 394.394531 88.171875 395.972656 88.171875 C 397.550781 88.171875 398.613281 87.699219 399.160156 86.75 C 399.710938 85.792969 399.988281 83.828125 399.988281 80.847656 C 399.988281 77.859375 399.710938 75.898438 399.160156 74.953125 C 398.613281 74.015625 397.550781 73.542969 395.972656 73.542969 C 394.394531 73.542969 393.320312 74.015625 392.753906 74.953125 C 392.195312 75.898438 391.914062 77.859375 391.914062 80.847656 C 391.914062 83.828125 392.195312 85.792969 392.753906 86.75 Z M 392.753906 86.75 " fill-opacity="1" fill-rule="nonzero"/><path fill="#030119" d="M 415.554688 77.976562 L 423.898438 77.976562 L 423.898438 81.335938 L 415.554688 81.335938 Z M 415.554688 77.976562 " fill-opacity="1" fill-rule="nonzero"/><path fill="#030119" d="M 436.578125 90.914062 L 436.71875 79.867188 L 436.578125 66.894531 L 440.636719 66.894531 L 440.5 77.53125 L 440.636719 90.914062 Z M 436.578125 90.914062 " fill-opacity="1" fill-rule="nonzero"/><path fill="#030119" d="M 447.316406 90.878906 L 447.316406 66.894531 L 460.289062 66.894531 L 460.289062 70.488281 L 451.304688 70.394531 L 451.164062 77.078125 L 459.191406 77.078125 L 459.191406 80.449219 L 451.164062 80.449219 L 451.339844 90.878906 Z M 447.316406 90.878906 " fill-opacity="1" fill-rule="nonzero"/><path fill="#030119" d="M 471.582031 87.71875 C 473.589844 87.71875 474.59375 86.621094 474.59375 84.429688 C 474.59375 83.488281 474.214844 82.699219 473.460938 82.058594 C 472.707031 81.425781 471.660156 80.800781 470.324219 80.191406 C 468.984375 79.585938 468.214844 79.234375 468.023438 79.132812 C 467.828125 79.023438 467.480469 78.835938 466.972656 78.558594 C 466.476562 78.289062 466.128906 78.058594 465.9375 77.871094 C 465.742188 77.683594 465.464844 77.417969 465.105469 77.066406 C 464.75 76.710938 464.503906 76.347656 464.371094 75.980469 C 463.980469 75 463.789062 74.042969 463.789062 73.101562 C 463.789062 71.15625 464.457031 69.5625 465.796875 68.316406 C 467.132812 67.066406 469.039062 66.4375 471.511719 66.4375 C 473.316406 66.4375 475.101562 66.691406 476.867188 67.195312 L 477.789062 67.441406 L 477.136719 70.800781 C 474.644531 70.320312 472.742188 70.078125 471.417969 70.078125 C 470.105469 70.078125 469.195312 70.292969 468.6875 70.71875 C 468.191406 71.140625 467.941406 71.8125 467.941406 72.738281 C 467.941406 73.664062 468.257812 74.390625 468.886719 74.90625 C 469.515625 75.421875 470.246094 75.882812 471.082031 76.285156 C 471.910156 76.679688 472.585938 76.996094 473.097656 77.230469 C 473.617188 77.457031 474.007812 77.632812 474.265625 77.753906 C 474.527344 77.878906 474.890625 78.074219 475.351562 78.339844 C 475.808594 78.605469 476.160156 78.84375 476.414062 79.0625 C 476.667969 79.273438 476.964844 79.558594 477.3125 79.914062 C 477.652344 80.273438 477.90625 80.632812 478.070312 81 C 478.503906 81.886719 478.722656 82.847656 478.722656 83.878906 C 478.722656 86.097656 478 87.894531 476.550781 89.269531 C 475.113281 90.640625 473.226562 91.324219 470.894531 91.324219 C 469.703125 91.324219 468.457031 91.152344 467.160156 90.808594 C 465.867188 90.46875 464.878906 90.128906 464.199219 89.785156 L 463.136719 89.234375 C 463.335938 88.613281 463.507812 88.113281 463.648438 87.742188 C 463.789062 87.363281 463.898438 87.042969 463.988281 86.785156 C 464.082031 86.523438 464.1875 86.238281 464.300781 85.933594 C 466.929688 87.125 469.355469 87.71875 471.582031 87.71875 Z M 471.582031 87.71875 " fill-opacity="1" fill-rule="nonzero"/><path fill="#030119" d="M 483.78125 66.917969 C 487.007812 66.597656 489.8125 66.4375 492.195312 66.4375 C 494.574219 66.4375 496.371094 67.136719 497.585938 68.539062 C 498.796875 69.933594 499.402344 71.976562 499.402344 74.675781 C 499.402344 77.972656 498.578125 80.261719 496.929688 81.546875 C 495.511719 82.691406 493.738281 83.261719 491.609375 83.261719 L 487.808594 83.085938 L 487.808594 90.878906 L 483.78125 90.878906 L 483.921875 79.726562 Z M 487.808594 79.515625 C 489.128906 79.75 490.507812 79.867188 491.949219 79.867188 C 493.394531 79.867188 494.300781 79.539062 494.667969 78.886719 C 495.03125 78.234375 495.214844 76.738281 495.214844 74.394531 C 495.214844 72.046875 494.894531 70.632812 494.257812 70.148438 C 493.84375 69.808594 492.953125 69.632812 491.574219 69.632812 C 490.203125 69.632812 488.949219 69.726562 487.808594 69.902344 Z M 487.808594 79.515625 " fill-opacity="1" fill-rule="nonzero"/></svg>