<svg xmlns="http://www.w3.org/2000/svg" xmlns:xlink="http://www.w3.org/1999/xlink" width="250" zoomAndPan="magnify" viewBox="0 0 187.5 187.499992" height="250" preserveAspectRatio="xMidYMid meet" version="1.0"><defs><g/><clipPath id="2781ed0ee9"><path d="M 56.101562 35.921875 L 130.902344 35.921875 L 130.902344 110.722656 L 56.101562 110.722656 Z M 56.101562 35.921875 " clip-rule="nonzero"/></clipPath></defs><g clip-path="url(#2781ed0ee9)"><path fill="#004aad" d="M 130.929688 73.34375 C 130.929688 74.566406 130.871094 75.789062 130.75 77.007812 C 130.628906 78.230469 130.449219 79.4375 130.210938 80.640625 C 129.972656 81.84375 129.675781 83.03125 129.320312 84.203125 C 128.964844 85.375 128.550781 86.527344 128.082031 87.660156 C 127.613281 88.789062 127.089844 89.894531 126.511719 90.976562 C 125.933594 92.058594 125.304688 93.105469 124.625 94.125 C 123.945312 95.144531 123.214844 96.128906 122.4375 97.074219 C 121.660156 98.019531 120.839844 98.929688 119.972656 99.792969 C 119.105469 100.660156 118.199219 101.480469 117.253906 102.257812 C 116.304688 103.035156 115.324219 103.765625 114.304688 104.445312 C 113.285156 105.128906 112.238281 105.757812 111.15625 106.332031 C 110.074219 106.910156 108.96875 107.433594 107.835938 107.902344 C 106.707031 108.371094 105.554688 108.785156 104.382812 109.140625 C 103.207031 109.496094 102.023438 109.792969 100.820312 110.03125 C 99.617188 110.269531 98.40625 110.449219 97.1875 110.570312 C 95.96875 110.691406 94.746094 110.75 93.523438 110.75 C 92.296875 110.75 91.074219 110.691406 89.855469 110.570312 C 88.636719 110.449219 87.425781 110.269531 86.222656 110.03125 C 85.023438 109.792969 83.835938 109.496094 82.664062 109.140625 C 81.492188 108.785156 80.339844 108.371094 79.207031 107.902344 C 78.074219 107.433594 76.96875 106.910156 75.886719 106.332031 C 74.808594 105.757812 73.757812 105.128906 72.738281 104.445312 C 71.722656 103.765625 70.738281 103.035156 69.792969 102.257812 C 68.84375 101.480469 67.9375 100.660156 67.070312 99.792969 C 66.203125 98.929688 65.382812 98.019531 64.605469 97.074219 C 63.828125 96.128906 63.097656 95.144531 62.417969 94.125 C 61.738281 93.105469 61.109375 92.058594 60.53125 90.976562 C 59.953125 89.894531 59.429688 88.789062 58.960938 87.660156 C 58.492188 86.527344 58.082031 85.375 57.726562 84.203125 C 57.371094 83.03125 57.074219 81.84375 56.832031 80.640625 C 56.59375 79.4375 56.414062 78.230469 56.292969 77.007812 C 56.175781 75.789062 56.113281 74.566406 56.113281 73.34375 C 56.113281 72.117188 56.175781 70.894531 56.292969 69.675781 C 56.414062 68.457031 56.59375 67.246094 56.832031 66.046875 C 57.074219 64.84375 57.371094 63.65625 57.726562 62.484375 C 58.082031 61.3125 58.492188 60.160156 58.960938 59.027344 C 59.429688 57.894531 59.953125 56.789062 60.53125 55.710938 C 61.109375 54.628906 61.738281 53.578125 62.417969 52.558594 C 63.097656 51.542969 63.828125 50.558594 64.605469 49.613281 C 65.382812 48.664062 66.203125 47.757812 67.070312 46.890625 C 67.9375 46.023438 68.84375 45.203125 69.792969 44.425781 C 70.738281 43.648438 71.722656 42.921875 72.738281 42.238281 C 73.757812 41.558594 74.808594 40.929688 75.886719 40.351562 C 76.96875 39.773438 78.074219 39.25 79.207031 38.78125 C 80.339844 38.3125 81.492188 37.902344 82.664062 37.546875 C 83.835938 37.191406 85.023438 36.894531 86.222656 36.652344 C 87.425781 36.414062 88.636719 36.234375 89.855469 36.117188 C 91.074219 35.996094 92.296875 35.933594 93.523438 35.933594 C 94.746094 35.933594 95.96875 35.996094 97.1875 36.117188 C 98.40625 36.234375 99.617188 36.414062 100.820312 36.652344 C 102.023438 36.894531 103.207031 37.191406 104.382812 37.546875 C 105.554688 37.902344 106.707031 38.3125 107.835938 38.78125 C 108.96875 39.25 110.074219 39.773438 111.15625 40.351562 C 112.238281 40.929688 113.285156 41.558594 114.304688 42.238281 C 115.324219 42.921875 116.304688 43.648438 117.253906 44.425781 C 118.199219 45.203125 119.105469 46.023438 119.972656 46.890625 C 120.839844 47.757812 121.660156 48.664062 122.4375 49.613281 C 123.214844 50.558594 123.945312 51.542969 124.625 52.558594 C 125.304688 53.578125 125.933594 54.628906 126.511719 55.710938 C 127.089844 56.789062 127.613281 57.894531 128.082031 59.027344 C 128.550781 60.160156 128.964844 61.3125 129.320312 62.484375 C 129.675781 63.65625 129.972656 64.84375 130.210938 66.046875 C 130.449219 67.246094 130.628906 68.457031 130.75 69.675781 C 130.871094 70.894531 130.929688 72.117188 130.929688 73.34375 Z M 130.929688 73.34375 " fill-opacity="1" fill-rule="nonzero"/></g><path fill="#fefefe" d="M 75.222656 69.753906 C 74.097656 69.753906 73.113281 70.183594 72.453125 70.972656 C 71.773438 71.777344 71.511719 72.859375 71.710938 74.011719 L 74.824219 92 C 75.25 94.449219 77.585938 96.441406 80.03125 96.441406 L 111.8125 96.441406 C 112.9375 96.441406 113.921875 96.007812 114.585938 95.222656 C 115.265625 94.417969 115.527344 93.335938 115.328125 92.179688 L 112.210938 74.191406 C 111.789062 71.742188 109.453125 69.753906 107.007812 69.753906 Z M 111.8125 97.496094 L 80.03125 97.496094 C 77.09375 97.496094 74.292969 95.113281 73.785156 92.179688 L 70.671875 74.191406 C 70.417969 72.726562 70.761719 71.339844 71.644531 70.292969 C 72.511719 69.261719 73.78125 68.699219 75.222656 68.699219 L 107.007812 68.699219 C 109.941406 68.699219 112.742188 71.082031 113.25 74.011719 L 116.367188 92 C 116.621094 93.46875 116.273438 94.855469 115.390625 95.902344 C 114.527344 96.929688 113.253906 97.496094 111.8125 97.496094 Z M 111.8125 97.496094 " fill-opacity="1" fill-rule="evenodd"/><path fill="#fefefe" d="M 115.917969 93.53125 C 115.628906 93.53125 115.390625 93.296875 115.390625 93.003906 L 115.398438 69.148438 C 115.398438 67.261719 113.839844 65.714844 111.84375 65.617188 L 107.570312 65.414062 C 107.28125 65.398438 107.054688 65.152344 107.070312 64.859375 C 107.082031 64.570312 107.328125 64.347656 107.621094 64.359375 L 111.894531 64.5625 C 114.453125 64.6875 116.453125 66.699219 116.453125 69.148438 L 116.445312 93.003906 C 116.445312 93.296875 116.210938 93.53125 115.917969 93.53125 Z M 115.917969 93.53125 " fill-opacity="1" fill-rule="evenodd"/><path fill="#fefefe" d="M 115.097656 88.289062 L 73.554688 88.289062 C 73.265625 88.289062 73.027344 88.054688 73.027344 87.761719 C 73.027344 87.472656 73.265625 87.234375 73.554688 87.234375 L 115.097656 87.234375 C 115.386719 87.234375 115.625 87.472656 115.625 87.761719 C 115.625 88.054688 115.386719 88.289062 115.097656 88.289062 Z M 115.097656 88.289062 " fill-opacity="1" fill-rule="evenodd"/><path fill="#fefefe" d="M 107.597656 69.785156 C 107.304688 69.785156 107.070312 69.550781 107.070312 69.257812 L 107.070312 51.023438 C 107.070312 50.609375 106.511719 50.242188 105.878906 50.242188 L 83.535156 50.242188 C 82.902344 50.242188 82.34375 50.609375 82.34375 51.023438 L 82.34375 69.226562 C 82.34375 69.515625 82.109375 69.753906 81.816406 69.753906 C 81.527344 69.753906 81.289062 69.515625 81.289062 69.226562 L 81.289062 51.023438 C 81.289062 50.011719 82.296875 49.1875 83.535156 49.1875 L 105.878906 49.1875 C 107.117188 49.1875 108.125 50.011719 108.125 51.023438 L 108.125 69.257812 C 108.125 69.550781 107.886719 69.785156 107.597656 69.785156 Z M 107.597656 69.785156 " fill-opacity="1" fill-rule="evenodd"/><path fill="#fefefe" d="M 99.492188 65.152344 L 89.921875 65.152344 C 89.628906 65.152344 89.394531 64.917969 89.394531 64.625 C 89.394531 64.332031 89.628906 64.097656 89.921875 64.097656 L 99.492188 64.097656 C 99.78125 64.097656 100.019531 64.332031 100.019531 64.625 C 100.019531 64.917969 99.78125 65.152344 99.492188 65.152344 Z M 99.492188 65.152344 " fill-opacity="1" fill-rule="evenodd"/><path fill="#fefefe" d="M 99.492188 60.929688 L 89.921875 60.929688 C 89.628906 60.929688 89.394531 60.695312 89.394531 60.402344 C 89.394531 60.109375 89.628906 59.875 89.921875 59.875 L 99.492188 59.875 C 99.78125 59.875 100.019531 60.109375 100.019531 60.402344 C 100.019531 60.695312 99.78125 60.929688 99.492188 60.929688 Z M 99.492188 60.929688 " fill-opacity="1" fill-rule="evenodd"/><path fill="#fefefe" d="M 99.492188 56.707031 L 89.921875 56.707031 C 89.628906 56.707031 89.394531 56.46875 89.394531 56.179688 C 89.394531 55.886719 89.628906 55.652344 89.921875 55.652344 L 99.492188 55.652344 C 99.78125 55.652344 100.019531 55.886719 100.019531 56.179688 C 100.019531 56.46875 99.78125 56.707031 99.492188 56.707031 Z M 99.492188 56.707031 " fill-opacity="1" fill-rule="evenodd"/><path fill="#fefefe" d="M 72.722656 70.554688 C 72.429688 70.554688 72.195312 70.320312 72.195312 70.027344 L 72.195312 68.941406 C 72.195312 66.414062 74.25 64.359375 76.777344 64.359375 L 81.816406 64.359375 C 82.109375 64.359375 82.34375 64.59375 82.34375 64.886719 C 82.34375 65.175781 82.109375 65.414062 81.816406 65.414062 L 76.777344 65.414062 C 74.832031 65.414062 73.25 66.996094 73.25 68.941406 L 73.25 70.027344 C 73.25 70.320312 73.011719 70.554688 72.722656 70.554688 Z M 72.722656 70.554688 " fill-opacity="1" fill-rule="evenodd"/><g fill="#ffffff" fill-opacity="1"><g transform="translate(76.46601, 85.609027)"><g><path d="M 13.46875 0 L 10.453125 0 L 10.453125 -6.140625 L 4.8125 -6.140625 L 4.8125 0 L 1.796875 0 L 1.796875 -14.25 L 4.8125 -14.25 L 4.8125 -8.65625 L 10.453125 -8.65625 L 10.453125 -14.25 L 13.46875 -14.25 Z M 13.46875 0 "/></g></g></g><g fill="#ffffff" fill-opacity="1"><g transform="translate(91.726557, 85.609027)"><g><path d="M 7.828125 0 L 4.390625 -11.171875 L 4.3125 -11.171875 C 4.425781 -8.898438 4.484375 -7.382812 4.484375 -6.625 L 4.484375 0 L 1.796875 0 L 1.796875 -14.25 L 5.90625 -14.25 L 9.28125 -3.34375 L 9.328125 -3.34375 L 12.90625 -14.25 L 17.015625 -14.25 L 17.015625 0 L 14.203125 0 L 14.203125 -6.734375 C 14.203125 -7.054688 14.207031 -7.425781 14.21875 -7.84375 C 14.226562 -8.257812 14.269531 -9.363281 14.34375 -11.15625 L 14.265625 -11.15625 L 10.59375 0 Z M 7.828125 0 "/></g></g></g><g fill="#000000" fill-opacity="1"><g transform="translate(26.162657, 134.358487)"><g/></g></g><g fill="#000000" fill-opacity="1"><g transform="translate(29.014427, 134.358487)"><g><path d="M 0.984375 0 L 0.984375 -7.828125 L 2.640625 -7.828125 L 2.640625 0 Z M 0.984375 0 "/></g></g></g><g fill="#000000" fill-opacity="1"><g transform="translate(32.645698, 134.358487)"><g><path d="M 2.625 0 L 0.984375 0 L 0.984375 -7.828125 L 5.46875 -7.828125 L 5.46875 -6.46875 L 2.625 -6.46875 L 2.625 -4.453125 L 5.28125 -4.453125 L 5.28125 -3.09375 L 2.625 -3.09375 Z M 2.625 0 "/></g></g></g><g fill="#000000" fill-opacity="1"><g transform="translate(38.665682, 134.358487)"><g><path d="M 5.609375 -2.171875 C 5.609375 -1.460938 5.351562 -0.90625 4.84375 -0.5 C 4.332031 -0.09375 3.625 0.109375 2.71875 0.109375 C 1.882812 0.109375 1.144531 -0.046875 0.5 -0.359375 L 0.5 -1.90625 C 1.03125 -1.664062 1.476562 -1.5 1.84375 -1.40625 C 2.207031 -1.3125 2.539062 -1.265625 2.84375 -1.265625 C 3.207031 -1.265625 3.488281 -1.332031 3.6875 -1.46875 C 3.882812 -1.613281 3.984375 -1.820312 3.984375 -2.09375 C 3.984375 -2.25 3.9375 -2.382812 3.84375 -2.5 C 3.757812 -2.625 3.632812 -2.738281 3.46875 -2.84375 C 3.300781 -2.957031 2.960938 -3.132812 2.453125 -3.375 C 1.972656 -3.601562 1.613281 -3.820312 1.375 -4.03125 C 1.132812 -4.238281 0.941406 -4.476562 0.796875 -4.75 C 0.660156 -5.019531 0.59375 -5.34375 0.59375 -5.71875 C 0.59375 -6.40625 0.828125 -6.945312 1.296875 -7.34375 C 1.765625 -7.738281 2.414062 -7.9375 3.25 -7.9375 C 3.65625 -7.9375 4.039062 -7.890625 4.40625 -7.796875 C 4.78125 -7.703125 5.164062 -7.566406 5.5625 -7.390625 L 5.03125 -6.09375 C 4.613281 -6.269531 4.269531 -6.390625 4 -6.453125 C 3.726562 -6.523438 3.457031 -6.5625 3.1875 -6.5625 C 2.875 -6.5625 2.632812 -6.488281 2.46875 -6.34375 C 2.300781 -6.195312 2.21875 -6.003906 2.21875 -5.765625 C 2.21875 -5.617188 2.25 -5.488281 2.3125 -5.375 C 2.382812 -5.269531 2.492188 -5.164062 2.640625 -5.0625 C 2.785156 -4.96875 3.140625 -4.785156 3.703125 -4.515625 C 4.429688 -4.171875 4.929688 -3.820312 5.203125 -3.46875 C 5.472656 -3.113281 5.609375 -2.679688 5.609375 -2.171875 Z M 5.609375 -2.171875 "/></g></g></g><g fill="#000000" fill-opacity="1"><g transform="translate(44.707089, 134.358487)"><g><path d="M 2.640625 -4.140625 L 3.1875 -4.140625 C 3.695312 -4.140625 4.078125 -4.238281 4.328125 -4.4375 C 4.585938 -4.644531 4.71875 -4.941406 4.71875 -5.328125 C 4.71875 -5.710938 4.609375 -6 4.390625 -6.1875 C 4.179688 -6.375 3.851562 -6.46875 3.40625 -6.46875 L 2.640625 -6.46875 Z M 6.390625 -5.390625 C 6.390625 -4.546875 6.125 -3.898438 5.59375 -3.453125 C 5.070312 -3.003906 4.328125 -2.78125 3.359375 -2.78125 L 2.640625 -2.78125 L 2.640625 0 L 0.984375 0 L 0.984375 -7.828125 L 3.484375 -7.828125 C 4.429688 -7.828125 5.148438 -7.625 5.640625 -7.21875 C 6.140625 -6.8125 6.390625 -6.203125 6.390625 -5.390625 Z M 6.390625 -5.390625 "/></g></g></g><g fill="#000000" fill-opacity="1"><g transform="translate(51.594721, 134.358487)"><g/></g></g><g fill="#000000" fill-opacity="1"><g transform="translate(54.444037, 134.358487)"><g><path d="M 0.328125 -2.265625 L 0.328125 -3.609375 L 3.203125 -3.609375 L 3.203125 -2.265625 Z M 0.328125 -2.265625 "/></g></g></g><g fill="#000000" fill-opacity="1"><g transform="translate(57.97355, 134.358487)"><g/></g></g><g fill="#000000" fill-opacity="1"><g transform="translate(60.822866, 134.358487)"><g><path d="M 4.3125 -6.5625 C 3.6875 -6.5625 3.203125 -6.328125 2.859375 -5.859375 C 2.515625 -5.390625 2.34375 -4.734375 2.34375 -3.890625 C 2.34375 -2.148438 3 -1.28125 4.3125 -1.28125 C 4.863281 -1.28125 5.53125 -1.414062 6.3125 -1.6875 L 6.3125 -0.296875 C 5.664062 -0.0234375 4.945312 0.109375 4.15625 0.109375 C 3.019531 0.109375 2.148438 -0.234375 1.546875 -0.921875 C 0.941406 -1.617188 0.640625 -2.613281 0.640625 -3.90625 C 0.640625 -4.71875 0.785156 -5.429688 1.078125 -6.046875 C 1.378906 -6.660156 1.804688 -7.128906 2.359375 -7.453125 C 2.910156 -7.773438 3.5625 -7.9375 4.3125 -7.9375 C 5.070312 -7.9375 5.835938 -7.753906 6.609375 -7.390625 L 6.0625 -6.046875 C 5.769531 -6.179688 5.472656 -6.300781 5.171875 -6.40625 C 4.878906 -6.507812 4.59375 -6.5625 4.3125 -6.5625 Z M 4.3125 -6.5625 "/></g></g></g><g fill="#000000" fill-opacity="1"><g transform="translate(67.812263, 134.358487)"><g><path d="M 4.65625 0 L 4.34375 -0.8125 L 4.296875 -0.8125 C 4.023438 -0.46875 3.742188 -0.226562 3.453125 -0.09375 C 3.160156 0.0390625 2.78125 0.109375 2.3125 0.109375 C 1.738281 0.109375 1.285156 -0.0507812 0.953125 -0.375 C 0.617188 -0.707031 0.453125 -1.175781 0.453125 -1.78125 C 0.453125 -2.425781 0.675781 -2.894531 1.125 -3.1875 C 1.570312 -3.488281 2.242188 -3.660156 3.140625 -3.703125 L 4.171875 -3.734375 L 4.171875 -3.984375 C 4.171875 -4.597656 3.863281 -4.90625 3.25 -4.90625 C 2.769531 -4.90625 2.207031 -4.757812 1.5625 -4.46875 L 1.015625 -5.5625 C 1.703125 -5.925781 2.46875 -6.109375 3.3125 -6.109375 C 4.113281 -6.109375 4.726562 -5.929688 5.15625 -5.578125 C 5.582031 -5.234375 5.796875 -4.703125 5.796875 -3.984375 L 5.796875 0 Z M 4.171875 -2.78125 L 3.546875 -2.75 C 3.066406 -2.738281 2.710938 -2.65625 2.484375 -2.5 C 2.253906 -2.34375 2.140625 -2.101562 2.140625 -1.78125 C 2.140625 -1.320312 2.398438 -1.09375 2.921875 -1.09375 C 3.304688 -1.09375 3.609375 -1.195312 3.828125 -1.40625 C 4.054688 -1.625 4.171875 -1.914062 4.171875 -2.28125 Z M 4.515625 -6.640625 C 3.953125 -6.972656 3.535156 -7.289062 3.265625 -7.59375 C 2.984375 -7.300781 2.570312 -6.984375 2.03125 -6.640625 L 0.953125 -6.640625 L 0.953125 -6.796875 C 1.628906 -7.460938 2.085938 -8 2.328125 -8.40625 L 4.234375 -8.40625 C 4.347656 -8.21875 4.539062 -7.960938 4.8125 -7.640625 C 5.082031 -7.328125 5.347656 -7.046875 5.609375 -6.796875 L 5.609375 -6.640625 Z M 4.515625 -6.640625 "/></g></g></g><g fill="#000000" fill-opacity="1"><g transform="translate(74.437461, 134.358487)"><g><path d="M 6.21875 0 L 4.578125 0 L 4.578125 -3.5 C 4.578125 -3.925781 4.503906 -4.25 4.359375 -4.46875 C 4.222656 -4.6875 4 -4.796875 3.6875 -4.796875 C 3.269531 -4.796875 2.960938 -4.640625 2.765625 -4.328125 C 2.578125 -4.023438 2.484375 -3.519531 2.484375 -2.8125 L 2.484375 0 L 0.859375 0 L 0.859375 -5.984375 L 2.109375 -5.984375 L 2.328125 -5.21875 L 2.421875 -5.21875 C 2.578125 -5.5 2.804688 -5.710938 3.109375 -5.859375 C 3.410156 -6.015625 3.757812 -6.09375 4.15625 -6.09375 C 5.050781 -6.09375 5.660156 -5.800781 5.984375 -5.21875 L 6.125 -5.21875 C 6.28125 -5.5 6.515625 -5.710938 6.828125 -5.859375 C 7.140625 -6.015625 7.492188 -6.09375 7.890625 -6.09375 C 8.566406 -6.09375 9.078125 -5.921875 9.421875 -5.578125 C 9.773438 -5.234375 9.953125 -4.675781 9.953125 -3.90625 L 9.953125 0 L 8.3125 0 L 8.3125 -3.5 C 8.3125 -3.925781 8.238281 -4.25 8.09375 -4.46875 C 7.945312 -4.6875 7.71875 -4.796875 7.40625 -4.796875 C 7.007812 -4.796875 6.710938 -4.648438 6.515625 -4.359375 C 6.316406 -4.078125 6.21875 -3.625 6.21875 -3 Z M 6.21875 0 "/></g></g></g><g fill="#000000" fill-opacity="1"><g transform="translate(85.208093, 134.358487)"><g><path d="M 4.140625 0.109375 C 3.441406 0.109375 2.890625 -0.144531 2.484375 -0.65625 L 2.40625 -0.65625 C 2.457031 -0.15625 2.484375 0.128906 2.484375 0.203125 L 2.484375 2.640625 L 0.859375 2.640625 L 0.859375 -5.984375 L 2.1875 -5.984375 L 2.421875 -5.21875 L 2.484375 -5.21875 C 2.867188 -5.800781 3.4375 -6.09375 4.1875 -6.09375 C 4.894531 -6.09375 5.445312 -5.820312 5.84375 -5.28125 C 6.25 -4.738281 6.453125 -3.976562 6.453125 -3 C 6.453125 -2.363281 6.359375 -1.804688 6.171875 -1.328125 C 5.984375 -0.859375 5.710938 -0.5 5.359375 -0.25 C 5.015625 -0.0078125 4.609375 0.109375 4.140625 0.109375 Z M 3.65625 -4.796875 C 3.257812 -4.796875 2.96875 -4.671875 2.78125 -4.421875 C 2.59375 -4.171875 2.492188 -3.757812 2.484375 -3.1875 L 2.484375 -3.015625 C 2.484375 -2.367188 2.578125 -1.90625 2.765625 -1.625 C 2.960938 -1.351562 3.269531 -1.21875 3.6875 -1.21875 C 4.414062 -1.21875 4.78125 -1.820312 4.78125 -3.03125 C 4.78125 -3.613281 4.6875 -4.050781 4.5 -4.34375 C 4.320312 -4.644531 4.039062 -4.796875 3.65625 -4.796875 Z M 3.65625 -4.796875 "/></g></g></g><g fill="#000000" fill-opacity="1"><g transform="translate(92.149284, 134.358487)"><g><path d="M 5.09375 0 L 4.875 -0.765625 L 4.796875 -0.765625 C 4.617188 -0.484375 4.367188 -0.265625 4.046875 -0.109375 C 3.722656 0.0351562 3.359375 0.109375 2.953125 0.109375 C 2.242188 0.109375 1.710938 -0.078125 1.359375 -0.453125 C 1.003906 -0.828125 0.828125 -1.367188 0.828125 -2.078125 L 0.828125 -5.984375 L 2.453125 -5.984375 L 2.453125 -2.484375 C 2.453125 -2.054688 2.53125 -1.734375 2.6875 -1.515625 C 2.84375 -1.296875 3.085938 -1.1875 3.421875 -1.1875 C 3.878906 -1.1875 4.207031 -1.335938 4.40625 -1.640625 C 4.613281 -1.953125 4.71875 -2.460938 4.71875 -3.171875 L 4.71875 -5.984375 L 6.359375 -5.984375 L 6.359375 0 Z M 5.09375 0 "/></g></g></g><g fill="#000000" fill-opacity="1"><g transform="translate(99.358268, 134.358487)"><g><path d="M 5.03125 -1.78125 C 5.03125 -1.164062 4.816406 -0.695312 4.390625 -0.375 C 3.960938 -0.0507812 3.328125 0.109375 2.484375 0.109375 C 2.046875 0.109375 1.671875 0.078125 1.359375 0.015625 C 1.054688 -0.0351562 0.769531 -0.117188 0.5 -0.234375 L 0.5 -1.59375 C 0.800781 -1.445312 1.140625 -1.328125 1.515625 -1.234375 C 1.898438 -1.140625 2.238281 -1.09375 2.53125 -1.09375 C 3.125 -1.09375 3.421875 -1.257812 3.421875 -1.59375 C 3.421875 -1.726562 3.378906 -1.832031 3.296875 -1.90625 C 3.222656 -1.988281 3.085938 -2.082031 2.890625 -2.1875 C 2.703125 -2.289062 2.445312 -2.410156 2.125 -2.546875 C 1.664062 -2.734375 1.328125 -2.910156 1.109375 -3.078125 C 0.890625 -3.242188 0.734375 -3.429688 0.640625 -3.640625 C 0.546875 -3.859375 0.5 -4.117188 0.5 -4.421875 C 0.5 -4.960938 0.703125 -5.375 1.109375 -5.65625 C 1.523438 -5.945312 2.109375 -6.09375 2.859375 -6.09375 C 3.585938 -6.09375 4.289062 -5.9375 4.96875 -5.625 L 4.484375 -4.453125 C 4.179688 -4.578125 3.898438 -4.679688 3.640625 -4.765625 C 3.378906 -4.847656 3.113281 -4.890625 2.84375 -4.890625 C 2.351562 -4.890625 2.109375 -4.757812 2.109375 -4.5 C 2.109375 -4.351562 2.1875 -4.222656 2.34375 -4.109375 C 2.5 -4.003906 2.84375 -3.847656 3.375 -3.640625 C 3.84375 -3.453125 4.179688 -3.273438 4.390625 -3.109375 C 4.609375 -2.941406 4.769531 -2.75 4.875 -2.53125 C 4.976562 -2.320312 5.03125 -2.070312 5.03125 -1.78125 Z M 5.03125 -1.78125 "/></g></g></g><g fill="#000000" fill-opacity="1"><g transform="translate(104.810531, 134.358487)"><g/></g></g><g fill="#000000" fill-opacity="1"><g transform="translate(107.659847, 134.358487)"><g><path d="M 5.609375 -2.171875 C 5.609375 -1.460938 5.351562 -0.90625 4.84375 -0.5 C 4.332031 -0.09375 3.625 0.109375 2.71875 0.109375 C 1.882812 0.109375 1.144531 -0.046875 0.5 -0.359375 L 0.5 -1.90625 C 1.03125 -1.664062 1.476562 -1.5 1.84375 -1.40625 C 2.207031 -1.3125 2.539062 -1.265625 2.84375 -1.265625 C 3.207031 -1.265625 3.488281 -1.332031 3.6875 -1.46875 C 3.882812 -1.613281 3.984375 -1.820312 3.984375 -2.09375 C 3.984375 -2.25 3.9375 -2.382812 3.84375 -2.5 C 3.757812 -2.625 3.632812 -2.738281 3.46875 -2.84375 C 3.300781 -2.957031 2.960938 -3.132812 2.453125 -3.375 C 1.972656 -3.601562 1.613281 -3.820312 1.375 -4.03125 C 1.132812 -4.238281 0.941406 -4.476562 0.796875 -4.75 C 0.660156 -5.019531 0.59375 -5.34375 0.59375 -5.71875 C 0.59375 -6.40625 0.828125 -6.945312 1.296875 -7.34375 C 1.765625 -7.738281 2.414062 -7.9375 3.25 -7.9375 C 3.65625 -7.9375 4.039062 -7.890625 4.40625 -7.796875 C 4.78125 -7.703125 5.164062 -7.566406 5.5625 -7.390625 L 5.03125 -6.09375 C 4.613281 -6.269531 4.269531 -6.390625 4 -6.453125 C 3.726562 -6.523438 3.457031 -6.5625 3.1875 -6.5625 C 2.875 -6.5625 2.632812 -6.488281 2.46875 -6.34375 C 2.300781 -6.195312 2.21875 -6.003906 2.21875 -5.765625 C 2.21875 -5.617188 2.25 -5.488281 2.3125 -5.375 C 2.382812 -5.269531 2.492188 -5.164062 2.640625 -5.0625 C 2.785156 -4.96875 3.140625 -4.785156 3.703125 -4.515625 C 4.429688 -4.171875 4.929688 -3.820312 5.203125 -3.46875 C 5.472656 -3.113281 5.609375 -2.679688 5.609375 -2.171875 Z M 5.609375 -2.171875 "/></g></g></g><g fill="#000000" fill-opacity="1"><g transform="translate(113.701254, 134.358487)"><g><path d="M 4.65625 0 L 4.34375 -0.8125 L 4.296875 -0.8125 C 4.023438 -0.46875 3.742188 -0.226562 3.453125 -0.09375 C 3.160156 0.0390625 2.78125 0.109375 2.3125 0.109375 C 1.738281 0.109375 1.285156 -0.0507812 0.953125 -0.375 C 0.617188 -0.707031 0.453125 -1.175781 0.453125 -1.78125 C 0.453125 -2.425781 0.675781 -2.894531 1.125 -3.1875 C 1.570312 -3.488281 2.242188 -3.660156 3.140625 -3.703125 L 4.171875 -3.734375 L 4.171875 -3.984375 C 4.171875 -4.597656 3.863281 -4.90625 3.25 -4.90625 C 2.769531 -4.90625 2.207031 -4.757812 1.5625 -4.46875 L 1.015625 -5.5625 C 1.703125 -5.925781 2.46875 -6.109375 3.3125 -6.109375 C 4.113281 -6.109375 4.726562 -5.929688 5.15625 -5.578125 C 5.582031 -5.234375 5.796875 -4.703125 5.796875 -3.984375 L 5.796875 0 Z M 4.171875 -2.78125 L 3.546875 -2.75 C 3.066406 -2.738281 2.710938 -2.65625 2.484375 -2.5 C 2.253906 -2.34375 2.140625 -2.101562 2.140625 -1.78125 C 2.140625 -1.320312 2.398438 -1.09375 2.921875 -1.09375 C 3.304688 -1.09375 3.609375 -1.195312 3.828125 -1.40625 C 4.054688 -1.625 4.171875 -1.914062 4.171875 -2.28125 Z M 2.5 -7.203125 C 2.382812 -7.203125 2.273438 -7.15625 2.171875 -7.0625 C 2.066406 -6.96875 1.992188 -6.828125 1.953125 -6.640625 L 1.15625 -6.640625 C 1.195312 -7.148438 1.34375 -7.550781 1.59375 -7.84375 C 1.851562 -8.144531 2.191406 -8.296875 2.609375 -8.296875 C 2.753906 -8.296875 2.894531 -8.265625 3.03125 -8.203125 C 3.175781 -8.140625 3.316406 -8.070312 3.453125 -8 C 3.597656 -7.9375 3.734375 -7.875 3.859375 -7.8125 C 3.992188 -7.757812 4.125 -7.734375 4.25 -7.734375 C 4.363281 -7.734375 4.472656 -7.78125 4.578125 -7.875 C 4.679688 -7.96875 4.753906 -8.109375 4.796875 -8.296875 L 5.59375 -8.296875 C 5.550781 -7.785156 5.398438 -7.378906 5.140625 -7.078125 C 4.890625 -6.785156 4.554688 -6.640625 4.140625 -6.640625 C 3.992188 -6.640625 3.847656 -6.671875 3.703125 -6.734375 C 3.566406 -6.796875 3.425781 -6.859375 3.28125 -6.921875 C 3.144531 -6.992188 3.007812 -7.054688 2.875 -7.109375 C 2.75 -7.171875 2.625 -7.203125 2.5 -7.203125 Z M 2.5 -7.203125 "/></g></g></g><g fill="#000000" fill-opacity="1"><g transform="translate(120.326453, 134.358487)"><g><path d="M 2.15625 -3 C 2.15625 -2.40625 2.253906 -1.957031 2.453125 -1.65625 C 2.648438 -1.351562 2.96875 -1.203125 3.40625 -1.203125 C 3.832031 -1.203125 4.140625 -1.351562 4.328125 -1.65625 C 4.523438 -1.957031 4.625 -2.40625 4.625 -3 C 4.625 -3.59375 4.523438 -4.035156 4.328125 -4.328125 C 4.140625 -4.628906 3.828125 -4.78125 3.390625 -4.78125 C 2.953125 -4.78125 2.632812 -4.632812 2.4375 -4.34375 C 2.25 -4.050781 2.15625 -3.601562 2.15625 -3 Z M 6.296875 -3 C 6.296875 -2.03125 6.035156 -1.269531 5.515625 -0.71875 C 5.003906 -0.164062 4.289062 0.109375 3.375 0.109375 C 2.800781 0.109375 2.296875 -0.015625 1.859375 -0.265625 C 1.421875 -0.515625 1.082031 -0.875 0.84375 -1.34375 C 0.613281 -1.820312 0.5 -2.375 0.5 -3 C 0.5 -3.976562 0.753906 -4.738281 1.265625 -5.28125 C 1.773438 -5.820312 2.488281 -6.09375 3.40625 -6.09375 C 3.988281 -6.09375 4.5 -5.96875 4.9375 -5.71875 C 5.375 -5.46875 5.707031 -5.109375 5.9375 -4.640625 C 6.175781 -4.179688 6.296875 -3.632812 6.296875 -3 Z M 6.296875 -3 "/></g></g></g><g fill="#000000" fill-opacity="1"><g transform="translate(127.117686, 134.358487)"><g/></g></g><g fill="#000000" fill-opacity="1"><g transform="translate(129.967002, 134.358487)"><g><path d="M 2.640625 -4.140625 L 3.1875 -4.140625 C 3.695312 -4.140625 4.078125 -4.238281 4.328125 -4.4375 C 4.585938 -4.644531 4.71875 -4.941406 4.71875 -5.328125 C 4.71875 -5.710938 4.609375 -6 4.390625 -6.1875 C 4.179688 -6.375 3.851562 -6.46875 3.40625 -6.46875 L 2.640625 -6.46875 Z M 6.390625 -5.390625 C 6.390625 -4.546875 6.125 -3.898438 5.59375 -3.453125 C 5.070312 -3.003906 4.328125 -2.78125 3.359375 -2.78125 L 2.640625 -2.78125 L 2.640625 0 L 0.984375 0 L 0.984375 -7.828125 L 3.484375 -7.828125 C 4.429688 -7.828125 5.148438 -7.625 5.640625 -7.21875 C 6.140625 -6.8125 6.390625 -6.203125 6.390625 -5.390625 Z M 6.390625 -5.390625 "/></g></g></g><g fill="#000000" fill-opacity="1"><g transform="translate(136.854629, 134.358487)"><g><path d="M 4.65625 0 L 4.34375 -0.8125 L 4.296875 -0.8125 C 4.023438 -0.46875 3.742188 -0.226562 3.453125 -0.09375 C 3.160156 0.0390625 2.78125 0.109375 2.3125 0.109375 C 1.738281 0.109375 1.285156 -0.0507812 0.953125 -0.375 C 0.617188 -0.707031 0.453125 -1.175781 0.453125 -1.78125 C 0.453125 -2.425781 0.675781 -2.894531 1.125 -3.1875 C 1.570312 -3.488281 2.242188 -3.660156 3.140625 -3.703125 L 4.171875 -3.734375 L 4.171875 -3.984375 C 4.171875 -4.597656 3.863281 -4.90625 3.25 -4.90625 C 2.769531 -4.90625 2.207031 -4.757812 1.5625 -4.46875 L 1.015625 -5.5625 C 1.703125 -5.925781 2.46875 -6.109375 3.3125 -6.109375 C 4.113281 -6.109375 4.726562 -5.929688 5.15625 -5.578125 C 5.582031 -5.234375 5.796875 -4.703125 5.796875 -3.984375 L 5.796875 0 Z M 4.171875 -2.78125 L 3.546875 -2.75 C 3.066406 -2.738281 2.710938 -2.65625 2.484375 -2.5 C 2.253906 -2.34375 2.140625 -2.101562 2.140625 -1.78125 C 2.140625 -1.320312 2.398438 -1.09375 2.921875 -1.09375 C 3.304688 -1.09375 3.609375 -1.195312 3.828125 -1.40625 C 4.054688 -1.625 4.171875 -1.914062 4.171875 -2.28125 Z M 4.171875 -2.78125 "/></g></g></g><g fill="#000000" fill-opacity="1"><g transform="translate(143.479821, 134.358487)"><g><path d="M 5.09375 0 L 4.875 -0.765625 L 4.796875 -0.765625 C 4.617188 -0.484375 4.367188 -0.265625 4.046875 -0.109375 C 3.722656 0.0351562 3.359375 0.109375 2.953125 0.109375 C 2.242188 0.109375 1.710938 -0.078125 1.359375 -0.453125 C 1.003906 -0.828125 0.828125 -1.367188 0.828125 -2.078125 L 0.828125 -5.984375 L 2.453125 -5.984375 L 2.453125 -2.484375 C 2.453125 -2.054688 2.53125 -1.734375 2.6875 -1.515625 C 2.84375 -1.296875 3.085938 -1.1875 3.421875 -1.1875 C 3.878906 -1.1875 4.207031 -1.335938 4.40625 -1.640625 C 4.613281 -1.953125 4.71875 -2.460938 4.71875 -3.171875 L 4.71875 -5.984375 L 6.359375 -5.984375 L 6.359375 0 Z M 5.09375 0 "/></g></g></g><g fill="#000000" fill-opacity="1"><g transform="translate(150.6888, 134.358487)"><g><path d="M 2.484375 0 L 0.859375 0 L 0.859375 -8.328125 L 2.484375 -8.328125 Z M 2.484375 0 "/></g></g></g><g fill="#000000" fill-opacity="1"><g transform="translate(154.036219, 134.358487)"><g><path d="M 2.15625 -3 C 2.15625 -2.40625 2.253906 -1.957031 2.453125 -1.65625 C 2.648438 -1.351562 2.96875 -1.203125 3.40625 -1.203125 C 3.832031 -1.203125 4.140625 -1.351562 4.328125 -1.65625 C 4.523438 -1.957031 4.625 -2.40625 4.625 -3 C 4.625 -3.59375 4.523438 -4.035156 4.328125 -4.328125 C 4.140625 -4.628906 3.828125 -4.78125 3.390625 -4.78125 C 2.953125 -4.78125 2.632812 -4.632812 2.4375 -4.34375 C 2.25 -4.050781 2.15625 -3.601562 2.15625 -3 Z M 6.296875 -3 C 6.296875 -2.03125 6.035156 -1.269531 5.515625 -0.71875 C 5.003906 -0.164062 4.289062 0.109375 3.375 0.109375 C 2.800781 0.109375 2.296875 -0.015625 1.859375 -0.265625 C 1.421875 -0.515625 1.082031 -0.875 0.84375 -1.34375 C 0.613281 -1.820312 0.5 -2.375 0.5 -3 C 0.5 -3.976562 0.753906 -4.738281 1.265625 -5.28125 C 1.773438 -5.820312 2.488281 -6.09375 3.40625 -6.09375 C 3.988281 -6.09375 4.5 -5.96875 4.9375 -5.71875 C 5.375 -5.46875 5.707031 -5.109375 5.9375 -4.640625 C 6.175781 -4.179688 6.296875 -3.632812 6.296875 -3 Z M 6.296875 -3 "/></g></g></g><g fill="#000000" fill-opacity="1"><g transform="translate(39.463125, 121.218524)"><g/></g></g><g fill="#000000" fill-opacity="1"><g transform="translate(42.314895, 121.218524)"><g><path d="M 7.40625 0 L 5.75 0 L 5.75 -3.375 L 2.640625 -3.375 L 2.640625 0 L 0.984375 0 L 0.984375 -7.828125 L 2.640625 -7.828125 L 2.640625 -4.765625 L 5.75 -4.765625 L 5.75 -7.828125 L 7.40625 -7.828125 Z M 7.40625 0 "/></g></g></g><g fill="#000000" fill-opacity="1"><g transform="translate(50.707526, 121.218524)"><g><path d="M 0.78125 -7.53125 C 0.78125 -8.0625 1.078125 -8.328125 1.671875 -8.328125 C 2.265625 -8.328125 2.5625 -8.0625 2.5625 -7.53125 C 2.5625 -7.28125 2.488281 -7.082031 2.34375 -6.9375 C 2.195312 -6.800781 1.972656 -6.734375 1.671875 -6.734375 C 1.078125 -6.734375 0.78125 -7 0.78125 -7.53125 Z M 2.484375 0 L 0.859375 0 L 0.859375 -5.984375 L 2.484375 -5.984375 Z M 2.484375 0 "/></g></g></g><g fill="#000000" fill-opacity="1"><g transform="translate(54.05494, 121.218524)"><g><path d="M 5.03125 -1.78125 C 5.03125 -1.164062 4.816406 -0.695312 4.390625 -0.375 C 3.960938 -0.0507812 3.328125 0.109375 2.484375 0.109375 C 2.046875 0.109375 1.671875 0.078125 1.359375 0.015625 C 1.054688 -0.0351562 0.769531 -0.117188 0.5 -0.234375 L 0.5 -1.59375 C 0.800781 -1.445312 1.140625 -1.328125 1.515625 -1.234375 C 1.898438 -1.140625 2.238281 -1.09375 2.53125 -1.09375 C 3.125 -1.09375 3.421875 -1.257812 3.421875 -1.59375 C 3.421875 -1.726562 3.378906 -1.832031 3.296875 -1.90625 C 3.222656 -1.988281 3.085938 -2.082031 2.890625 -2.1875 C 2.703125 -2.289062 2.445312 -2.410156 2.125 -2.546875 C 1.664062 -2.734375 1.328125 -2.910156 1.109375 -3.078125 C 0.890625 -3.242188 0.734375 -3.429688 0.640625 -3.640625 C 0.546875 -3.859375 0.5 -4.117188 0.5 -4.421875 C 0.5 -4.960938 0.703125 -5.375 1.109375 -5.65625 C 1.523438 -5.945312 2.109375 -6.09375 2.859375 -6.09375 C 3.585938 -6.09375 4.289062 -5.9375 4.96875 -5.625 L 4.484375 -4.453125 C 4.179688 -4.578125 3.898438 -4.679688 3.640625 -4.765625 C 3.378906 -4.847656 3.113281 -4.890625 2.84375 -4.890625 C 2.351562 -4.890625 2.109375 -4.757812 2.109375 -4.5 C 2.109375 -4.351562 2.1875 -4.222656 2.34375 -4.109375 C 2.5 -4.003906 2.84375 -3.847656 3.375 -3.640625 C 3.84375 -3.453125 4.179688 -3.273438 4.390625 -3.109375 C 4.609375 -2.941406 4.769531 -2.75 4.875 -2.53125 C 4.976562 -2.320312 5.03125 -2.070312 5.03125 -1.78125 Z M 5.03125 -1.78125 "/></g></g></g><g fill="#000000" fill-opacity="1"><g transform="translate(59.507203, 121.218524)"><g><path d="M 3.375 -1.1875 C 3.664062 -1.1875 4.007812 -1.25 4.40625 -1.375 L 4.40625 -0.171875 C 4 0.015625 3.5 0.109375 2.90625 0.109375 C 2.25 0.109375 1.769531 -0.0546875 1.46875 -0.390625 C 1.175781 -0.722656 1.03125 -1.21875 1.03125 -1.875 L 1.03125 -4.765625 L 0.25 -4.765625 L 0.25 -5.453125 L 1.15625 -6 L 1.625 -7.265625 L 2.671875 -7.265625 L 2.671875 -5.984375 L 4.34375 -5.984375 L 4.34375 -4.765625 L 2.671875 -4.765625 L 2.671875 -1.875 C 2.671875 -1.644531 2.734375 -1.472656 2.859375 -1.359375 C 2.992188 -1.242188 3.164062 -1.1875 3.375 -1.1875 Z M 3.375 -1.1875 "/></g></g></g><g fill="#000000" fill-opacity="1"><g transform="translate(64.268563, 121.218524)"><g><path d="M 2.15625 -3 C 2.15625 -2.40625 2.253906 -1.957031 2.453125 -1.65625 C 2.648438 -1.351562 2.96875 -1.203125 3.40625 -1.203125 C 3.832031 -1.203125 4.140625 -1.351562 4.328125 -1.65625 C 4.523438 -1.957031 4.625 -2.40625 4.625 -3 C 4.625 -3.59375 4.523438 -4.035156 4.328125 -4.328125 C 4.140625 -4.628906 3.828125 -4.78125 3.390625 -4.78125 C 2.953125 -4.78125 2.632812 -4.632812 2.4375 -4.34375 C 2.25 -4.050781 2.15625 -3.601562 2.15625 -3 Z M 6.296875 -3 C 6.296875 -2.03125 6.035156 -1.269531 5.515625 -0.71875 C 5.003906 -0.164062 4.289062 0.109375 3.375 0.109375 C 2.800781 0.109375 2.296875 -0.015625 1.859375 -0.265625 C 1.421875 -0.515625 1.082031 -0.875 0.84375 -1.34375 C 0.613281 -1.820312 0.5 -2.375 0.5 -3 C 0.5 -3.976562 0.753906 -4.738281 1.265625 -5.28125 C 1.773438 -5.820312 2.488281 -6.09375 3.40625 -6.09375 C 3.988281 -6.09375 4.5 -5.96875 4.9375 -5.71875 C 5.375 -5.46875 5.707031 -5.109375 5.9375 -4.640625 C 6.175781 -4.179688 6.296875 -3.632812 6.296875 -3 Z M 2.5 -6.640625 L 2.5 -6.796875 C 3.113281 -7.503906 3.53125 -8.039062 3.75 -8.40625 L 5.59375 -8.40625 L 5.59375 -8.296875 C 5.40625 -8.109375 5.085938 -7.832031 4.640625 -7.46875 C 4.191406 -7.101562 3.835938 -6.828125 3.578125 -6.640625 Z M 2.5 -6.640625 "/></g></g></g><g fill="#000000" fill-opacity="1"><g transform="translate(71.05979, 121.218524)"><g><path d="M 4.203125 -6.09375 C 4.421875 -6.09375 4.601562 -6.078125 4.75 -6.046875 L 4.625 -4.515625 C 4.488281 -4.554688 4.328125 -4.578125 4.140625 -4.578125 C 3.617188 -4.578125 3.210938 -4.441406 2.921875 -4.171875 C 2.628906 -3.898438 2.484375 -3.523438 2.484375 -3.046875 L 2.484375 0 L 0.859375 0 L 0.859375 -5.984375 L 2.09375 -5.984375 L 2.328125 -4.984375 L 2.421875 -4.984375 C 2.597656 -5.316406 2.84375 -5.582031 3.15625 -5.78125 C 3.476562 -5.988281 3.828125 -6.09375 4.203125 -6.09375 Z M 4.203125 -6.09375 "/></g></g></g><g fill="#000000" fill-opacity="1"><g transform="translate(76.040738, 121.218524)"><g><path d="M 0.78125 -7.53125 C 0.78125 -8.0625 1.078125 -8.328125 1.671875 -8.328125 C 2.265625 -8.328125 2.5625 -8.0625 2.5625 -7.53125 C 2.5625 -7.28125 2.488281 -7.082031 2.34375 -6.9375 C 2.195312 -6.800781 1.972656 -6.734375 1.671875 -6.734375 C 1.078125 -6.734375 0.78125 -7 0.78125 -7.53125 Z M 2.484375 0 L 0.859375 0 L 0.859375 -5.984375 L 2.484375 -5.984375 Z M 2.484375 0 "/></g></g></g><g fill="#000000" fill-opacity="1"><g transform="translate(79.388151, 121.218524)"><g><path d="M 4.65625 0 L 4.34375 -0.8125 L 4.296875 -0.8125 C 4.023438 -0.46875 3.742188 -0.226562 3.453125 -0.09375 C 3.160156 0.0390625 2.78125 0.109375 2.3125 0.109375 C 1.738281 0.109375 1.285156 -0.0507812 0.953125 -0.375 C 0.617188 -0.707031 0.453125 -1.175781 0.453125 -1.78125 C 0.453125 -2.425781 0.675781 -2.894531 1.125 -3.1875 C 1.570312 -3.488281 2.242188 -3.660156 3.140625 -3.703125 L 4.171875 -3.734375 L 4.171875 -3.984375 C 4.171875 -4.597656 3.863281 -4.90625 3.25 -4.90625 C 2.769531 -4.90625 2.207031 -4.757812 1.5625 -4.46875 L 1.015625 -5.5625 C 1.703125 -5.925781 2.46875 -6.109375 3.3125 -6.109375 C 4.113281 -6.109375 4.726562 -5.929688 5.15625 -5.578125 C 5.582031 -5.234375 5.796875 -4.703125 5.796875 -3.984375 L 5.796875 0 Z M 4.171875 -2.78125 L 3.546875 -2.75 C 3.066406 -2.738281 2.710938 -2.65625 2.484375 -2.5 C 2.253906 -2.34375 2.140625 -2.101562 2.140625 -1.78125 C 2.140625 -1.320312 2.398438 -1.09375 2.921875 -1.09375 C 3.304688 -1.09375 3.609375 -1.195312 3.828125 -1.40625 C 4.054688 -1.625 4.171875 -1.914062 4.171875 -2.28125 Z M 4.171875 -2.78125 "/></g></g></g><g fill="#000000" fill-opacity="1"><g transform="translate(86.01335, 121.218524)"><g/></g></g><g fill="#000000" fill-opacity="1"><g transform="translate(88.862666, 121.218524)"><g><path d="M 3.34375 -4.9375 C 2.988281 -4.9375 2.710938 -4.828125 2.515625 -4.609375 C 2.328125 -4.390625 2.21875 -4.078125 2.1875 -3.671875 L 4.484375 -3.671875 C 4.472656 -4.078125 4.363281 -4.390625 4.15625 -4.609375 C 3.957031 -4.828125 3.6875 -4.9375 3.34375 -4.9375 Z M 3.5625 0.109375 C 2.601562 0.109375 1.851562 -0.15625 1.3125 -0.6875 C 0.769531 -1.21875 0.5 -1.972656 0.5 -2.953125 C 0.5 -3.953125 0.75 -4.722656 1.25 -5.265625 C 1.75 -5.816406 2.441406 -6.09375 3.328125 -6.09375 C 4.171875 -6.09375 4.828125 -5.851562 5.296875 -5.375 C 5.773438 -4.894531 6.015625 -4.226562 6.015625 -3.375 L 6.015625 -2.59375 L 2.140625 -2.59375 C 2.160156 -2.125 2.300781 -1.757812 2.5625 -1.5 C 2.820312 -1.238281 3.179688 -1.109375 3.640625 -1.109375 C 4.003906 -1.109375 4.34375 -1.144531 4.65625 -1.21875 C 4.976562 -1.289062 5.316406 -1.410156 5.671875 -1.578125 L 5.671875 -0.3125 C 5.390625 -0.175781 5.082031 -0.0703125 4.75 0 C 4.425781 0.0703125 4.03125 0.109375 3.5625 0.109375 Z M 3.5625 0.109375 "/></g></g></g><g fill="#000000" fill-opacity="1"><g transform="translate(95.343253, 121.218524)"><g/></g></g><g fill="#000000" fill-opacity="1"><g transform="translate(98.192569, 121.218524)"><g><path d="M 4.296875 0 L 2.421875 -6.140625 L 2.375 -6.140625 C 2.4375 -4.890625 2.46875 -4.054688 2.46875 -3.640625 L 2.46875 0 L 0.984375 0 L 0.984375 -7.828125 L 3.25 -7.828125 L 5.09375 -1.84375 L 5.125 -1.84375 L 7.09375 -7.828125 L 9.359375 -7.828125 L 9.359375 0 L 7.8125 0 L 7.8125 -3.703125 C 7.8125 -3.878906 7.8125 -4.082031 7.8125 -4.3125 C 7.820312 -4.539062 7.847656 -5.144531 7.890625 -6.125 L 7.84375 -6.125 L 5.828125 0 Z M 4.296875 0 "/></g></g></g><g fill="#000000" fill-opacity="1"><g transform="translate(108.534733, 121.218524)"><g><path d="M 3.34375 -4.9375 C 2.988281 -4.9375 2.710938 -4.828125 2.515625 -4.609375 C 2.328125 -4.390625 2.21875 -4.078125 2.1875 -3.671875 L 4.484375 -3.671875 C 4.472656 -4.078125 4.363281 -4.390625 4.15625 -4.609375 C 3.957031 -4.828125 3.6875 -4.9375 3.34375 -4.9375 Z M 3.5625 0.109375 C 2.601562 0.109375 1.851562 -0.15625 1.3125 -0.6875 C 0.769531 -1.21875 0.5 -1.972656 0.5 -2.953125 C 0.5 -3.953125 0.75 -4.722656 1.25 -5.265625 C 1.75 -5.816406 2.441406 -6.09375 3.328125 -6.09375 C 4.171875 -6.09375 4.828125 -5.851562 5.296875 -5.375 C 5.773438 -4.894531 6.015625 -4.226562 6.015625 -3.375 L 6.015625 -2.59375 L 2.140625 -2.59375 C 2.160156 -2.125 2.300781 -1.757812 2.5625 -1.5 C 2.820312 -1.238281 3.179688 -1.109375 3.640625 -1.109375 C 4.003906 -1.109375 4.34375 -1.144531 4.65625 -1.21875 C 4.976562 -1.289062 5.316406 -1.410156 5.671875 -1.578125 L 5.671875 -0.3125 C 5.390625 -0.175781 5.082031 -0.0703125 4.75 0 C 4.425781 0.0703125 4.03125 0.109375 3.5625 0.109375 Z M 3.5625 0.109375 "/></g></g></g><g fill="#000000" fill-opacity="1"><g transform="translate(115.01532, 121.218524)"><g><path d="M 6.21875 0 L 4.578125 0 L 4.578125 -3.5 C 4.578125 -3.925781 4.503906 -4.25 4.359375 -4.46875 C 4.222656 -4.6875 4 -4.796875 3.6875 -4.796875 C 3.269531 -4.796875 2.960938 -4.640625 2.765625 -4.328125 C 2.578125 -4.023438 2.484375 -3.519531 2.484375 -2.8125 L 2.484375 0 L 0.859375 0 L 0.859375 -5.984375 L 2.109375 -5.984375 L 2.328125 -5.21875 L 2.421875 -5.21875 C 2.578125 -5.5 2.804688 -5.710938 3.109375 -5.859375 C 3.410156 -6.015625 3.757812 -6.09375 4.15625 -6.09375 C 5.050781 -6.09375 5.660156 -5.800781 5.984375 -5.21875 L 6.125 -5.21875 C 6.28125 -5.5 6.515625 -5.710938 6.828125 -5.859375 C 7.140625 -6.015625 7.492188 -6.09375 7.890625 -6.09375 C 8.566406 -6.09375 9.078125 -5.921875 9.421875 -5.578125 C 9.773438 -5.234375 9.953125 -4.675781 9.953125 -3.90625 L 9.953125 0 L 8.3125 0 L 8.3125 -3.5 C 8.3125 -3.925781 8.238281 -4.25 8.09375 -4.46875 C 7.945312 -4.6875 7.71875 -4.796875 7.40625 -4.796875 C 7.007812 -4.796875 6.710938 -4.648438 6.515625 -4.359375 C 6.316406 -4.078125 6.21875 -3.625 6.21875 -3 Z M 6.21875 0 "/></g></g></g><g fill="#000000" fill-opacity="1"><g transform="translate(125.785952, 121.218524)"><g><path d="M 2.15625 -3 C 2.15625 -2.40625 2.253906 -1.957031 2.453125 -1.65625 C 2.648438 -1.351562 2.96875 -1.203125 3.40625 -1.203125 C 3.832031 -1.203125 4.140625 -1.351562 4.328125 -1.65625 C 4.523438 -1.957031 4.625 -2.40625 4.625 -3 C 4.625 -3.59375 4.523438 -4.035156 4.328125 -4.328125 C 4.140625 -4.628906 3.828125 -4.78125 3.390625 -4.78125 C 2.953125 -4.78125 2.632812 -4.632812 2.4375 -4.34375 C 2.25 -4.050781 2.15625 -3.601562 2.15625 -3 Z M 6.296875 -3 C 6.296875 -2.03125 6.035156 -1.269531 5.515625 -0.71875 C 5.003906 -0.164062 4.289062 0.109375 3.375 0.109375 C 2.800781 0.109375 2.296875 -0.015625 1.859375 -0.265625 C 1.421875 -0.515625 1.082031 -0.875 0.84375 -1.34375 C 0.613281 -1.820312 0.5 -2.375 0.5 -3 C 0.5 -3.976562 0.753906 -4.738281 1.265625 -5.28125 C 1.773438 -5.820312 2.488281 -6.09375 3.40625 -6.09375 C 3.988281 -6.09375 4.5 -5.96875 4.9375 -5.71875 C 5.375 -5.46875 5.707031 -5.109375 5.9375 -4.640625 C 6.175781 -4.179688 6.296875 -3.632812 6.296875 -3 Z M 2.5 -6.640625 L 2.5 -6.796875 C 3.113281 -7.503906 3.53125 -8.039062 3.75 -8.40625 L 5.59375 -8.40625 L 5.59375 -8.296875 C 5.40625 -8.109375 5.085938 -7.832031 4.640625 -7.46875 C 4.191406 -7.101562 3.835938 -6.828125 3.578125 -6.640625 Z M 2.5 -6.640625 "/></g></g></g><g fill="#000000" fill-opacity="1"><g transform="translate(132.577179, 121.218524)"><g><path d="M 4.203125 -6.09375 C 4.421875 -6.09375 4.601562 -6.078125 4.75 -6.046875 L 4.625 -4.515625 C 4.488281 -4.554688 4.328125 -4.578125 4.140625 -4.578125 C 3.617188 -4.578125 3.210938 -4.441406 2.921875 -4.171875 C 2.628906 -3.898438 2.484375 -3.523438 2.484375 -3.046875 L 2.484375 0 L 0.859375 0 L 0.859375 -5.984375 L 2.09375 -5.984375 L 2.328125 -4.984375 L 2.421875 -4.984375 C 2.597656 -5.316406 2.84375 -5.582031 3.15625 -5.78125 C 3.476562 -5.988281 3.828125 -6.09375 4.203125 -6.09375 Z M 4.203125 -6.09375 "/></g></g></g><g fill="#000000" fill-opacity="1"><g transform="translate(137.558127, 121.218524)"><g><path d="M 0.78125 -7.53125 C 0.78125 -8.0625 1.078125 -8.328125 1.671875 -8.328125 C 2.265625 -8.328125 2.5625 -8.0625 2.5625 -7.53125 C 2.5625 -7.28125 2.488281 -7.082031 2.34375 -6.9375 C 2.195312 -6.800781 1.972656 -6.734375 1.671875 -6.734375 C 1.078125 -6.734375 0.78125 -7 0.78125 -7.53125 Z M 2.484375 0 L 0.859375 0 L 0.859375 -5.984375 L 2.484375 -5.984375 Z M 2.484375 0 "/></g></g></g><g fill="#000000" fill-opacity="1"><g transform="translate(140.90554, 121.218524)"><g><path d="M 4.65625 0 L 4.34375 -0.8125 L 4.296875 -0.8125 C 4.023438 -0.46875 3.742188 -0.226562 3.453125 -0.09375 C 3.160156 0.0390625 2.78125 0.109375 2.3125 0.109375 C 1.738281 0.109375 1.285156 -0.0507812 0.953125 -0.375 C 0.617188 -0.707031 0.453125 -1.175781 0.453125 -1.78125 C 0.453125 -2.425781 0.675781 -2.894531 1.125 -3.1875 C 1.570312 -3.488281 2.242188 -3.660156 3.140625 -3.703125 L 4.171875 -3.734375 L 4.171875 -3.984375 C 4.171875 -4.597656 3.863281 -4.90625 3.25 -4.90625 C 2.769531 -4.90625 2.207031 -4.757812 1.5625 -4.46875 L 1.015625 -5.5625 C 1.703125 -5.925781 2.46875 -6.109375 3.3125 -6.109375 C 4.113281 -6.109375 4.726562 -5.929688 5.15625 -5.578125 C 5.582031 -5.234375 5.796875 -4.703125 5.796875 -3.984375 L 5.796875 0 Z M 4.171875 -2.78125 L 3.546875 -2.75 C 3.066406 -2.738281 2.710938 -2.65625 2.484375 -2.5 C 2.253906 -2.34375 2.140625 -2.101562 2.140625 -1.78125 C 2.140625 -1.320312 2.398438 -1.09375 2.921875 -1.09375 C 3.304688 -1.09375 3.609375 -1.195312 3.828125 -1.40625 C 4.054688 -1.625 4.171875 -1.914062 4.171875 -2.28125 Z M 4.171875 -2.78125 "/></g></g></g></svg>