<svg xmlns="http://www.w3.org/2000/svg" xmlns:xlink="http://www.w3.org/1999/xlink" width="200" zoomAndPan="magnify" viewBox="0 0 150 44.999999" height="60" preserveAspectRatio="xMidYMid meet" version="1.0"><defs><filter x="0%" y="0%" width="100%" height="100%" id="0ccd050958"><feColorMatrix values="0 0 0 0 1 0 0 0 0 1 0 0 0 0 1 0 0 0 1 0" color-interpolation-filters="sRGB"/></filter><g/><mask id="21db615b0b"><g filter="url(#0ccd050958)"><rect x="-15" width="180" fill="#000000" y="-4.5" height="53.999999" fill-opacity="0.9"/></g></mask><clipPath id="433474e872"><path d="M 0.359375 0 L 3 0 L 3 3 L 0.359375 3 Z M 0.359375 0 " clip-rule="nonzero"/></clipPath><clipPath id="6daa8ee6ee"><rect x="0" width="16" y="0" height="4"/></clipPath><mask id="f87b72fd04"><g filter="url(#0ccd050958)"><rect x="-15" width="180" fill="#000000" y="-4.5" height="53.999999" fill-opacity="0.9"/></g></mask><clipPath id="7164007da6"><path d="M 12 2 L 13.800781 2 L 13.800781 4 L 12 4 Z M 12 2 " clip-rule="nonzero"/></clipPath><clipPath id="d4a254e63d"><rect x="0" width="14" y="0" height="5"/></clipPath></defs><g mask="url(#21db615b0b)"><g transform="matrix(1, 0, 0, 1, 63, 18)"><g clip-path="url(#6daa8ee6ee)"><g clip-path="url(#433474e872)"><g fill="#ffffff" fill-opacity="1"><g transform="translate(0.548888, 2.827416)"><g><path d="M 1.734375 0 L 1.34375 0 L 1.34375 -0.796875 L 0.625 -0.796875 L 0.625 0 L 0.234375 0 L 0.234375 -1.84375 L 0.625 -1.84375 L 0.625 -1.125 L 1.34375 -1.125 L 1.34375 -1.84375 L 1.734375 -1.84375 Z M 1.734375 0 "/></g></g></g></g><g fill="#ffffff" fill-opacity="1"><g transform="translate(2.523242, 2.827416)"><g><path d="M 0.1875 -1.765625 C 0.1875 -1.890625 0.253906 -1.953125 0.390625 -1.953125 C 0.535156 -1.953125 0.609375 -1.890625 0.609375 -1.765625 C 0.609375 -1.710938 0.585938 -1.664062 0.546875 -1.625 C 0.515625 -1.59375 0.460938 -1.578125 0.390625 -1.578125 C 0.253906 -1.578125 0.1875 -1.640625 0.1875 -1.765625 Z M 0.578125 0 L 0.203125 0 L 0.203125 -1.40625 L 0.578125 -1.40625 Z M 0.578125 0 "/></g></g></g><g fill="#ffffff" fill-opacity="1"><g transform="translate(3.310715, 2.827416)"><g><path d="M 1.1875 -0.421875 C 1.1875 -0.273438 1.132812 -0.160156 1.03125 -0.078125 C 0.925781 -0.00390625 0.773438 0.03125 0.578125 0.03125 C 0.472656 0.03125 0.382812 0.0195312 0.3125 0 C 0.25 -0.0078125 0.1875 -0.03125 0.125 -0.0625 L 0.125 -0.375 C 0.1875 -0.34375 0.265625 -0.3125 0.359375 -0.28125 C 0.453125 -0.257812 0.53125 -0.25 0.59375 -0.25 C 0.726562 -0.25 0.796875 -0.289062 0.796875 -0.375 C 0.796875 -0.40625 0.785156 -0.429688 0.765625 -0.453125 C 0.753906 -0.472656 0.722656 -0.492188 0.671875 -0.515625 C 0.628906 -0.535156 0.570312 -0.5625 0.5 -0.59375 C 0.394531 -0.644531 0.316406 -0.6875 0.265625 -0.71875 C 0.210938 -0.757812 0.171875 -0.804688 0.140625 -0.859375 C 0.117188 -0.910156 0.109375 -0.972656 0.109375 -1.046875 C 0.109375 -1.171875 0.15625 -1.265625 0.25 -1.328125 C 0.351562 -1.398438 0.492188 -1.4375 0.671875 -1.4375 C 0.835938 -1.4375 1.003906 -1.398438 1.171875 -1.328125 L 1.046875 -1.046875 C 0.984375 -1.078125 0.921875 -1.101562 0.859375 -1.125 C 0.796875 -1.144531 0.734375 -1.15625 0.671875 -1.15625 C 0.554688 -1.15625 0.5 -1.125 0.5 -1.0625 C 0.5 -1.019531 0.515625 -0.988281 0.546875 -0.96875 C 0.585938 -0.945312 0.671875 -0.910156 0.796875 -0.859375 C 0.898438 -0.816406 0.976562 -0.773438 1.03125 -0.734375 C 1.082031 -0.691406 1.117188 -0.644531 1.140625 -0.59375 C 1.171875 -0.539062 1.1875 -0.484375 1.1875 -0.421875 Z M 1.1875 -0.421875 "/></g></g></g><g fill="#ffffff" fill-opacity="1"><g transform="translate(4.593352, 2.827416)"><g><path d="M 0.796875 -0.28125 C 0.859375 -0.28125 0.9375 -0.296875 1.03125 -0.328125 L 1.03125 -0.03125 C 0.9375 0.0078125 0.820312 0.03125 0.6875 0.03125 C 0.53125 0.03125 0.414062 -0.00390625 0.34375 -0.078125 C 0.28125 -0.160156 0.25 -0.28125 0.25 -0.4375 L 0.25 -1.125 L 0.0625 -1.125 L 0.0625 -1.28125 L 0.265625 -1.40625 L 0.375 -1.703125 L 0.625 -1.703125 L 0.625 -1.40625 L 1.015625 -1.40625 L 1.015625 -1.125 L 0.625 -1.125 L 0.625 -0.4375 C 0.625 -0.382812 0.640625 -0.34375 0.671875 -0.3125 C 0.703125 -0.289062 0.742188 -0.28125 0.796875 -0.28125 Z M 0.796875 -0.28125 "/></g></g></g><g fill="#ffffff" fill-opacity="1"><g transform="translate(5.713455, 2.827416)"><g><path d="M 0.5 -0.703125 C 0.5 -0.566406 0.519531 -0.460938 0.5625 -0.390625 C 0.613281 -0.316406 0.691406 -0.28125 0.796875 -0.28125 C 0.898438 -0.28125 0.972656 -0.316406 1.015625 -0.390625 C 1.066406 -0.460938 1.09375 -0.566406 1.09375 -0.703125 C 1.09375 -0.847656 1.066406 -0.953125 1.015625 -1.015625 C 0.972656 -1.085938 0.898438 -1.125 0.796875 -1.125 C 0.691406 -1.125 0.613281 -1.085938 0.5625 -1.015625 C 0.519531 -0.953125 0.5 -0.847656 0.5 -0.703125 Z M 1.484375 -0.703125 C 1.484375 -0.472656 1.421875 -0.289062 1.296875 -0.15625 C 1.179688 -0.03125 1.015625 0.03125 0.796875 0.03125 C 0.660156 0.03125 0.539062 0 0.4375 -0.0625 C 0.332031 -0.125 0.25 -0.207031 0.1875 -0.3125 C 0.132812 -0.425781 0.109375 -0.554688 0.109375 -0.703125 C 0.109375 -0.929688 0.164062 -1.109375 0.28125 -1.234375 C 0.40625 -1.367188 0.578125 -1.4375 0.796875 -1.4375 C 0.929688 -1.4375 1.050781 -1.40625 1.15625 -1.34375 C 1.257812 -1.28125 1.335938 -1.191406 1.390625 -1.078125 C 1.453125 -0.972656 1.484375 -0.847656 1.484375 -0.703125 Z M 0.59375 -1.5625 L 0.59375 -1.59375 C 0.738281 -1.757812 0.835938 -1.882812 0.890625 -1.96875 L 1.3125 -1.96875 L 1.3125 -1.953125 C 1.269531 -1.910156 1.195312 -1.84375 1.09375 -1.75 C 0.988281 -1.664062 0.90625 -1.601562 0.84375 -1.5625 Z M 0.59375 -1.5625 "/></g></g></g><g fill="#ffffff" fill-opacity="1"><g transform="translate(7.311081, 2.827416)"><g><path d="M 0.984375 -1.4375 C 1.035156 -1.4375 1.078125 -1.429688 1.109375 -1.421875 L 1.09375 -1.0625 C 1.0625 -1.070312 1.019531 -1.078125 0.96875 -1.078125 C 0.851562 -1.078125 0.757812 -1.046875 0.6875 -0.984375 C 0.613281 -0.921875 0.578125 -0.832031 0.578125 -0.71875 L 0.578125 0 L 0.203125 0 L 0.203125 -1.40625 L 0.5 -1.40625 L 0.546875 -1.171875 L 0.5625 -1.171875 C 0.613281 -1.253906 0.675781 -1.316406 0.75 -1.359375 C 0.820312 -1.410156 0.898438 -1.4375 0.984375 -1.4375 Z M 0.984375 -1.4375 "/></g></g></g><g fill="#ffffff" fill-opacity="1"><g transform="translate(8.482841, 2.827416)"><g><path d="M 0.1875 -1.765625 C 0.1875 -1.890625 0.253906 -1.953125 0.390625 -1.953125 C 0.535156 -1.953125 0.609375 -1.890625 0.609375 -1.765625 C 0.609375 -1.710938 0.585938 -1.664062 0.546875 -1.625 C 0.515625 -1.59375 0.460938 -1.578125 0.390625 -1.578125 C 0.253906 -1.578125 0.1875 -1.640625 0.1875 -1.765625 Z M 0.578125 0 L 0.203125 0 L 0.203125 -1.40625 L 0.578125 -1.40625 Z M 0.578125 0 "/></g></g></g><g fill="#ffffff" fill-opacity="1"><g transform="translate(9.270315, 2.827416)"><g><path d="M 1.09375 0 L 1.015625 -0.1875 C 0.941406 -0.101562 0.867188 -0.046875 0.796875 -0.015625 C 0.734375 0.015625 0.648438 0.03125 0.546875 0.03125 C 0.410156 0.03125 0.300781 -0.00390625 0.21875 -0.078125 C 0.144531 -0.160156 0.109375 -0.273438 0.109375 -0.421875 C 0.109375 -0.566406 0.160156 -0.675781 0.265625 -0.75 C 0.367188 -0.820312 0.523438 -0.863281 0.734375 -0.875 L 0.984375 -0.875 L 0.984375 -0.9375 C 0.984375 -1.082031 0.910156 -1.15625 0.765625 -1.15625 C 0.648438 -1.15625 0.515625 -1.117188 0.359375 -1.046875 L 0.234375 -1.3125 C 0.398438 -1.394531 0.582031 -1.4375 0.78125 -1.4375 C 0.96875 -1.4375 1.109375 -1.394531 1.203125 -1.3125 C 1.304688 -1.226562 1.359375 -1.101562 1.359375 -0.9375 L 1.359375 0 Z M 0.984375 -0.65625 L 0.828125 -0.640625 C 0.722656 -0.640625 0.640625 -0.617188 0.578125 -0.578125 C 0.523438 -0.546875 0.5 -0.492188 0.5 -0.421875 C 0.5 -0.304688 0.5625 -0.25 0.6875 -0.25 C 0.78125 -0.25 0.851562 -0.273438 0.90625 -0.328125 C 0.957031 -0.378906 0.984375 -0.445312 0.984375 -0.53125 Z M 0.984375 -0.65625 "/></g></g></g><g fill="#ffffff" fill-opacity="1"><g transform="translate(10.828882, 2.827416)"><g><path d="M 1.1875 -0.421875 C 1.1875 -0.273438 1.132812 -0.160156 1.03125 -0.078125 C 0.925781 -0.00390625 0.773438 0.03125 0.578125 0.03125 C 0.472656 0.03125 0.382812 0.0195312 0.3125 0 C 0.25 -0.0078125 0.1875 -0.03125 0.125 -0.0625 L 0.125 -0.375 C 0.1875 -0.34375 0.265625 -0.3125 0.359375 -0.28125 C 0.453125 -0.257812 0.53125 -0.25 0.59375 -0.25 C 0.726562 -0.25 0.796875 -0.289062 0.796875 -0.375 C 0.796875 -0.40625 0.785156 -0.429688 0.765625 -0.453125 C 0.753906 -0.472656 0.722656 -0.492188 0.671875 -0.515625 C 0.628906 -0.535156 0.570312 -0.5625 0.5 -0.59375 C 0.394531 -0.644531 0.316406 -0.6875 0.265625 -0.71875 C 0.210938 -0.757812 0.171875 -0.804688 0.140625 -0.859375 C 0.117188 -0.910156 0.109375 -0.972656 0.109375 -1.046875 C 0.109375 -1.171875 0.15625 -1.265625 0.25 -1.328125 C 0.351562 -1.398438 0.492188 -1.4375 0.671875 -1.4375 C 0.835938 -1.4375 1.003906 -1.398438 1.171875 -1.328125 L 1.046875 -1.046875 C 0.984375 -1.078125 0.921875 -1.101562 0.859375 -1.125 C 0.796875 -1.144531 0.734375 -1.15625 0.671875 -1.15625 C 0.554688 -1.15625 0.5 -1.125 0.5 -1.0625 C 0.5 -1.019531 0.515625 -0.988281 0.546875 -0.96875 C 0.585938 -0.945312 0.671875 -0.910156 0.796875 -0.859375 C 0.898438 -0.816406 0.976562 -0.773438 1.03125 -0.734375 C 1.082031 -0.691406 1.117188 -0.644531 1.140625 -0.59375 C 1.171875 -0.539062 1.1875 -0.484375 1.1875 -0.421875 Z M 1.1875 -0.421875 "/></g></g></g><g fill="#ffffff" fill-opacity="1"><g transform="translate(12.111519, 2.827416)"><g/></g></g><g fill="#ffffff" fill-opacity="1"><g transform="translate(12.781816, 2.827416)"><g><path d="M 1.9375 0 L 1.453125 0 L 1.3125 -0.140625 C 1.15625 -0.0234375 0.972656 0.03125 0.765625 0.03125 C 0.566406 0.03125 0.40625 -0.015625 0.28125 -0.109375 C 0.164062 -0.203125 0.109375 -0.332031 0.109375 -0.5 C 0.109375 -0.613281 0.128906 -0.707031 0.171875 -0.78125 C 0.222656 -0.863281 0.3125 -0.941406 0.4375 -1.015625 C 0.375 -1.085938 0.328125 -1.15625 0.296875 -1.21875 C 0.273438 -1.289062 0.265625 -1.363281 0.265625 -1.4375 C 0.265625 -1.5625 0.3125 -1.660156 0.40625 -1.734375 C 0.5 -1.816406 0.628906 -1.859375 0.796875 -1.859375 C 0.953125 -1.859375 1.078125 -1.820312 1.171875 -1.75 C 1.265625 -1.6875 1.3125 -1.59375 1.3125 -1.46875 C 1.3125 -1.363281 1.28125 -1.269531 1.21875 -1.1875 C 1.164062 -1.101562 1.078125 -1.023438 0.953125 -0.953125 L 1.296875 -0.609375 C 1.359375 -0.703125 1.410156 -0.828125 1.453125 -0.984375 L 1.859375 -0.984375 C 1.828125 -0.867188 1.785156 -0.757812 1.734375 -0.65625 C 1.679688 -0.550781 1.617188 -0.457031 1.546875 -0.375 Z M 0.5 -0.53125 C 0.5 -0.457031 0.523438 -0.398438 0.578125 -0.359375 C 0.640625 -0.316406 0.710938 -0.296875 0.796875 -0.296875 C 0.898438 -0.296875 0.992188 -0.320312 1.078125 -0.375 L 0.671875 -0.796875 C 0.617188 -0.753906 0.578125 -0.710938 0.546875 -0.671875 C 0.515625 -0.628906 0.5 -0.582031 0.5 -0.53125 Z M 0.953125 -1.421875 C 0.953125 -1.472656 0.9375 -1.507812 0.90625 -1.53125 C 0.882812 -1.550781 0.847656 -1.5625 0.796875 -1.5625 C 0.742188 -1.5625 0.695312 -1.546875 0.65625 -1.515625 C 0.625 -1.492188 0.609375 -1.460938 0.609375 -1.421875 C 0.609375 -1.335938 0.648438 -1.253906 0.734375 -1.171875 C 0.804688 -1.210938 0.859375 -1.25 0.890625 -1.28125 C 0.929688 -1.320312 0.953125 -1.367188 0.953125 -1.421875 Z M 0.953125 -1.421875 "/></g></g></g><g fill="#ffffff" fill-opacity="1"><g transform="translate(14.717233, 2.827416)"><g/></g></g></g></g></g><g fill="#ffffff" fill-opacity="1"><g transform="translate(78.308257, 21.899999)"><g><path d="M 0.5625 -0.84375 C 0.476562 -0.84375 0.410156 -0.8125 0.359375 -0.75 C 0.316406 -0.695312 0.296875 -0.613281 0.296875 -0.5 C 0.296875 -0.28125 0.382812 -0.171875 0.5625 -0.171875 C 0.632812 -0.171875 0.71875 -0.1875 0.8125 -0.21875 L 0.8125 -0.03125 C 0.726562 0 0.632812 0.015625 0.53125 0.015625 C 0.382812 0.015625 0.269531 -0.0234375 0.1875 -0.109375 C 0.113281 -0.203125 0.078125 -0.332031 0.078125 -0.5 C 0.078125 -0.613281 0.0976562 -0.707031 0.140625 -0.78125 C 0.179688 -0.863281 0.234375 -0.925781 0.296875 -0.96875 C 0.367188 -1.007812 0.457031 -1.03125 0.5625 -1.03125 C 0.65625 -1.03125 0.753906 -1.003906 0.859375 -0.953125 L 0.78125 -0.78125 C 0.75 -0.800781 0.710938 -0.816406 0.671875 -0.828125 C 0.628906 -0.835938 0.59375 -0.84375 0.5625 -0.84375 Z M 0.5625 -0.84375 "/></g></g></g><g fill="#ffffff" fill-opacity="1"><g transform="translate(79.21252, 21.899999)"><g><path d="M 0.609375 0 L 0.5625 -0.109375 C 0.519531 -0.0546875 0.476562 -0.0195312 0.4375 0 C 0.40625 0.0078125 0.359375 0.015625 0.296875 0.015625 C 0.222656 0.015625 0.164062 -0.00390625 0.125 -0.046875 C 0.0820312 -0.0859375 0.0625 -0.148438 0.0625 -0.234375 C 0.0625 -0.316406 0.0859375 -0.375 0.140625 -0.40625 C 0.203125 -0.445312 0.289062 -0.472656 0.40625 -0.484375 L 0.546875 -0.484375 L 0.546875 -0.515625 C 0.546875 -0.597656 0.503906 -0.640625 0.421875 -0.640625 C 0.359375 -0.640625 0.285156 -0.617188 0.203125 -0.578125 L 0.125 -0.71875 C 0.21875 -0.769531 0.316406 -0.796875 0.421875 -0.796875 C 0.523438 -0.796875 0.601562 -0.769531 0.65625 -0.71875 C 0.71875 -0.675781 0.75 -0.609375 0.75 -0.515625 L 0.75 0 Z M 0.546875 -0.359375 L 0.453125 -0.359375 C 0.398438 -0.359375 0.359375 -0.347656 0.328125 -0.328125 C 0.296875 -0.304688 0.28125 -0.273438 0.28125 -0.234375 C 0.28125 -0.171875 0.3125 -0.140625 0.375 -0.140625 C 0.425781 -0.140625 0.46875 -0.148438 0.5 -0.171875 C 0.53125 -0.203125 0.546875 -0.242188 0.546875 -0.296875 Z M 0.59375 -0.859375 C 0.519531 -0.898438 0.460938 -0.941406 0.421875 -0.984375 C 0.390625 -0.941406 0.335938 -0.898438 0.265625 -0.859375 L 0.125 -0.859375 L 0.125 -0.875 C 0.21875 -0.96875 0.28125 -1.039062 0.3125 -1.09375 L 0.5625 -1.09375 C 0.570312 -1.0625 0.59375 -1.023438 0.625 -0.984375 C 0.664062 -0.941406 0.703125 -0.90625 0.734375 -0.875 L 0.734375 -0.859375 Z M 0.59375 -0.859375 "/></g></g></g><g fill="#ffffff" fill-opacity="1"><g transform="translate(80.069664, 21.899999)"><g><path d="M 0.8125 0 L 0.59375 0 L 0.59375 -0.453125 C 0.59375 -0.503906 0.582031 -0.546875 0.5625 -0.578125 C 0.539062 -0.609375 0.515625 -0.625 0.484375 -0.625 C 0.421875 -0.625 0.378906 -0.601562 0.359375 -0.5625 C 0.335938 -0.519531 0.328125 -0.453125 0.328125 -0.359375 L 0.328125 0 L 0.109375 0 L 0.109375 -0.78125 L 0.265625 -0.78125 L 0.296875 -0.671875 L 0.3125 -0.671875 C 0.332031 -0.710938 0.363281 -0.742188 0.40625 -0.765625 C 0.445312 -0.785156 0.488281 -0.796875 0.53125 -0.796875 C 0.65625 -0.796875 0.738281 -0.753906 0.78125 -0.671875 L 0.796875 -0.671875 C 0.816406 -0.710938 0.847656 -0.742188 0.890625 -0.765625 C 0.929688 -0.785156 0.972656 -0.796875 1.015625 -0.796875 C 1.109375 -0.796875 1.175781 -0.769531 1.21875 -0.71875 C 1.269531 -0.675781 1.296875 -0.601562 1.296875 -0.5 L 1.296875 0 L 1.078125 0 L 1.078125 -0.453125 C 1.078125 -0.503906 1.066406 -0.546875 1.046875 -0.578125 C 1.023438 -0.609375 0.992188 -0.625 0.953125 -0.625 C 0.910156 -0.625 0.875 -0.601562 0.84375 -0.5625 C 0.820312 -0.53125 0.8125 -0.472656 0.8125 -0.390625 Z M 0.8125 0 "/></g></g></g><g fill="#ffffff" fill-opacity="1"><g transform="translate(81.463129, 21.899999)"><g><path d="M 0.53125 0.015625 C 0.445312 0.015625 0.378906 -0.015625 0.328125 -0.078125 L 0.3125 -0.078125 C 0.320312 -0.015625 0.328125 0.0195312 0.328125 0.03125 L 0.328125 0.34375 L 0.109375 0.34375 L 0.109375 -0.78125 L 0.28125 -0.78125 L 0.3125 -0.671875 L 0.328125 -0.671875 C 0.367188 -0.753906 0.441406 -0.796875 0.546875 -0.796875 C 0.640625 -0.796875 0.707031 -0.757812 0.75 -0.6875 C 0.800781 -0.613281 0.828125 -0.515625 0.828125 -0.390625 C 0.828125 -0.304688 0.816406 -0.234375 0.796875 -0.171875 C 0.773438 -0.109375 0.738281 -0.0625 0.6875 -0.03125 C 0.644531 0 0.59375 0.015625 0.53125 0.015625 Z M 0.46875 -0.625 C 0.414062 -0.625 0.378906 -0.609375 0.359375 -0.578125 C 0.335938 -0.546875 0.328125 -0.488281 0.328125 -0.40625 L 0.328125 -0.390625 C 0.328125 -0.304688 0.335938 -0.242188 0.359375 -0.203125 C 0.378906 -0.171875 0.421875 -0.15625 0.484375 -0.15625 C 0.578125 -0.15625 0.625 -0.234375 0.625 -0.390625 C 0.625 -0.460938 0.609375 -0.519531 0.578125 -0.5625 C 0.554688 -0.601562 0.519531 -0.625 0.46875 -0.625 Z M 0.46875 -0.625 "/></g></g></g><g fill="#ffffff" fill-opacity="1"><g transform="translate(82.361155, 21.899999)"><g><path d="M 0.65625 0 L 0.625 -0.09375 C 0.601562 -0.0625 0.570312 -0.0351562 0.53125 -0.015625 C 0.488281 0.00390625 0.4375 0.015625 0.375 0.015625 C 0.289062 0.015625 0.222656 -0.00390625 0.171875 -0.046875 C 0.128906 -0.0976562 0.109375 -0.171875 0.109375 -0.265625 L 0.109375 -0.78125 L 0.3125 -0.78125 L 0.3125 -0.328125 C 0.3125 -0.265625 0.320312 -0.21875 0.34375 -0.1875 C 0.363281 -0.164062 0.394531 -0.15625 0.4375 -0.15625 C 0.5 -0.15625 0.539062 -0.175781 0.5625 -0.21875 C 0.59375 -0.257812 0.609375 -0.320312 0.609375 -0.40625 L 0.609375 -0.78125 L 0.828125 -0.78125 L 0.828125 0 Z M 0.65625 0 "/></g></g></g><g fill="#ffffff" fill-opacity="1"><g transform="translate(83.293827, 21.899999)"><g><path d="M 0.65625 -0.234375 C 0.65625 -0.148438 0.625 -0.0859375 0.5625 -0.046875 C 0.507812 -0.00390625 0.429688 0.015625 0.328125 0.015625 C 0.265625 0.015625 0.210938 0.0078125 0.171875 0 C 0.140625 -0.0078125 0.101562 -0.0195312 0.0625 -0.03125 L 0.0625 -0.203125 C 0.101562 -0.179688 0.144531 -0.164062 0.1875 -0.15625 C 0.238281 -0.144531 0.285156 -0.140625 0.328125 -0.140625 C 0.398438 -0.140625 0.4375 -0.160156 0.4375 -0.203125 C 0.4375 -0.222656 0.429688 -0.238281 0.421875 -0.25 C 0.410156 -0.257812 0.394531 -0.269531 0.375 -0.28125 C 0.351562 -0.289062 0.320312 -0.304688 0.28125 -0.328125 C 0.21875 -0.359375 0.171875 -0.382812 0.140625 -0.40625 C 0.117188 -0.425781 0.0976562 -0.445312 0.078125 -0.46875 C 0.0664062 -0.5 0.0625 -0.535156 0.0625 -0.578125 C 0.0625 -0.640625 0.0859375 -0.691406 0.140625 -0.734375 C 0.191406 -0.773438 0.269531 -0.796875 0.375 -0.796875 C 0.46875 -0.796875 0.554688 -0.773438 0.640625 -0.734375 L 0.578125 -0.578125 C 0.535156 -0.597656 0.5 -0.613281 0.46875 -0.625 C 0.4375 -0.632812 0.40625 -0.640625 0.375 -0.640625 C 0.3125 -0.640625 0.28125 -0.617188 0.28125 -0.578125 C 0.28125 -0.566406 0.285156 -0.550781 0.296875 -0.53125 C 0.316406 -0.519531 0.363281 -0.5 0.4375 -0.46875 C 0.5 -0.445312 0.539062 -0.425781 0.5625 -0.40625 C 0.59375 -0.382812 0.613281 -0.359375 0.625 -0.328125 C 0.644531 -0.296875 0.65625 -0.265625 0.65625 -0.234375 Z M 0.65625 -0.234375 "/></g></g></g><g fill="#ffffff" fill-opacity="1"><g transform="translate(84.367855, 21.899999)"><g><path d="M 0.734375 -0.28125 C 0.734375 -0.1875 0.695312 -0.113281 0.625 -0.0625 C 0.5625 -0.0078125 0.472656 0.015625 0.359375 0.015625 C 0.242188 0.015625 0.144531 -0.00390625 0.0625 -0.046875 L 0.0625 -0.25 C 0.132812 -0.21875 0.191406 -0.191406 0.234375 -0.171875 C 0.285156 -0.160156 0.332031 -0.15625 0.375 -0.15625 C 0.414062 -0.15625 0.445312 -0.164062 0.46875 -0.1875 C 0.5 -0.207031 0.515625 -0.234375 0.515625 -0.265625 C 0.515625 -0.285156 0.507812 -0.300781 0.5 -0.3125 C 0.488281 -0.332031 0.472656 -0.347656 0.453125 -0.359375 C 0.429688 -0.378906 0.382812 -0.40625 0.3125 -0.4375 C 0.25 -0.46875 0.203125 -0.492188 0.171875 -0.515625 C 0.140625 -0.546875 0.113281 -0.578125 0.09375 -0.609375 C 0.0820312 -0.648438 0.078125 -0.691406 0.078125 -0.734375 C 0.078125 -0.828125 0.109375 -0.898438 0.171875 -0.953125 C 0.234375 -1.003906 0.316406 -1.03125 0.421875 -1.03125 C 0.472656 -1.03125 0.519531 -1.019531 0.5625 -1 C 0.613281 -0.988281 0.664062 -0.972656 0.71875 -0.953125 L 0.65625 -0.796875 C 0.601562 -0.816406 0.554688 -0.828125 0.515625 -0.828125 C 0.484375 -0.835938 0.445312 -0.84375 0.40625 -0.84375 C 0.375 -0.84375 0.34375 -0.832031 0.3125 -0.8125 C 0.289062 -0.800781 0.28125 -0.78125 0.28125 -0.75 C 0.28125 -0.726562 0.285156 -0.707031 0.296875 -0.6875 C 0.304688 -0.675781 0.320312 -0.664062 0.34375 -0.65625 C 0.363281 -0.644531 0.410156 -0.625 0.484375 -0.59375 C 0.578125 -0.539062 0.640625 -0.488281 0.671875 -0.4375 C 0.710938 -0.394531 0.734375 -0.34375 0.734375 -0.28125 Z M 0.734375 -0.28125 "/></g></g></g><g fill="#ffffff" fill-opacity="1"><g transform="translate(85.14947, 21.899999)"><g><path d="M 0.609375 0 L 0.5625 -0.109375 C 0.519531 -0.0546875 0.476562 -0.0195312 0.4375 0 C 0.40625 0.0078125 0.359375 0.015625 0.296875 0.015625 C 0.222656 0.015625 0.164062 -0.00390625 0.125 -0.046875 C 0.0820312 -0.0859375 0.0625 -0.148438 0.0625 -0.234375 C 0.0625 -0.316406 0.0859375 -0.375 0.140625 -0.40625 C 0.203125 -0.445312 0.289062 -0.472656 0.40625 -0.484375 L 0.546875 -0.484375 L 0.546875 -0.515625 C 0.546875 -0.597656 0.503906 -0.640625 0.421875 -0.640625 C 0.359375 -0.640625 0.285156 -0.617188 0.203125 -0.578125 L 0.125 -0.71875 C 0.21875 -0.769531 0.316406 -0.796875 0.421875 -0.796875 C 0.523438 -0.796875 0.601562 -0.769531 0.65625 -0.71875 C 0.71875 -0.675781 0.75 -0.609375 0.75 -0.515625 L 0.75 0 Z M 0.546875 -0.359375 L 0.453125 -0.359375 C 0.398438 -0.359375 0.359375 -0.347656 0.328125 -0.328125 C 0.296875 -0.304688 0.28125 -0.273438 0.28125 -0.234375 C 0.28125 -0.171875 0.3125 -0.140625 0.375 -0.140625 C 0.425781 -0.140625 0.46875 -0.148438 0.5 -0.171875 C 0.53125 -0.203125 0.546875 -0.242188 0.546875 -0.296875 Z M 0.3125 -0.9375 C 0.300781 -0.9375 0.285156 -0.925781 0.265625 -0.90625 C 0.253906 -0.894531 0.25 -0.878906 0.25 -0.859375 L 0.140625 -0.859375 C 0.148438 -0.921875 0.171875 -0.972656 0.203125 -1.015625 C 0.234375 -1.054688 0.273438 -1.078125 0.328125 -1.078125 C 0.347656 -1.078125 0.367188 -1.070312 0.390625 -1.0625 C 0.410156 -1.050781 0.425781 -1.039062 0.4375 -1.03125 C 0.457031 -1.03125 0.472656 -1.023438 0.484375 -1.015625 C 0.503906 -1.003906 0.523438 -1 0.546875 -1 C 0.554688 -1 0.566406 -1.003906 0.578125 -1.015625 C 0.597656 -1.023438 0.609375 -1.046875 0.609375 -1.078125 L 0.71875 -1.078125 C 0.71875 -1.003906 0.695312 -0.945312 0.65625 -0.90625 C 0.625 -0.875 0.582031 -0.859375 0.53125 -0.859375 C 0.507812 -0.859375 0.488281 -0.863281 0.46875 -0.875 C 0.457031 -0.882812 0.441406 -0.890625 0.421875 -0.890625 C 0.398438 -0.898438 0.378906 -0.910156 0.359375 -0.921875 C 0.347656 -0.929688 0.332031 -0.9375 0.3125 -0.9375 Z M 0.3125 -0.9375 "/></g></g></g><g fill="#ffffff" fill-opacity="1"><g transform="translate(86.006614, 21.899999)"><g><path d="M 0.28125 -0.390625 C 0.28125 -0.316406 0.289062 -0.257812 0.3125 -0.21875 C 0.34375 -0.175781 0.382812 -0.15625 0.4375 -0.15625 C 0.5 -0.15625 0.539062 -0.175781 0.5625 -0.21875 C 0.582031 -0.257812 0.59375 -0.316406 0.59375 -0.390625 C 0.59375 -0.460938 0.582031 -0.519531 0.5625 -0.5625 C 0.539062 -0.601562 0.5 -0.625 0.4375 -0.625 C 0.382812 -0.625 0.34375 -0.601562 0.3125 -0.5625 C 0.289062 -0.519531 0.28125 -0.460938 0.28125 -0.390625 Z M 0.8125 -0.390625 C 0.8125 -0.265625 0.773438 -0.164062 0.703125 -0.09375 C 0.640625 -0.0195312 0.550781 0.015625 0.4375 0.015625 C 0.363281 0.015625 0.296875 0 0.234375 -0.03125 C 0.179688 -0.0625 0.140625 -0.109375 0.109375 -0.171875 C 0.078125 -0.234375 0.0625 -0.304688 0.0625 -0.390625 C 0.0625 -0.515625 0.09375 -0.613281 0.15625 -0.6875 C 0.226562 -0.757812 0.320312 -0.796875 0.4375 -0.796875 C 0.507812 -0.796875 0.570312 -0.773438 0.625 -0.734375 C 0.6875 -0.703125 0.734375 -0.65625 0.765625 -0.59375 C 0.796875 -0.539062 0.8125 -0.472656 0.8125 -0.390625 Z M 0.8125 -0.390625 "/></g></g></g><g fill="#ffffff" fill-opacity="1"><g transform="translate(86.885238, 21.899999)"><g/></g></g><g fill="#ffffff" fill-opacity="1"><g transform="translate(87.253872, 21.899999)"><g><path d="M 0.34375 -0.53125 L 0.40625 -0.53125 C 0.476562 -0.53125 0.53125 -0.539062 0.5625 -0.5625 C 0.59375 -0.59375 0.609375 -0.632812 0.609375 -0.6875 C 0.609375 -0.738281 0.59375 -0.773438 0.5625 -0.796875 C 0.539062 -0.828125 0.5 -0.84375 0.4375 -0.84375 L 0.34375 -0.84375 Z M 0.828125 -0.703125 C 0.828125 -0.585938 0.789062 -0.5 0.71875 -0.4375 C 0.65625 -0.382812 0.5625 -0.359375 0.4375 -0.359375 L 0.34375 -0.359375 L 0.34375 0 L 0.125 0 L 0.125 -1.015625 L 0.453125 -1.015625 C 0.578125 -1.015625 0.671875 -0.988281 0.734375 -0.9375 C 0.796875 -0.882812 0.828125 -0.804688 0.828125 -0.703125 Z M 0.828125 -0.703125 "/></g></g></g><g fill="#ffffff" fill-opacity="1"><g transform="translate(88.144968, 21.899999)"><g><path d="M 0.609375 0 L 0.5625 -0.109375 C 0.519531 -0.0546875 0.476562 -0.0195312 0.4375 0 C 0.40625 0.0078125 0.359375 0.015625 0.296875 0.015625 C 0.222656 0.015625 0.164062 -0.00390625 0.125 -0.046875 C 0.0820312 -0.0859375 0.0625 -0.148438 0.0625 -0.234375 C 0.0625 -0.316406 0.0859375 -0.375 0.140625 -0.40625 C 0.203125 -0.445312 0.289062 -0.472656 0.40625 -0.484375 L 0.546875 -0.484375 L 0.546875 -0.515625 C 0.546875 -0.597656 0.503906 -0.640625 0.421875 -0.640625 C 0.359375 -0.640625 0.285156 -0.617188 0.203125 -0.578125 L 0.125 -0.71875 C 0.21875 -0.769531 0.316406 -0.796875 0.421875 -0.796875 C 0.523438 -0.796875 0.601562 -0.769531 0.65625 -0.71875 C 0.71875 -0.675781 0.75 -0.609375 0.75 -0.515625 L 0.75 0 Z M 0.546875 -0.359375 L 0.453125 -0.359375 C 0.398438 -0.359375 0.359375 -0.347656 0.328125 -0.328125 C 0.296875 -0.304688 0.28125 -0.273438 0.28125 -0.234375 C 0.28125 -0.171875 0.3125 -0.140625 0.375 -0.140625 C 0.425781 -0.140625 0.46875 -0.148438 0.5 -0.171875 C 0.53125 -0.203125 0.546875 -0.242188 0.546875 -0.296875 Z M 0.546875 -0.359375 "/></g></g></g><g fill="#ffffff" fill-opacity="1"><g transform="translate(89.002112, 21.899999)"><g><path d="M 0.65625 0 L 0.625 -0.09375 C 0.601562 -0.0625 0.570312 -0.0351562 0.53125 -0.015625 C 0.488281 0.00390625 0.4375 0.015625 0.375 0.015625 C 0.289062 0.015625 0.222656 -0.00390625 0.171875 -0.046875 C 0.128906 -0.0976562 0.109375 -0.171875 0.109375 -0.265625 L 0.109375 -0.78125 L 0.3125 -0.78125 L 0.3125 -0.328125 C 0.3125 -0.265625 0.320312 -0.21875 0.34375 -0.1875 C 0.363281 -0.164062 0.394531 -0.15625 0.4375 -0.15625 C 0.5 -0.15625 0.539062 -0.175781 0.5625 -0.21875 C 0.59375 -0.257812 0.609375 -0.320312 0.609375 -0.40625 L 0.609375 -0.78125 L 0.828125 -0.78125 L 0.828125 0 Z M 0.65625 0 "/></g></g></g><g fill="#ffffff" fill-opacity="1"><g transform="translate(89.934784, 21.899999)"><g><path d="M 0.328125 0 L 0.109375 0 L 0.109375 -1.078125 L 0.328125 -1.078125 Z M 0.328125 0 "/></g></g></g><g fill="#ffffff" fill-opacity="1"><g transform="translate(90.36786, 21.899999)"><g><path d="M 0.28125 -0.390625 C 0.28125 -0.316406 0.289062 -0.257812 0.3125 -0.21875 C 0.34375 -0.175781 0.382812 -0.15625 0.4375 -0.15625 C 0.5 -0.15625 0.539062 -0.175781 0.5625 -0.21875 C 0.582031 -0.257812 0.59375 -0.316406 0.59375 -0.390625 C 0.59375 -0.460938 0.582031 -0.519531 0.5625 -0.5625 C 0.539062 -0.601562 0.5 -0.625 0.4375 -0.625 C 0.382812 -0.625 0.34375 -0.601562 0.3125 -0.5625 C 0.289062 -0.519531 0.28125 -0.460938 0.28125 -0.390625 Z M 0.8125 -0.390625 C 0.8125 -0.265625 0.773438 -0.164062 0.703125 -0.09375 C 0.640625 -0.0195312 0.550781 0.015625 0.4375 0.015625 C 0.363281 0.015625 0.296875 0 0.234375 -0.03125 C 0.179688 -0.0625 0.140625 -0.109375 0.109375 -0.171875 C 0.078125 -0.234375 0.0625 -0.304688 0.0625 -0.390625 C 0.0625 -0.515625 0.09375 -0.613281 0.15625 -0.6875 C 0.226562 -0.757812 0.320312 -0.796875 0.4375 -0.796875 C 0.507812 -0.796875 0.570312 -0.773438 0.625 -0.734375 C 0.6875 -0.703125 0.734375 -0.65625 0.765625 -0.59375 C 0.796875 -0.539062 0.8125 -0.472656 0.8125 -0.390625 Z M 0.8125 -0.390625 "/></g></g></g><g fill="#ffffff" fill-opacity="1"><g transform="translate(91.246485, 21.899999)"><g/></g></g><g fill="#ffffff" fill-opacity="1"><g transform="translate(91.615119, 21.899999)"><g><path d="M 0.046875 -0.296875 L 0.046875 -0.46875 L 0.421875 -0.46875 L 0.421875 -0.296875 Z M 0.046875 -0.296875 "/></g></g></g><g fill="#ffffff" fill-opacity="1"><g transform="translate(92.071755, 21.899999)"><g/></g></g><g fill="#ffffff" fill-opacity="1"><g transform="translate(92.440389, 21.899999)"><g><path d="M 0.125 0 L 0.125 -1.015625 L 0.34375 -1.015625 L 0.34375 0 Z M 0.125 0 "/></g></g></g><g fill="#ffffff" fill-opacity="1"><g transform="translate(92.91019, 21.899999)"><g><path d="M 0.34375 0 L 0.125 0 L 0.125 -1.015625 L 0.703125 -1.015625 L 0.703125 -0.84375 L 0.34375 -0.84375 L 0.34375 -0.578125 L 0.6875 -0.578125 L 0.6875 -0.40625 L 0.34375 -0.40625 Z M 0.34375 0 "/></g></g></g><g fill="#ffffff" fill-opacity="1"><g transform="translate(93.689034, 21.899999)"><g><path d="M 0.734375 -0.28125 C 0.734375 -0.1875 0.695312 -0.113281 0.625 -0.0625 C 0.5625 -0.0078125 0.472656 0.015625 0.359375 0.015625 C 0.242188 0.015625 0.144531 -0.00390625 0.0625 -0.046875 L 0.0625 -0.25 C 0.132812 -0.21875 0.191406 -0.191406 0.234375 -0.171875 C 0.285156 -0.160156 0.332031 -0.15625 0.375 -0.15625 C 0.414062 -0.15625 0.445312 -0.164062 0.46875 -0.1875 C 0.5 -0.207031 0.515625 -0.234375 0.515625 -0.265625 C 0.515625 -0.285156 0.507812 -0.300781 0.5 -0.3125 C 0.488281 -0.332031 0.472656 -0.347656 0.453125 -0.359375 C 0.429688 -0.378906 0.382812 -0.40625 0.3125 -0.4375 C 0.25 -0.46875 0.203125 -0.492188 0.171875 -0.515625 C 0.140625 -0.546875 0.113281 -0.578125 0.09375 -0.609375 C 0.0820312 -0.648438 0.078125 -0.691406 0.078125 -0.734375 C 0.078125 -0.828125 0.109375 -0.898438 0.171875 -0.953125 C 0.234375 -1.003906 0.316406 -1.03125 0.421875 -1.03125 C 0.472656 -1.03125 0.519531 -1.019531 0.5625 -1 C 0.613281 -0.988281 0.664062 -0.972656 0.71875 -0.953125 L 0.65625 -0.796875 C 0.601562 -0.816406 0.554688 -0.828125 0.515625 -0.828125 C 0.484375 -0.835938 0.445312 -0.84375 0.40625 -0.84375 C 0.375 -0.84375 0.34375 -0.832031 0.3125 -0.8125 C 0.289062 -0.800781 0.28125 -0.78125 0.28125 -0.75 C 0.28125 -0.726562 0.285156 -0.707031 0.296875 -0.6875 C 0.304688 -0.675781 0.320312 -0.664062 0.34375 -0.65625 C 0.363281 -0.644531 0.410156 -0.625 0.484375 -0.59375 C 0.578125 -0.539062 0.640625 -0.488281 0.671875 -0.4375 C 0.710938 -0.394531 0.734375 -0.34375 0.734375 -0.28125 Z M 0.734375 -0.28125 "/></g></g></g><g fill="#ffffff" fill-opacity="1"><g transform="translate(94.470649, 21.899999)"><g><path d="M 0.34375 -0.53125 L 0.40625 -0.53125 C 0.476562 -0.53125 0.53125 -0.539062 0.5625 -0.5625 C 0.59375 -0.59375 0.609375 -0.632812 0.609375 -0.6875 C 0.609375 -0.738281 0.59375 -0.773438 0.5625 -0.796875 C 0.539062 -0.828125 0.5 -0.84375 0.4375 -0.84375 L 0.34375 -0.84375 Z M 0.828125 -0.703125 C 0.828125 -0.585938 0.789062 -0.5 0.71875 -0.4375 C 0.65625 -0.382812 0.5625 -0.359375 0.4375 -0.359375 L 0.34375 -0.359375 L 0.34375 0 L 0.125 0 L 0.125 -1.015625 L 0.453125 -1.015625 C 0.578125 -1.015625 0.671875 -0.988281 0.734375 -0.9375 C 0.796875 -0.882812 0.828125 -0.804688 0.828125 -0.703125 Z M 0.828125 -0.703125 "/></g></g></g><g mask="url(#f87b72fd04)"><g transform="matrix(1, 0, 0, 1, 63, 20)"><g clip-path="url(#d4a254e63d)"><g fill="#ffffff" fill-opacity="1"><g transform="translate(0.797633, 3.467742)"><g><path d="M 1.015625 0 L 0.5625 -1.4375 C 0.570312 -1.144531 0.578125 -0.953125 0.578125 -0.859375 L 0.578125 0 L 0.234375 0 L 0.234375 -1.84375 L 0.765625 -1.84375 L 1.203125 -0.4375 L 1.671875 -1.84375 L 2.203125 -1.84375 L 2.203125 0 L 1.828125 0 L 1.828125 -0.875 C 1.828125 -0.914062 1.828125 -0.960938 1.828125 -1.015625 C 1.835938 -1.066406 1.847656 -1.207031 1.859375 -1.4375 L 1.84375 -1.4375 L 1.375 0 Z M 1.015625 0 "/></g></g></g><g fill="#ffffff" fill-opacity="1"><g transform="translate(3.230612, 3.467742)"><g><path d="M 0.78125 -1.15625 C 0.695312 -1.15625 0.632812 -1.128906 0.59375 -1.078125 C 0.550781 -1.023438 0.523438 -0.953125 0.515625 -0.859375 L 1.046875 -0.859375 C 1.046875 -0.953125 1.019531 -1.023438 0.96875 -1.078125 C 0.925781 -1.128906 0.863281 -1.15625 0.78125 -1.15625 Z M 0.84375 0.03125 C 0.613281 0.03125 0.429688 -0.03125 0.296875 -0.15625 C 0.171875 -0.28125 0.109375 -0.457031 0.109375 -0.6875 C 0.109375 -0.925781 0.164062 -1.109375 0.28125 -1.234375 C 0.40625 -1.367188 0.570312 -1.4375 0.78125 -1.4375 C 0.976562 -1.4375 1.128906 -1.378906 1.234375 -1.265625 C 1.347656 -1.148438 1.40625 -0.992188 1.40625 -0.796875 L 1.40625 -0.609375 L 0.5 -0.609375 C 0.507812 -0.492188 0.539062 -0.40625 0.59375 -0.34375 C 0.65625 -0.289062 0.742188 -0.265625 0.859375 -0.265625 C 0.941406 -0.265625 1.019531 -0.269531 1.09375 -0.28125 C 1.164062 -0.300781 1.242188 -0.332031 1.328125 -0.375 L 1.328125 -0.078125 C 1.265625 -0.046875 1.191406 -0.0195312 1.109375 0 C 1.035156 0.0195312 0.945312 0.03125 0.84375 0.03125 Z M 0.84375 0.03125 "/></g></g></g><g fill="#ffffff" fill-opacity="1"><g transform="translate(4.75516, 3.467742)"><g><path d="M 1.46875 0 L 1.078125 0 L 1.078125 -0.828125 C 1.078125 -0.921875 1.054688 -0.992188 1.015625 -1.046875 C 0.984375 -1.097656 0.929688 -1.125 0.859375 -1.125 C 0.765625 -1.125 0.691406 -1.085938 0.640625 -1.015625 C 0.597656 -0.941406 0.578125 -0.820312 0.578125 -0.65625 L 0.578125 0 L 0.203125 0 L 0.203125 -1.40625 L 0.5 -1.40625 L 0.546875 -1.234375 L 0.5625 -1.234375 C 0.601562 -1.296875 0.660156 -1.34375 0.734375 -1.375 C 0.804688 -1.414062 0.890625 -1.4375 0.984375 -1.4375 C 1.191406 -1.4375 1.332031 -1.367188 1.40625 -1.234375 L 1.4375 -1.234375 C 1.476562 -1.296875 1.535156 -1.34375 1.609375 -1.375 C 1.679688 -1.414062 1.765625 -1.4375 1.859375 -1.4375 C 2.015625 -1.4375 2.132812 -1.394531 2.21875 -1.3125 C 2.300781 -1.226562 2.34375 -1.097656 2.34375 -0.921875 L 2.34375 0 L 1.953125 0 L 1.953125 -0.828125 C 1.953125 -0.921875 1.9375 -0.992188 1.90625 -1.046875 C 1.875 -1.097656 1.820312 -1.125 1.75 -1.125 C 1.644531 -1.125 1.570312 -1.085938 1.53125 -1.015625 C 1.488281 -0.953125 1.46875 -0.847656 1.46875 -0.703125 Z M 1.46875 0 "/></g></g></g><g fill="#ffffff" fill-opacity="1"><g transform="translate(7.288935, 3.467742)"><g><path d="M 0.5 -0.703125 C 0.5 -0.566406 0.519531 -0.460938 0.5625 -0.390625 C 0.613281 -0.316406 0.691406 -0.28125 0.796875 -0.28125 C 0.898438 -0.28125 0.972656 -0.316406 1.015625 -0.390625 C 1.066406 -0.460938 1.09375 -0.566406 1.09375 -0.703125 C 1.09375 -0.847656 1.066406 -0.953125 1.015625 -1.015625 C 0.972656 -1.085938 0.898438 -1.125 0.796875 -1.125 C 0.691406 -1.125 0.613281 -1.085938 0.5625 -1.015625 C 0.519531 -0.953125 0.5 -0.847656 0.5 -0.703125 Z M 1.484375 -0.703125 C 1.484375 -0.472656 1.421875 -0.289062 1.296875 -0.15625 C 1.179688 -0.03125 1.015625 0.03125 0.796875 0.03125 C 0.660156 0.03125 0.539062 0 0.4375 -0.0625 C 0.332031 -0.125 0.25 -0.207031 0.1875 -0.3125 C 0.132812 -0.425781 0.109375 -0.554688 0.109375 -0.703125 C 0.109375 -0.929688 0.164062 -1.109375 0.28125 -1.234375 C 0.40625 -1.367188 0.578125 -1.4375 0.796875 -1.4375 C 0.929688 -1.4375 1.050781 -1.40625 1.15625 -1.34375 C 1.257812 -1.28125 1.335938 -1.191406 1.390625 -1.078125 C 1.453125 -0.972656 1.484375 -0.847656 1.484375 -0.703125 Z M 0.59375 -1.5625 L 0.59375 -1.59375 C 0.738281 -1.757812 0.835938 -1.882812 0.890625 -1.96875 L 1.3125 -1.96875 L 1.3125 -1.953125 C 1.269531 -1.910156 1.195312 -1.84375 1.09375 -1.75 C 0.988281 -1.664062 0.90625 -1.601562 0.84375 -1.5625 Z M 0.59375 -1.5625 "/></g></g></g><g fill="#ffffff" fill-opacity="1"><g transform="translate(8.886561, 3.467742)"><g><path d="M 0.984375 -1.4375 C 1.035156 -1.4375 1.078125 -1.429688 1.109375 -1.421875 L 1.09375 -1.0625 C 1.0625 -1.070312 1.019531 -1.078125 0.96875 -1.078125 C 0.851562 -1.078125 0.757812 -1.046875 0.6875 -0.984375 C 0.613281 -0.921875 0.578125 -0.832031 0.578125 -0.71875 L 0.578125 0 L 0.203125 0 L 0.203125 -1.40625 L 0.5 -1.40625 L 0.546875 -1.171875 L 0.5625 -1.171875 C 0.613281 -1.253906 0.675781 -1.316406 0.75 -1.359375 C 0.820312 -1.410156 0.898438 -1.4375 0.984375 -1.4375 Z M 0.984375 -1.4375 "/></g></g></g><g fill="#ffffff" fill-opacity="1"><g transform="translate(10.058321, 3.467742)"><g><path d="M 0.1875 -1.765625 C 0.1875 -1.890625 0.253906 -1.953125 0.390625 -1.953125 C 0.535156 -1.953125 0.609375 -1.890625 0.609375 -1.765625 C 0.609375 -1.710938 0.585938 -1.664062 0.546875 -1.625 C 0.515625 -1.59375 0.460938 -1.578125 0.390625 -1.578125 C 0.253906 -1.578125 0.1875 -1.640625 0.1875 -1.765625 Z M 0.578125 0 L 0.203125 0 L 0.203125 -1.40625 L 0.578125 -1.40625 Z M 0.578125 0 "/></g></g></g><g fill="#ffffff" fill-opacity="1"><g transform="translate(10.845795, 3.467742)"><g><path d="M 1.09375 0 L 1.015625 -0.1875 C 0.941406 -0.101562 0.867188 -0.046875 0.796875 -0.015625 C 0.734375 0.015625 0.648438 0.03125 0.546875 0.03125 C 0.410156 0.03125 0.300781 -0.00390625 0.21875 -0.078125 C 0.144531 -0.160156 0.109375 -0.273438 0.109375 -0.421875 C 0.109375 -0.566406 0.160156 -0.675781 0.265625 -0.75 C 0.367188 -0.820312 0.523438 -0.863281 0.734375 -0.875 L 0.984375 -0.875 L 0.984375 -0.9375 C 0.984375 -1.082031 0.910156 -1.15625 0.765625 -1.15625 C 0.648438 -1.15625 0.515625 -1.117188 0.359375 -1.046875 L 0.234375 -1.3125 C 0.398438 -1.394531 0.582031 -1.4375 0.78125 -1.4375 C 0.96875 -1.4375 1.109375 -1.394531 1.203125 -1.3125 C 1.304688 -1.226562 1.359375 -1.101562 1.359375 -0.9375 L 1.359375 0 Z M 0.984375 -0.65625 L 0.828125 -0.640625 C 0.722656 -0.640625 0.640625 -0.617188 0.578125 -0.578125 C 0.523438 -0.546875 0.5 -0.492188 0.5 -0.421875 C 0.5 -0.304688 0.5625 -0.25 0.6875 -0.25 C 0.78125 -0.25 0.851562 -0.273438 0.90625 -0.328125 C 0.957031 -0.378906 0.984375 -0.445312 0.984375 -0.53125 Z M 0.984375 -0.65625 "/></g></g></g><g clip-path="url(#7164007da6)"><g fill="#ffffff" fill-opacity="1"><g transform="translate(12.404363, 3.467742)"><g><path d="M 1.1875 -0.421875 C 1.1875 -0.273438 1.132812 -0.160156 1.03125 -0.078125 C 0.925781 -0.00390625 0.773438 0.03125 0.578125 0.03125 C 0.472656 0.03125 0.382812 0.0195312 0.3125 0 C 0.25 -0.0078125 0.1875 -0.03125 0.125 -0.0625 L 0.125 -0.375 C 0.1875 -0.34375 0.265625 -0.3125 0.359375 -0.28125 C 0.453125 -0.257812 0.53125 -0.25 0.59375 -0.25 C 0.726562 -0.25 0.796875 -0.289062 0.796875 -0.375 C 0.796875 -0.40625 0.785156 -0.429688 0.765625 -0.453125 C 0.753906 -0.472656 0.722656 -0.492188 0.671875 -0.515625 C 0.628906 -0.535156 0.570312 -0.5625 0.5 -0.59375 C 0.394531 -0.644531 0.316406 -0.6875 0.265625 -0.71875 C 0.210938 -0.757812 0.171875 -0.804688 0.140625 -0.859375 C 0.117188 -0.910156 0.109375 -0.972656 0.109375 -1.046875 C 0.109375 -1.171875 0.15625 -1.265625 0.25 -1.328125 C 0.351562 -1.398438 0.492188 -1.4375 0.671875 -1.4375 C 0.835938 -1.4375 1.003906 -1.398438 1.171875 -1.328125 L 1.046875 -1.046875 C 0.984375 -1.078125 0.921875 -1.101562 0.859375 -1.125 C 0.796875 -1.144531 0.734375 -1.15625 0.671875 -1.15625 C 0.554688 -1.15625 0.5 -1.125 0.5 -1.0625 C 0.5 -1.019531 0.515625 -0.988281 0.546875 -0.96875 C 0.585938 -0.945312 0.671875 -0.910156 0.796875 -0.859375 C 0.898438 -0.816406 0.976562 -0.773438 1.03125 -0.734375 C 1.082031 -0.691406 1.117188 -0.644531 1.140625 -0.59375 C 1.171875 -0.539062 1.1875 -0.484375 1.1875 -0.421875 Z M 1.1875 -0.421875 "/></g></g></g></g></g></g></g></svg>