<svg xmlns="http://www.w3.org/2000/svg" xmlns:xlink="http://www.w3.org/1999/xlink" width="100" zoomAndPan="magnify" viewBox="0 0 75 30.000001" height="40" preserveAspectRatio="xMidYMid meet" version="1.0"><defs><g/></defs><g fill="#ffffff" fill-opacity="1"><g transform="translate(26.612902, 13.753384)"><g><path d="M 0.171875 0 L 0.171875 -1.421875 L 0.484375 -1.421875 L 0.484375 -0.859375 L 0.953125 -0.859375 L 0.953125 -1.421875 L 1.265625 -1.421875 L 1.265625 0 L 0.953125 0 L 0.953125 -0.59375 L 0.484375 -0.59375 L 0.484375 0 Z M 0.171875 0 "/></g></g></g><g fill="#ffffff" fill-opacity="1"><g transform="translate(28.047352, 13.753384)"><g><path d="M 0.484375 0 L 0.171875 0 L 0.171875 -1.1875 L 0.484375 -1.1875 Z M 0.5 -1.328125 L 0.15625 -1.328125 L 0.15625 -1.546875 L 0.5 -1.546875 Z M 0.5 -1.328125 "/></g></g></g><g fill="#ffffff" fill-opacity="1"><g transform="translate(28.703623, 13.753384)"><g><path d="M 0.53125 -0.96875 C 0.476562 -0.96875 0.441406 -0.960938 0.421875 -0.953125 C 0.410156 -0.941406 0.40625 -0.921875 0.40625 -0.890625 C 0.40625 -0.867188 0.414062 -0.847656 0.4375 -0.828125 C 0.457031 -0.804688 0.476562 -0.789062 0.5 -0.78125 C 0.53125 -0.769531 0.554688 -0.757812 0.578125 -0.75 C 0.609375 -0.738281 0.65625 -0.722656 0.71875 -0.703125 C 0.78125 -0.691406 0.828125 -0.675781 0.859375 -0.65625 C 0.960938 -0.601562 1.015625 -0.507812 1.015625 -0.375 C 1.015625 -0.25 0.972656 -0.148438 0.890625 -0.078125 C 0.816406 -0.00390625 0.710938 0.03125 0.578125 0.03125 C 0.503906 0.03125 0.425781 0.0195312 0.34375 0 C 0.257812 -0.0195312 0.195312 -0.0390625 0.15625 -0.0625 L 0.078125 -0.09375 L 0.15625 -0.34375 C 0.332031 -0.269531 0.472656 -0.234375 0.578125 -0.234375 C 0.617188 -0.234375 0.648438 -0.238281 0.671875 -0.25 C 0.691406 -0.269531 0.703125 -0.296875 0.703125 -0.328125 C 0.703125 -0.359375 0.695312 -0.378906 0.6875 -0.390625 C 0.6875 -0.398438 0.679688 -0.40625 0.671875 -0.40625 C 0.671875 -0.414062 0.664062 -0.421875 0.65625 -0.421875 C 0.644531 -0.429688 0.632812 -0.4375 0.625 -0.4375 C 0.613281 -0.445312 0.597656 -0.453125 0.578125 -0.453125 C 0.566406 -0.460938 0.554688 -0.46875 0.546875 -0.46875 C 0.546875 -0.46875 0.535156 -0.46875 0.515625 -0.46875 C 0.492188 -0.476562 0.472656 -0.488281 0.453125 -0.5 C 0.429688 -0.507812 0.410156 -0.515625 0.390625 -0.515625 C 0.378906 -0.523438 0.351562 -0.535156 0.3125 -0.546875 C 0.28125 -0.554688 0.257812 -0.566406 0.25 -0.578125 C 0.238281 -0.585938 0.21875 -0.601562 0.1875 -0.625 C 0.164062 -0.644531 0.148438 -0.664062 0.140625 -0.6875 C 0.109375 -0.75 0.09375 -0.804688 0.09375 -0.859375 C 0.09375 -0.972656 0.128906 -1.0625 0.203125 -1.125 C 0.273438 -1.1875 0.382812 -1.21875 0.53125 -1.21875 C 0.6875 -1.21875 0.832031 -1.195312 0.96875 -1.15625 L 0.921875 -0.90625 C 0.765625 -0.945312 0.632812 -0.96875 0.53125 -0.96875 Z M 0.53125 -0.96875 "/></g></g></g><g fill="#ffffff" fill-opacity="1"><g transform="translate(29.794699, 13.753384)"><g><path d="M 0.5 -1.140625 L 0.75 -1.140625 L 0.75 -0.890625 L 0.5 -0.890625 L 0.5 -0.390625 C 0.5 -0.328125 0.503906 -0.285156 0.515625 -0.265625 C 0.523438 -0.242188 0.550781 -0.234375 0.59375 -0.234375 L 0.75 -0.25 L 0.75 0 C 0.675781 0.0195312 0.601562 0.03125 0.53125 0.03125 C 0.40625 0.03125 0.316406 0 0.265625 -0.0625 C 0.210938 -0.125 0.1875 -0.238281 0.1875 -0.40625 L 0.1875 -0.90625 L 0.046875 -0.90625 L 0.046875 -1.09375 L 0.203125 -1.125 L 0.25 -1.40625 L 0.5 -1.40625 Z M 0.5 -1.140625 "/></g></g></g><g fill="#ffffff" fill-opacity="1"><g transform="translate(30.607419, 13.753384)"><g><path d="M 0.21875 -1.0625 C 0.300781 -1.164062 0.4375 -1.21875 0.625 -1.21875 C 0.8125 -1.21875 0.941406 -1.164062 1.015625 -1.0625 C 1.097656 -0.957031 1.140625 -0.800781 1.140625 -0.59375 C 1.140625 -0.394531 1.097656 -0.238281 1.015625 -0.125 C 0.941406 -0.0195312 0.8125 0.03125 0.625 0.03125 C 0.4375 0.03125 0.300781 -0.0195312 0.21875 -0.125 C 0.132812 -0.238281 0.09375 -0.394531 0.09375 -0.59375 C 0.09375 -0.800781 0.132812 -0.957031 0.21875 -1.0625 Z M 0.828125 -0.59375 C 0.828125 -0.75 0.8125 -0.851562 0.78125 -0.90625 C 0.75 -0.957031 0.691406 -0.984375 0.609375 -0.984375 C 0.535156 -0.984375 0.484375 -0.957031 0.453125 -0.90625 C 0.429688 -0.851562 0.421875 -0.75 0.421875 -0.59375 C 0.421875 -0.445312 0.429688 -0.347656 0.453125 -0.296875 C 0.484375 -0.242188 0.535156 -0.21875 0.609375 -0.21875 C 0.691406 -0.21875 0.75 -0.238281 0.78125 -0.28125 C 0.8125 -0.332031 0.828125 -0.4375 0.828125 -0.59375 Z M 0.890625 -1.65625 L 0.953125 -1.4375 L 0.34375 -1.3125 L 0.296875 -1.484375 Z M 0.890625 -1.65625 "/></g></g></g><g fill="#ffffff" fill-opacity="1"><g transform="translate(31.85088, 13.753384)"><g><path d="M 0.453125 -1.109375 C 0.484375 -1.128906 0.523438 -1.148438 0.578125 -1.171875 C 0.640625 -1.203125 0.695312 -1.21875 0.75 -1.21875 C 0.800781 -1.21875 0.835938 -1.210938 0.859375 -1.203125 L 0.84375 -0.921875 C 0.800781 -0.929688 0.765625 -0.9375 0.734375 -0.9375 C 0.640625 -0.9375 0.550781 -0.910156 0.46875 -0.859375 L 0.46875 0 L 0.15625 0 L 0.15625 -1.1875 L 0.359375 -1.1875 L 0.390625 -1.0625 L 0.40625 -1.0625 C 0.414062 -1.070312 0.429688 -1.085938 0.453125 -1.109375 Z M 0.453125 -1.109375 "/></g></g></g><g fill="#ffffff" fill-opacity="1"><g transform="translate(32.724554, 13.753384)"><g><path d="M 0.484375 0 L 0.171875 0 L 0.171875 -1.1875 L 0.484375 -1.1875 Z M 0.5 -1.328125 L 0.15625 -1.328125 L 0.15625 -1.546875 L 0.5 -1.546875 Z M 0.5 -1.328125 "/></g></g></g><g fill="#ffffff" fill-opacity="1"><g transform="translate(33.380825, 13.753384)"><g><path d="M 0.453125 0.03125 C 0.347656 0.03125 0.265625 -0.00390625 0.203125 -0.078125 C 0.140625 -0.148438 0.109375 -0.25 0.109375 -0.375 C 0.109375 -0.507812 0.148438 -0.601562 0.234375 -0.65625 C 0.328125 -0.71875 0.460938 -0.75 0.640625 -0.75 L 0.796875 -0.75 C 0.796875 -0.84375 0.785156 -0.898438 0.765625 -0.921875 C 0.753906 -0.953125 0.71875 -0.96875 0.65625 -0.96875 C 0.59375 -0.96875 0.523438 -0.957031 0.453125 -0.9375 C 0.378906 -0.925781 0.296875 -0.910156 0.203125 -0.890625 L 0.140625 -1.109375 C 0.191406 -1.140625 0.269531 -1.164062 0.375 -1.1875 C 0.476562 -1.207031 0.570312 -1.21875 0.65625 -1.21875 C 0.820312 -1.21875 0.9375 -1.175781 1 -1.09375 C 1.070312 -1.019531 1.109375 -0.910156 1.109375 -0.765625 L 1.109375 0 L 0.921875 0 L 0.875 -0.125 L 0.859375 -0.125 C 0.847656 -0.113281 0.828125 -0.0976562 0.796875 -0.078125 C 0.773438 -0.0664062 0.726562 -0.046875 0.65625 -0.015625 C 0.582031 0.015625 0.515625 0.03125 0.453125 0.03125 Z M 0.796875 -0.515625 C 0.753906 -0.523438 0.691406 -0.53125 0.609375 -0.53125 C 0.523438 -0.53125 0.472656 -0.519531 0.453125 -0.5 C 0.429688 -0.476562 0.421875 -0.4375 0.421875 -0.375 C 0.421875 -0.320312 0.429688 -0.285156 0.453125 -0.265625 C 0.472656 -0.242188 0.5 -0.234375 0.53125 -0.234375 C 0.601562 -0.234375 0.679688 -0.25 0.765625 -0.28125 L 0.796875 -0.3125 Z M 0.796875 -0.515625 "/></g></g></g><g fill="#ffffff" fill-opacity="1"><g transform="translate(34.644604, 13.753384)"><g><path d="M 0.53125 -0.96875 C 0.476562 -0.96875 0.441406 -0.960938 0.421875 -0.953125 C 0.410156 -0.941406 0.40625 -0.921875 0.40625 -0.890625 C 0.40625 -0.867188 0.414062 -0.847656 0.4375 -0.828125 C 0.457031 -0.804688 0.476562 -0.789062 0.5 -0.78125 C 0.53125 -0.769531 0.554688 -0.757812 0.578125 -0.75 C 0.609375 -0.738281 0.65625 -0.722656 0.71875 -0.703125 C 0.78125 -0.691406 0.828125 -0.675781 0.859375 -0.65625 C 0.960938 -0.601562 1.015625 -0.507812 1.015625 -0.375 C 1.015625 -0.25 0.972656 -0.148438 0.890625 -0.078125 C 0.816406 -0.00390625 0.710938 0.03125 0.578125 0.03125 C 0.503906 0.03125 0.425781 0.0195312 0.34375 0 C 0.257812 -0.0195312 0.195312 -0.0390625 0.15625 -0.0625 L 0.078125 -0.09375 L 0.15625 -0.34375 C 0.332031 -0.269531 0.472656 -0.234375 0.578125 -0.234375 C 0.617188 -0.234375 0.648438 -0.238281 0.671875 -0.25 C 0.691406 -0.269531 0.703125 -0.296875 0.703125 -0.328125 C 0.703125 -0.359375 0.695312 -0.378906 0.6875 -0.390625 C 0.6875 -0.398438 0.679688 -0.40625 0.671875 -0.40625 C 0.671875 -0.414062 0.664062 -0.421875 0.65625 -0.421875 C 0.644531 -0.429688 0.632812 -0.4375 0.625 -0.4375 C 0.613281 -0.445312 0.597656 -0.453125 0.578125 -0.453125 C 0.566406 -0.460938 0.554688 -0.46875 0.546875 -0.46875 C 0.546875 -0.46875 0.535156 -0.46875 0.515625 -0.46875 C 0.492188 -0.476562 0.472656 -0.488281 0.453125 -0.5 C 0.429688 -0.507812 0.410156 -0.515625 0.390625 -0.515625 C 0.378906 -0.523438 0.351562 -0.535156 0.3125 -0.546875 C 0.28125 -0.554688 0.257812 -0.566406 0.25 -0.578125 C 0.238281 -0.585938 0.21875 -0.601562 0.1875 -0.625 C 0.164062 -0.644531 0.148438 -0.664062 0.140625 -0.6875 C 0.109375 -0.75 0.09375 -0.804688 0.09375 -0.859375 C 0.09375 -0.972656 0.128906 -1.0625 0.203125 -1.125 C 0.273438 -1.1875 0.382812 -1.21875 0.53125 -1.21875 C 0.6875 -1.21875 0.832031 -1.195312 0.96875 -1.15625 L 0.921875 -0.90625 C 0.765625 -0.945312 0.632812 -0.96875 0.53125 -0.96875 Z M 0.53125 -0.96875 "/></g></g></g><g fill="#ffffff" fill-opacity="1"><g transform="translate(35.73568, 13.753384)"><g/></g></g><g fill="#ffffff" fill-opacity="1"><g transform="translate(36.223312, 13.753384)"><g><path d="M 1.015625 -0.15625 C 0.878906 -0.03125 0.726562 0.03125 0.5625 0.03125 C 0.394531 0.03125 0.265625 -0.0078125 0.171875 -0.09375 C 0.078125 -0.1875 0.03125 -0.289062 0.03125 -0.40625 C 0.03125 -0.570312 0.117188 -0.695312 0.296875 -0.78125 C 0.191406 -0.863281 0.140625 -0.960938 0.140625 -1.078125 C 0.140625 -1.191406 0.175781 -1.28125 0.25 -1.34375 C 0.332031 -1.414062 0.445312 -1.453125 0.59375 -1.453125 C 0.738281 -1.453125 0.847656 -1.414062 0.921875 -1.34375 C 0.992188 -1.269531 1.03125 -1.1875 1.03125 -1.09375 C 1.03125 -0.96875 0.960938 -0.859375 0.828125 -0.765625 C 0.898438 -0.722656 0.96875 -0.671875 1.03125 -0.609375 C 1.070312 -0.671875 1.109375 -0.742188 1.140625 -0.828125 L 1.40625 -0.75 C 1.351562 -0.625 1.289062 -0.503906 1.21875 -0.390625 C 1.300781 -0.273438 1.367188 -0.140625 1.421875 0.015625 L 1.109375 0.03125 C 1.085938 -0.0195312 1.054688 -0.0820312 1.015625 -0.15625 Z M 0.359375 -0.390625 C 0.359375 -0.335938 0.375 -0.296875 0.40625 -0.265625 C 0.445312 -0.234375 0.492188 -0.21875 0.546875 -0.21875 C 0.609375 -0.21875 0.664062 -0.234375 0.71875 -0.265625 C 0.78125 -0.296875 0.832031 -0.332031 0.875 -0.375 C 0.78125 -0.488281 0.679688 -0.578125 0.578125 -0.640625 C 0.515625 -0.617188 0.460938 -0.585938 0.421875 -0.546875 C 0.378906 -0.503906 0.359375 -0.453125 0.359375 -0.390625 Z M 0.578125 -1.21875 C 0.492188 -1.21875 0.453125 -1.175781 0.453125 -1.09375 C 0.453125 -1.019531 0.492188 -0.957031 0.578125 -0.90625 C 0.671875 -0.957031 0.71875 -1.019531 0.71875 -1.09375 C 0.71875 -1.132812 0.703125 -1.164062 0.671875 -1.1875 C 0.648438 -1.207031 0.617188 -1.21875 0.578125 -1.21875 Z M 0.578125 -1.21875 "/></g></g></g><g fill="#ffffff" fill-opacity="1"><g transform="translate(37.649636, 13.753384)"><g/></g></g><g fill="#ffffff" fill-opacity="1"><g transform="translate(38.137268, 13.753384)"><g><path d="M 1.015625 -0.328125 L 0.703125 -0.328125 L 0.484375 -1.078125 L 0.46875 -1.078125 L 0.484375 0 L 0.15625 0 L 0.203125 -1.421875 L 0.625 -1.421875 L 0.84375 -0.625 L 0.859375 -0.625 L 1.09375 -1.421875 L 1.5 -1.421875 L 1.546875 0 L 1.234375 0 L 1.25 -1.078125 L 1.234375 -1.078125 Z M 1.015625 -0.328125 "/></g></g></g><g fill="#ffffff" fill-opacity="1"><g transform="translate(39.850075, 13.753384)"><g><path d="M 0.65625 0.03125 C 0.28125 0.03125 0.09375 -0.175781 0.09375 -0.59375 C 0.09375 -1.007812 0.273438 -1.21875 0.640625 -1.21875 C 0.804688 -1.21875 0.929688 -1.171875 1.015625 -1.078125 C 1.097656 -0.992188 1.140625 -0.851562 1.140625 -0.65625 L 1.140625 -0.484375 L 0.421875 -0.484375 C 0.421875 -0.367188 0.441406 -0.296875 0.484375 -0.265625 C 0.515625 -0.234375 0.554688 -0.21875 0.609375 -0.21875 C 0.703125 -0.21875 0.820312 -0.238281 0.96875 -0.28125 L 1.046875 -0.3125 L 1.125 -0.078125 C 1.0625 -0.0546875 0.984375 -0.03125 0.890625 0 C 0.796875 0.0195312 0.71875 0.03125 0.65625 0.03125 Z M 0.78125 -0.921875 C 0.757812 -0.953125 0.710938 -0.96875 0.640625 -0.96875 C 0.566406 -0.96875 0.515625 -0.953125 0.484375 -0.921875 C 0.453125 -0.890625 0.429688 -0.820312 0.421875 -0.71875 L 0.8125 -0.71875 C 0.8125 -0.832031 0.800781 -0.898438 0.78125 -0.921875 Z M 0.78125 -0.921875 "/></g></g></g><g fill="#ffffff" fill-opacity="1"><g transform="translate(41.077282, 13.753384)"><g><path d="M 0.46875 0 L 0.15625 0 L 0.15625 -1.1875 L 0.359375 -1.1875 L 0.390625 -1.078125 L 0.40625 -1.078125 C 0.457031 -1.109375 0.5 -1.128906 0.53125 -1.140625 C 0.5625 -1.160156 0.601562 -1.175781 0.65625 -1.1875 C 0.71875 -1.207031 0.773438 -1.21875 0.828125 -1.21875 C 0.941406 -1.21875 1.023438 -1.171875 1.078125 -1.078125 C 1.128906 -1.109375 1.171875 -1.128906 1.203125 -1.140625 C 1.234375 -1.160156 1.273438 -1.175781 1.328125 -1.1875 C 1.378906 -1.207031 1.429688 -1.21875 1.484375 -1.21875 C 1.597656 -1.21875 1.679688 -1.175781 1.734375 -1.09375 C 1.785156 -1.019531 1.8125 -0.914062 1.8125 -0.78125 L 1.8125 0 L 1.484375 0 L 1.484375 -0.734375 C 1.484375 -0.835938 1.472656 -0.898438 1.453125 -0.921875 C 1.441406 -0.941406 1.414062 -0.953125 1.375 -0.953125 C 1.300781 -0.953125 1.222656 -0.921875 1.140625 -0.859375 C 1.140625 -0.816406 1.140625 -0.785156 1.140625 -0.765625 L 1.140625 0 L 0.828125 0 L 0.828125 -0.734375 C 0.828125 -0.835938 0.816406 -0.898438 0.796875 -0.921875 C 0.773438 -0.941406 0.742188 -0.953125 0.703125 -0.953125 C 0.671875 -0.953125 0.632812 -0.941406 0.59375 -0.921875 C 0.550781 -0.910156 0.507812 -0.890625 0.46875 -0.859375 Z M 0.46875 0 "/></g></g></g><g fill="#ffffff" fill-opacity="1"><g transform="translate(43.019682, 13.753384)"><g><path d="M 0.21875 -1.0625 C 0.300781 -1.164062 0.4375 -1.21875 0.625 -1.21875 C 0.8125 -1.21875 0.941406 -1.164062 1.015625 -1.0625 C 1.097656 -0.957031 1.140625 -0.800781 1.140625 -0.59375 C 1.140625 -0.394531 1.097656 -0.238281 1.015625 -0.125 C 0.941406 -0.0195312 0.8125 0.03125 0.625 0.03125 C 0.4375 0.03125 0.300781 -0.0195312 0.21875 -0.125 C 0.132812 -0.238281 0.09375 -0.394531 0.09375 -0.59375 C 0.09375 -0.800781 0.132812 -0.957031 0.21875 -1.0625 Z M 0.828125 -0.59375 C 0.828125 -0.75 0.8125 -0.851562 0.78125 -0.90625 C 0.75 -0.957031 0.691406 -0.984375 0.609375 -0.984375 C 0.535156 -0.984375 0.484375 -0.957031 0.453125 -0.90625 C 0.429688 -0.851562 0.421875 -0.75 0.421875 -0.59375 C 0.421875 -0.445312 0.429688 -0.347656 0.453125 -0.296875 C 0.484375 -0.242188 0.535156 -0.21875 0.609375 -0.21875 C 0.691406 -0.21875 0.75 -0.238281 0.78125 -0.28125 C 0.8125 -0.332031 0.828125 -0.4375 0.828125 -0.59375 Z M 0.890625 -1.65625 L 0.953125 -1.4375 L 0.34375 -1.3125 L 0.296875 -1.484375 Z M 0.890625 -1.65625 "/></g></g></g><g fill="#ffffff" fill-opacity="1"><g transform="translate(44.263143, 13.753384)"><g><path d="M 0.453125 -1.109375 C 0.484375 -1.128906 0.523438 -1.148438 0.578125 -1.171875 C 0.640625 -1.203125 0.695312 -1.21875 0.75 -1.21875 C 0.800781 -1.21875 0.835938 -1.210938 0.859375 -1.203125 L 0.84375 -0.921875 C 0.800781 -0.929688 0.765625 -0.9375 0.734375 -0.9375 C 0.640625 -0.9375 0.550781 -0.910156 0.46875 -0.859375 L 0.46875 0 L 0.15625 0 L 0.15625 -1.1875 L 0.359375 -1.1875 L 0.390625 -1.0625 L 0.40625 -1.0625 C 0.414062 -1.070312 0.429688 -1.085938 0.453125 -1.109375 Z M 0.453125 -1.109375 "/></g></g></g><g fill="#ffffff" fill-opacity="1"><g transform="translate(45.136817, 13.753384)"><g><path d="M 0.484375 0 L 0.171875 0 L 0.171875 -1.1875 L 0.484375 -1.1875 Z M 0.5 -1.328125 L 0.15625 -1.328125 L 0.15625 -1.546875 L 0.5 -1.546875 Z M 0.5 -1.328125 "/></g></g></g><g fill="#ffffff" fill-opacity="1"><g transform="translate(45.793088, 13.753384)"><g><path d="M 0.453125 0.03125 C 0.347656 0.03125 0.265625 -0.00390625 0.203125 -0.078125 C 0.140625 -0.148438 0.109375 -0.25 0.109375 -0.375 C 0.109375 -0.507812 0.148438 -0.601562 0.234375 -0.65625 C 0.328125 -0.71875 0.460938 -0.75 0.640625 -0.75 L 0.796875 -0.75 C 0.796875 -0.84375 0.785156 -0.898438 0.765625 -0.921875 C 0.753906 -0.953125 0.71875 -0.96875 0.65625 -0.96875 C 0.59375 -0.96875 0.523438 -0.957031 0.453125 -0.9375 C 0.378906 -0.925781 0.296875 -0.910156 0.203125 -0.890625 L 0.140625 -1.109375 C 0.191406 -1.140625 0.269531 -1.164062 0.375 -1.1875 C 0.476562 -1.207031 0.570312 -1.21875 0.65625 -1.21875 C 0.820312 -1.21875 0.9375 -1.175781 1 -1.09375 C 1.070312 -1.019531 1.109375 -0.910156 1.109375 -0.765625 L 1.109375 0 L 0.921875 0 L 0.875 -0.125 L 0.859375 -0.125 C 0.847656 -0.113281 0.828125 -0.0976562 0.796875 -0.078125 C 0.773438 -0.0664062 0.726562 -0.046875 0.65625 -0.015625 C 0.582031 0.015625 0.515625 0.03125 0.453125 0.03125 Z M 0.796875 -0.515625 C 0.753906 -0.523438 0.691406 -0.53125 0.609375 -0.53125 C 0.523438 -0.53125 0.472656 -0.519531 0.453125 -0.5 C 0.429688 -0.476562 0.421875 -0.4375 0.421875 -0.375 C 0.421875 -0.320312 0.429688 -0.285156 0.453125 -0.265625 C 0.472656 -0.242188 0.5 -0.234375 0.53125 -0.234375 C 0.601562 -0.234375 0.679688 -0.25 0.765625 -0.28125 L 0.796875 -0.3125 Z M 0.796875 -0.515625 "/></g></g></g><g fill="#ffffff" fill-opacity="1"><g transform="translate(47.056867, 13.753384)"><g><path d="M 0.53125 -0.96875 C 0.476562 -0.96875 0.441406 -0.960938 0.421875 -0.953125 C 0.410156 -0.941406 0.40625 -0.921875 0.40625 -0.890625 C 0.40625 -0.867188 0.414062 -0.847656 0.4375 -0.828125 C 0.457031 -0.804688 0.476562 -0.789062 0.5 -0.78125 C 0.53125 -0.769531 0.554688 -0.757812 0.578125 -0.75 C 0.609375 -0.738281 0.65625 -0.722656 0.71875 -0.703125 C 0.78125 -0.691406 0.828125 -0.675781 0.859375 -0.65625 C 0.960938 -0.601562 1.015625 -0.507812 1.015625 -0.375 C 1.015625 -0.25 0.972656 -0.148438 0.890625 -0.078125 C 0.816406 -0.00390625 0.710938 0.03125 0.578125 0.03125 C 0.503906 0.03125 0.425781 0.0195312 0.34375 0 C 0.257812 -0.0195312 0.195312 -0.0390625 0.15625 -0.0625 L 0.078125 -0.09375 L 0.15625 -0.34375 C 0.332031 -0.269531 0.472656 -0.234375 0.578125 -0.234375 C 0.617188 -0.234375 0.648438 -0.238281 0.671875 -0.25 C 0.691406 -0.269531 0.703125 -0.296875 0.703125 -0.328125 C 0.703125 -0.359375 0.695312 -0.378906 0.6875 -0.390625 C 0.6875 -0.398438 0.679688 -0.40625 0.671875 -0.40625 C 0.671875 -0.414062 0.664062 -0.421875 0.65625 -0.421875 C 0.644531 -0.429688 0.632812 -0.4375 0.625 -0.4375 C 0.613281 -0.445312 0.597656 -0.453125 0.578125 -0.453125 C 0.566406 -0.460938 0.554688 -0.46875 0.546875 -0.46875 C 0.546875 -0.46875 0.535156 -0.46875 0.515625 -0.46875 C 0.492188 -0.476562 0.472656 -0.488281 0.453125 -0.5 C 0.429688 -0.507812 0.410156 -0.515625 0.390625 -0.515625 C 0.378906 -0.523438 0.351562 -0.535156 0.3125 -0.546875 C 0.28125 -0.554688 0.257812 -0.566406 0.25 -0.578125 C 0.238281 -0.585938 0.21875 -0.601562 0.1875 -0.625 C 0.164062 -0.644531 0.148438 -0.664062 0.140625 -0.6875 C 0.109375 -0.75 0.09375 -0.804688 0.09375 -0.859375 C 0.09375 -0.972656 0.128906 -1.0625 0.203125 -1.125 C 0.273438 -1.1875 0.382812 -1.21875 0.53125 -1.21875 C 0.6875 -1.21875 0.832031 -1.195312 0.96875 -1.15625 L 0.921875 -0.90625 C 0.765625 -0.945312 0.632812 -0.96875 0.53125 -0.96875 Z M 0.53125 -0.96875 "/></g></g></g><g fill="#ffffff" fill-opacity="1"><g transform="translate(48.14826, 13.753384)"><g/></g></g><g fill="#ffffff" fill-opacity="1"><g transform="translate(30.139566, 15.469189)"><g><path d="M 0.421875 0.015625 C 0.316406 0.015625 0.234375 -0.0195312 0.171875 -0.09375 C 0.109375 -0.164062 0.078125 -0.28125 0.078125 -0.4375 C 0.078125 -0.65625 0.125 -0.796875 0.21875 -0.859375 C 0.25 -0.878906 0.28125 -0.890625 0.3125 -0.890625 C 0.351562 -0.898438 0.40625 -0.90625 0.46875 -0.90625 C 0.53125 -0.90625 0.597656 -0.898438 0.671875 -0.890625 L 0.65625 -0.765625 C 0.570312 -0.773438 0.492188 -0.78125 0.421875 -0.78125 C 0.359375 -0.78125 0.316406 -0.769531 0.296875 -0.75 C 0.253906 -0.707031 0.234375 -0.601562 0.234375 -0.4375 C 0.234375 -0.351562 0.238281 -0.285156 0.25 -0.234375 C 0.269531 -0.179688 0.289062 -0.144531 0.3125 -0.125 C 0.332031 -0.113281 0.363281 -0.109375 0.40625 -0.109375 C 0.445312 -0.109375 0.488281 -0.113281 0.53125 -0.125 C 0.570312 -0.132812 0.613281 -0.15625 0.65625 -0.1875 L 0.703125 -0.0625 C 0.703125 -0.0625 0.691406 -0.0546875 0.671875 -0.046875 C 0.648438 -0.0351562 0.613281 -0.0195312 0.5625 0 C 0.507812 0.0078125 0.460938 0.015625 0.421875 0.015625 Z M 0.421875 0.015625 "/></g></g></g><g fill="#ffffff" fill-opacity="1"><g transform="translate(30.91099, 15.469189)"><g><path d="M 0.28125 0.015625 C 0.207031 0.015625 0.148438 -0.00390625 0.109375 -0.046875 C 0.078125 -0.0859375 0.0625 -0.148438 0.0625 -0.234375 C 0.0625 -0.316406 0.0859375 -0.375 0.140625 -0.40625 C 0.191406 -0.445312 0.269531 -0.46875 0.375 -0.46875 L 0.5 -0.46875 C 0.5 -0.550781 0.488281 -0.597656 0.46875 -0.609375 C 0.457031 -0.628906 0.429688 -0.640625 0.390625 -0.640625 C 0.359375 -0.640625 0.316406 -0.632812 0.265625 -0.625 C 0.222656 -0.613281 0.171875 -0.597656 0.109375 -0.578125 L 0.078125 -0.6875 C 0.0859375 -0.695312 0.101562 -0.703125 0.125 -0.703125 C 0.144531 -0.710938 0.179688 -0.722656 0.234375 -0.734375 C 0.285156 -0.753906 0.335938 -0.765625 0.390625 -0.765625 C 0.554688 -0.765625 0.640625 -0.671875 0.640625 -0.484375 L 0.640625 0 L 0.546875 0 L 0.53125 -0.078125 L 0.515625 -0.078125 C 0.503906 -0.0664062 0.488281 -0.0546875 0.46875 -0.046875 C 0.457031 -0.0351562 0.429688 -0.0195312 0.390625 0 C 0.347656 0.0078125 0.3125 0.015625 0.28125 0.015625 Z M 0.5 -0.34375 C 0.457031 -0.351562 0.40625 -0.359375 0.34375 -0.359375 C 0.289062 -0.359375 0.253906 -0.347656 0.234375 -0.328125 C 0.222656 -0.316406 0.21875 -0.285156 0.21875 -0.234375 C 0.21875 -0.179688 0.222656 -0.144531 0.234375 -0.125 C 0.242188 -0.113281 0.257812 -0.109375 0.28125 -0.109375 C 0.3125 -0.109375 0.34375 -0.113281 0.375 -0.125 C 0.414062 -0.132812 0.457031 -0.148438 0.5 -0.171875 Z M 0.1875 -0.828125 L 0.15625 -0.890625 L 0.34375 -1.03125 L 0.421875 -1.03125 L 0.609375 -0.890625 L 0.5625 -0.828125 L 0.375 -0.921875 Z M 0.1875 -0.828125 "/></g></g></g><g fill="#ffffff" fill-opacity="1"><g transform="translate(31.661979, 15.469189)"><g><path d="M 0.125 0 L 0.125 -0.75 L 0.21875 -0.75 L 0.234375 -0.671875 C 0.335938 -0.734375 0.425781 -0.765625 0.5 -0.765625 C 0.570312 -0.765625 0.625 -0.734375 0.65625 -0.671875 C 0.6875 -0.691406 0.710938 -0.707031 0.734375 -0.71875 C 0.753906 -0.726562 0.78125 -0.738281 0.8125 -0.75 C 0.851562 -0.757812 0.890625 -0.765625 0.921875 -0.765625 C 0.984375 -0.765625 1.03125 -0.738281 1.0625 -0.6875 C 1.09375 -0.644531 1.109375 -0.578125 1.109375 -0.484375 L 1.109375 0 L 0.953125 0 L 0.953125 -0.453125 C 0.953125 -0.523438 0.945312 -0.570312 0.9375 -0.59375 C 0.925781 -0.625 0.90625 -0.640625 0.875 -0.640625 C 0.84375 -0.640625 0.804688 -0.628906 0.765625 -0.609375 C 0.734375 -0.597656 0.707031 -0.582031 0.6875 -0.5625 C 0.6875 -0.53125 0.6875 -0.503906 0.6875 -0.484375 L 0.6875 0 L 0.53125 0 L 0.53125 -0.453125 C 0.53125 -0.546875 0.519531 -0.601562 0.5 -0.625 C 0.488281 -0.632812 0.472656 -0.640625 0.453125 -0.640625 C 0.398438 -0.640625 0.335938 -0.617188 0.265625 -0.578125 L 0.265625 0 Z M 0.125 0 "/></g></g></g><g fill="#ffffff" fill-opacity="1"><g transform="translate(32.863816, 15.469189)"><g><path d="M 0.109375 0.21875 L 0.109375 -0.75 L 0.203125 -0.75 L 0.21875 -0.671875 L 0.234375 -0.671875 C 0.234375 -0.671875 0.238281 -0.675781 0.25 -0.6875 C 0.257812 -0.695312 0.269531 -0.703125 0.28125 -0.703125 C 0.289062 -0.710938 0.300781 -0.71875 0.3125 -0.71875 C 0.332031 -0.726562 0.347656 -0.738281 0.359375 -0.75 C 0.390625 -0.757812 0.421875 -0.765625 0.453125 -0.765625 C 0.523438 -0.765625 0.582031 -0.734375 0.625 -0.671875 C 0.675781 -0.609375 0.703125 -0.515625 0.703125 -0.390625 C 0.703125 -0.117188 0.601562 0.015625 0.40625 0.015625 C 0.363281 0.015625 0.3125 0.0078125 0.25 0 L 0.25 0.21875 Z M 0.25 -0.125 C 0.3125 -0.113281 0.363281 -0.109375 0.40625 -0.109375 C 0.445312 -0.109375 0.472656 -0.113281 0.484375 -0.125 C 0.523438 -0.15625 0.546875 -0.25 0.546875 -0.40625 C 0.546875 -0.457031 0.539062 -0.5 0.53125 -0.53125 C 0.53125 -0.5625 0.523438 -0.582031 0.515625 -0.59375 C 0.503906 -0.613281 0.492188 -0.625 0.484375 -0.625 C 0.484375 -0.632812 0.46875 -0.640625 0.4375 -0.640625 C 0.414062 -0.640625 0.390625 -0.632812 0.359375 -0.625 C 0.328125 -0.613281 0.289062 -0.597656 0.25 -0.578125 Z M 0.25 -0.125 "/></g></g></g><g fill="#ffffff" fill-opacity="1"><g transform="translate(33.636517, 15.469189)"><g><path d="M 0.109375 -0.25 L 0.109375 -0.75 L 0.25 -0.75 L 0.25 -0.28125 C 0.25 -0.195312 0.253906 -0.148438 0.265625 -0.140625 C 0.273438 -0.117188 0.296875 -0.109375 0.328125 -0.109375 C 0.378906 -0.109375 0.445312 -0.128906 0.53125 -0.171875 L 0.53125 -0.75 L 0.671875 -0.75 L 0.671875 0 L 0.578125 0 L 0.5625 -0.078125 L 0.546875 -0.078125 C 0.546875 -0.078125 0.535156 -0.0703125 0.515625 -0.0625 C 0.503906 -0.0507812 0.492188 -0.0390625 0.484375 -0.03125 C 0.472656 -0.03125 0.457031 -0.0234375 0.4375 -0.015625 C 0.425781 -0.00390625 0.414062 0 0.40625 0 C 0.363281 0.0078125 0.328125 0.015625 0.296875 0.015625 C 0.171875 0.015625 0.109375 -0.0703125 0.109375 -0.25 Z M 0.109375 -0.25 "/></g></g></g><g fill="#ffffff" fill-opacity="1"><g transform="translate(34.427099, 15.469189)"><g><path d="M 0.34375 -0.109375 C 0.375 -0.109375 0.398438 -0.113281 0.421875 -0.125 C 0.441406 -0.144531 0.453125 -0.171875 0.453125 -0.203125 C 0.453125 -0.234375 0.4375 -0.253906 0.40625 -0.265625 C 0.382812 -0.285156 0.359375 -0.300781 0.328125 -0.3125 C 0.304688 -0.320312 0.289062 -0.328125 0.28125 -0.328125 C 0.28125 -0.328125 0.269531 -0.328125 0.25 -0.328125 C 0.238281 -0.335938 0.222656 -0.34375 0.203125 -0.34375 C 0.191406 -0.351562 0.175781 -0.363281 0.15625 -0.375 C 0.132812 -0.382812 0.117188 -0.398438 0.109375 -0.421875 C 0.078125 -0.453125 0.0625 -0.492188 0.0625 -0.546875 C 0.0625 -0.609375 0.0820312 -0.660156 0.125 -0.703125 C 0.164062 -0.742188 0.226562 -0.765625 0.3125 -0.765625 C 0.394531 -0.765625 0.476562 -0.75 0.5625 -0.71875 L 0.53125 -0.609375 C 0.445312 -0.628906 0.375 -0.640625 0.3125 -0.640625 C 0.257812 -0.640625 0.226562 -0.628906 0.21875 -0.609375 C 0.207031 -0.597656 0.203125 -0.578125 0.203125 -0.546875 C 0.203125 -0.523438 0.210938 -0.503906 0.234375 -0.484375 C 0.265625 -0.472656 0.300781 -0.460938 0.34375 -0.453125 C 0.382812 -0.441406 0.410156 -0.429688 0.421875 -0.421875 C 0.429688 -0.421875 0.445312 -0.414062 0.46875 -0.40625 C 0.488281 -0.40625 0.503906 -0.398438 0.515625 -0.390625 C 0.523438 -0.390625 0.535156 -0.382812 0.546875 -0.375 C 0.554688 -0.363281 0.566406 -0.347656 0.578125 -0.328125 C 0.585938 -0.296875 0.59375 -0.265625 0.59375 -0.234375 C 0.59375 -0.160156 0.566406 -0.0976562 0.515625 -0.046875 C 0.472656 -0.00390625 0.410156 0.015625 0.328125 0.015625 C 0.285156 0.015625 0.242188 0.0078125 0.203125 0 C 0.160156 -0.0078125 0.113281 -0.0234375 0.0625 -0.046875 L 0.09375 -0.171875 C 0.195312 -0.128906 0.28125 -0.109375 0.34375 -0.109375 Z M 0.34375 -0.109375 "/></g></g></g><g fill="#ffffff" fill-opacity="1"><g transform="translate(35.081021, 15.469189)"><g/></g></g><g fill="#ffffff" fill-opacity="1"><g transform="translate(35.381161, 15.469189)"><g><path d="M 0.359375 -0.125 C 0.429688 -0.125 0.46875 -0.160156 0.46875 -0.234375 C 0.46875 -0.273438 0.453125 -0.304688 0.421875 -0.328125 C 0.398438 -0.347656 0.363281 -0.367188 0.3125 -0.390625 C 0.257812 -0.421875 0.226562 -0.4375 0.21875 -0.4375 C 0.21875 -0.4375 0.207031 -0.441406 0.1875 -0.453125 C 0.164062 -0.460938 0.148438 -0.472656 0.140625 -0.484375 C 0.140625 -0.492188 0.128906 -0.503906 0.109375 -0.515625 C 0.0976562 -0.523438 0.09375 -0.539062 0.09375 -0.5625 C 0.0820312 -0.59375 0.078125 -0.625 0.078125 -0.65625 C 0.078125 -0.726562 0.0976562 -0.785156 0.140625 -0.828125 C 0.191406 -0.878906 0.265625 -0.90625 0.359375 -0.90625 C 0.429688 -0.90625 0.5 -0.898438 0.5625 -0.890625 L 0.59375 -0.875 L 0.5625 -0.75 C 0.476562 -0.769531 0.410156 -0.78125 0.359375 -0.78125 C 0.304688 -0.78125 0.269531 -0.769531 0.25 -0.75 C 0.238281 -0.738281 0.234375 -0.710938 0.234375 -0.671875 C 0.234375 -0.640625 0.242188 -0.613281 0.265625 -0.59375 C 0.285156 -0.570312 0.3125 -0.550781 0.34375 -0.53125 C 0.375 -0.519531 0.398438 -0.507812 0.421875 -0.5 C 0.441406 -0.5 0.457031 -0.492188 0.46875 -0.484375 C 0.476562 -0.484375 0.488281 -0.476562 0.5 -0.46875 C 0.519531 -0.457031 0.535156 -0.445312 0.546875 -0.4375 C 0.554688 -0.425781 0.566406 -0.414062 0.578125 -0.40625 C 0.585938 -0.394531 0.597656 -0.382812 0.609375 -0.375 C 0.617188 -0.332031 0.625 -0.296875 0.625 -0.265625 C 0.625 -0.179688 0.597656 -0.113281 0.546875 -0.0625 C 0.492188 -0.0078125 0.425781 0.015625 0.34375 0.015625 C 0.289062 0.015625 0.238281 0.0078125 0.1875 0 C 0.144531 -0.0078125 0.113281 -0.0234375 0.09375 -0.046875 L 0.046875 -0.0625 C 0.0546875 -0.0820312 0.0625 -0.0976562 0.0625 -0.109375 C 0.0703125 -0.128906 0.078125 -0.144531 0.078125 -0.15625 C 0.078125 -0.164062 0.0820312 -0.175781 0.09375 -0.1875 C 0.1875 -0.144531 0.273438 -0.125 0.359375 -0.125 Z M 0.359375 -0.125 "/></g></g></g><g fill="#ffffff" fill-opacity="1"><g transform="translate(36.073399, 15.469189)"><g><path d="M 0.28125 0.015625 C 0.207031 0.015625 0.148438 -0.00390625 0.109375 -0.046875 C 0.078125 -0.0859375 0.0625 -0.148438 0.0625 -0.234375 C 0.0625 -0.316406 0.0859375 -0.375 0.140625 -0.40625 C 0.191406 -0.445312 0.269531 -0.46875 0.375 -0.46875 L 0.5 -0.46875 C 0.5 -0.550781 0.488281 -0.597656 0.46875 -0.609375 C 0.457031 -0.628906 0.429688 -0.640625 0.390625 -0.640625 C 0.359375 -0.640625 0.316406 -0.632812 0.265625 -0.625 C 0.222656 -0.613281 0.171875 -0.597656 0.109375 -0.578125 L 0.078125 -0.6875 C 0.0859375 -0.695312 0.101562 -0.703125 0.125 -0.703125 C 0.144531 -0.710938 0.179688 -0.722656 0.234375 -0.734375 C 0.285156 -0.753906 0.335938 -0.765625 0.390625 -0.765625 C 0.554688 -0.765625 0.640625 -0.671875 0.640625 -0.484375 L 0.640625 0 L 0.546875 0 L 0.53125 -0.078125 L 0.515625 -0.078125 C 0.503906 -0.0664062 0.488281 -0.0546875 0.46875 -0.046875 C 0.457031 -0.0351562 0.429688 -0.0195312 0.390625 0 C 0.347656 0.0078125 0.3125 0.015625 0.28125 0.015625 Z M 0.5 -0.34375 C 0.457031 -0.351562 0.40625 -0.359375 0.34375 -0.359375 C 0.289062 -0.359375 0.253906 -0.347656 0.234375 -0.328125 C 0.222656 -0.316406 0.21875 -0.285156 0.21875 -0.234375 C 0.21875 -0.179688 0.222656 -0.144531 0.234375 -0.125 C 0.242188 -0.113281 0.257812 -0.109375 0.28125 -0.109375 C 0.3125 -0.109375 0.34375 -0.113281 0.375 -0.125 C 0.414062 -0.132812 0.457031 -0.148438 0.5 -0.171875 Z M 0.25 -1 C 0.269531 -1 0.3125 -0.988281 0.375 -0.96875 C 0.445312 -0.957031 0.488281 -0.953125 0.5 -0.953125 C 0.507812 -0.953125 0.519531 -0.96875 0.53125 -1 L 0.609375 -1 C 0.609375 -0.894531 0.578125 -0.84375 0.515625 -0.84375 C 0.484375 -0.84375 0.429688 -0.851562 0.359375 -0.875 C 0.296875 -0.894531 0.257812 -0.90625 0.25 -0.90625 C 0.238281 -0.90625 0.226562 -0.882812 0.21875 -0.84375 L 0.140625 -0.859375 C 0.140625 -0.953125 0.175781 -1 0.25 -1 Z M 0.25 -1 "/></g></g></g><g fill="#ffffff" fill-opacity="1"><g transform="translate(36.824388, 15.469189)"><g><path d="M 0.6875 -0.375 C 0.6875 -0.25 0.660156 -0.148438 0.609375 -0.078125 C 0.566406 -0.015625 0.488281 0.015625 0.375 0.015625 C 0.269531 0.015625 0.191406 -0.015625 0.140625 -0.078125 C 0.0976562 -0.148438 0.078125 -0.25 0.078125 -0.375 C 0.078125 -0.5 0.0976562 -0.59375 0.140625 -0.65625 C 0.191406 -0.726562 0.269531 -0.765625 0.375 -0.765625 C 0.488281 -0.765625 0.566406 -0.726562 0.609375 -0.65625 C 0.660156 -0.59375 0.6875 -0.5 0.6875 -0.375 Z M 0.265625 -0.140625 C 0.285156 -0.109375 0.320312 -0.09375 0.375 -0.09375 C 0.4375 -0.09375 0.476562 -0.109375 0.5 -0.140625 C 0.519531 -0.179688 0.53125 -0.257812 0.53125 -0.375 C 0.53125 -0.488281 0.519531 -0.5625 0.5 -0.59375 C 0.476562 -0.625 0.4375 -0.640625 0.375 -0.640625 C 0.320312 -0.640625 0.285156 -0.625 0.265625 -0.59375 C 0.242188 -0.5625 0.234375 -0.488281 0.234375 -0.375 C 0.234375 -0.257812 0.242188 -0.179688 0.265625 -0.140625 Z M 0.265625 -0.140625 "/></g></g></g><g fill="#ffffff" fill-opacity="1"><g transform="translate(37.588149, 15.469189)"><g/></g></g><g fill="#ffffff" fill-opacity="1"><g transform="translate(37.888289, 15.469189)"><g><path d="M 0.125 -0.890625 C 0.25 -0.898438 0.351562 -0.90625 0.4375 -0.90625 C 0.53125 -0.90625 0.597656 -0.878906 0.640625 -0.828125 C 0.679688 -0.773438 0.703125 -0.703125 0.703125 -0.609375 C 0.703125 -0.484375 0.671875 -0.394531 0.609375 -0.34375 C 0.554688 -0.300781 0.492188 -0.28125 0.421875 -0.28125 L 0.28125 -0.296875 L 0.28125 0 L 0.125 0 Z M 0.28125 -0.421875 C 0.320312 -0.410156 0.367188 -0.40625 0.421875 -0.40625 C 0.484375 -0.40625 0.519531 -0.414062 0.53125 -0.4375 C 0.539062 -0.46875 0.546875 -0.523438 0.546875 -0.609375 C 0.546875 -0.703125 0.535156 -0.757812 0.515625 -0.78125 C 0.492188 -0.789062 0.457031 -0.796875 0.40625 -0.796875 C 0.363281 -0.796875 0.320312 -0.789062 0.28125 -0.78125 Z M 0.28125 -0.421875 "/></g></g></g><g fill="#ffffff" fill-opacity="1"><g transform="translate(38.659712, 15.469189)"><g><path d="M 0.28125 0.015625 C 0.207031 0.015625 0.148438 -0.00390625 0.109375 -0.046875 C 0.078125 -0.0859375 0.0625 -0.148438 0.0625 -0.234375 C 0.0625 -0.316406 0.0859375 -0.375 0.140625 -0.40625 C 0.191406 -0.445312 0.269531 -0.46875 0.375 -0.46875 L 0.5 -0.46875 C 0.5 -0.550781 0.488281 -0.597656 0.46875 -0.609375 C 0.457031 -0.628906 0.429688 -0.640625 0.390625 -0.640625 C 0.359375 -0.640625 0.316406 -0.632812 0.265625 -0.625 C 0.222656 -0.613281 0.171875 -0.597656 0.109375 -0.578125 L 0.078125 -0.6875 C 0.0859375 -0.695312 0.101562 -0.703125 0.125 -0.703125 C 0.144531 -0.710938 0.179688 -0.722656 0.234375 -0.734375 C 0.285156 -0.753906 0.335938 -0.765625 0.390625 -0.765625 C 0.554688 -0.765625 0.640625 -0.671875 0.640625 -0.484375 L 0.640625 0 L 0.546875 0 L 0.53125 -0.078125 L 0.515625 -0.078125 C 0.503906 -0.0664062 0.488281 -0.0546875 0.46875 -0.046875 C 0.457031 -0.0351562 0.429688 -0.0195312 0.390625 0 C 0.347656 0.0078125 0.3125 0.015625 0.28125 0.015625 Z M 0.5 -0.34375 C 0.457031 -0.351562 0.40625 -0.359375 0.34375 -0.359375 C 0.289062 -0.359375 0.253906 -0.347656 0.234375 -0.328125 C 0.222656 -0.316406 0.21875 -0.285156 0.21875 -0.234375 C 0.21875 -0.179688 0.222656 -0.144531 0.234375 -0.125 C 0.242188 -0.113281 0.257812 -0.109375 0.28125 -0.109375 C 0.3125 -0.109375 0.34375 -0.113281 0.375 -0.125 C 0.414062 -0.132812 0.457031 -0.148438 0.5 -0.171875 Z M 0.5 -0.34375 "/></g></g></g><g fill="#ffffff" fill-opacity="1"><g transform="translate(39.410701, 15.469189)"><g><path d="M 0.109375 -0.25 L 0.109375 -0.75 L 0.25 -0.75 L 0.25 -0.28125 C 0.25 -0.195312 0.253906 -0.148438 0.265625 -0.140625 C 0.273438 -0.117188 0.296875 -0.109375 0.328125 -0.109375 C 0.378906 -0.109375 0.445312 -0.128906 0.53125 -0.171875 L 0.53125 -0.75 L 0.671875 -0.75 L 0.671875 0 L 0.578125 0 L 0.5625 -0.078125 L 0.546875 -0.078125 C 0.546875 -0.078125 0.535156 -0.0703125 0.515625 -0.0625 C 0.503906 -0.0507812 0.492188 -0.0390625 0.484375 -0.03125 C 0.472656 -0.03125 0.457031 -0.0234375 0.4375 -0.015625 C 0.425781 -0.00390625 0.414062 0 0.40625 0 C 0.363281 0.0078125 0.328125 0.015625 0.296875 0.015625 C 0.171875 0.015625 0.109375 -0.0703125 0.109375 -0.25 Z M 0.109375 -0.25 "/></g></g></g><g fill="#ffffff" fill-opacity="1"><g transform="translate(40.201283, 15.469189)"><g><path d="M 0.109375 0 L 0.109375 -0.96875 L 0.25 -0.96875 L 0.25 0 Z M 0.109375 0 "/></g></g></g><g fill="#ffffff" fill-opacity="1"><g transform="translate(40.558897, 15.469189)"><g><path d="M 0.6875 -0.375 C 0.6875 -0.25 0.660156 -0.148438 0.609375 -0.078125 C 0.566406 -0.015625 0.488281 0.015625 0.375 0.015625 C 0.269531 0.015625 0.191406 -0.015625 0.140625 -0.078125 C 0.0976562 -0.148438 0.078125 -0.25 0.078125 -0.375 C 0.078125 -0.5 0.0976562 -0.59375 0.140625 -0.65625 C 0.191406 -0.726562 0.269531 -0.765625 0.375 -0.765625 C 0.488281 -0.765625 0.566406 -0.726562 0.609375 -0.65625 C 0.660156 -0.59375 0.6875 -0.5 0.6875 -0.375 Z M 0.265625 -0.140625 C 0.285156 -0.109375 0.320312 -0.09375 0.375 -0.09375 C 0.4375 -0.09375 0.476562 -0.109375 0.5 -0.140625 C 0.519531 -0.179688 0.53125 -0.257812 0.53125 -0.375 C 0.53125 -0.488281 0.519531 -0.5625 0.5 -0.59375 C 0.476562 -0.625 0.4375 -0.640625 0.375 -0.640625 C 0.320312 -0.640625 0.285156 -0.625 0.265625 -0.59375 C 0.242188 -0.5625 0.234375 -0.488281 0.234375 -0.375 C 0.234375 -0.257812 0.242188 -0.179688 0.265625 -0.140625 Z M 0.265625 -0.140625 "/></g></g></g><g fill="#ffffff" fill-opacity="1"><g transform="translate(41.322657, 15.469189)"><g/></g></g><g fill="#ffffff" fill-opacity="1"><g transform="translate(41.622798, 15.469189)"><g><path d="M 0.046875 -0.359375 L 0.046875 -0.484375 L 0.359375 -0.484375 L 0.359375 -0.359375 Z M 0.046875 -0.359375 "/></g></g></g><g fill="#ffffff" fill-opacity="1"><g transform="translate(42.030222, 15.469189)"><g/></g></g><g fill="#ffffff" fill-opacity="1"><g transform="translate(42.330361, 15.469189)"><g><path d="M 0.125 0 L 0.125 -0.890625 L 0.28125 -0.890625 L 0.265625 -0.5 L 0.28125 0 Z M 0.125 0 "/></g></g></g><g fill="#ffffff" fill-opacity="1"><g transform="translate(42.730122, 15.469189)"><g><path d="M 0.125 0 L 0.125 -0.890625 L 0.609375 -0.890625 L 0.609375 -0.765625 L 0.265625 -0.765625 L 0.265625 -0.515625 L 0.5625 -0.515625 L 0.5625 -0.390625 L 0.265625 -0.390625 L 0.28125 0 Z M 0.125 0 "/></g></g></g><g fill="#ffffff" fill-opacity="1"><g transform="translate(43.395538, 15.469189)"><g><path d="M 0.359375 -0.125 C 0.429688 -0.125 0.46875 -0.160156 0.46875 -0.234375 C 0.46875 -0.273438 0.453125 -0.304688 0.421875 -0.328125 C 0.398438 -0.347656 0.363281 -0.367188 0.3125 -0.390625 C 0.257812 -0.421875 0.226562 -0.4375 0.21875 -0.4375 C 0.21875 -0.4375 0.207031 -0.441406 0.1875 -0.453125 C 0.164062 -0.460938 0.148438 -0.472656 0.140625 -0.484375 C 0.140625 -0.492188 0.128906 -0.503906 0.109375 -0.515625 C 0.0976562 -0.523438 0.09375 -0.539062 0.09375 -0.5625 C 0.0820312 -0.59375 0.078125 -0.625 0.078125 -0.65625 C 0.078125 -0.726562 0.0976562 -0.785156 0.140625 -0.828125 C 0.191406 -0.878906 0.265625 -0.90625 0.359375 -0.90625 C 0.429688 -0.90625 0.5 -0.898438 0.5625 -0.890625 L 0.59375 -0.875 L 0.5625 -0.75 C 0.476562 -0.769531 0.410156 -0.78125 0.359375 -0.78125 C 0.304688 -0.78125 0.269531 -0.769531 0.25 -0.75 C 0.238281 -0.738281 0.234375 -0.710938 0.234375 -0.671875 C 0.234375 -0.640625 0.242188 -0.613281 0.265625 -0.59375 C 0.285156 -0.570312 0.3125 -0.550781 0.34375 -0.53125 C 0.375 -0.519531 0.398438 -0.507812 0.421875 -0.5 C 0.441406 -0.5 0.457031 -0.492188 0.46875 -0.484375 C 0.476562 -0.484375 0.488281 -0.476562 0.5 -0.46875 C 0.519531 -0.457031 0.535156 -0.445312 0.546875 -0.4375 C 0.554688 -0.425781 0.566406 -0.414062 0.578125 -0.40625 C 0.585938 -0.394531 0.597656 -0.382812 0.609375 -0.375 C 0.617188 -0.332031 0.625 -0.296875 0.625 -0.265625 C 0.625 -0.179688 0.597656 -0.113281 0.546875 -0.0625 C 0.492188 -0.0078125 0.425781 0.015625 0.34375 0.015625 C 0.289062 0.015625 0.238281 0.0078125 0.1875 0 C 0.144531 -0.0078125 0.113281 -0.0234375 0.09375 -0.046875 L 0.046875 -0.0625 C 0.0546875 -0.0820312 0.0625 -0.0976562 0.0625 -0.109375 C 0.0703125 -0.128906 0.078125 -0.144531 0.078125 -0.15625 C 0.078125 -0.164062 0.0820312 -0.175781 0.09375 -0.1875 C 0.1875 -0.144531 0.273438 -0.125 0.359375 -0.125 Z M 0.359375 -0.125 "/></g></g></g><g fill="#ffffff" fill-opacity="1"><g transform="translate(44.087776, 15.469189)"><g><path d="M 0.125 -0.890625 C 0.25 -0.898438 0.351562 -0.90625 0.4375 -0.90625 C 0.53125 -0.90625 0.597656 -0.878906 0.640625 -0.828125 C 0.679688 -0.773438 0.703125 -0.703125 0.703125 -0.609375 C 0.703125 -0.484375 0.671875 -0.394531 0.609375 -0.34375 C 0.554688 -0.300781 0.492188 -0.28125 0.421875 -0.28125 L 0.28125 -0.296875 L 0.28125 0 L 0.125 0 Z M 0.28125 -0.421875 C 0.320312 -0.410156 0.367188 -0.40625 0.421875 -0.40625 C 0.484375 -0.40625 0.519531 -0.414062 0.53125 -0.4375 C 0.539062 -0.46875 0.546875 -0.523438 0.546875 -0.609375 C 0.546875 -0.703125 0.535156 -0.757812 0.515625 -0.78125 C 0.492188 -0.789062 0.457031 -0.796875 0.40625 -0.796875 C 0.363281 -0.796875 0.320312 -0.789062 0.28125 -0.78125 Z M 0.28125 -0.421875 "/></g></g></g></svg>