<svg xmlns="http://www.w3.org/2000/svg" xmlns:xlink="http://www.w3.org/1999/xlink" width="500" zoomAndPan="magnify" viewBox="0 0 375 112.499997" height="150" preserveAspectRatio="xMidYMid meet" version="1.0"><defs><g/></defs><g fill="#ffffff" fill-opacity="1"><g transform="translate(131.49889, 53.014377)"><g><path d="M 0.875 0 L 0.875 -7.34375 L 2.515625 -7.34375 L 2.484375 -4.4375 L 4.90625 -4.4375 L 4.875 -7.34375 L 6.515625 -7.34375 L 6.515625 0 L 4.875 0 L 4.90625 -3.03125 L 2.484375 -3.03125 L 2.515625 0 Z M 0.875 0 "/></g></g></g><g fill="#ffffff" fill-opacity="1"><g transform="translate(138.877422, 53.014377)"><g><path d="M 2.5 0 L 0.875 0 L 0.875 -6.140625 L 2.5 -6.140625 Z M 2.609375 -6.875 L 0.78125 -6.875 L 0.78125 -7.953125 L 2.609375 -7.953125 Z M 2.609375 -6.875 "/></g></g></g><g fill="#ffffff" fill-opacity="1"><g transform="translate(142.253153, 53.014377)"><g><path d="M 2.703125 -4.984375 C 2.441406 -4.984375 2.269531 -4.945312 2.1875 -4.875 C 2.101562 -4.8125 2.0625 -4.710938 2.0625 -4.578125 C 2.0625 -4.453125 2.117188 -4.335938 2.234375 -4.234375 C 2.359375 -4.140625 2.476562 -4.066406 2.59375 -4.015625 C 2.71875 -3.972656 2.859375 -3.925781 3.015625 -3.875 C 3.171875 -3.832031 3.40625 -3.765625 3.71875 -3.671875 C 4.03125 -3.585938 4.273438 -3.492188 4.453125 -3.390625 C 4.992188 -3.097656 5.265625 -2.617188 5.265625 -1.953125 C 5.265625 -1.296875 5.0625 -0.78125 4.65625 -0.40625 C 4.25 -0.0390625 3.679688 0.140625 2.953125 0.140625 C 2.566406 0.140625 2.164062 0.0859375 1.75 -0.015625 C 1.332031 -0.117188 1.007812 -0.21875 0.78125 -0.3125 L 0.4375 -0.46875 L 0.84375 -1.75 C 1.71875 -1.375 2.441406 -1.1875 3.015625 -1.1875 C 3.222656 -1.1875 3.378906 -1.222656 3.484375 -1.296875 C 3.585938 -1.367188 3.640625 -1.507812 3.640625 -1.71875 C 3.640625 -1.84375 3.617188 -1.929688 3.578125 -1.984375 C 3.535156 -2.035156 3.5 -2.078125 3.46875 -2.109375 C 3.445312 -2.140625 3.40625 -2.171875 3.34375 -2.203125 C 3.289062 -2.242188 3.242188 -2.269531 3.203125 -2.28125 C 3.171875 -2.300781 3.113281 -2.320312 3.03125 -2.34375 C 2.957031 -2.375 2.898438 -2.394531 2.859375 -2.40625 C 2.816406 -2.425781 2.75 -2.445312 2.65625 -2.46875 C 2.5625 -2.5 2.453125 -2.535156 2.328125 -2.578125 C 2.203125 -2.617188 2.109375 -2.648438 2.046875 -2.671875 C 1.984375 -2.691406 1.859375 -2.734375 1.671875 -2.796875 C 1.492188 -2.867188 1.367188 -2.929688 1.296875 -2.984375 C 1.222656 -3.035156 1.117188 -3.109375 0.984375 -3.203125 C 0.859375 -3.304688 0.765625 -3.414062 0.703125 -3.53125 C 0.554688 -3.84375 0.484375 -4.148438 0.484375 -4.453125 C 0.484375 -5.023438 0.675781 -5.472656 1.0625 -5.796875 C 1.445312 -6.117188 2.019531 -6.28125 2.78125 -6.28125 C 3.550781 -6.28125 4.289062 -6.160156 5 -5.921875 L 4.75 -4.671875 C 3.945312 -4.878906 3.265625 -4.984375 2.703125 -4.984375 Z M 2.703125 -4.984375 "/></g></g></g><g fill="#ffffff" fill-opacity="1"><g transform="translate(147.865435, 53.014377)"><g><path d="M 2.59375 -5.84375 L 3.84375 -5.84375 L 3.84375 -4.59375 L 2.578125 -4.59375 L 2.578125 -2.015625 C 2.578125 -1.679688 2.609375 -1.46875 2.671875 -1.375 C 2.734375 -1.289062 2.847656 -1.25 3.015625 -1.25 L 3.828125 -1.296875 L 3.828125 0.015625 C 3.484375 0.0976562 3.109375 0.140625 2.703125 0.140625 C 2.085938 0.140625 1.640625 -0.0078125 1.359375 -0.3125 C 1.085938 -0.625 0.953125 -1.207031 0.953125 -2.0625 L 0.953125 -4.625 L 0.234375 -4.625 L 0.234375 -5.640625 L 1.03125 -5.796875 L 1.265625 -7.25 L 2.59375 -7.25 Z M 2.59375 -5.84375 "/></g></g></g><g fill="#ffffff" fill-opacity="1"><g transform="translate(152.045909, 53.014377)"><g><path d="M 1.125 -5.453125 C 1.539062 -6.003906 2.234375 -6.28125 3.203125 -6.28125 C 4.179688 -6.28125 4.875 -6.007812 5.28125 -5.46875 C 5.6875 -4.925781 5.890625 -4.128906 5.890625 -3.078125 C 5.890625 -2.023438 5.6875 -1.222656 5.28125 -0.671875 C 4.875 -0.128906 4.179688 0.140625 3.203125 0.140625 C 2.234375 0.140625 1.539062 -0.128906 1.125 -0.671875 C 0.707031 -1.222656 0.5 -2.019531 0.5 -3.0625 C 0.5 -4.113281 0.707031 -4.910156 1.125 -5.453125 Z M 4.25 -3.0625 C 4.25 -3.863281 4.175781 -4.394531 4.03125 -4.65625 C 3.882812 -4.914062 3.609375 -5.046875 3.203125 -5.046875 C 2.796875 -5.046875 2.519531 -4.910156 2.375 -4.640625 C 2.226562 -4.378906 2.15625 -3.851562 2.15625 -3.0625 C 2.15625 -2.28125 2.226562 -1.753906 2.375 -1.484375 C 2.519531 -1.222656 2.796875 -1.09375 3.203125 -1.09375 C 3.609375 -1.09375 3.882812 -1.222656 4.03125 -1.484375 C 4.175781 -1.742188 4.25 -2.269531 4.25 -3.0625 Z M 4.625 -8.53125 L 4.9375 -7.359375 L 1.78125 -6.75 L 1.5625 -7.625 Z M 4.625 -8.53125 "/></g></g></g><g fill="#ffffff" fill-opacity="1"><g transform="translate(158.442032, 53.014377)"><g><path d="M 2.375 -5.703125 C 2.488281 -5.796875 2.691406 -5.914062 2.984375 -6.0625 C 3.285156 -6.207031 3.566406 -6.28125 3.828125 -6.28125 C 4.085938 -6.28125 4.296875 -6.242188 4.453125 -6.171875 L 4.328125 -4.765625 C 4.128906 -4.785156 3.9375 -4.796875 3.75 -4.796875 C 3.28125 -4.796875 2.847656 -4.671875 2.453125 -4.421875 L 2.453125 0 L 0.828125 0 L 0.828125 -6.140625 L 1.828125 -6.140625 L 2.03125 -5.5 L 2.09375 -5.5 C 2.164062 -5.550781 2.257812 -5.617188 2.375 -5.703125 Z M 2.375 -5.703125 "/></g></g></g><g fill="#ffffff" fill-opacity="1"><g transform="translate(162.936039, 53.014377)"><g><path d="M 2.5 0 L 0.875 0 L 0.875 -6.140625 L 2.5 -6.140625 Z M 2.609375 -6.875 L 0.78125 -6.875 L 0.78125 -7.953125 L 2.609375 -7.953125 Z M 2.609375 -6.875 "/></g></g></g><g fill="#ffffff" fill-opacity="1"><g transform="translate(166.31177, 53.014377)"><g><path d="M 2.328125 0.140625 C 1.804688 0.140625 1.375 -0.0351562 1.03125 -0.390625 C 0.695312 -0.753906 0.53125 -1.269531 0.53125 -1.9375 C 0.53125 -2.613281 0.769531 -3.101562 1.25 -3.40625 C 1.726562 -3.71875 2.421875 -3.875 3.328125 -3.875 L 4.125 -3.875 C 4.125 -4.34375 4.078125 -4.644531 3.984375 -4.78125 C 3.890625 -4.914062 3.679688 -4.984375 3.359375 -4.984375 C 3.046875 -4.984375 2.695312 -4.945312 2.3125 -4.875 C 1.925781 -4.8125 1.5 -4.707031 1.03125 -4.5625 L 0.6875 -5.734375 C 0.976562 -5.867188 1.390625 -5.992188 1.921875 -6.109375 C 2.453125 -6.222656 2.925781 -6.28125 3.34375 -6.28125 C 4.195312 -6.28125 4.804688 -6.082031 5.171875 -5.6875 C 5.546875 -5.289062 5.734375 -4.71875 5.734375 -3.96875 L 5.734375 0 L 4.71875 0 L 4.5 -0.671875 L 4.4375 -0.671875 C 4.351562 -0.609375 4.242188 -0.53125 4.109375 -0.4375 C 3.972656 -0.351562 3.71875 -0.234375 3.34375 -0.078125 C 2.96875 0.0664062 2.628906 0.140625 2.328125 0.140625 Z M 4.125 -2.671875 C 3.875 -2.710938 3.546875 -2.734375 3.140625 -2.734375 C 2.734375 -2.734375 2.472656 -2.679688 2.359375 -2.578125 C 2.242188 -2.472656 2.1875 -2.269531 2.1875 -1.96875 C 2.1875 -1.675781 2.234375 -1.472656 2.328125 -1.359375 C 2.421875 -1.242188 2.566406 -1.1875 2.765625 -1.1875 C 3.117188 -1.1875 3.5 -1.285156 3.90625 -1.484375 L 4.125 -1.59375 Z M 4.125 -2.671875 "/></g></g></g><g fill="#ffffff" fill-opacity="1"><g transform="translate(172.812403, 53.014377)"><g><path d="M 2.703125 -4.984375 C 2.441406 -4.984375 2.269531 -4.945312 2.1875 -4.875 C 2.101562 -4.8125 2.0625 -4.710938 2.0625 -4.578125 C 2.0625 -4.453125 2.117188 -4.335938 2.234375 -4.234375 C 2.359375 -4.140625 2.476562 -4.066406 2.59375 -4.015625 C 2.71875 -3.972656 2.859375 -3.925781 3.015625 -3.875 C 3.171875 -3.832031 3.40625 -3.765625 3.71875 -3.671875 C 4.03125 -3.585938 4.273438 -3.492188 4.453125 -3.390625 C 4.992188 -3.097656 5.265625 -2.617188 5.265625 -1.953125 C 5.265625 -1.296875 5.0625 -0.78125 4.65625 -0.40625 C 4.25 -0.0390625 3.679688 0.140625 2.953125 0.140625 C 2.566406 0.140625 2.164062 0.0859375 1.75 -0.015625 C 1.332031 -0.117188 1.007812 -0.21875 0.78125 -0.3125 L 0.4375 -0.46875 L 0.84375 -1.75 C 1.71875 -1.375 2.441406 -1.1875 3.015625 -1.1875 C 3.222656 -1.1875 3.378906 -1.222656 3.484375 -1.296875 C 3.585938 -1.367188 3.640625 -1.507812 3.640625 -1.71875 C 3.640625 -1.84375 3.617188 -1.929688 3.578125 -1.984375 C 3.535156 -2.035156 3.5 -2.078125 3.46875 -2.109375 C 3.445312 -2.140625 3.40625 -2.171875 3.34375 -2.203125 C 3.289062 -2.242188 3.242188 -2.269531 3.203125 -2.28125 C 3.171875 -2.300781 3.113281 -2.320312 3.03125 -2.34375 C 2.957031 -2.375 2.898438 -2.394531 2.859375 -2.40625 C 2.816406 -2.425781 2.75 -2.445312 2.65625 -2.46875 C 2.5625 -2.5 2.453125 -2.535156 2.328125 -2.578125 C 2.203125 -2.617188 2.109375 -2.648438 2.046875 -2.671875 C 1.984375 -2.691406 1.859375 -2.734375 1.671875 -2.796875 C 1.492188 -2.867188 1.367188 -2.929688 1.296875 -2.984375 C 1.222656 -3.035156 1.117188 -3.109375 0.984375 -3.203125 C 0.859375 -3.304688 0.765625 -3.414062 0.703125 -3.53125 C 0.554688 -3.84375 0.484375 -4.148438 0.484375 -4.453125 C 0.484375 -5.023438 0.675781 -5.472656 1.0625 -5.796875 C 1.445312 -6.117188 2.019531 -6.28125 2.78125 -6.28125 C 3.550781 -6.28125 4.289062 -6.160156 5 -5.921875 L 4.75 -4.671875 C 3.945312 -4.878906 3.265625 -4.984375 2.703125 -4.984375 Z M 2.703125 -4.984375 "/></g></g></g><g fill="#ffffff" fill-opacity="1"><g transform="translate(178.424686, 53.014377)"><g/></g></g><g fill="#ffffff" fill-opacity="1"><g transform="translate(180.932971, 53.014377)"><g><path d="M 5.21875 -0.8125 C 4.507812 -0.175781 3.734375 0.140625 2.890625 0.140625 C 2.046875 0.140625 1.378906 -0.0820312 0.890625 -0.53125 C 0.410156 -0.988281 0.171875 -1.507812 0.171875 -2.09375 C 0.171875 -2.9375 0.617188 -3.585938 1.515625 -4.046875 C 0.972656 -4.472656 0.703125 -4.96875 0.703125 -5.53125 C 0.703125 -6.101562 0.90625 -6.570312 1.3125 -6.9375 C 1.726562 -7.300781 2.304688 -7.484375 3.046875 -7.484375 C 3.785156 -7.484375 4.347656 -7.300781 4.734375 -6.9375 C 5.117188 -6.570312 5.3125 -6.128906 5.3125 -5.609375 C 5.3125 -4.953125 4.972656 -4.40625 4.296875 -3.96875 C 4.628906 -3.726562 4.96875 -3.441406 5.3125 -3.109375 C 5.5 -3.441406 5.679688 -3.828125 5.859375 -4.265625 L 7.25 -3.875 C 7 -3.238281 6.664062 -2.613281 6.25 -2 C 6.664062 -1.394531 7.007812 -0.703125 7.28125 0.078125 L 5.671875 0.140625 C 5.585938 -0.109375 5.4375 -0.425781 5.21875 -0.8125 Z M 1.859375 -2.046875 C 1.859375 -1.773438 1.945312 -1.550781 2.125 -1.375 C 2.3125 -1.195312 2.550781 -1.109375 2.84375 -1.109375 C 3.132812 -1.109375 3.425781 -1.1875 3.71875 -1.34375 C 4.007812 -1.5 4.265625 -1.703125 4.484375 -1.953125 C 4.003906 -2.515625 3.492188 -2.960938 2.953125 -3.296875 C 2.617188 -3.171875 2.351562 -3 2.15625 -2.78125 C 1.957031 -2.570312 1.859375 -2.328125 1.859375 -2.046875 Z M 3 -6.28125 C 2.570312 -6.28125 2.359375 -6.0625 2.359375 -5.625 C 2.359375 -5.226562 2.570312 -4.914062 3 -4.6875 C 3.4375 -4.914062 3.65625 -5.234375 3.65625 -5.640625 C 3.65625 -5.828125 3.597656 -5.976562 3.484375 -6.09375 C 3.378906 -6.21875 3.21875 -6.28125 3 -6.28125 Z M 3 -6.28125 "/></g></g></g><g fill="#ffffff" fill-opacity="1"><g transform="translate(188.2697, 53.014377)"><g/></g></g><g fill="#ffffff" fill-opacity="1"><g transform="translate(190.777988, 53.014377)"><g><path d="M 5.234375 -1.6875 L 3.578125 -1.6875 L 2.453125 -5.515625 L 2.390625 -5.515625 L 2.453125 0 L 0.828125 0 L 1.078125 -7.34375 L 3.171875 -7.34375 L 4.375 -3.234375 L 4.4375 -3.234375 L 5.609375 -7.34375 L 7.703125 -7.34375 L 7.984375 0 L 6.359375 0 L 6.390625 -5.515625 L 6.328125 -5.515625 Z M 5.234375 -1.6875 "/></g></g></g><g fill="#ffffff" fill-opacity="1"><g transform="translate(199.588332, 53.014377)"><g><path d="M 3.34375 0.140625 C 1.445312 0.140625 0.5 -0.925781 0.5 -3.0625 C 0.5 -5.207031 1.441406 -6.28125 3.328125 -6.28125 C 4.171875 -6.28125 4.800781 -6.054688 5.21875 -5.609375 C 5.644531 -5.160156 5.859375 -4.414062 5.859375 -3.375 L 5.859375 -2.515625 L 2.1875 -2.515625 C 2.1875 -1.921875 2.296875 -1.53125 2.515625 -1.34375 C 2.660156 -1.21875 2.863281 -1.15625 3.125 -1.15625 C 3.613281 -1.15625 4.234375 -1.265625 4.984375 -1.484375 L 5.359375 -1.59375 L 5.75 -0.421875 C 5.4375 -0.273438 5.046875 -0.144531 4.578125 -0.03125 C 4.109375 0.0820312 3.695312 0.140625 3.34375 0.140625 Z M 4.03125 -4.78125 C 3.90625 -4.925781 3.648438 -5 3.265625 -5 C 2.890625 -5 2.617188 -4.910156 2.453125 -4.734375 C 2.296875 -4.554688 2.207031 -4.203125 2.1875 -3.671875 L 4.21875 -3.71875 C 4.195312 -4.269531 4.132812 -4.625 4.03125 -4.78125 Z M 4.03125 -4.78125 "/></g></g></g><g fill="#ffffff" fill-opacity="1"><g transform="translate(205.900844, 53.014377)"><g><path d="M 2.453125 0 L 0.828125 0 L 0.828125 -6.140625 L 1.859375 -6.140625 L 2.046875 -5.53125 L 2.109375 -5.53125 C 2.367188 -5.6875 2.570312 -5.800781 2.71875 -5.875 C 2.863281 -5.957031 3.085938 -6.046875 3.390625 -6.140625 C 3.691406 -6.242188 3.972656 -6.296875 4.234375 -6.296875 C 4.867188 -6.296875 5.316406 -6.035156 5.578125 -5.515625 C 5.828125 -5.671875 6.03125 -5.789062 6.1875 -5.875 C 6.351562 -5.96875 6.578125 -6.0625 6.859375 -6.15625 C 7.140625 -6.25 7.40625 -6.296875 7.65625 -6.296875 C 8.257812 -6.296875 8.679688 -6.09375 8.921875 -5.6875 C 9.171875 -5.289062 9.296875 -4.738281 9.296875 -4.03125 L 9.296875 0 L 7.65625 0 L 7.65625 -3.75 C 7.65625 -4.28125 7.609375 -4.601562 7.515625 -4.71875 C 7.421875 -4.832031 7.273438 -4.890625 7.078125 -4.890625 C 6.691406 -4.890625 6.28125 -4.738281 5.84375 -4.4375 C 5.851562 -4.21875 5.859375 -4.046875 5.859375 -3.921875 L 5.859375 0 L 4.25 0 L 4.25 -3.75 C 4.25 -4.289062 4.203125 -4.613281 4.109375 -4.71875 C 4.015625 -4.832031 3.875 -4.890625 3.6875 -4.890625 C 3.5 -4.890625 3.285156 -4.84375 3.046875 -4.75 C 2.816406 -4.664062 2.617188 -4.566406 2.453125 -4.453125 Z M 2.453125 0 "/></g></g></g><g fill="#ffffff" fill-opacity="1"><g transform="translate(215.892174, 53.014377)"><g><path d="M 1.125 -5.453125 C 1.539062 -6.003906 2.234375 -6.28125 3.203125 -6.28125 C 4.179688 -6.28125 4.875 -6.007812 5.28125 -5.46875 C 5.6875 -4.925781 5.890625 -4.128906 5.890625 -3.078125 C 5.890625 -2.023438 5.6875 -1.222656 5.28125 -0.671875 C 4.875 -0.128906 4.179688 0.140625 3.203125 0.140625 C 2.234375 0.140625 1.539062 -0.128906 1.125 -0.671875 C 0.707031 -1.222656 0.5 -2.019531 0.5 -3.0625 C 0.5 -4.113281 0.707031 -4.910156 1.125 -5.453125 Z M 4.25 -3.0625 C 4.25 -3.863281 4.175781 -4.394531 4.03125 -4.65625 C 3.882812 -4.914062 3.609375 -5.046875 3.203125 -5.046875 C 2.796875 -5.046875 2.519531 -4.910156 2.375 -4.640625 C 2.226562 -4.378906 2.15625 -3.851562 2.15625 -3.0625 C 2.15625 -2.28125 2.226562 -1.753906 2.375 -1.484375 C 2.519531 -1.222656 2.796875 -1.09375 3.203125 -1.09375 C 3.609375 -1.09375 3.882812 -1.222656 4.03125 -1.484375 C 4.175781 -1.742188 4.25 -2.269531 4.25 -3.0625 Z M 4.625 -8.53125 L 4.9375 -7.359375 L 1.78125 -6.75 L 1.5625 -7.625 Z M 4.625 -8.53125 "/></g></g></g><g fill="#ffffff" fill-opacity="1"><g transform="translate(222.288297, 53.014377)"><g><path d="M 2.375 -5.703125 C 2.488281 -5.796875 2.691406 -5.914062 2.984375 -6.0625 C 3.285156 -6.207031 3.566406 -6.28125 3.828125 -6.28125 C 4.085938 -6.28125 4.296875 -6.242188 4.453125 -6.171875 L 4.328125 -4.765625 C 4.128906 -4.785156 3.9375 -4.796875 3.75 -4.796875 C 3.28125 -4.796875 2.847656 -4.671875 2.453125 -4.421875 L 2.453125 0 L 0.828125 0 L 0.828125 -6.140625 L 1.828125 -6.140625 L 2.03125 -5.5 L 2.09375 -5.5 C 2.164062 -5.550781 2.257812 -5.617188 2.375 -5.703125 Z M 2.375 -5.703125 "/></g></g></g><g fill="#ffffff" fill-opacity="1"><g transform="translate(226.782304, 53.014377)"><g><path d="M 2.5 0 L 0.875 0 L 0.875 -6.140625 L 2.5 -6.140625 Z M 2.609375 -6.875 L 0.78125 -6.875 L 0.78125 -7.953125 L 2.609375 -7.953125 Z M 2.609375 -6.875 "/></g></g></g><g fill="#ffffff" fill-opacity="1"><g transform="translate(230.158031, 53.014377)"><g><path d="M 2.328125 0.140625 C 1.804688 0.140625 1.375 -0.0351562 1.03125 -0.390625 C 0.695312 -0.753906 0.53125 -1.269531 0.53125 -1.9375 C 0.53125 -2.613281 0.769531 -3.101562 1.25 -3.40625 C 1.726562 -3.71875 2.421875 -3.875 3.328125 -3.875 L 4.125 -3.875 C 4.125 -4.34375 4.078125 -4.644531 3.984375 -4.78125 C 3.890625 -4.914062 3.679688 -4.984375 3.359375 -4.984375 C 3.046875 -4.984375 2.695312 -4.945312 2.3125 -4.875 C 1.925781 -4.8125 1.5 -4.707031 1.03125 -4.5625 L 0.6875 -5.734375 C 0.976562 -5.867188 1.390625 -5.992188 1.921875 -6.109375 C 2.453125 -6.222656 2.925781 -6.28125 3.34375 -6.28125 C 4.195312 -6.28125 4.804688 -6.082031 5.171875 -5.6875 C 5.546875 -5.289062 5.734375 -4.71875 5.734375 -3.96875 L 5.734375 0 L 4.71875 0 L 4.5 -0.671875 L 4.4375 -0.671875 C 4.351562 -0.609375 4.242188 -0.53125 4.109375 -0.4375 C 3.972656 -0.351562 3.71875 -0.234375 3.34375 -0.078125 C 2.96875 0.0664062 2.628906 0.140625 2.328125 0.140625 Z M 4.125 -2.671875 C 3.875 -2.710938 3.546875 -2.734375 3.140625 -2.734375 C 2.734375 -2.734375 2.472656 -2.679688 2.359375 -2.578125 C 2.242188 -2.472656 2.1875 -2.269531 2.1875 -1.96875 C 2.1875 -1.675781 2.234375 -1.472656 2.328125 -1.359375 C 2.421875 -1.242188 2.566406 -1.1875 2.765625 -1.1875 C 3.117188 -1.1875 3.5 -1.285156 3.90625 -1.484375 L 4.125 -1.59375 Z M 4.125 -2.671875 "/></g></g></g><g fill="#ffffff" fill-opacity="1"><g transform="translate(236.658665, 53.014377)"><g><path d="M 2.703125 -4.984375 C 2.441406 -4.984375 2.269531 -4.945312 2.1875 -4.875 C 2.101562 -4.8125 2.0625 -4.710938 2.0625 -4.578125 C 2.0625 -4.453125 2.117188 -4.335938 2.234375 -4.234375 C 2.359375 -4.140625 2.476562 -4.066406 2.59375 -4.015625 C 2.71875 -3.972656 2.859375 -3.925781 3.015625 -3.875 C 3.171875 -3.832031 3.40625 -3.765625 3.71875 -3.671875 C 4.03125 -3.585938 4.273438 -3.492188 4.453125 -3.390625 C 4.992188 -3.097656 5.265625 -2.617188 5.265625 -1.953125 C 5.265625 -1.296875 5.0625 -0.78125 4.65625 -0.40625 C 4.25 -0.0390625 3.679688 0.140625 2.953125 0.140625 C 2.566406 0.140625 2.164062 0.0859375 1.75 -0.015625 C 1.332031 -0.117188 1.007812 -0.21875 0.78125 -0.3125 L 0.4375 -0.46875 L 0.84375 -1.75 C 1.71875 -1.375 2.441406 -1.1875 3.015625 -1.1875 C 3.222656 -1.1875 3.378906 -1.222656 3.484375 -1.296875 C 3.585938 -1.367188 3.640625 -1.507812 3.640625 -1.71875 C 3.640625 -1.84375 3.617188 -1.929688 3.578125 -1.984375 C 3.535156 -2.035156 3.5 -2.078125 3.46875 -2.109375 C 3.445312 -2.140625 3.40625 -2.171875 3.34375 -2.203125 C 3.289062 -2.242188 3.242188 -2.269531 3.203125 -2.28125 C 3.171875 -2.300781 3.113281 -2.320312 3.03125 -2.34375 C 2.957031 -2.375 2.898438 -2.394531 2.859375 -2.40625 C 2.816406 -2.425781 2.75 -2.445312 2.65625 -2.46875 C 2.5625 -2.5 2.453125 -2.535156 2.328125 -2.578125 C 2.203125 -2.617188 2.109375 -2.648438 2.046875 -2.671875 C 1.984375 -2.691406 1.859375 -2.734375 1.671875 -2.796875 C 1.492188 -2.867188 1.367188 -2.929688 1.296875 -2.984375 C 1.222656 -3.035156 1.117188 -3.109375 0.984375 -3.203125 C 0.859375 -3.304688 0.765625 -3.414062 0.703125 -3.53125 C 0.554688 -3.84375 0.484375 -4.148438 0.484375 -4.453125 C 0.484375 -5.023438 0.675781 -5.472656 1.0625 -5.796875 C 1.445312 -6.117188 2.019531 -6.28125 2.78125 -6.28125 C 3.550781 -6.28125 4.289062 -6.160156 5 -5.921875 L 4.75 -4.671875 C 3.945312 -4.878906 3.265625 -4.984375 2.703125 -4.984375 Z M 2.703125 -4.984375 "/></g></g></g><g fill="#ffffff" fill-opacity="1"><g transform="translate(242.272578, 53.014377)"><g/></g></g><g fill="#ffffff" fill-opacity="1"><g transform="translate(149.639353, 61.840156)"><g><path d="M 2.125 0.078125 C 1.59375 0.078125 1.175781 -0.101562 0.875 -0.46875 C 0.570312 -0.84375 0.421875 -1.4375 0.421875 -2.25 C 0.421875 -3.351562 0.664062 -4.066406 1.15625 -4.390625 C 1.3125 -4.492188 1.472656 -4.566406 1.640625 -4.609375 C 1.816406 -4.648438 2.070312 -4.671875 2.40625 -4.671875 C 2.738281 -4.671875 3.082031 -4.628906 3.4375 -4.546875 L 3.359375 -3.890625 C 2.953125 -3.953125 2.570312 -3.984375 2.21875 -3.984375 C 1.875 -3.984375 1.65625 -3.9375 1.5625 -3.84375 C 1.34375 -3.613281 1.234375 -3.070312 1.234375 -2.21875 C 1.234375 -1.820312 1.269531 -1.488281 1.34375 -1.21875 C 1.414062 -0.957031 1.503906 -0.78125 1.609375 -0.6875 C 1.710938 -0.601562 1.863281 -0.5625 2.0625 -0.5625 C 2.257812 -0.5625 2.46875 -0.59375 2.6875 -0.65625 C 2.90625 -0.71875 3.144531 -0.804688 3.40625 -0.921875 L 3.640625 -0.34375 C 3.585938 -0.3125 3.519531 -0.269531 3.4375 -0.21875 C 3.351562 -0.175781 3.175781 -0.113281 2.90625 -0.03125 C 2.644531 0.0390625 2.382812 0.078125 2.125 0.078125 Z M 2.125 0.078125 "/></g></g></g><g fill="#ffffff" fill-opacity="1"><g transform="translate(153.607406, 61.840156)"><g><path d="M 1.421875 0.078125 C 1.078125 0.078125 0.800781 -0.0234375 0.59375 -0.234375 C 0.394531 -0.441406 0.296875 -0.753906 0.296875 -1.171875 C 0.296875 -1.597656 0.429688 -1.90625 0.703125 -2.09375 C 0.984375 -2.289062 1.378906 -2.390625 1.890625 -2.390625 L 2.53125 -2.390625 C 2.53125 -2.816406 2.492188 -3.070312 2.421875 -3.15625 C 2.359375 -3.25 2.226562 -3.296875 2.03125 -3.296875 C 1.832031 -3.296875 1.609375 -3.269531 1.359375 -3.21875 C 1.117188 -3.175781 0.863281 -3.101562 0.59375 -3 L 0.390625 -3.5625 C 0.453125 -3.582031 0.535156 -3.613281 0.640625 -3.65625 C 0.742188 -3.695312 0.9375 -3.75 1.21875 -3.8125 C 1.5 -3.882812 1.753906 -3.921875 1.984375 -3.921875 C 2.847656 -3.921875 3.28125 -3.445312 3.28125 -2.5 L 3.28125 0 L 2.796875 0 L 2.703125 -0.40625 L 2.671875 -0.40625 C 2.617188 -0.375 2.550781 -0.328125 2.46875 -0.265625 C 2.382812 -0.210938 2.234375 -0.140625 2.015625 -0.046875 C 1.796875 0.0351562 1.597656 0.078125 1.421875 0.078125 Z M 2.53125 -1.765625 C 2.34375 -1.796875 2.097656 -1.8125 1.796875 -1.8125 C 1.492188 -1.8125 1.304688 -1.773438 1.234375 -1.703125 C 1.128906 -1.609375 1.078125 -1.4375 1.078125 -1.1875 C 1.078125 -0.945312 1.109375 -0.78125 1.171875 -0.6875 C 1.234375 -0.601562 1.335938 -0.5625 1.484375 -0.5625 C 1.628906 -0.5625 1.785156 -0.582031 1.953125 -0.625 C 2.128906 -0.675781 2.320312 -0.753906 2.53125 -0.859375 Z M 0.984375 -4.25 L 0.765625 -4.578125 L 1.71875 -5.28125 L 2.125 -5.28125 L 3.09375 -4.578125 L 2.859375 -4.25 L 1.953125 -4.703125 L 1.90625 -4.703125 Z M 0.984375 -4.25 "/></g></g></g><g fill="#ffffff" fill-opacity="1"><g transform="translate(157.470347, 61.840156)"><g><path d="M 0.609375 0 L 0.609375 -3.84375 L 1.109375 -3.84375 L 1.1875 -3.453125 L 1.234375 -3.453125 C 1.753906 -3.773438 2.203125 -3.9375 2.578125 -3.9375 C 2.960938 -3.9375 3.222656 -3.769531 3.359375 -3.4375 C 3.523438 -3.539062 3.65625 -3.617188 3.75 -3.671875 C 3.851562 -3.722656 3.992188 -3.78125 4.171875 -3.84375 C 4.347656 -3.90625 4.519531 -3.9375 4.6875 -3.9375 C 5.039062 -3.9375 5.289062 -3.8125 5.4375 -3.5625 C 5.582031 -3.320312 5.65625 -2.972656 5.65625 -2.515625 L 5.65625 0 L 4.890625 0 L 4.890625 -2.34375 C 4.890625 -2.695312 4.863281 -2.929688 4.8125 -3.046875 C 4.757812 -3.171875 4.644531 -3.234375 4.46875 -3.234375 C 4.300781 -3.234375 4.125 -3.195312 3.9375 -3.125 C 3.75 -3.050781 3.597656 -2.976562 3.484375 -2.90625 C 3.503906 -2.738281 3.515625 -2.601562 3.515625 -2.5 L 3.515625 0 L 2.75 0 L 2.75 -2.34375 C 2.75 -2.832031 2.691406 -3.113281 2.578125 -3.1875 C 2.523438 -3.21875 2.445312 -3.234375 2.34375 -3.234375 C 2.0625 -3.234375 1.738281 -3.132812 1.375 -2.9375 L 1.375 0 Z M 0.609375 0 "/></g></g></g><g fill="#ffffff" fill-opacity="1"><g transform="translate(163.652365, 61.840156)"><g><path d="M 0.53125 1.09375 L 0.53125 -3.84375 L 1.03125 -3.84375 L 1.125 -3.4375 L 1.15625 -3.4375 C 1.164062 -3.445312 1.203125 -3.472656 1.265625 -3.515625 C 1.335938 -3.566406 1.390625 -3.601562 1.421875 -3.625 C 1.460938 -3.65625 1.523438 -3.691406 1.609375 -3.734375 C 1.691406 -3.773438 1.765625 -3.804688 1.828125 -3.828125 C 2.015625 -3.890625 2.1875 -3.921875 2.34375 -3.921875 C 2.71875 -3.921875 3.015625 -3.757812 3.234375 -3.4375 C 3.453125 -3.125 3.5625 -2.640625 3.5625 -1.984375 C 3.5625 -0.609375 3.0625 0.078125 2.0625 0.078125 C 1.875 0.078125 1.617188 0.0507812 1.296875 0 L 1.296875 1.09375 Z M 1.296875 -0.671875 C 1.597656 -0.585938 1.851562 -0.546875 2.0625 -0.546875 C 2.269531 -0.546875 2.414062 -0.578125 2.5 -0.640625 C 2.6875 -0.785156 2.78125 -1.253906 2.78125 -2.046875 C 2.78125 -2.347656 2.769531 -2.582031 2.75 -2.75 C 2.738281 -2.914062 2.707031 -3.035156 2.65625 -3.109375 C 2.601562 -3.179688 2.550781 -3.222656 2.5 -3.234375 C 2.457031 -3.242188 2.375 -3.25 2.25 -3.25 C 2.132812 -3.25 1.992188 -3.222656 1.828125 -3.171875 C 1.671875 -3.117188 1.492188 -3.046875 1.296875 -2.953125 Z M 1.296875 -0.671875 "/></g></g></g><g fill="#ffffff" fill-opacity="1"><g transform="translate(167.626987, 61.840156)"><g><path d="M 0.53125 -1.3125 L 0.53125 -3.84375 L 1.28125 -3.84375 L 1.28125 -1.453125 C 1.28125 -1.035156 1.3125 -0.785156 1.375 -0.703125 C 1.4375 -0.628906 1.546875 -0.59375 1.703125 -0.59375 C 1.960938 -0.59375 2.289062 -0.695312 2.6875 -0.90625 L 2.6875 -3.84375 L 3.453125 -3.84375 L 3.453125 0 L 2.953125 0 L 2.859375 -0.375 L 2.828125 -0.375 C 2.828125 -0.375 2.78125 -0.347656 2.6875 -0.296875 C 2.59375 -0.242188 2.523438 -0.207031 2.484375 -0.1875 C 2.441406 -0.164062 2.375 -0.132812 2.28125 -0.09375 C 2.1875 -0.0507812 2.109375 -0.0195312 2.046875 0 C 1.859375 0.0507812 1.691406 0.078125 1.546875 0.078125 C 0.867188 0.078125 0.53125 -0.382812 0.53125 -1.3125 Z M 0.53125 -1.3125 "/></g></g></g><g fill="#ffffff" fill-opacity="1"><g transform="translate(171.693586, 61.840156)"><g><path d="M 1.765625 -0.546875 C 1.941406 -0.546875 2.070312 -0.582031 2.15625 -0.65625 C 2.25 -0.738281 2.296875 -0.867188 2.296875 -1.046875 C 2.296875 -1.222656 2.238281 -1.347656 2.125 -1.421875 C 2.007812 -1.492188 1.875 -1.550781 1.71875 -1.59375 C 1.5625 -1.644531 1.472656 -1.671875 1.453125 -1.671875 C 1.441406 -1.679688 1.394531 -1.695312 1.3125 -1.71875 C 1.226562 -1.75 1.148438 -1.773438 1.078125 -1.796875 C 1.003906 -1.828125 0.90625 -1.875 0.78125 -1.9375 C 0.664062 -2 0.582031 -2.066406 0.53125 -2.140625 C 0.394531 -2.316406 0.328125 -2.535156 0.328125 -2.796875 C 0.328125 -3.140625 0.4375 -3.410156 0.65625 -3.609375 C 0.875 -3.816406 1.191406 -3.921875 1.609375 -3.921875 C 2.035156 -3.921875 2.453125 -3.851562 2.859375 -3.71875 L 2.75 -3.109375 C 2.289062 -3.222656 1.921875 -3.28125 1.640625 -3.28125 C 1.367188 -3.28125 1.203125 -3.242188 1.140625 -3.171875 C 1.078125 -3.097656 1.046875 -2.992188 1.046875 -2.859375 C 1.046875 -2.734375 1.109375 -2.628906 1.234375 -2.546875 C 1.359375 -2.460938 1.535156 -2.382812 1.765625 -2.3125 C 1.992188 -2.25 2.128906 -2.207031 2.171875 -2.1875 C 2.222656 -2.175781 2.300781 -2.148438 2.40625 -2.109375 C 2.507812 -2.078125 2.582031 -2.046875 2.625 -2.015625 C 2.664062 -1.984375 2.71875 -1.9375 2.78125 -1.875 C 2.84375 -1.820312 2.890625 -1.765625 2.921875 -1.703125 C 2.992188 -1.546875 3.03125 -1.375 3.03125 -1.1875 C 3.03125 -0.800781 2.914062 -0.492188 2.6875 -0.265625 C 2.457031 -0.0351562 2.132812 0.078125 1.71875 0.078125 C 1.5 0.078125 1.273438 0.0507812 1.046875 0 C 0.816406 -0.0507812 0.570312 -0.132812 0.3125 -0.25 L 0.484375 -0.875 C 1.003906 -0.65625 1.429688 -0.546875 1.765625 -0.546875 Z M 1.765625 -0.546875 "/></g></g></g><g fill="#ffffff" fill-opacity="1"><g transform="translate(175.057234, 61.840156)"><g/></g></g><g fill="#ffffff" fill-opacity="1"><g transform="translate(176.601096, 61.840156)"><g><path d="M 1.859375 -0.609375 C 2.242188 -0.609375 2.4375 -0.816406 2.4375 -1.234375 C 2.4375 -1.410156 2.363281 -1.5625 2.21875 -1.6875 C 2.070312 -1.8125 1.867188 -1.929688 1.609375 -2.046875 C 1.359375 -2.160156 1.210938 -2.226562 1.171875 -2.25 C 1.140625 -2.269531 1.070312 -2.304688 0.96875 -2.359375 C 0.875 -2.410156 0.804688 -2.453125 0.765625 -2.484375 C 0.734375 -2.523438 0.679688 -2.578125 0.609375 -2.640625 C 0.546875 -2.710938 0.503906 -2.78125 0.484375 -2.84375 C 0.410156 -3.03125 0.375 -3.21875 0.375 -3.40625 C 0.375 -3.769531 0.5 -4.070312 0.75 -4.3125 C 1.007812 -4.550781 1.375 -4.671875 1.84375 -4.671875 C 2.1875 -4.671875 2.53125 -4.625 2.875 -4.53125 L 3.046875 -4.484375 L 2.921875 -3.84375 C 2.441406 -3.9375 2.078125 -3.984375 1.828125 -3.984375 C 1.578125 -3.984375 1.398438 -3.941406 1.296875 -3.859375 C 1.203125 -3.773438 1.15625 -3.644531 1.15625 -3.46875 C 1.15625 -3.289062 1.210938 -3.148438 1.328125 -3.046875 C 1.453125 -2.953125 1.59375 -2.863281 1.75 -2.78125 C 1.914062 -2.707031 2.046875 -2.648438 2.140625 -2.609375 C 2.242188 -2.566406 2.320312 -2.53125 2.375 -2.5 C 2.425781 -2.476562 2.492188 -2.441406 2.578125 -2.390625 C 2.660156 -2.347656 2.726562 -2.304688 2.78125 -2.265625 C 2.832031 -2.222656 2.890625 -2.164062 2.953125 -2.09375 C 3.015625 -2.03125 3.0625 -1.960938 3.09375 -1.890625 C 3.175781 -1.722656 3.21875 -1.539062 3.21875 -1.34375 C 3.21875 -0.914062 3.078125 -0.570312 2.796875 -0.3125 C 2.523438 -0.0507812 2.164062 0.078125 1.71875 0.078125 C 1.5 0.078125 1.265625 0.046875 1.015625 -0.015625 C 0.765625 -0.078125 0.578125 -0.140625 0.453125 -0.203125 L 0.25 -0.3125 C 0.28125 -0.425781 0.304688 -0.519531 0.328125 -0.59375 C 0.359375 -0.664062 0.382812 -0.726562 0.40625 -0.78125 C 0.425781 -0.832031 0.445312 -0.882812 0.46875 -0.9375 C 0.96875 -0.71875 1.429688 -0.609375 1.859375 -0.609375 Z M 1.859375 -0.609375 "/></g></g></g><g fill="#ffffff" fill-opacity="1"><g transform="translate(180.161832, 61.840156)"><g><path d="M 1.421875 0.078125 C 1.078125 0.078125 0.800781 -0.0234375 0.59375 -0.234375 C 0.394531 -0.441406 0.296875 -0.753906 0.296875 -1.171875 C 0.296875 -1.597656 0.429688 -1.90625 0.703125 -2.09375 C 0.984375 -2.289062 1.378906 -2.390625 1.890625 -2.390625 L 2.53125 -2.390625 C 2.53125 -2.816406 2.492188 -3.070312 2.421875 -3.15625 C 2.359375 -3.25 2.226562 -3.296875 2.03125 -3.296875 C 1.832031 -3.296875 1.609375 -3.269531 1.359375 -3.21875 C 1.117188 -3.175781 0.863281 -3.101562 0.59375 -3 L 0.390625 -3.5625 C 0.453125 -3.582031 0.535156 -3.613281 0.640625 -3.65625 C 0.742188 -3.695312 0.9375 -3.75 1.21875 -3.8125 C 1.5 -3.882812 1.753906 -3.921875 1.984375 -3.921875 C 2.847656 -3.921875 3.28125 -3.445312 3.28125 -2.5 L 3.28125 0 L 2.796875 0 L 2.703125 -0.40625 L 2.671875 -0.40625 C 2.617188 -0.375 2.550781 -0.328125 2.46875 -0.265625 C 2.382812 -0.210938 2.234375 -0.140625 2.015625 -0.046875 C 1.796875 0.0351562 1.597656 0.078125 1.421875 0.078125 Z M 2.53125 -1.765625 C 2.34375 -1.796875 2.097656 -1.8125 1.796875 -1.8125 C 1.492188 -1.8125 1.304688 -1.773438 1.234375 -1.703125 C 1.128906 -1.609375 1.078125 -1.4375 1.078125 -1.1875 C 1.078125 -0.945312 1.109375 -0.78125 1.171875 -0.6875 C 1.234375 -0.601562 1.335938 -0.5625 1.484375 -0.5625 C 1.628906 -0.5625 1.785156 -0.582031 1.953125 -0.625 C 2.128906 -0.675781 2.320312 -0.753906 2.53125 -0.859375 Z M 1.25 -5.15625 C 1.382812 -5.15625 1.625 -5.109375 1.96875 -5.015625 C 2.320312 -4.921875 2.515625 -4.875 2.546875 -4.875 C 2.609375 -4.875 2.675781 -4.96875 2.75 -5.15625 L 3.15625 -5.09375 C 3.15625 -4.59375 2.976562 -4.34375 2.625 -4.34375 C 2.488281 -4.34375 2.242188 -4.390625 1.890625 -4.484375 C 1.535156 -4.585938 1.34375 -4.640625 1.3125 -4.640625 C 1.25 -4.640625 1.179688 -4.539062 1.109375 -4.34375 L 0.703125 -4.40625 C 0.703125 -4.90625 0.882812 -5.15625 1.25 -5.15625 Z M 1.25 -5.15625 "/></g></g></g><g fill="#ffffff" fill-opacity="1"><g transform="translate(184.024773, 61.840156)"><g><path d="M 3.515625 -1.921875 C 3.515625 -1.265625 3.394531 -0.765625 3.15625 -0.421875 C 2.925781 -0.0859375 2.53125 0.078125 1.96875 0.078125 C 1.40625 0.078125 1.003906 -0.0859375 0.765625 -0.421875 C 0.523438 -0.765625 0.40625 -1.265625 0.40625 -1.921875 C 0.40625 -2.578125 0.523438 -3.070312 0.765625 -3.40625 C 1.003906 -3.75 1.40625 -3.921875 1.96875 -3.921875 C 2.53125 -3.921875 2.925781 -3.75 3.15625 -3.40625 C 3.394531 -3.070312 3.515625 -2.578125 3.515625 -1.921875 Z M 1.34375 -0.78125 C 1.457031 -0.601562 1.664062 -0.515625 1.96875 -0.515625 C 2.269531 -0.515625 2.472656 -0.601562 2.578125 -0.78125 C 2.679688 -0.96875 2.734375 -1.347656 2.734375 -1.921875 C 2.734375 -2.492188 2.679688 -2.867188 2.578125 -3.046875 C 2.472656 -3.222656 2.269531 -3.3125 1.96875 -3.3125 C 1.664062 -3.3125 1.457031 -3.222656 1.34375 -3.046875 C 1.238281 -2.867188 1.1875 -2.492188 1.1875 -1.921875 C 1.1875 -1.347656 1.238281 -0.96875 1.34375 -0.78125 Z M 1.34375 -0.78125 "/></g></g></g><g fill="#ffffff" fill-opacity="1"><g transform="translate(187.95341, 61.840156)"><g/></g></g><g fill="#ffffff" fill-opacity="1"><g transform="translate(189.497272, 61.840156)"><g><path d="M 0.640625 -4.578125 C 1.253906 -4.640625 1.785156 -4.671875 2.234375 -4.671875 C 2.691406 -4.671875 3.035156 -4.535156 3.265625 -4.265625 C 3.503906 -4.003906 3.625 -3.613281 3.625 -3.09375 C 3.625 -2.46875 3.46875 -2.03125 3.15625 -1.78125 C 2.882812 -1.5625 2.539062 -1.453125 2.125 -1.453125 L 1.40625 -1.484375 L 1.40625 0 L 0.640625 0 L 0.65625 -2.125 Z M 1.40625 -2.171875 C 1.65625 -2.128906 1.914062 -2.109375 2.1875 -2.109375 C 2.46875 -2.109375 2.644531 -2.171875 2.71875 -2.296875 C 2.789062 -2.421875 2.828125 -2.707031 2.828125 -3.15625 C 2.828125 -3.601562 2.765625 -3.875 2.640625 -3.96875 C 2.554688 -4.03125 2.382812 -4.0625 2.125 -4.0625 C 1.863281 -4.0625 1.625 -4.046875 1.40625 -4.015625 Z M 1.40625 -2.171875 "/></g></g></g><g fill="#ffffff" fill-opacity="1"><g transform="translate(193.465324, 61.840156)"><g><path d="M 1.421875 0.078125 C 1.078125 0.078125 0.800781 -0.0234375 0.59375 -0.234375 C 0.394531 -0.441406 0.296875 -0.753906 0.296875 -1.171875 C 0.296875 -1.597656 0.429688 -1.90625 0.703125 -2.09375 C 0.984375 -2.289062 1.378906 -2.390625 1.890625 -2.390625 L 2.53125 -2.390625 C 2.53125 -2.816406 2.492188 -3.070312 2.421875 -3.15625 C 2.359375 -3.25 2.226562 -3.296875 2.03125 -3.296875 C 1.832031 -3.296875 1.609375 -3.269531 1.359375 -3.21875 C 1.117188 -3.175781 0.863281 -3.101562 0.59375 -3 L 0.390625 -3.5625 C 0.453125 -3.582031 0.535156 -3.613281 0.640625 -3.65625 C 0.742188 -3.695312 0.9375 -3.75 1.21875 -3.8125 C 1.5 -3.882812 1.753906 -3.921875 1.984375 -3.921875 C 2.847656 -3.921875 3.28125 -3.445312 3.28125 -2.5 L 3.28125 0 L 2.796875 0 L 2.703125 -0.40625 L 2.671875 -0.40625 C 2.617188 -0.375 2.550781 -0.328125 2.46875 -0.265625 C 2.382812 -0.210938 2.234375 -0.140625 2.015625 -0.046875 C 1.796875 0.0351562 1.597656 0.078125 1.421875 0.078125 Z M 2.53125 -1.765625 C 2.34375 -1.796875 2.097656 -1.8125 1.796875 -1.8125 C 1.492188 -1.8125 1.304688 -1.773438 1.234375 -1.703125 C 1.128906 -1.609375 1.078125 -1.4375 1.078125 -1.1875 C 1.078125 -0.945312 1.109375 -0.78125 1.171875 -0.6875 C 1.234375 -0.601562 1.335938 -0.5625 1.484375 -0.5625 C 1.628906 -0.5625 1.785156 -0.582031 1.953125 -0.625 C 2.128906 -0.675781 2.320312 -0.753906 2.53125 -0.859375 Z M 2.53125 -1.765625 "/></g></g></g><g fill="#ffffff" fill-opacity="1"><g transform="translate(197.328266, 61.840156)"><g><path d="M 0.53125 -1.3125 L 0.53125 -3.84375 L 1.28125 -3.84375 L 1.28125 -1.453125 C 1.28125 -1.035156 1.3125 -0.785156 1.375 -0.703125 C 1.4375 -0.628906 1.546875 -0.59375 1.703125 -0.59375 C 1.960938 -0.59375 2.289062 -0.695312 2.6875 -0.90625 L 2.6875 -3.84375 L 3.453125 -3.84375 L 3.453125 0 L 2.953125 0 L 2.859375 -0.375 L 2.828125 -0.375 C 2.828125 -0.375 2.78125 -0.347656 2.6875 -0.296875 C 2.59375 -0.242188 2.523438 -0.207031 2.484375 -0.1875 C 2.441406 -0.164062 2.375 -0.132812 2.28125 -0.09375 C 2.1875 -0.0507812 2.109375 -0.0195312 2.046875 0 C 1.859375 0.0507812 1.691406 0.078125 1.546875 0.078125 C 0.867188 0.078125 0.53125 -0.382812 0.53125 -1.3125 Z M 0.53125 -1.3125 "/></g></g></g><g fill="#ffffff" fill-opacity="1"><g transform="translate(201.394864, 61.840156)"><g><path d="M 0.53125 0 L 0.53125 -4.96875 L 1.296875 -4.96875 L 1.296875 0 Z M 0.53125 0 "/></g></g></g><g fill="#ffffff" fill-opacity="1"><g transform="translate(203.234359, 61.840156)"><g><path d="M 3.515625 -1.921875 C 3.515625 -1.265625 3.394531 -0.765625 3.15625 -0.421875 C 2.925781 -0.0859375 2.53125 0.078125 1.96875 0.078125 C 1.40625 0.078125 1.003906 -0.0859375 0.765625 -0.421875 C 0.523438 -0.765625 0.40625 -1.265625 0.40625 -1.921875 C 0.40625 -2.578125 0.523438 -3.070312 0.765625 -3.40625 C 1.003906 -3.75 1.40625 -3.921875 1.96875 -3.921875 C 2.53125 -3.921875 2.925781 -3.75 3.15625 -3.40625 C 3.394531 -3.070312 3.515625 -2.578125 3.515625 -1.921875 Z M 1.34375 -0.78125 C 1.457031 -0.601562 1.664062 -0.515625 1.96875 -0.515625 C 2.269531 -0.515625 2.472656 -0.601562 2.578125 -0.78125 C 2.679688 -0.96875 2.734375 -1.347656 2.734375 -1.921875 C 2.734375 -2.492188 2.679688 -2.867188 2.578125 -3.046875 C 2.472656 -3.222656 2.269531 -3.3125 1.96875 -3.3125 C 1.664062 -3.3125 1.457031 -3.222656 1.34375 -3.046875 C 1.238281 -2.867188 1.1875 -2.492188 1.1875 -1.921875 C 1.1875 -1.347656 1.238281 -0.96875 1.34375 -0.78125 Z M 1.34375 -0.78125 "/></g></g></g><g fill="#ffffff" fill-opacity="1"><g transform="translate(207.162995, 61.840156)"><g/></g></g><g fill="#ffffff" fill-opacity="1"><g transform="translate(208.706861, 61.840156)"><g><path d="M 0.25 -1.828125 L 0.25 -2.46875 L 1.84375 -2.46875 L 1.84375 -1.828125 Z M 0.25 -1.828125 "/></g></g></g><g fill="#ffffff" fill-opacity="1"><g transform="translate(210.802568, 61.840156)"><g/></g></g><g fill="#ffffff" fill-opacity="1"><g transform="translate(212.346427, 61.840156)"><g><path d="M 0.640625 0 L 0.65625 -2.109375 L 0.640625 -4.59375 L 1.40625 -4.59375 L 1.390625 -2.546875 L 1.40625 0 Z M 0.640625 0 "/></g></g></g><g fill="#ffffff" fill-opacity="1"><g transform="translate(214.402718, 61.840156)"><g><path d="M 0.640625 0 L 0.640625 -4.59375 L 3.109375 -4.59375 L 3.109375 -3.890625 L 1.390625 -3.921875 L 1.375 -2.640625 L 2.90625 -2.640625 L 2.90625 -2 L 1.375 -2 L 1.40625 0 Z M 0.640625 0 "/></g></g></g><g fill="#ffffff" fill-opacity="1"><g transform="translate(217.825491, 61.840156)"><g><path d="M 1.859375 -0.609375 C 2.242188 -0.609375 2.4375 -0.816406 2.4375 -1.234375 C 2.4375 -1.410156 2.363281 -1.5625 2.21875 -1.6875 C 2.070312 -1.8125 1.867188 -1.929688 1.609375 -2.046875 C 1.359375 -2.160156 1.210938 -2.226562 1.171875 -2.25 C 1.140625 -2.269531 1.070312 -2.304688 0.96875 -2.359375 C 0.875 -2.410156 0.804688 -2.453125 0.765625 -2.484375 C 0.734375 -2.523438 0.679688 -2.578125 0.609375 -2.640625 C 0.546875 -2.710938 0.503906 -2.78125 0.484375 -2.84375 C 0.410156 -3.03125 0.375 -3.21875 0.375 -3.40625 C 0.375 -3.769531 0.5 -4.070312 0.75 -4.3125 C 1.007812 -4.550781 1.375 -4.671875 1.84375 -4.671875 C 2.1875 -4.671875 2.53125 -4.625 2.875 -4.53125 L 3.046875 -4.484375 L 2.921875 -3.84375 C 2.441406 -3.9375 2.078125 -3.984375 1.828125 -3.984375 C 1.578125 -3.984375 1.398438 -3.941406 1.296875 -3.859375 C 1.203125 -3.773438 1.15625 -3.644531 1.15625 -3.46875 C 1.15625 -3.289062 1.210938 -3.148438 1.328125 -3.046875 C 1.453125 -2.953125 1.59375 -2.863281 1.75 -2.78125 C 1.914062 -2.707031 2.046875 -2.648438 2.140625 -2.609375 C 2.242188 -2.566406 2.320312 -2.53125 2.375 -2.5 C 2.425781 -2.476562 2.492188 -2.441406 2.578125 -2.390625 C 2.660156 -2.347656 2.726562 -2.304688 2.78125 -2.265625 C 2.832031 -2.222656 2.890625 -2.164062 2.953125 -2.09375 C 3.015625 -2.03125 3.0625 -1.960938 3.09375 -1.890625 C 3.175781 -1.722656 3.21875 -1.539062 3.21875 -1.34375 C 3.21875 -0.914062 3.078125 -0.570312 2.796875 -0.3125 C 2.523438 -0.0507812 2.164062 0.078125 1.71875 0.078125 C 1.5 0.078125 1.265625 0.046875 1.015625 -0.015625 C 0.765625 -0.078125 0.578125 -0.140625 0.453125 -0.203125 L 0.25 -0.3125 C 0.28125 -0.425781 0.304688 -0.519531 0.328125 -0.59375 C 0.359375 -0.664062 0.382812 -0.726562 0.40625 -0.78125 C 0.425781 -0.832031 0.445312 -0.882812 0.46875 -0.9375 C 0.96875 -0.71875 1.429688 -0.609375 1.859375 -0.609375 Z M 1.859375 -0.609375 "/></g></g></g><g fill="#ffffff" fill-opacity="1"><g transform="translate(221.38623, 61.840156)"><g><path d="M 0.640625 -4.578125 C 1.253906 -4.640625 1.785156 -4.671875 2.234375 -4.671875 C 2.691406 -4.671875 3.035156 -4.535156 3.265625 -4.265625 C 3.503906 -4.003906 3.625 -3.613281 3.625 -3.09375 C 3.625 -2.46875 3.46875 -2.03125 3.15625 -1.78125 C 2.882812 -1.5625 2.539062 -1.453125 2.125 -1.453125 L 1.40625 -1.484375 L 1.40625 0 L 0.640625 0 L 0.65625 -2.125 Z M 1.40625 -2.171875 C 1.65625 -2.128906 1.914062 -2.109375 2.1875 -2.109375 C 2.46875 -2.109375 2.644531 -2.171875 2.71875 -2.296875 C 2.789062 -2.421875 2.828125 -2.707031 2.828125 -3.15625 C 2.828125 -3.601562 2.765625 -3.875 2.640625 -3.96875 C 2.554688 -4.03125 2.382812 -4.0625 2.125 -4.0625 C 1.863281 -4.0625 1.625 -4.046875 1.40625 -4.015625 Z M 1.40625 -2.171875 "/></g></g></g></svg>