<svg xmlns="http://www.w3.org/2000/svg" xmlns:xlink="http://www.w3.org/1999/xlink" width="1080" zoomAndPan="magnify" viewBox="0 0 810 809.999993" height="1080" preserveAspectRatio="xMidYMid meet" version="1.0"><defs><g/></defs><g fill="#ffffff" fill-opacity="1"><g transform="translate(283.499989, 398.519989)"><g><path d="M 1.875 0 L 1.875 -15.9375 L 5.4375 -15.9375 L 5.375 -9.609375 L 10.640625 -9.609375 L 10.5625 -15.9375 L 14.125 -15.9375 L 14.125 0 L 10.5625 0 L 10.640625 -6.578125 L 5.375 -6.578125 L 5.4375 0 Z M 1.875 0 "/></g></g></g><g fill="#ffffff" fill-opacity="1"><g transform="translate(299.508452, 398.519989)"><g><path d="M 5.421875 0 L 1.90625 0 L 1.90625 -13.328125 L 5.421875 -13.328125 Z M 5.640625 -14.890625 L 1.671875 -14.890625 L 1.671875 -17.25 L 5.640625 -17.25 Z M 5.640625 -14.890625 "/></g></g></g><g fill="#ffffff" fill-opacity="1"><g transform="translate(306.832439, 398.519989)"><g><path d="M 5.875 -10.8125 C 5.300781 -10.8125 4.925781 -10.738281 4.75 -10.59375 C 4.570312 -10.457031 4.484375 -10.242188 4.484375 -9.953125 C 4.484375 -9.660156 4.613281 -9.40625 4.875 -9.1875 C 5.132812 -8.96875 5.390625 -8.804688 5.640625 -8.703125 C 5.898438 -8.609375 6.195312 -8.515625 6.53125 -8.421875 C 6.875 -8.328125 7.378906 -8.179688 8.046875 -7.984375 C 8.722656 -7.785156 9.257812 -7.582031 9.65625 -7.375 C 10.820312 -6.71875 11.40625 -5.675781 11.40625 -4.25 C 11.40625 -2.820312 10.96875 -1.707031 10.09375 -0.90625 C 9.21875 -0.101562 7.984375 0.296875 6.390625 0.296875 C 5.554688 0.296875 4.6875 0.1875 3.78125 -0.03125 C 2.875 -0.25 2.171875 -0.46875 1.671875 -0.6875 L 0.953125 -1.015625 L 1.8125 -3.78125 C 3.726562 -2.96875 5.300781 -2.5625 6.53125 -2.5625 C 7 -2.5625 7.34375 -2.644531 7.5625 -2.8125 C 7.789062 -2.976562 7.90625 -3.28125 7.90625 -3.71875 C 7.90625 -3.988281 7.859375 -4.179688 7.765625 -4.296875 C 7.679688 -4.421875 7.609375 -4.515625 7.546875 -4.578125 C 7.484375 -4.648438 7.390625 -4.71875 7.265625 -4.78125 C 7.148438 -4.851562 7.050781 -4.910156 6.96875 -4.953125 C 6.882812 -4.992188 6.757812 -5.039062 6.59375 -5.09375 C 6.425781 -5.15625 6.296875 -5.203125 6.203125 -5.234375 C 6.117188 -5.265625 5.96875 -5.3125 5.75 -5.375 C 5.539062 -5.4375 5.300781 -5.507812 5.03125 -5.59375 C 4.769531 -5.675781 4.570312 -5.738281 4.4375 -5.78125 C 4.300781 -5.820312 4.03125 -5.914062 3.625 -6.0625 C 3.226562 -6.21875 2.953125 -6.351562 2.796875 -6.46875 C 2.640625 -6.582031 2.421875 -6.75 2.140625 -6.96875 C 1.859375 -7.1875 1.660156 -7.414062 1.546875 -7.65625 C 1.222656 -8.320312 1.0625 -8.988281 1.0625 -9.65625 C 1.0625 -10.894531 1.476562 -11.863281 2.3125 -12.5625 C 3.144531 -13.269531 4.390625 -13.625 6.046875 -13.625 C 7.703125 -13.625 9.300781 -13.367188 10.84375 -12.859375 L 10.3125 -10.140625 C 8.570312 -10.585938 7.09375 -10.8125 5.875 -10.8125 Z M 5.875 -10.8125 "/></g></g></g><g fill="#ffffff" fill-opacity="1"><g transform="translate(319.008846, 398.519989)"><g><path d="M 5.625 -12.671875 L 8.34375 -12.671875 L 8.34375 -9.96875 L 5.578125 -9.96875 L 5.578125 -4.375 C 5.578125 -3.644531 5.644531 -3.179688 5.78125 -2.984375 C 5.914062 -2.796875 6.171875 -2.703125 6.546875 -2.703125 L 8.296875 -2.8125 L 8.296875 0.046875 C 7.554688 0.210938 6.738281 0.296875 5.84375 0.296875 C 4.53125 0.296875 3.570312 -0.03125 2.96875 -0.6875 C 2.363281 -1.34375 2.0625 -2.601562 2.0625 -4.46875 L 2.0625 -10.046875 L 0.515625 -10.046875 L 0.515625 -12.25 L 2.21875 -12.5625 L 2.75 -15.71875 L 5.625 -15.71875 Z M 5.625 -12.671875 "/></g></g></g><g fill="#ffffff" fill-opacity="1"><g transform="translate(328.078802, 398.519989)"><g><path d="M 2.4375 -11.84375 C 3.332031 -13.03125 4.835938 -13.625 6.953125 -13.625 C 9.078125 -13.625 10.578125 -13.035156 11.453125 -11.859375 C 12.335938 -10.679688 12.78125 -8.945312 12.78125 -6.65625 C 12.78125 -4.375 12.335938 -2.644531 11.453125 -1.46875 C 10.578125 -0.289062 9.078125 0.296875 6.953125 0.296875 C 4.835938 0.296875 3.332031 -0.296875 2.4375 -1.484375 C 1.539062 -2.671875 1.09375 -4.394531 1.09375 -6.65625 C 1.09375 -8.925781 1.539062 -10.65625 2.4375 -11.84375 Z M 9.203125 -6.65625 C 9.203125 -8.382812 9.046875 -9.53125 8.734375 -10.09375 C 8.429688 -10.664062 7.835938 -10.953125 6.953125 -10.953125 C 6.066406 -10.953125 5.460938 -10.664062 5.140625 -10.09375 C 4.828125 -9.519531 4.671875 -8.378906 4.671875 -6.671875 C 4.671875 -4.960938 4.828125 -3.816406 5.140625 -3.234375 C 5.460938 -2.660156 6.066406 -2.375 6.953125 -2.375 C 7.835938 -2.375 8.429688 -2.65625 8.734375 -3.21875 C 9.046875 -3.789062 9.203125 -4.9375 9.203125 -6.65625 Z M 10.015625 -18.5 L 10.71875 -15.96875 L 3.875 -14.640625 L 3.375 -16.53125 Z M 10.015625 -18.5 "/></g></g></g><g fill="#ffffff" fill-opacity="1"><g transform="translate(341.955831, 398.519989)"><g><path d="M 5.15625 -12.390625 C 5.40625 -12.578125 5.847656 -12.828125 6.484375 -13.140625 C 7.128906 -13.460938 7.734375 -13.625 8.296875 -13.625 C 8.867188 -13.625 9.320312 -13.539062 9.65625 -13.375 L 9.390625 -10.34375 C 8.960938 -10.382812 8.546875 -10.40625 8.140625 -10.40625 C 7.128906 -10.40625 6.1875 -10.132812 5.3125 -9.59375 L 5.3125 0 L 1.796875 0 L 1.796875 -13.328125 L 3.96875 -13.328125 L 4.421875 -11.921875 L 4.5625 -11.921875 C 4.707031 -12.046875 4.90625 -12.203125 5.15625 -12.390625 Z M 5.15625 -12.390625 "/></g></g></g><g fill="#ffffff" fill-opacity="1"><g transform="translate(351.706028, 398.519989)"><g><path d="M 5.421875 0 L 1.90625 0 L 1.90625 -13.328125 L 5.421875 -13.328125 Z M 5.640625 -14.890625 L 1.671875 -14.890625 L 1.671875 -17.25 L 5.640625 -17.25 Z M 5.640625 -14.890625 "/></g></g></g><g fill="#ffffff" fill-opacity="1"><g transform="translate(359.030015, 398.519989)"><g><path d="M 5.03125 0.296875 C 3.914062 0.296875 2.988281 -0.0859375 2.25 -0.859375 C 1.519531 -1.628906 1.15625 -2.75 1.15625 -4.21875 C 1.15625 -5.6875 1.671875 -6.75 2.703125 -7.40625 C 3.742188 -8.070312 5.253906 -8.40625 7.234375 -8.40625 L 8.9375 -8.40625 C 8.9375 -9.425781 8.835938 -10.082031 8.640625 -10.375 C 8.441406 -10.664062 8 -10.8125 7.3125 -10.8125 C 6.625 -10.8125 5.859375 -10.734375 5.015625 -10.578125 C 4.179688 -10.429688 3.25 -10.207031 2.21875 -9.90625 L 1.5 -12.453125 C 2.113281 -12.734375 3 -13 4.15625 -13.25 C 5.3125 -13.5 6.34375 -13.625 7.25 -13.625 C 9.113281 -13.625 10.445312 -13.195312 11.25 -12.34375 C 12.050781 -11.488281 12.453125 -10.242188 12.453125 -8.609375 L 12.453125 0 L 10.21875 0 L 9.765625 -1.46875 L 9.640625 -1.46875 C 9.453125 -1.332031 9.210938 -1.164062 8.921875 -0.96875 C 8.628906 -0.78125 8.070312 -0.519531 7.25 -0.1875 C 6.4375 0.132812 5.695312 0.296875 5.03125 0.296875 Z M 8.9375 -5.796875 C 8.40625 -5.878906 7.695312 -5.921875 6.8125 -5.921875 C 5.925781 -5.921875 5.359375 -5.804688 5.109375 -5.578125 C 4.859375 -5.347656 4.734375 -4.914062 4.734375 -4.28125 C 4.734375 -3.644531 4.832031 -3.203125 5.03125 -2.953125 C 5.238281 -2.703125 5.554688 -2.578125 5.984375 -2.578125 C 6.773438 -2.578125 7.609375 -2.789062 8.484375 -3.21875 L 8.9375 -3.453125 Z M 8.9375 -5.796875 "/></g></g></g><g fill="#ffffff" fill-opacity="1"><g transform="translate(373.133789, 398.519989)"><g><path d="M 5.875 -10.8125 C 5.300781 -10.8125 4.925781 -10.738281 4.75 -10.59375 C 4.570312 -10.457031 4.484375 -10.242188 4.484375 -9.953125 C 4.484375 -9.660156 4.613281 -9.40625 4.875 -9.1875 C 5.132812 -8.96875 5.390625 -8.804688 5.640625 -8.703125 C 5.898438 -8.609375 6.195312 -8.515625 6.53125 -8.421875 C 6.875 -8.328125 7.378906 -8.179688 8.046875 -7.984375 C 8.722656 -7.785156 9.257812 -7.582031 9.65625 -7.375 C 10.820312 -6.71875 11.40625 -5.675781 11.40625 -4.25 C 11.40625 -2.820312 10.96875 -1.707031 10.09375 -0.90625 C 9.21875 -0.101562 7.984375 0.296875 6.390625 0.296875 C 5.554688 0.296875 4.6875 0.1875 3.78125 -0.03125 C 2.875 -0.25 2.171875 -0.46875 1.671875 -0.6875 L 0.953125 -1.015625 L 1.8125 -3.78125 C 3.726562 -2.96875 5.300781 -2.5625 6.53125 -2.5625 C 7 -2.5625 7.34375 -2.644531 7.5625 -2.8125 C 7.789062 -2.976562 7.90625 -3.28125 7.90625 -3.71875 C 7.90625 -3.988281 7.859375 -4.179688 7.765625 -4.296875 C 7.679688 -4.421875 7.609375 -4.515625 7.546875 -4.578125 C 7.484375 -4.648438 7.390625 -4.71875 7.265625 -4.78125 C 7.148438 -4.851562 7.050781 -4.910156 6.96875 -4.953125 C 6.882812 -4.992188 6.757812 -5.039062 6.59375 -5.09375 C 6.425781 -5.15625 6.296875 -5.203125 6.203125 -5.234375 C 6.117188 -5.265625 5.96875 -5.3125 5.75 -5.375 C 5.539062 -5.4375 5.300781 -5.507812 5.03125 -5.59375 C 4.769531 -5.675781 4.570312 -5.738281 4.4375 -5.78125 C 4.300781 -5.820312 4.03125 -5.914062 3.625 -6.0625 C 3.226562 -6.21875 2.953125 -6.351562 2.796875 -6.46875 C 2.640625 -6.582031 2.421875 -6.75 2.140625 -6.96875 C 1.859375 -7.1875 1.660156 -7.414062 1.546875 -7.65625 C 1.222656 -8.320312 1.0625 -8.988281 1.0625 -9.65625 C 1.0625 -10.894531 1.476562 -11.863281 2.3125 -12.5625 C 3.144531 -13.269531 4.390625 -13.625 6.046875 -13.625 C 7.703125 -13.625 9.300781 -13.367188 10.84375 -12.859375 L 10.3125 -10.140625 C 8.570312 -10.585938 7.09375 -10.8125 5.875 -10.8125 Z M 5.875 -10.8125 "/></g></g></g><g fill="#ffffff" fill-opacity="1"><g transform="translate(385.310196, 398.519989)"><g/></g></g><g fill="#ffffff" fill-opacity="1"><g transform="translate(390.752171, 398.519989)"><g><path d="M 11.3125 -1.765625 C 9.769531 -0.390625 8.085938 0.296875 6.265625 0.296875 C 4.441406 0.296875 3.003906 -0.191406 1.953125 -1.171875 C 0.910156 -2.160156 0.390625 -3.289062 0.390625 -4.5625 C 0.390625 -6.382812 1.351562 -7.789062 3.28125 -8.78125 C 2.125 -9.71875 1.546875 -10.800781 1.546875 -12.03125 C 1.546875 -13.257812 1.988281 -14.265625 2.875 -15.046875 C 3.769531 -15.835938 5.015625 -16.234375 6.609375 -16.234375 C 8.210938 -16.234375 9.429688 -15.835938 10.265625 -15.046875 C 11.097656 -14.253906 11.515625 -13.296875 11.515625 -12.171875 C 11.515625 -10.753906 10.78125 -9.566406 9.3125 -8.609375 C 10.039062 -8.097656 10.773438 -7.472656 11.515625 -6.734375 C 11.921875 -7.460938 12.316406 -8.300781 12.703125 -9.25 L 15.71875 -8.40625 C 15.164062 -7.03125 14.445312 -5.679688 13.5625 -4.359375 C 14.46875 -3.023438 15.210938 -1.507812 15.796875 0.1875 L 12.3125 0.296875 C 12.125 -0.234375 11.789062 -0.921875 11.3125 -1.765625 Z M 4.03125 -4.453125 C 4.03125 -3.859375 4.226562 -3.367188 4.625 -2.984375 C 5.019531 -2.597656 5.535156 -2.40625 6.171875 -2.40625 C 6.804688 -2.40625 7.4375 -2.570312 8.0625 -2.90625 C 8.6875 -3.25 9.238281 -3.691406 9.71875 -4.234375 C 8.675781 -5.460938 7.566406 -6.429688 6.390625 -7.140625 C 5.679688 -6.867188 5.109375 -6.5 4.671875 -6.03125 C 4.242188 -5.570312 4.03125 -5.046875 4.03125 -4.453125 Z M 6.5 -13.625 C 5.5625 -13.625 5.09375 -13.148438 5.09375 -12.203125 C 5.09375 -11.335938 5.5625 -10.664062 6.5 -10.1875 C 7.457031 -10.664062 7.9375 -11.34375 7.9375 -12.21875 C 7.9375 -12.625 7.816406 -12.957031 7.578125 -13.21875 C 7.347656 -13.488281 6.988281 -13.625 6.5 -13.625 Z M 6.5 -13.625 "/></g></g></g><g fill="#ffffff" fill-opacity="1"><g transform="translate(406.669939, 398.519989)"><g/></g></g><g fill="#ffffff" fill-opacity="1"><g transform="translate(412.111921, 398.519989)"><g><path d="M 11.359375 -3.671875 L 7.78125 -3.671875 L 5.328125 -11.953125 L 5.1875 -11.953125 L 5.328125 0 L 1.796875 0 L 2.328125 -15.9375 L 6.890625 -15.9375 L 9.484375 -7.03125 L 9.609375 -7.03125 L 12.171875 -15.9375 L 16.703125 -15.9375 L 17.328125 0 L 13.78125 0 L 13.875 -11.953125 L 13.734375 -11.953125 Z M 11.359375 -3.671875 "/></g></g></g><g fill="#ffffff" fill-opacity="1"><g transform="translate(431.226844, 398.519989)"><g><path d="M 7.25 0.296875 C 3.144531 0.296875 1.09375 -2.019531 1.09375 -6.65625 C 1.09375 -11.300781 3.128906 -13.625 7.203125 -13.625 C 9.035156 -13.625 10.410156 -13.132812 11.328125 -12.15625 C 12.253906 -11.1875 12.71875 -9.578125 12.71875 -7.328125 L 12.71875 -5.4375 L 4.734375 -5.4375 C 4.734375 -4.164062 4.96875 -3.328125 5.4375 -2.921875 C 5.757812 -2.640625 6.207031 -2.5 6.78125 -2.5 C 7.832031 -2.5 9.175781 -2.738281 10.8125 -3.21875 L 11.609375 -3.46875 L 12.46875 -0.921875 C 11.789062 -0.609375 10.941406 -0.328125 9.921875 -0.078125 C 8.910156 0.171875 8.019531 0.296875 7.25 0.296875 Z M 8.734375 -10.359375 C 8.460938 -10.691406 7.914062 -10.859375 7.09375 -10.859375 C 6.28125 -10.859375 5.695312 -10.660156 5.34375 -10.265625 C 5 -9.878906 4.804688 -9.117188 4.765625 -7.984375 L 9.140625 -8.078125 C 9.109375 -9.265625 8.972656 -10.023438 8.734375 -10.359375 Z M 8.734375 -10.359375 "/></g></g></g><g fill="#ffffff" fill-opacity="1"><g transform="translate(444.922469, 398.519989)"><g><path d="M 5.3125 0 L 1.796875 0 L 1.796875 -13.328125 L 4.03125 -13.328125 L 4.4375 -12 L 4.578125 -12 C 5.140625 -12.332031 5.578125 -12.582031 5.890625 -12.75 C 6.210938 -12.925781 6.695312 -13.125 7.34375 -13.34375 C 8 -13.5625 8.613281 -13.671875 9.1875 -13.671875 C 10.5625 -13.671875 11.535156 -13.097656 12.109375 -11.953125 C 12.648438 -12.296875 13.09375 -12.566406 13.4375 -12.765625 C 13.789062 -12.960938 14.269531 -13.160156 14.875 -13.359375 C 15.476562 -13.566406 16.0625 -13.671875 16.625 -13.671875 C 17.914062 -13.671875 18.828125 -13.234375 19.359375 -12.359375 C 19.898438 -11.492188 20.171875 -10.285156 20.171875 -8.734375 L 20.171875 0 L 16.625 0 L 16.625 -8.109375 C 16.625 -9.273438 16.519531 -9.984375 16.3125 -10.234375 C 16.101562 -10.484375 15.78125 -10.609375 15.34375 -10.609375 C 14.519531 -10.609375 13.628906 -10.285156 12.671875 -9.640625 C 12.703125 -9.148438 12.71875 -8.769531 12.71875 -8.5 L 12.71875 0 L 9.203125 0 L 9.203125 -8.109375 C 9.203125 -9.296875 9.101562 -10.007812 8.90625 -10.25 C 8.707031 -10.488281 8.40625 -10.609375 8 -10.609375 C 7.59375 -10.609375 7.128906 -10.515625 6.609375 -10.328125 C 6.097656 -10.140625 5.664062 -9.914062 5.3125 -9.65625 Z M 5.3125 0 "/></g></g></g><g fill="#ffffff" fill-opacity="1"><g transform="translate(466.599658, 398.519989)"><g><path d="M 2.4375 -11.84375 C 3.332031 -13.03125 4.835938 -13.625 6.953125 -13.625 C 9.078125 -13.625 10.578125 -13.035156 11.453125 -11.859375 C 12.335938 -10.679688 12.78125 -8.945312 12.78125 -6.65625 C 12.78125 -4.375 12.335938 -2.644531 11.453125 -1.46875 C 10.578125 -0.289062 9.078125 0.296875 6.953125 0.296875 C 4.835938 0.296875 3.332031 -0.296875 2.4375 -1.484375 C 1.539062 -2.671875 1.09375 -4.394531 1.09375 -6.65625 C 1.09375 -8.925781 1.539062 -10.65625 2.4375 -11.84375 Z M 9.203125 -6.65625 C 9.203125 -8.382812 9.046875 -9.53125 8.734375 -10.09375 C 8.429688 -10.664062 7.835938 -10.953125 6.953125 -10.953125 C 6.066406 -10.953125 5.460938 -10.664062 5.140625 -10.09375 C 4.828125 -9.519531 4.671875 -8.378906 4.671875 -6.671875 C 4.671875 -4.960938 4.828125 -3.816406 5.140625 -3.234375 C 5.460938 -2.660156 6.066406 -2.375 6.953125 -2.375 C 7.835938 -2.375 8.429688 -2.65625 8.734375 -3.21875 C 9.046875 -3.789062 9.203125 -4.9375 9.203125 -6.65625 Z M 10.015625 -18.5 L 10.71875 -15.96875 L 3.875 -14.640625 L 3.375 -16.53125 Z M 10.015625 -18.5 "/></g></g></g><g fill="#ffffff" fill-opacity="1"><g transform="translate(480.476688, 398.519989)"><g><path d="M 5.15625 -12.390625 C 5.40625 -12.578125 5.847656 -12.828125 6.484375 -13.140625 C 7.128906 -13.460938 7.734375 -13.625 8.296875 -13.625 C 8.867188 -13.625 9.320312 -13.539062 9.65625 -13.375 L 9.390625 -10.34375 C 8.960938 -10.382812 8.546875 -10.40625 8.140625 -10.40625 C 7.128906 -10.40625 6.1875 -10.132812 5.3125 -9.59375 L 5.3125 0 L 1.796875 0 L 1.796875 -13.328125 L 3.96875 -13.328125 L 4.421875 -11.921875 L 4.5625 -11.921875 C 4.707031 -12.046875 4.90625 -12.203125 5.15625 -12.390625 Z M 5.15625 -12.390625 "/></g></g></g><g fill="#ffffff" fill-opacity="1"><g transform="translate(490.226885, 398.519989)"><g><path d="M 5.421875 0 L 1.90625 0 L 1.90625 -13.328125 L 5.421875 -13.328125 Z M 5.640625 -14.890625 L 1.671875 -14.890625 L 1.671875 -17.25 L 5.640625 -17.25 Z M 5.640625 -14.890625 "/></g></g></g><g fill="#ffffff" fill-opacity="1"><g transform="translate(497.550864, 398.519989)"><g><path d="M 5.03125 0.296875 C 3.914062 0.296875 2.988281 -0.0859375 2.25 -0.859375 C 1.519531 -1.628906 1.15625 -2.75 1.15625 -4.21875 C 1.15625 -5.6875 1.671875 -6.75 2.703125 -7.40625 C 3.742188 -8.070312 5.253906 -8.40625 7.234375 -8.40625 L 8.9375 -8.40625 C 8.9375 -9.425781 8.835938 -10.082031 8.640625 -10.375 C 8.441406 -10.664062 8 -10.8125 7.3125 -10.8125 C 6.625 -10.8125 5.859375 -10.734375 5.015625 -10.578125 C 4.179688 -10.429688 3.25 -10.207031 2.21875 -9.90625 L 1.5 -12.453125 C 2.113281 -12.734375 3 -13 4.15625 -13.25 C 5.3125 -13.5 6.34375 -13.625 7.25 -13.625 C 9.113281 -13.625 10.445312 -13.195312 11.25 -12.34375 C 12.050781 -11.488281 12.453125 -10.242188 12.453125 -8.609375 L 12.453125 0 L 10.21875 0 L 9.765625 -1.46875 L 9.640625 -1.46875 C 9.453125 -1.332031 9.210938 -1.164062 8.921875 -0.96875 C 8.628906 -0.78125 8.070312 -0.519531 7.25 -0.1875 C 6.4375 0.132812 5.695312 0.296875 5.03125 0.296875 Z M 8.9375 -5.796875 C 8.40625 -5.878906 7.695312 -5.921875 6.8125 -5.921875 C 5.925781 -5.921875 5.359375 -5.804688 5.109375 -5.578125 C 4.859375 -5.347656 4.734375 -4.914062 4.734375 -4.28125 C 4.734375 -3.644531 4.832031 -3.203125 5.03125 -2.953125 C 5.238281 -2.703125 5.554688 -2.578125 5.984375 -2.578125 C 6.773438 -2.578125 7.609375 -2.789062 8.484375 -3.21875 L 8.9375 -3.453125 Z M 8.9375 -5.796875 "/></g></g></g><g fill="#ffffff" fill-opacity="1"><g transform="translate(511.654638, 398.519989)"><g><path d="M 5.875 -10.8125 C 5.300781 -10.8125 4.925781 -10.738281 4.75 -10.59375 C 4.570312 -10.457031 4.484375 -10.242188 4.484375 -9.953125 C 4.484375 -9.660156 4.613281 -9.40625 4.875 -9.1875 C 5.132812 -8.96875 5.390625 -8.804688 5.640625 -8.703125 C 5.898438 -8.609375 6.195312 -8.515625 6.53125 -8.421875 C 6.875 -8.328125 7.378906 -8.179688 8.046875 -7.984375 C 8.722656 -7.785156 9.257812 -7.582031 9.65625 -7.375 C 10.820312 -6.71875 11.40625 -5.675781 11.40625 -4.25 C 11.40625 -2.820312 10.96875 -1.707031 10.09375 -0.90625 C 9.21875 -0.101562 7.984375 0.296875 6.390625 0.296875 C 5.554688 0.296875 4.6875 0.1875 3.78125 -0.03125 C 2.875 -0.25 2.171875 -0.46875 1.671875 -0.6875 L 0.953125 -1.015625 L 1.8125 -3.78125 C 3.726562 -2.96875 5.300781 -2.5625 6.53125 -2.5625 C 7 -2.5625 7.34375 -2.644531 7.5625 -2.8125 C 7.789062 -2.976562 7.90625 -3.28125 7.90625 -3.71875 C 7.90625 -3.988281 7.859375 -4.179688 7.765625 -4.296875 C 7.679688 -4.421875 7.609375 -4.515625 7.546875 -4.578125 C 7.484375 -4.648438 7.390625 -4.71875 7.265625 -4.78125 C 7.148438 -4.851562 7.050781 -4.910156 6.96875 -4.953125 C 6.882812 -4.992188 6.757812 -5.039062 6.59375 -5.09375 C 6.425781 -5.15625 6.296875 -5.203125 6.203125 -5.234375 C 6.117188 -5.265625 5.96875 -5.3125 5.75 -5.375 C 5.539062 -5.4375 5.300781 -5.507812 5.03125 -5.59375 C 4.769531 -5.675781 4.570312 -5.738281 4.4375 -5.78125 C 4.300781 -5.820312 4.03125 -5.914062 3.625 -6.0625 C 3.226562 -6.21875 2.953125 -6.351562 2.796875 -6.46875 C 2.640625 -6.582031 2.421875 -6.75 2.140625 -6.96875 C 1.859375 -7.1875 1.660156 -7.414062 1.546875 -7.65625 C 1.222656 -8.320312 1.0625 -8.988281 1.0625 -9.65625 C 1.0625 -10.894531 1.476562 -11.863281 2.3125 -12.5625 C 3.144531 -13.269531 4.390625 -13.625 6.046875 -13.625 C 7.703125 -13.625 9.300781 -13.367188 10.84375 -12.859375 L 10.3125 -10.140625 C 8.570312 -10.585938 7.09375 -10.8125 5.875 -10.8125 Z M 5.875 -10.8125 "/></g></g></g><g fill="#ffffff" fill-opacity="1"><g transform="translate(523.834585, 398.519989)"><g/></g></g><g fill="#ffffff" fill-opacity="1"><g transform="translate(322.857562, 417.668376)"><g><path d="M 4.609375 0.1875 C 3.453125 0.1875 2.546875 -0.210938 1.890625 -1.015625 C 1.234375 -1.828125 0.90625 -3.113281 0.90625 -4.875 C 0.90625 -7.28125 1.441406 -8.835938 2.515625 -9.546875 C 2.847656 -9.773438 3.195312 -9.929688 3.5625 -10.015625 C 3.9375 -10.097656 4.488281 -10.140625 5.21875 -10.140625 C 5.945312 -10.140625 6.703125 -10.046875 7.484375 -9.859375 L 7.296875 -8.46875 C 6.398438 -8.59375 5.570312 -8.65625 4.8125 -8.65625 C 4.0625 -8.65625 3.582031 -8.550781 3.375 -8.34375 C 2.90625 -7.851562 2.671875 -6.679688 2.671875 -4.828125 C 2.671875 -3.960938 2.75 -3.242188 2.90625 -2.671875 C 3.070312 -2.097656 3.265625 -1.710938 3.484375 -1.515625 C 3.710938 -1.316406 4.039062 -1.21875 4.46875 -1.21875 C 4.90625 -1.21875 5.363281 -1.285156 5.84375 -1.421875 C 6.320312 -1.554688 6.832031 -1.753906 7.375 -2.015625 L 7.890625 -0.734375 C 7.785156 -0.671875 7.640625 -0.585938 7.453125 -0.484375 C 7.273438 -0.378906 6.898438 -0.238281 6.328125 -0.0625 C 5.753906 0.101562 5.179688 0.1875 4.609375 0.1875 Z M 4.609375 0.1875 "/></g></g></g><g fill="#ffffff" fill-opacity="1"><g transform="translate(331.466649, 417.668376)"><g><path d="M 3.078125 0.1875 C 2.347656 0.1875 1.757812 -0.0390625 1.3125 -0.5 C 0.875 -0.96875 0.65625 -1.660156 0.65625 -2.578125 C 0.65625 -3.492188 0.953125 -4.160156 1.546875 -4.578125 C 2.140625 -4.992188 3 -5.203125 4.125 -5.203125 L 5.484375 -5.1875 C 5.484375 -6.101562 5.410156 -6.660156 5.265625 -6.859375 C 5.117188 -7.054688 4.832031 -7.15625 4.40625 -7.15625 C 3.976562 -7.15625 3.5 -7.101562 2.96875 -7 C 2.445312 -6.894531 1.890625 -6.734375 1.296875 -6.515625 L 0.859375 -7.71875 C 0.984375 -7.78125 1.15625 -7.851562 1.375 -7.9375 C 1.601562 -8.03125 2.019531 -8.148438 2.625 -8.296875 C 3.238281 -8.441406 3.796875 -8.515625 4.296875 -8.515625 C 6.191406 -8.515625 7.140625 -7.488281 7.140625 -5.4375 L 7.140625 0 L 6.078125 0 L 5.859375 -0.890625 L 5.78125 -0.890625 C 5.675781 -0.804688 5.535156 -0.703125 5.359375 -0.578125 C 5.179688 -0.460938 4.851562 -0.304688 4.375 -0.109375 C 3.894531 0.0859375 3.460938 0.1875 3.078125 0.1875 Z M 5.484375 -3.84375 C 5.097656 -3.90625 4.570312 -3.9375 3.90625 -3.9375 C 3.238281 -3.9375 2.828125 -3.851562 2.671875 -3.6875 C 2.453125 -3.5 2.34375 -3.132812 2.34375 -2.59375 C 2.34375 -2.0625 2.410156 -1.695312 2.546875 -1.5 C 2.691406 -1.3125 2.914062 -1.21875 3.21875 -1.21875 C 3.53125 -1.21875 3.875 -1.269531 4.25 -1.375 C 4.625 -1.476562 5.035156 -1.640625 5.484375 -1.859375 Z M 2.140625 -9.21875 L 1.671875 -9.9375 L 3.75 -11.453125 L 4.609375 -11.453125 L 6.71875 -9.9375 L 6.21875 -9.21875 L 4.234375 -10.203125 L 4.125 -10.203125 Z M 2.140625 -9.21875 "/></g></g></g><g fill="#ffffff" fill-opacity="1"><g transform="translate(339.847687, 417.668376)"><g><path d="M 1.328125 0 L 1.328125 -8.34375 L 2.40625 -8.34375 L 2.59375 -7.515625 L 2.671875 -7.515625 C 3.816406 -8.191406 4.796875 -8.53125 5.609375 -8.53125 C 6.429688 -8.53125 6.992188 -8.171875 7.296875 -7.453125 C 7.671875 -7.679688 7.960938 -7.851562 8.171875 -7.96875 C 8.378906 -8.09375 8.675781 -8.21875 9.0625 -8.34375 C 9.445312 -8.46875 9.816406 -8.53125 10.171875 -8.53125 C 10.941406 -8.53125 11.484375 -8.265625 11.796875 -7.734375 C 12.109375 -7.210938 12.265625 -6.457031 12.265625 -5.46875 L 12.265625 0 L 10.609375 0 L 10.609375 -5.078125 C 10.609375 -5.859375 10.550781 -6.378906 10.4375 -6.640625 C 10.332031 -6.910156 10.09375 -7.046875 9.71875 -7.046875 C 9.34375 -7.046875 8.945312 -6.960938 8.53125 -6.796875 C 8.125 -6.640625 7.800781 -6.484375 7.5625 -6.328125 C 7.601562 -5.941406 7.625 -5.644531 7.625 -5.4375 L 7.625 0 L 5.96875 0 L 5.96875 -5.09375 C 5.96875 -6.15625 5.84375 -6.765625 5.59375 -6.921875 C 5.476562 -7.003906 5.304688 -7.046875 5.078125 -7.046875 C 4.484375 -7.046875 3.785156 -6.820312 2.984375 -6.375 L 2.984375 0 Z M 1.328125 0 "/></g></g></g><g fill="#ffffff" fill-opacity="1"><g transform="translate(353.260193, 417.668376)"><g><path d="M 1.171875 2.359375 L 1.171875 -8.34375 L 2.25 -8.34375 L 2.453125 -7.484375 L 2.515625 -7.484375 C 2.535156 -7.492188 2.617188 -7.550781 2.765625 -7.65625 C 2.921875 -7.757812 3.035156 -7.835938 3.109375 -7.890625 C 3.191406 -7.941406 3.320312 -8.015625 3.5 -8.109375 C 3.675781 -8.203125 3.832031 -8.273438 3.96875 -8.328125 C 4.375 -8.453125 4.742188 -8.515625 5.078125 -8.515625 C 5.898438 -8.515625 6.546875 -8.171875 7.015625 -7.484375 C 7.492188 -6.796875 7.734375 -5.738281 7.734375 -4.3125 C 7.734375 -1.3125 6.648438 0.1875 4.484375 0.1875 C 4.078125 0.1875 3.523438 0.128906 2.828125 0.015625 L 2.828125 2.359375 Z M 2.828125 -1.453125 C 3.472656 -1.285156 4.019531 -1.203125 4.46875 -1.203125 C 4.925781 -1.203125 5.242188 -1.265625 5.421875 -1.390625 C 5.828125 -1.703125 6.03125 -2.722656 6.03125 -4.453125 C 6.03125 -5.097656 6.007812 -5.597656 5.96875 -5.953125 C 5.9375 -6.316406 5.863281 -6.578125 5.75 -6.734375 C 5.644531 -6.898438 5.539062 -6.992188 5.4375 -7.015625 C 5.34375 -7.046875 5.164062 -7.0625 4.90625 -7.0625 C 4.644531 -7.0625 4.335938 -7.003906 3.984375 -6.890625 C 3.628906 -6.773438 3.242188 -6.609375 2.828125 -6.390625 Z M 2.828125 -1.453125 "/></g></g></g><g fill="#ffffff" fill-opacity="1"><g transform="translate(361.883534, 417.668376)"><g><path d="M 1.140625 -2.828125 L 1.140625 -8.34375 L 2.796875 -8.34375 L 2.796875 -3.15625 C 2.796875 -2.25 2.859375 -1.707031 2.984375 -1.53125 C 3.109375 -1.363281 3.347656 -1.28125 3.703125 -1.28125 C 4.273438 -1.28125 4.988281 -1.507812 5.84375 -1.96875 L 5.84375 -8.34375 L 7.5 -8.34375 L 7.5 0 L 6.40625 0 L 6.21875 -0.828125 L 6.140625 -0.828125 C 6.128906 -0.816406 6.019531 -0.753906 5.8125 -0.640625 C 5.613281 -0.523438 5.472656 -0.445312 5.390625 -0.40625 C 5.304688 -0.375 5.160156 -0.304688 4.953125 -0.203125 C 4.742188 -0.109375 4.570312 -0.0390625 4.4375 0 C 4.03125 0.125 3.664062 0.1875 3.34375 0.1875 C 1.875 0.1875 1.140625 -0.816406 1.140625 -2.828125 Z M 1.140625 -2.828125 "/></g></g></g><g fill="#ffffff" fill-opacity="1"><g transform="translate(370.706426, 417.668376)"><g><path d="M 3.84375 -1.1875 C 4.21875 -1.1875 4.5 -1.269531 4.6875 -1.4375 C 4.875 -1.613281 4.96875 -1.890625 4.96875 -2.265625 C 4.96875 -2.640625 4.84375 -2.910156 4.59375 -3.078125 C 4.351562 -3.242188 4.066406 -3.378906 3.734375 -3.484375 C 3.398438 -3.585938 3.210938 -3.644531 3.171875 -3.65625 C 3.140625 -3.664062 3.03125 -3.695312 2.84375 -3.75 C 2.664062 -3.8125 2.492188 -3.867188 2.328125 -3.921875 C 2.171875 -3.984375 1.96875 -4.082031 1.71875 -4.21875 C 1.46875 -4.351562 1.285156 -4.492188 1.171875 -4.640625 C 0.859375 -5.023438 0.703125 -5.503906 0.703125 -6.078125 C 0.703125 -6.828125 0.941406 -7.421875 1.421875 -7.859375 C 1.898438 -8.296875 2.597656 -8.515625 3.515625 -8.515625 C 4.429688 -8.515625 5.332031 -8.363281 6.21875 -8.0625 L 5.953125 -6.75 C 4.960938 -6.988281 4.171875 -7.109375 3.578125 -7.109375 C 2.984375 -7.109375 2.617188 -7.03125 2.484375 -6.875 C 2.347656 -6.71875 2.28125 -6.492188 2.28125 -6.203125 C 2.28125 -5.921875 2.414062 -5.691406 2.6875 -5.515625 C 2.957031 -5.347656 3.34375 -5.1875 3.84375 -5.03125 C 4.34375 -4.882812 4.644531 -4.796875 4.75 -4.765625 C 4.851562 -4.734375 5.015625 -4.675781 5.234375 -4.59375 C 5.453125 -4.507812 5.601562 -4.4375 5.6875 -4.375 C 5.78125 -4.3125 5.894531 -4.21875 6.03125 -4.09375 C 6.175781 -3.976562 6.285156 -3.847656 6.359375 -3.703125 C 6.503906 -3.359375 6.578125 -2.976562 6.578125 -2.5625 C 6.578125 -1.726562 6.328125 -1.0625 5.828125 -0.5625 C 5.335938 -0.0625 4.632812 0.1875 3.71875 0.1875 C 3.257812 0.1875 2.773438 0.125 2.265625 0 C 1.765625 -0.125 1.234375 -0.3125 0.671875 -0.5625 L 1.0625 -1.890625 C 2.175781 -1.421875 3.101562 -1.1875 3.84375 -1.1875 Z M 3.84375 -1.1875 "/></g></g></g><g fill="#ffffff" fill-opacity="1"><g transform="translate(378.004197, 417.668376)"><g/></g></g><g fill="#ffffff" fill-opacity="1"><g transform="translate(381.35376, 417.668376)"><g><path d="M 4.03125 -1.3125 C 4.863281 -1.3125 5.28125 -1.765625 5.28125 -2.671875 C 5.28125 -3.066406 5.125 -3.394531 4.8125 -3.65625 C 4.5 -3.925781 4.0625 -4.1875 3.5 -4.4375 C 2.945312 -4.6875 2.628906 -4.832031 2.546875 -4.875 C 2.472656 -4.914062 2.332031 -4.992188 2.125 -5.109375 C 1.914062 -5.222656 1.769531 -5.316406 1.6875 -5.390625 C 1.601562 -5.472656 1.488281 -5.585938 1.34375 -5.734375 C 1.195312 -5.878906 1.097656 -6.03125 1.046875 -6.1875 C 0.878906 -6.59375 0.796875 -6.988281 0.796875 -7.375 C 0.796875 -8.1875 1.070312 -8.847656 1.625 -9.359375 C 2.1875 -9.878906 2.976562 -10.140625 4 -10.140625 C 4.75 -10.140625 5.492188 -10.035156 6.234375 -9.828125 L 6.609375 -9.734375 L 6.34375 -8.34375 C 5.300781 -8.539062 4.507812 -8.640625 3.96875 -8.640625 C 3.425781 -8.640625 3.046875 -8.550781 2.828125 -8.375 C 2.617188 -8.195312 2.515625 -7.914062 2.515625 -7.53125 C 2.515625 -7.144531 2.644531 -6.84375 2.90625 -6.625 C 3.175781 -6.414062 3.484375 -6.226562 3.828125 -6.0625 C 4.171875 -5.894531 4.445312 -5.765625 4.65625 -5.671875 C 4.875 -5.578125 5.035156 -5.503906 5.140625 -5.453125 C 5.253906 -5.398438 5.40625 -5.316406 5.59375 -5.203125 C 5.789062 -5.097656 5.941406 -5 6.046875 -4.90625 C 6.148438 -4.820312 6.269531 -4.703125 6.40625 -4.546875 C 6.550781 -4.398438 6.65625 -4.253906 6.71875 -4.109375 C 6.90625 -3.734375 7 -3.332031 7 -2.90625 C 7 -1.988281 6.695312 -1.242188 6.09375 -0.671875 C 5.5 -0.0976562 4.71875 0.1875 3.75 0.1875 C 3.25 0.1875 2.726562 0.113281 2.1875 -0.03125 C 1.65625 -0.175781 1.25 -0.316406 0.96875 -0.453125 L 0.53125 -0.6875 C 0.613281 -0.9375 0.679688 -1.140625 0.734375 -1.296875 C 0.796875 -1.453125 0.84375 -1.582031 0.875 -1.6875 C 0.914062 -1.800781 0.960938 -1.921875 1.015625 -2.046875 C 2.109375 -1.554688 3.113281 -1.3125 4.03125 -1.3125 Z M 4.03125 -1.3125 "/></g></g></g><g fill="#ffffff" fill-opacity="1"><g transform="translate(389.079133, 417.668376)"><g><path d="M 3.078125 0.1875 C 2.347656 0.1875 1.757812 -0.0390625 1.3125 -0.5 C 0.875 -0.96875 0.65625 -1.660156 0.65625 -2.578125 C 0.65625 -3.492188 0.953125 -4.160156 1.546875 -4.578125 C 2.140625 -4.992188 3 -5.203125 4.125 -5.203125 L 5.484375 -5.1875 C 5.484375 -6.101562 5.410156 -6.660156 5.265625 -6.859375 C 5.117188 -7.054688 4.832031 -7.15625 4.40625 -7.15625 C 3.976562 -7.15625 3.5 -7.101562 2.96875 -7 C 2.445312 -6.894531 1.890625 -6.734375 1.296875 -6.515625 L 0.859375 -7.71875 C 0.984375 -7.78125 1.15625 -7.851562 1.375 -7.9375 C 1.601562 -8.03125 2.019531 -8.148438 2.625 -8.296875 C 3.238281 -8.441406 3.796875 -8.515625 4.296875 -8.515625 C 6.191406 -8.515625 7.140625 -7.488281 7.140625 -5.4375 L 7.140625 0 L 6.078125 0 L 5.859375 -0.890625 L 5.78125 -0.890625 C 5.675781 -0.804688 5.535156 -0.703125 5.359375 -0.578125 C 5.179688 -0.460938 4.851562 -0.304688 4.375 -0.109375 C 3.894531 0.0859375 3.460938 0.1875 3.078125 0.1875 Z M 5.484375 -3.84375 C 5.097656 -3.90625 4.570312 -3.9375 3.90625 -3.9375 C 3.238281 -3.9375 2.828125 -3.851562 2.671875 -3.6875 C 2.453125 -3.5 2.34375 -3.132812 2.34375 -2.59375 C 2.34375 -2.0625 2.410156 -1.695312 2.546875 -1.5 C 2.691406 -1.3125 2.914062 -1.21875 3.21875 -1.21875 C 3.53125 -1.21875 3.875 -1.269531 4.25 -1.375 C 4.625 -1.476562 5.035156 -1.640625 5.484375 -1.859375 Z M 2.71875 -11.203125 C 3.007812 -11.203125 3.535156 -11.097656 4.296875 -10.890625 C 5.054688 -10.691406 5.472656 -10.59375 5.546875 -10.59375 C 5.671875 -10.59375 5.804688 -10.789062 5.953125 -11.1875 L 6.859375 -11.0625 C 6.847656 -9.96875 6.457031 -9.421875 5.6875 -9.421875 C 5.40625 -9.421875 4.878906 -9.523438 4.109375 -9.734375 C 3.335938 -9.953125 2.914062 -10.0625 2.84375 -10.0625 C 2.71875 -10.0625 2.578125 -9.859375 2.421875 -9.453125 L 1.53125 -9.5625 C 1.53125 -10.65625 1.925781 -11.203125 2.71875 -11.203125 Z M 2.71875 -11.203125 "/></g></g></g><g fill="#ffffff" fill-opacity="1"><g transform="translate(397.460171, 417.668376)"><g><path d="M 7.640625 -4.15625 C 7.640625 -2.738281 7.378906 -1.660156 6.859375 -0.921875 C 6.347656 -0.179688 5.484375 0.1875 4.265625 0.1875 C 3.046875 0.1875 2.175781 -0.179688 1.65625 -0.921875 C 1.144531 -1.660156 0.890625 -2.738281 0.890625 -4.15625 C 0.890625 -5.582031 1.144531 -6.664062 1.65625 -7.40625 C 2.175781 -8.144531 3.046875 -8.515625 4.265625 -8.515625 C 5.484375 -8.515625 6.347656 -8.144531 6.859375 -7.40625 C 7.378906 -6.664062 7.640625 -5.582031 7.640625 -4.15625 Z M 2.9375 -1.71875 C 3.175781 -1.320312 3.625 -1.125 4.28125 -1.125 C 4.9375 -1.125 5.375 -1.320312 5.59375 -1.71875 C 5.820312 -2.113281 5.9375 -2.929688 5.9375 -4.171875 C 5.9375 -5.410156 5.820312 -6.222656 5.59375 -6.609375 C 5.375 -7.003906 4.9375 -7.203125 4.28125 -7.203125 C 3.625 -7.203125 3.175781 -7.003906 2.9375 -6.609375 C 2.707031 -6.222656 2.59375 -5.410156 2.59375 -4.171875 C 2.59375 -2.929688 2.707031 -2.113281 2.9375 -1.71875 Z M 2.9375 -1.71875 "/></g></g></g><g fill="#ffffff" fill-opacity="1"><g transform="translate(405.98374, 417.668376)"><g/></g></g><g fill="#ffffff" fill-opacity="1"><g transform="translate(409.333303, 417.668376)"><g><path d="M 1.375 -9.953125 C 2.71875 -10.078125 3.882812 -10.140625 4.875 -10.140625 C 5.863281 -10.140625 6.609375 -9.847656 7.109375 -9.265625 C 7.609375 -8.691406 7.859375 -7.84375 7.859375 -6.71875 C 7.859375 -5.351562 7.519531 -4.40625 6.84375 -3.875 C 6.25 -3.394531 5.507812 -3.15625 4.625 -3.15625 L 3.046875 -3.234375 L 3.046875 0 L 1.375 0 L 1.4375 -4.625 Z M 3.046875 -4.71875 C 3.597656 -4.625 4.171875 -4.578125 4.765625 -4.578125 C 5.367188 -4.578125 5.742188 -4.710938 5.890625 -4.984375 C 6.046875 -5.253906 6.125 -5.875 6.125 -6.84375 C 6.125 -7.820312 5.992188 -8.410156 5.734375 -8.609375 C 5.554688 -8.753906 5.179688 -8.828125 4.609375 -8.828125 C 4.046875 -8.828125 3.523438 -8.785156 3.046875 -8.703125 Z M 3.046875 -4.71875 "/></g></g></g><g fill="#ffffff" fill-opacity="1"><g transform="translate(417.942391, 417.668376)"><g><path d="M 3.078125 0.1875 C 2.347656 0.1875 1.757812 -0.0390625 1.3125 -0.5 C 0.875 -0.96875 0.65625 -1.660156 0.65625 -2.578125 C 0.65625 -3.492188 0.953125 -4.160156 1.546875 -4.578125 C 2.140625 -4.992188 3 -5.203125 4.125 -5.203125 L 5.484375 -5.1875 C 5.484375 -6.101562 5.410156 -6.660156 5.265625 -6.859375 C 5.117188 -7.054688 4.832031 -7.15625 4.40625 -7.15625 C 3.976562 -7.15625 3.5 -7.101562 2.96875 -7 C 2.445312 -6.894531 1.890625 -6.734375 1.296875 -6.515625 L 0.859375 -7.71875 C 0.984375 -7.78125 1.15625 -7.851562 1.375 -7.9375 C 1.601562 -8.03125 2.019531 -8.148438 2.625 -8.296875 C 3.238281 -8.441406 3.796875 -8.515625 4.296875 -8.515625 C 6.191406 -8.515625 7.140625 -7.488281 7.140625 -5.4375 L 7.140625 0 L 6.078125 0 L 5.859375 -0.890625 L 5.78125 -0.890625 C 5.675781 -0.804688 5.535156 -0.703125 5.359375 -0.578125 C 5.179688 -0.460938 4.851562 -0.304688 4.375 -0.109375 C 3.894531 0.0859375 3.460938 0.1875 3.078125 0.1875 Z M 5.484375 -3.84375 C 5.097656 -3.90625 4.570312 -3.9375 3.90625 -3.9375 C 3.238281 -3.9375 2.828125 -3.851562 2.671875 -3.6875 C 2.453125 -3.5 2.34375 -3.132812 2.34375 -2.59375 C 2.34375 -2.0625 2.410156 -1.695312 2.546875 -1.5 C 2.691406 -1.3125 2.914062 -1.21875 3.21875 -1.21875 C 3.53125 -1.21875 3.875 -1.269531 4.25 -1.375 C 4.625 -1.476562 5.035156 -1.640625 5.484375 -1.859375 Z M 5.484375 -3.84375 "/></g></g></g><g fill="#ffffff" fill-opacity="1"><g transform="translate(426.323429, 417.668376)"><g><path d="M 1.140625 -2.828125 L 1.140625 -8.34375 L 2.796875 -8.34375 L 2.796875 -3.15625 C 2.796875 -2.25 2.859375 -1.707031 2.984375 -1.53125 C 3.109375 -1.363281 3.347656 -1.28125 3.703125 -1.28125 C 4.273438 -1.28125 4.988281 -1.507812 5.84375 -1.96875 L 5.84375 -8.34375 L 7.5 -8.34375 L 7.5 0 L 6.40625 0 L 6.21875 -0.828125 L 6.140625 -0.828125 C 6.128906 -0.816406 6.019531 -0.753906 5.8125 -0.640625 C 5.613281 -0.523438 5.472656 -0.445312 5.390625 -0.40625 C 5.304688 -0.375 5.160156 -0.304688 4.953125 -0.203125 C 4.742188 -0.109375 4.570312 -0.0390625 4.4375 0 C 4.03125 0.125 3.664062 0.1875 3.34375 0.1875 C 1.875 0.1875 1.140625 -0.816406 1.140625 -2.828125 Z M 1.140625 -2.828125 "/></g></g></g><g fill="#ffffff" fill-opacity="1"><g transform="translate(435.146321, 417.668376)"><g><path d="M 1.171875 0 L 1.171875 -10.78125 L 2.828125 -10.78125 L 2.828125 0 Z M 1.171875 0 "/></g></g></g><g fill="#ffffff" fill-opacity="1"><g transform="translate(439.137289, 417.668376)"><g><path d="M 7.640625 -4.15625 C 7.640625 -2.738281 7.378906 -1.660156 6.859375 -0.921875 C 6.347656 -0.179688 5.484375 0.1875 4.265625 0.1875 C 3.046875 0.1875 2.175781 -0.179688 1.65625 -0.921875 C 1.144531 -1.660156 0.890625 -2.738281 0.890625 -4.15625 C 0.890625 -5.582031 1.144531 -6.664062 1.65625 -7.40625 C 2.175781 -8.144531 3.046875 -8.515625 4.265625 -8.515625 C 5.484375 -8.515625 6.347656 -8.144531 6.859375 -7.40625 C 7.378906 -6.664062 7.640625 -5.582031 7.640625 -4.15625 Z M 2.9375 -1.71875 C 3.175781 -1.320312 3.625 -1.125 4.28125 -1.125 C 4.9375 -1.125 5.375 -1.320312 5.59375 -1.71875 C 5.820312 -2.113281 5.9375 -2.929688 5.9375 -4.171875 C 5.9375 -5.410156 5.820312 -6.222656 5.59375 -6.609375 C 5.375 -7.003906 4.9375 -7.203125 4.28125 -7.203125 C 3.625 -7.203125 3.175781 -7.003906 2.9375 -6.609375 C 2.707031 -6.222656 2.59375 -5.410156 2.59375 -4.171875 C 2.59375 -2.929688 2.707031 -2.113281 2.9375 -1.71875 Z M 2.9375 -1.71875 "/></g></g></g><g fill="#ffffff" fill-opacity="1"><g transform="translate(447.660858, 417.668376)"><g/></g></g><g fill="#ffffff" fill-opacity="1"><g transform="translate(451.010428, 417.668376)"><g><path d="M 0.546875 -3.96875 L 0.546875 -5.359375 L 4 -5.359375 L 4 -3.96875 Z M 0.546875 -3.96875 "/></g></g></g><g fill="#ffffff" fill-opacity="1"><g transform="translate(455.557275, 417.668376)"><g/></g></g><g fill="#ffffff" fill-opacity="1"><g transform="translate(458.906831, 417.668376)"><g><path d="M 1.375 0.015625 L 1.4375 -4.578125 L 1.375 -9.953125 L 3.0625 -9.953125 L 3 -5.546875 L 3.0625 0.015625 Z M 1.375 0.015625 "/></g></g></g><g fill="#ffffff" fill-opacity="1"><g transform="translate(463.368159, 417.668376)"><g><path d="M 1.375 0 L 1.375 -9.953125 L 6.765625 -9.953125 L 6.765625 -8.46875 L 3.03125 -8.5 L 2.984375 -5.734375 L 6.3125 -5.734375 L 6.3125 -4.328125 L 2.984375 -4.328125 L 3.046875 0 Z M 1.375 0 "/></g></g></g><g fill="#ffffff" fill-opacity="1"><g transform="translate(470.794209, 417.668376)"><g><path d="M 4.03125 -1.3125 C 4.863281 -1.3125 5.28125 -1.765625 5.28125 -2.671875 C 5.28125 -3.066406 5.125 -3.394531 4.8125 -3.65625 C 4.5 -3.925781 4.0625 -4.1875 3.5 -4.4375 C 2.945312 -4.6875 2.628906 -4.832031 2.546875 -4.875 C 2.472656 -4.914062 2.332031 -4.992188 2.125 -5.109375 C 1.914062 -5.222656 1.769531 -5.316406 1.6875 -5.390625 C 1.601562 -5.472656 1.488281 -5.585938 1.34375 -5.734375 C 1.195312 -5.878906 1.097656 -6.03125 1.046875 -6.1875 C 0.878906 -6.59375 0.796875 -6.988281 0.796875 -7.375 C 0.796875 -8.1875 1.070312 -8.847656 1.625 -9.359375 C 2.1875 -9.878906 2.976562 -10.140625 4 -10.140625 C 4.75 -10.140625 5.492188 -10.035156 6.234375 -9.828125 L 6.609375 -9.734375 L 6.34375 -8.34375 C 5.300781 -8.539062 4.507812 -8.640625 3.96875 -8.640625 C 3.425781 -8.640625 3.046875 -8.550781 2.828125 -8.375 C 2.617188 -8.195312 2.515625 -7.914062 2.515625 -7.53125 C 2.515625 -7.144531 2.644531 -6.84375 2.90625 -6.625 C 3.175781 -6.414062 3.484375 -6.226562 3.828125 -6.0625 C 4.171875 -5.894531 4.445312 -5.765625 4.65625 -5.671875 C 4.875 -5.578125 5.035156 -5.503906 5.140625 -5.453125 C 5.253906 -5.398438 5.40625 -5.316406 5.59375 -5.203125 C 5.789062 -5.097656 5.941406 -5 6.046875 -4.90625 C 6.148438 -4.820312 6.269531 -4.703125 6.40625 -4.546875 C 6.550781 -4.398438 6.65625 -4.253906 6.71875 -4.109375 C 6.90625 -3.734375 7 -3.332031 7 -2.90625 C 7 -1.988281 6.695312 -1.242188 6.09375 -0.671875 C 5.5 -0.0976562 4.71875 0.1875 3.75 0.1875 C 3.25 0.1875 2.726562 0.113281 2.1875 -0.03125 C 1.65625 -0.175781 1.25 -0.316406 0.96875 -0.453125 L 0.53125 -0.6875 C 0.613281 -0.9375 0.679688 -1.140625 0.734375 -1.296875 C 0.796875 -1.453125 0.84375 -1.582031 0.875 -1.6875 C 0.914062 -1.800781 0.960938 -1.921875 1.015625 -2.046875 C 2.109375 -1.554688 3.113281 -1.3125 4.03125 -1.3125 Z M 4.03125 -1.3125 "/></g></g></g><g fill="#ffffff" fill-opacity="1"><g transform="translate(478.519588, 417.668376)"><g><path d="M 1.375 -9.953125 C 2.71875 -10.078125 3.882812 -10.140625 4.875 -10.140625 C 5.863281 -10.140625 6.609375 -9.847656 7.109375 -9.265625 C 7.609375 -8.691406 7.859375 -7.84375 7.859375 -6.71875 C 7.859375 -5.351562 7.519531 -4.40625 6.84375 -3.875 C 6.25 -3.394531 5.507812 -3.15625 4.625 -3.15625 L 3.046875 -3.234375 L 3.046875 0 L 1.375 0 L 1.4375 -4.625 Z M 3.046875 -4.71875 C 3.597656 -4.625 4.171875 -4.578125 4.765625 -4.578125 C 5.367188 -4.578125 5.742188 -4.710938 5.890625 -4.984375 C 6.046875 -5.253906 6.125 -5.875 6.125 -6.84375 C 6.125 -7.820312 5.992188 -8.410156 5.734375 -8.609375 C 5.554688 -8.753906 5.179688 -8.828125 4.609375 -8.828125 C 4.046875 -8.828125 3.523438 -8.785156 3.046875 -8.703125 Z M 3.046875 -4.71875 "/></g></g></g></svg>