<svg xmlns="http://www.w3.org/2000/svg" xmlns:xlink="http://www.w3.org/1999/xlink" width="1080" zoomAndPan="magnify" viewBox="0 0 810 809.999993" height="1080" preserveAspectRatio="xMidYMid meet" version="1.0"><defs><g/></defs><g fill="#ffffff" fill-opacity="1"><g transform="translate(237.415651, 412.89987)"><g><path d="M 2.671875 0 L 2.671875 -22.578125 L 7.703125 -22.578125 L 7.609375 -13.625 L 15.0625 -13.625 L 14.96875 -22.578125 L 20.015625 -22.578125 L 20.015625 0 L 14.96875 0 L 15.0625 -9.3125 L 7.609375 -9.3125 L 7.703125 0 Z M 2.671875 0 "/></g></g></g><g fill="#ffffff" fill-opacity="1"><g transform="translate(260.093168, 412.89987)"><g><path d="M 7.671875 0 L 2.703125 0 L 2.703125 -18.890625 L 7.671875 -18.890625 Z M 8 -21.109375 L 2.375 -21.109375 L 2.375 -24.453125 L 8 -24.453125 Z M 8 -21.109375 "/></g></g></g><g fill="#ffffff" fill-opacity="1"><g transform="translate(270.468286, 412.89987)"><g><path d="M 8.328125 -15.328125 C 7.503906 -15.328125 6.96875 -15.222656 6.71875 -15.015625 C 6.476562 -14.816406 6.359375 -14.515625 6.359375 -14.109375 C 6.359375 -13.703125 6.539062 -13.34375 6.90625 -13.03125 C 7.269531 -12.71875 7.632812 -12.488281 8 -12.34375 C 8.363281 -12.207031 8.785156 -12.066406 9.265625 -11.921875 C 9.742188 -11.785156 10.457031 -11.578125 11.40625 -11.296875 C 12.363281 -11.023438 13.125 -10.738281 13.6875 -10.4375 C 15.332031 -9.519531 16.15625 -8.046875 16.15625 -6.015625 C 16.15625 -3.992188 15.535156 -2.414062 14.296875 -1.28125 C 13.054688 -0.144531 11.3125 0.421875 9.0625 0.421875 C 7.882812 0.421875 6.648438 0.265625 5.359375 -0.046875 C 4.078125 -0.359375 3.082031 -0.664062 2.375 -0.96875 L 1.34375 -1.453125 L 2.5625 -5.359375 C 5.289062 -4.203125 7.519531 -3.625 9.25 -3.625 C 9.914062 -3.625 10.410156 -3.742188 10.734375 -3.984375 C 11.054688 -4.222656 11.21875 -4.648438 11.21875 -5.265625 C 11.21875 -5.648438 11.148438 -5.925781 11.015625 -6.09375 C 10.890625 -6.269531 10.78125 -6.40625 10.6875 -6.5 C 10.601562 -6.601562 10.476562 -6.703125 10.3125 -6.796875 C 10.144531 -6.890625 10 -6.960938 9.875 -7.015625 C 9.757812 -7.066406 9.582031 -7.132812 9.34375 -7.21875 C 9.113281 -7.3125 8.929688 -7.378906 8.796875 -7.421875 C 8.671875 -7.460938 8.457031 -7.523438 8.15625 -7.609375 C 7.851562 -7.691406 7.515625 -7.789062 7.140625 -7.90625 C 6.765625 -8.03125 6.476562 -8.125 6.28125 -8.1875 C 6.09375 -8.25 5.71875 -8.390625 5.15625 -8.609375 C 4.59375 -8.828125 4.195312 -9.015625 3.96875 -9.171875 C 3.738281 -9.328125 3.425781 -9.5625 3.03125 -9.875 C 2.632812 -10.1875 2.351562 -10.515625 2.1875 -10.859375 C 1.738281 -11.796875 1.515625 -12.738281 1.515625 -13.6875 C 1.515625 -15.4375 2.101562 -16.8125 3.28125 -17.8125 C 4.457031 -18.8125 6.21875 -19.3125 8.5625 -19.3125 C 10.90625 -19.3125 13.171875 -18.945312 15.359375 -18.21875 L 14.609375 -14.359375 C 12.148438 -15.003906 10.054688 -15.328125 8.328125 -15.328125 Z M 8.328125 -15.328125 "/></g></g></g><g fill="#ffffff" fill-opacity="1"><g transform="translate(287.717326, 412.89987)"><g><path d="M 7.96875 -17.953125 L 11.828125 -17.953125 L 11.828125 -14.140625 L 7.90625 -14.140625 L 7.90625 -6.203125 C 7.90625 -5.171875 8 -4.515625 8.1875 -4.234375 C 8.382812 -3.960938 8.75 -3.828125 9.28125 -3.828125 L 11.75 -3.984375 L 11.75 0.0625 C 10.707031 0.300781 9.550781 0.421875 8.28125 0.421875 C 6.425781 0.421875 5.066406 -0.0390625 4.203125 -0.96875 C 3.347656 -1.90625 2.921875 -3.691406 2.921875 -6.328125 L 2.921875 -14.234375 L 0.734375 -14.234375 L 0.734375 -17.34375 L 3.140625 -17.796875 L 3.890625 -22.265625 L 7.96875 -22.265625 Z M 7.96875 -17.953125 "/></g></g></g><g fill="#ffffff" fill-opacity="1"><g transform="translate(300.565775, 412.89987)"><g><path d="M 3.453125 -16.78125 C 4.722656 -18.46875 6.859375 -19.3125 9.859375 -19.3125 C 12.859375 -19.3125 14.984375 -18.472656 16.234375 -16.796875 C 17.492188 -15.128906 18.125 -12.675781 18.125 -9.4375 C 18.125 -6.207031 17.492188 -3.753906 16.234375 -2.078125 C 14.984375 -0.410156 12.859375 0.421875 9.859375 0.421875 C 6.859375 0.421875 4.722656 -0.414062 3.453125 -2.09375 C 2.179688 -3.78125 1.546875 -6.226562 1.546875 -9.4375 C 1.546875 -12.65625 2.179688 -15.101562 3.453125 -16.78125 Z M 13.046875 -9.4375 C 13.046875 -11.882812 12.820312 -13.507812 12.375 -14.3125 C 11.9375 -15.113281 11.09375 -15.515625 9.84375 -15.515625 C 8.59375 -15.515625 7.742188 -15.109375 7.296875 -14.296875 C 6.847656 -13.484375 6.625 -11.863281 6.625 -9.4375 C 6.625 -7.019531 6.847656 -5.40625 7.296875 -4.59375 C 7.742188 -3.78125 8.59375 -3.375 9.84375 -3.375 C 11.09375 -3.375 11.9375 -3.773438 12.375 -4.578125 C 12.820312 -5.378906 13.046875 -7 13.046875 -9.4375 Z M 14.203125 -26.21875 L 15.1875 -22.609375 L 5.5 -20.75 L 4.78125 -23.421875 Z M 14.203125 -26.21875 "/></g></g></g><g fill="#ffffff" fill-opacity="1"><g transform="translate(320.2239, 412.89987)"><g><path d="M 7.3125 -17.546875 C 7.664062 -17.816406 8.296875 -18.175781 9.203125 -18.625 C 10.109375 -19.082031 10.960938 -19.3125 11.765625 -19.3125 C 12.578125 -19.3125 13.21875 -19.191406 13.6875 -18.953125 L 13.296875 -14.65625 C 12.703125 -14.71875 12.113281 -14.75 11.53125 -14.75 C 10.09375 -14.75 8.753906 -14.363281 7.515625 -13.59375 L 7.515625 0 L 2.53125 0 L 2.53125 -18.890625 L 5.625 -18.890625 L 6.265625 -16.890625 L 6.453125 -16.890625 C 6.671875 -17.066406 6.957031 -17.285156 7.3125 -17.546875 Z M 7.3125 -17.546875 "/></g></g></g><g fill="#ffffff" fill-opacity="1"><g transform="translate(334.035979, 412.89987)"><g><path d="M 7.671875 0 L 2.703125 0 L 2.703125 -18.890625 L 7.671875 -18.890625 Z M 8 -21.109375 L 2.375 -21.109375 L 2.375 -24.453125 L 8 -24.453125 Z M 8 -21.109375 "/></g></g></g><g fill="#ffffff" fill-opacity="1"><g transform="translate(344.411096, 412.89987)"><g><path d="M 7.125 0.421875 C 5.539062 0.421875 4.226562 -0.125 3.1875 -1.21875 C 2.15625 -2.3125 1.640625 -3.894531 1.640625 -5.96875 C 1.640625 -8.050781 2.375 -9.5625 3.84375 -10.5 C 5.3125 -11.445312 7.445312 -11.921875 10.25 -11.921875 L 12.65625 -11.921875 C 12.65625 -13.359375 12.515625 -14.285156 12.234375 -14.703125 C 11.960938 -15.117188 11.335938 -15.328125 10.359375 -15.328125 C 9.390625 -15.328125 8.304688 -15.21875 7.109375 -15 C 5.921875 -14.789062 4.597656 -14.46875 3.140625 -14.03125 L 2.125 -17.640625 C 3 -18.046875 4.253906 -18.425781 5.890625 -18.78125 C 7.535156 -19.132812 9 -19.3125 10.28125 -19.3125 C 12.914062 -19.3125 14.800781 -18.703125 15.9375 -17.484375 C 17.070312 -16.273438 17.640625 -14.515625 17.640625 -12.203125 L 17.640625 0 L 14.484375 0 L 13.84375 -2.09375 L 13.65625 -2.09375 C 13.394531 -1.894531 13.054688 -1.65625 12.640625 -1.375 C 12.222656 -1.101562 11.4375 -0.734375 10.28125 -0.265625 C 9.125 0.191406 8.070312 0.421875 7.125 0.421875 Z M 12.65625 -8.21875 C 11.90625 -8.332031 10.90625 -8.390625 9.65625 -8.390625 C 8.40625 -8.390625 7.601562 -8.226562 7.25 -7.90625 C 6.894531 -7.582031 6.71875 -6.96875 6.71875 -6.0625 C 6.71875 -5.164062 6.859375 -4.539062 7.140625 -4.1875 C 7.429688 -3.832031 7.878906 -3.65625 8.484375 -3.65625 C 9.597656 -3.65625 10.773438 -3.957031 12.015625 -4.5625 L 12.65625 -4.890625 Z M 12.65625 -8.21875 "/></g></g></g><g fill="#ffffff" fill-opacity="1"><g transform="translate(364.390431, 412.89987)"><g><path d="M 8.328125 -15.328125 C 7.503906 -15.328125 6.96875 -15.222656 6.71875 -15.015625 C 6.476562 -14.816406 6.359375 -14.515625 6.359375 -14.109375 C 6.359375 -13.703125 6.539062 -13.34375 6.90625 -13.03125 C 7.269531 -12.71875 7.632812 -12.488281 8 -12.34375 C 8.363281 -12.207031 8.785156 -12.066406 9.265625 -11.921875 C 9.742188 -11.785156 10.457031 -11.578125 11.40625 -11.296875 C 12.363281 -11.023438 13.125 -10.738281 13.6875 -10.4375 C 15.332031 -9.519531 16.15625 -8.046875 16.15625 -6.015625 C 16.15625 -3.992188 15.535156 -2.414062 14.296875 -1.28125 C 13.054688 -0.144531 11.3125 0.421875 9.0625 0.421875 C 7.882812 0.421875 6.648438 0.265625 5.359375 -0.046875 C 4.078125 -0.359375 3.082031 -0.664062 2.375 -0.96875 L 1.34375 -1.453125 L 2.5625 -5.359375 C 5.289062 -4.203125 7.519531 -3.625 9.25 -3.625 C 9.914062 -3.625 10.410156 -3.742188 10.734375 -3.984375 C 11.054688 -4.222656 11.21875 -4.648438 11.21875 -5.265625 C 11.21875 -5.648438 11.148438 -5.925781 11.015625 -6.09375 C 10.890625 -6.269531 10.78125 -6.40625 10.6875 -6.5 C 10.601562 -6.601562 10.476562 -6.703125 10.3125 -6.796875 C 10.144531 -6.890625 10 -6.960938 9.875 -7.015625 C 9.757812 -7.066406 9.582031 -7.132812 9.34375 -7.21875 C 9.113281 -7.3125 8.929688 -7.378906 8.796875 -7.421875 C 8.671875 -7.460938 8.457031 -7.523438 8.15625 -7.609375 C 7.851562 -7.691406 7.515625 -7.789062 7.140625 -7.90625 C 6.765625 -8.03125 6.476562 -8.125 6.28125 -8.1875 C 6.09375 -8.25 5.71875 -8.390625 5.15625 -8.609375 C 4.59375 -8.828125 4.195312 -9.015625 3.96875 -9.171875 C 3.738281 -9.328125 3.425781 -9.5625 3.03125 -9.875 C 2.632812 -10.1875 2.351562 -10.515625 2.1875 -10.859375 C 1.738281 -11.796875 1.515625 -12.738281 1.515625 -13.6875 C 1.515625 -15.4375 2.101562 -16.8125 3.28125 -17.8125 C 4.457031 -18.8125 6.21875 -19.3125 8.5625 -19.3125 C 10.90625 -19.3125 13.171875 -18.945312 15.359375 -18.21875 L 14.609375 -14.359375 C 12.148438 -15.003906 10.054688 -15.328125 8.328125 -15.328125 Z M 8.328125 -15.328125 "/></g></g></g><g fill="#ffffff" fill-opacity="1"><g transform="translate(381.639471, 412.89987)"><g/></g></g><g fill="#ffffff" fill-opacity="1"><g transform="translate(389.34854, 412.89987)"><g><path d="M 16.03125 -2.5 C 13.84375 -0.550781 11.457031 0.421875 8.875 0.421875 C 6.300781 0.421875 4.269531 -0.273438 2.78125 -1.671875 C 1.289062 -3.066406 0.546875 -4.660156 0.546875 -6.453125 C 0.546875 -9.046875 1.914062 -11.039062 4.65625 -12.4375 C 3.007812 -13.757812 2.1875 -15.289062 2.1875 -17.03125 C 2.1875 -18.78125 2.816406 -20.210938 4.078125 -21.328125 C 5.335938 -22.441406 7.101562 -23 9.375 -23 C 11.644531 -23 13.367188 -22.4375 14.546875 -21.3125 C 15.722656 -20.1875 16.3125 -18.832031 16.3125 -17.25 C 16.3125 -15.238281 15.273438 -13.554688 13.203125 -12.203125 C 14.234375 -11.472656 15.269531 -10.585938 16.3125 -9.546875 C 16.894531 -10.566406 17.453125 -11.753906 17.984375 -13.109375 L 22.265625 -11.921875 C 21.492188 -9.972656 20.472656 -8.054688 19.203125 -6.171875 C 20.492188 -4.285156 21.554688 -2.144531 22.390625 0.25 L 17.4375 0.421875 C 17.1875 -0.328125 16.71875 -1.300781 16.03125 -2.5 Z M 5.71875 -6.3125 C 5.71875 -5.46875 5.992188 -4.769531 6.546875 -4.21875 C 7.109375 -3.675781 7.835938 -3.40625 8.734375 -3.40625 C 9.640625 -3.40625 10.535156 -3.644531 11.421875 -4.125 C 12.304688 -4.601562 13.09375 -5.226562 13.78125 -6 C 12.300781 -7.738281 10.726562 -9.113281 9.0625 -10.125 C 8.050781 -9.738281 7.238281 -9.21875 6.625 -8.5625 C 6.019531 -7.90625 5.71875 -7.15625 5.71875 -6.3125 Z M 9.21875 -19.3125 C 7.894531 -19.3125 7.234375 -18.632812 7.234375 -17.28125 C 7.234375 -16.0625 7.894531 -15.109375 9.21875 -14.421875 C 10.570312 -15.109375 11.25 -16.070312 11.25 -17.3125 C 11.25 -17.894531 11.082031 -18.375 10.75 -18.75 C 10.414062 -19.125 9.90625 -19.3125 9.21875 -19.3125 Z M 9.21875 -19.3125 "/></g></g></g><g fill="#ffffff" fill-opacity="1"><g transform="translate(411.897564, 412.89987)"><g/></g></g><g fill="#ffffff" fill-opacity="1"><g transform="translate(419.606634, 412.89987)"><g><path d="M 16.09375 -5.203125 L 11.015625 -5.203125 L 7.546875 -16.9375 L 7.359375 -16.9375 L 7.546875 0 L 2.53125 0 L 3.3125 -22.578125 L 9.765625 -22.578125 L 13.421875 -9.953125 L 13.625 -9.953125 L 17.25 -22.578125 L 23.671875 -22.578125 L 24.546875 0 L 19.53125 0 L 19.65625 -16.9375 L 19.46875 -16.9375 Z M 16.09375 -5.203125 "/></g></g></g><g fill="#ffffff" fill-opacity="1"><g transform="translate(446.684742, 412.89987)"><g><path d="M 10.28125 0.421875 C 4.457031 0.421875 1.546875 -2.863281 1.546875 -9.4375 C 1.546875 -16.019531 4.4375 -19.3125 10.21875 -19.3125 C 12.8125 -19.3125 14.757812 -18.617188 16.0625 -17.234375 C 17.363281 -15.847656 18.015625 -13.5625 18.015625 -10.375 L 18.015625 -7.703125 L 6.71875 -7.703125 C 6.71875 -5.910156 7.046875 -4.722656 7.703125 -4.140625 C 8.160156 -3.734375 8.796875 -3.53125 9.609375 -3.53125 C 11.109375 -3.53125 13.015625 -3.875 15.328125 -4.5625 L 16.453125 -4.921875 L 17.671875 -1.3125 C 16.703125 -0.863281 15.5 -0.460938 14.0625 -0.109375 C 12.632812 0.242188 11.375 0.421875 10.28125 0.421875 Z M 12.375 -14.6875 C 11.988281 -15.15625 11.21875 -15.390625 10.0625 -15.390625 C 8.90625 -15.390625 8.078125 -15.109375 7.578125 -14.546875 C 7.085938 -13.992188 6.8125 -12.914062 6.75 -11.3125 L 12.953125 -11.4375 C 12.898438 -13.125 12.707031 -14.207031 12.375 -14.6875 Z M 12.375 -14.6875 "/></g></g></g><g fill="#ffffff" fill-opacity="1"><g transform="translate(466.085915, 412.89987)"><g><path d="M 7.515625 0 L 2.53125 0 L 2.53125 -18.890625 L 5.71875 -18.890625 L 6.296875 -17 L 6.484375 -17 C 7.273438 -17.46875 7.894531 -17.820312 8.34375 -18.0625 C 8.800781 -18.3125 9.488281 -18.59375 10.40625 -18.90625 C 11.332031 -19.21875 12.203125 -19.375 13.015625 -19.375 C 14.960938 -19.375 16.34375 -18.5625 17.15625 -16.9375 C 17.925781 -17.425781 18.554688 -17.804688 19.046875 -18.078125 C 19.535156 -18.359375 20.207031 -18.644531 21.0625 -18.9375 C 21.925781 -19.226562 22.753906 -19.375 23.546875 -19.375 C 25.390625 -19.375 26.691406 -18.753906 27.453125 -17.515625 C 28.210938 -16.285156 28.59375 -14.570312 28.59375 -12.375 L 28.59375 0 L 23.546875 0 L 23.546875 -11.5 C 23.546875 -13.144531 23.398438 -14.144531 23.109375 -14.5 C 22.828125 -14.851562 22.375 -15.03125 21.75 -15.03125 C 20.570312 -15.03125 19.304688 -14.570312 17.953125 -13.65625 C 17.992188 -12.96875 18.015625 -12.429688 18.015625 -12.046875 L 18.015625 0 L 13.046875 0 L 13.046875 -11.5 C 13.046875 -13.164062 12.90625 -14.171875 12.625 -14.515625 C 12.34375 -14.859375 11.910156 -15.03125 11.328125 -15.03125 C 10.753906 -15.03125 10.101562 -14.894531 9.375 -14.625 C 8.644531 -14.363281 8.023438 -14.050781 7.515625 -13.6875 Z M 7.515625 0 "/></g></g></g><g fill="#ffffff" fill-opacity="1"><g transform="translate(496.793701, 412.89987)"><g><path d="M 3.453125 -16.78125 C 4.722656 -18.46875 6.859375 -19.3125 9.859375 -19.3125 C 12.859375 -19.3125 14.984375 -18.472656 16.234375 -16.796875 C 17.492188 -15.128906 18.125 -12.675781 18.125 -9.4375 C 18.125 -6.207031 17.492188 -3.753906 16.234375 -2.078125 C 14.984375 -0.410156 12.859375 0.421875 9.859375 0.421875 C 6.859375 0.421875 4.722656 -0.414062 3.453125 -2.09375 C 2.179688 -3.78125 1.546875 -6.226562 1.546875 -9.4375 C 1.546875 -12.65625 2.179688 -15.101562 3.453125 -16.78125 Z M 13.046875 -9.4375 C 13.046875 -11.882812 12.820312 -13.507812 12.375 -14.3125 C 11.9375 -15.113281 11.09375 -15.515625 9.84375 -15.515625 C 8.59375 -15.515625 7.742188 -15.109375 7.296875 -14.296875 C 6.847656 -13.484375 6.625 -11.863281 6.625 -9.4375 C 6.625 -7.019531 6.847656 -5.40625 7.296875 -4.59375 C 7.742188 -3.78125 8.59375 -3.375 9.84375 -3.375 C 11.09375 -3.375 11.9375 -3.773438 12.375 -4.578125 C 12.820312 -5.378906 13.046875 -7 13.046875 -9.4375 Z M 14.203125 -26.21875 L 15.1875 -22.609375 L 5.5 -20.75 L 4.78125 -23.421875 Z M 14.203125 -26.21875 "/></g></g></g><g fill="#ffffff" fill-opacity="1"><g transform="translate(516.451813, 412.89987)"><g><path d="M 7.3125 -17.546875 C 7.664062 -17.816406 8.296875 -18.175781 9.203125 -18.625 C 10.109375 -19.082031 10.960938 -19.3125 11.765625 -19.3125 C 12.578125 -19.3125 13.21875 -19.191406 13.6875 -18.953125 L 13.296875 -14.65625 C 12.703125 -14.71875 12.113281 -14.75 11.53125 -14.75 C 10.09375 -14.75 8.753906 -14.363281 7.515625 -13.59375 L 7.515625 0 L 2.53125 0 L 2.53125 -18.890625 L 5.625 -18.890625 L 6.265625 -16.890625 L 6.453125 -16.890625 C 6.671875 -17.066406 6.957031 -17.285156 7.3125 -17.546875 Z M 7.3125 -17.546875 "/></g></g></g><g fill="#ffffff" fill-opacity="1"><g transform="translate(530.263903, 412.89987)"><g><path d="M 7.671875 0 L 2.703125 0 L 2.703125 -18.890625 L 7.671875 -18.890625 Z M 8 -21.109375 L 2.375 -21.109375 L 2.375 -24.453125 L 8 -24.453125 Z M 8 -21.109375 "/></g></g></g><g fill="#ffffff" fill-opacity="1"><g transform="translate(540.639033, 412.89987)"><g><path d="M 7.125 0.421875 C 5.539062 0.421875 4.226562 -0.125 3.1875 -1.21875 C 2.15625 -2.3125 1.640625 -3.894531 1.640625 -5.96875 C 1.640625 -8.050781 2.375 -9.5625 3.84375 -10.5 C 5.3125 -11.445312 7.445312 -11.921875 10.25 -11.921875 L 12.65625 -11.921875 C 12.65625 -13.359375 12.515625 -14.285156 12.234375 -14.703125 C 11.960938 -15.117188 11.335938 -15.328125 10.359375 -15.328125 C 9.390625 -15.328125 8.304688 -15.21875 7.109375 -15 C 5.921875 -14.789062 4.597656 -14.46875 3.140625 -14.03125 L 2.125 -17.640625 C 3 -18.046875 4.253906 -18.425781 5.890625 -18.78125 C 7.535156 -19.132812 9 -19.3125 10.28125 -19.3125 C 12.914062 -19.3125 14.800781 -18.703125 15.9375 -17.484375 C 17.070312 -16.273438 17.640625 -14.515625 17.640625 -12.203125 L 17.640625 0 L 14.484375 0 L 13.84375 -2.09375 L 13.65625 -2.09375 C 13.394531 -1.894531 13.054688 -1.65625 12.640625 -1.375 C 12.222656 -1.101562 11.4375 -0.734375 10.28125 -0.265625 C 9.125 0.191406 8.070312 0.421875 7.125 0.421875 Z M 12.65625 -8.21875 C 11.90625 -8.332031 10.90625 -8.390625 9.65625 -8.390625 C 8.40625 -8.390625 7.601562 -8.226562 7.25 -7.90625 C 6.894531 -7.582031 6.71875 -6.96875 6.71875 -6.0625 C 6.71875 -5.164062 6.859375 -4.539062 7.140625 -4.1875 C 7.429688 -3.832031 7.878906 -3.65625 8.484375 -3.65625 C 9.597656 -3.65625 10.773438 -3.957031 12.015625 -4.5625 L 12.65625 -4.890625 Z M 12.65625 -8.21875 "/></g></g></g><g fill="#ffffff" fill-opacity="1"><g transform="translate(560.618379, 412.89987)"><g><path d="M 8.328125 -15.328125 C 7.503906 -15.328125 6.96875 -15.222656 6.71875 -15.015625 C 6.476562 -14.816406 6.359375 -14.515625 6.359375 -14.109375 C 6.359375 -13.703125 6.539062 -13.34375 6.90625 -13.03125 C 7.269531 -12.71875 7.632812 -12.488281 8 -12.34375 C 8.363281 -12.207031 8.785156 -12.066406 9.265625 -11.921875 C 9.742188 -11.785156 10.457031 -11.578125 11.40625 -11.296875 C 12.363281 -11.023438 13.125 -10.738281 13.6875 -10.4375 C 15.332031 -9.519531 16.15625 -8.046875 16.15625 -6.015625 C 16.15625 -3.992188 15.535156 -2.414062 14.296875 -1.28125 C 13.054688 -0.144531 11.3125 0.421875 9.0625 0.421875 C 7.882812 0.421875 6.648438 0.265625 5.359375 -0.046875 C 4.078125 -0.359375 3.082031 -0.664062 2.375 -0.96875 L 1.34375 -1.453125 L 2.5625 -5.359375 C 5.289062 -4.203125 7.519531 -3.625 9.25 -3.625 C 9.914062 -3.625 10.410156 -3.742188 10.734375 -3.984375 C 11.054688 -4.222656 11.21875 -4.648438 11.21875 -5.265625 C 11.21875 -5.648438 11.148438 -5.925781 11.015625 -6.09375 C 10.890625 -6.269531 10.78125 -6.40625 10.6875 -6.5 C 10.601562 -6.601562 10.476562 -6.703125 10.3125 -6.796875 C 10.144531 -6.890625 10 -6.960938 9.875 -7.015625 C 9.757812 -7.066406 9.582031 -7.132812 9.34375 -7.21875 C 9.113281 -7.3125 8.929688 -7.378906 8.796875 -7.421875 C 8.671875 -7.460938 8.457031 -7.523438 8.15625 -7.609375 C 7.851562 -7.691406 7.515625 -7.789062 7.140625 -7.90625 C 6.765625 -8.03125 6.476562 -8.125 6.28125 -8.1875 C 6.09375 -8.25 5.71875 -8.390625 5.15625 -8.609375 C 4.59375 -8.828125 4.195312 -9.015625 3.96875 -9.171875 C 3.738281 -9.328125 3.425781 -9.5625 3.03125 -9.875 C 2.632812 -10.1875 2.351562 -10.515625 2.1875 -10.859375 C 1.738281 -11.796875 1.515625 -12.738281 1.515625 -13.6875 C 1.515625 -15.4375 2.101562 -16.8125 3.28125 -17.8125 C 4.457031 -18.8125 6.21875 -19.3125 8.5625 -19.3125 C 10.90625 -19.3125 13.171875 -18.945312 15.359375 -18.21875 L 14.609375 -14.359375 C 12.148438 -15.003906 10.054688 -15.328125 8.328125 -15.328125 Z M 8.328125 -15.328125 "/></g></g></g><g fill="#ffffff" fill-opacity="1"><g transform="translate(577.871985, 412.89987)"><g/></g></g><g fill="#ffffff" fill-opacity="1"><g transform="translate(263.471211, 437.302582)"><g><path d="M 8.328125 0.328125 C 6.234375 0.328125 4.59375 -0.394531 3.40625 -1.84375 C 2.226562 -3.300781 1.640625 -5.613281 1.640625 -8.78125 C 1.640625 -13.113281 2.597656 -15.921875 4.515625 -17.203125 C 5.140625 -17.617188 5.785156 -17.90625 6.453125 -18.0625 C 7.117188 -18.21875 8.101562 -18.296875 9.40625 -18.296875 C 10.71875 -18.296875 12.078125 -18.125 13.484375 -17.78125 L 13.15625 -15.265625 C 11.539062 -15.503906 10.050781 -15.625 8.6875 -15.625 C 7.332031 -15.625 6.46875 -15.425781 6.09375 -15.03125 C 5.25 -14.15625 4.828125 -12.046875 4.828125 -8.703125 C 4.828125 -7.148438 4.972656 -5.851562 5.265625 -4.8125 C 5.554688 -3.78125 5.898438 -3.085938 6.296875 -2.734375 C 6.703125 -2.378906 7.296875 -2.203125 8.078125 -2.203125 C 8.859375 -2.203125 9.675781 -2.320312 10.53125 -2.5625 C 11.382812 -2.800781 12.3125 -3.15625 13.3125 -3.625 L 14.234375 -1.328125 C 14.046875 -1.210938 13.785156 -1.0625 13.453125 -0.875 C 13.117188 -0.6875 12.4375 -0.4375 11.40625 -0.125 C 10.375 0.175781 9.347656 0.328125 8.328125 0.328125 Z M 8.328125 0.328125 "/></g></g></g><g fill="#ffffff" fill-opacity="1"><g transform="translate(278.986469, 437.302582)"><g><path d="M 5.546875 0.328125 C 4.234375 0.328125 3.175781 -0.0820312 2.375 -0.90625 C 1.582031 -1.738281 1.1875 -2.976562 1.1875 -4.625 C 1.1875 -6.28125 1.71875 -7.484375 2.78125 -8.234375 C 3.851562 -8.992188 5.398438 -9.375 7.421875 -9.375 L 9.890625 -9.34375 C 9.890625 -11.007812 9.753906 -12.015625 9.484375 -12.359375 C 9.222656 -12.710938 8.707031 -12.890625 7.9375 -12.890625 C 7.164062 -12.890625 6.304688 -12.796875 5.359375 -12.609375 C 4.410156 -12.421875 3.40625 -12.128906 2.34375 -11.734375 L 1.546875 -13.921875 C 1.785156 -14.023438 2.101562 -14.15625 2.5 -14.3125 C 2.90625 -14.476562 3.65625 -14.691406 4.75 -14.953125 C 5.84375 -15.222656 6.84375 -15.359375 7.75 -15.359375 C 11.164062 -15.359375 12.875 -13.507812 12.875 -9.8125 L 12.875 0 L 10.96875 0 L 10.5625 -1.625 L 10.421875 -1.625 C 10.234375 -1.46875 9.984375 -1.28125 9.671875 -1.0625 C 9.359375 -0.851562 8.769531 -0.566406 7.90625 -0.203125 C 7.039062 0.148438 6.253906 0.328125 5.546875 0.328125 Z M 9.890625 -6.9375 C 9.191406 -7.039062 8.238281 -7.09375 7.03125 -7.09375 C 5.832031 -7.09375 5.085938 -6.945312 4.796875 -6.65625 C 4.421875 -6.3125 4.234375 -5.65625 4.234375 -4.6875 C 4.234375 -3.71875 4.359375 -3.054688 4.609375 -2.703125 C 4.859375 -2.359375 5.257812 -2.1875 5.8125 -2.1875 C 6.375 -2.1875 6.992188 -2.285156 7.671875 -2.484375 C 8.347656 -2.679688 9.085938 -2.96875 9.890625 -3.34375 Z M 3.859375 -16.625 L 3 -17.90625 L 6.75 -20.65625 L 8.328125 -20.65625 L 12.09375 -17.90625 L 11.203125 -16.625 L 7.625 -18.390625 L 7.453125 -18.390625 Z M 3.859375 -16.625 "/></g></g></g><g fill="#ffffff" fill-opacity="1"><g transform="translate(294.090724, 437.302582)"><g><path d="M 2.390625 0 L 2.390625 -15.03125 L 4.34375 -15.03125 L 4.671875 -13.53125 L 4.796875 -13.53125 C 6.867188 -14.769531 8.640625 -15.390625 10.109375 -15.390625 C 11.585938 -15.390625 12.601562 -14.738281 13.15625 -13.4375 C 13.820312 -13.84375 14.34375 -14.148438 14.71875 -14.359375 C 15.09375 -14.578125 15.628906 -14.800781 16.328125 -15.03125 C 17.035156 -15.269531 17.707031 -15.390625 18.34375 -15.390625 C 19.726562 -15.390625 20.703125 -14.910156 21.265625 -13.953125 C 21.828125 -13.003906 22.109375 -11.640625 22.109375 -9.859375 L 22.109375 0 L 19.140625 0 L 19.140625 -9.140625 C 19.140625 -10.566406 19.039062 -11.515625 18.84375 -11.984375 C 18.644531 -12.453125 18.207031 -12.6875 17.53125 -12.6875 C 16.851562 -12.6875 16.140625 -12.539062 15.390625 -12.25 C 14.648438 -11.957031 14.066406 -11.675781 13.640625 -11.40625 C 13.710938 -10.71875 13.75 -10.1875 13.75 -9.8125 L 13.75 0 L 10.765625 0 L 10.765625 -9.203125 C 10.765625 -11.097656 10.539062 -12.191406 10.09375 -12.484375 C 9.882812 -12.617188 9.566406 -12.6875 9.140625 -12.6875 C 8.078125 -12.6875 6.820312 -12.285156 5.375 -11.484375 L 5.375 0 Z M 2.390625 0 "/></g></g></g><g fill="#ffffff" fill-opacity="1"><g transform="translate(318.26267, 437.302582)"><g><path d="M 2.109375 4.265625 L 2.109375 -15.03125 L 4.0625 -15.03125 L 4.421875 -13.484375 L 4.546875 -13.484375 C 4.578125 -13.503906 4.722656 -13.609375 4.984375 -13.796875 C 5.253906 -13.984375 5.460938 -14.125 5.609375 -14.21875 C 5.753906 -14.3125 5.984375 -14.441406 6.296875 -14.609375 C 6.617188 -14.785156 6.910156 -14.914062 7.171875 -15 C 7.890625 -15.238281 8.546875 -15.359375 9.140625 -15.359375 C 10.628906 -15.359375 11.800781 -14.738281 12.65625 -13.5 C 13.519531 -12.257812 13.953125 -10.351562 13.953125 -7.78125 C 13.953125 -2.375 12 0.328125 8.09375 0.328125 C 7.351562 0.328125 6.351562 0.226562 5.09375 0.03125 L 5.09375 4.265625 Z M 5.09375 -2.625 C 6.25 -2.3125 7.238281 -2.15625 8.0625 -2.15625 C 8.882812 -2.15625 9.457031 -2.273438 9.78125 -2.515625 C 10.5 -3.078125 10.859375 -4.921875 10.859375 -8.046875 C 10.859375 -9.191406 10.828125 -10.085938 10.765625 -10.734375 C 10.710938 -11.390625 10.585938 -11.863281 10.390625 -12.15625 C 10.191406 -12.445312 10.003906 -12.613281 9.828125 -12.65625 C 9.648438 -12.707031 9.320312 -12.734375 8.84375 -12.734375 C 8.375 -12.734375 7.816406 -12.628906 7.171875 -12.421875 C 6.535156 -12.222656 5.84375 -11.925781 5.09375 -11.53125 Z M 5.09375 -2.625 "/></g></g></g><g fill="#ffffff" fill-opacity="1"><g transform="translate(333.80362, 437.302582)"><g><path d="M 2.0625 -5.109375 L 2.0625 -15.03125 L 5.03125 -15.03125 L 5.03125 -5.703125 C 5.03125 -4.054688 5.144531 -3.070312 5.375 -2.75 C 5.613281 -2.457031 6.046875 -2.3125 6.671875 -2.3125 C 7.703125 -2.3125 8.988281 -2.722656 10.53125 -3.546875 L 10.53125 -15.03125 L 13.515625 -15.03125 L 13.515625 0 L 11.5625 0 L 11.203125 -1.484375 L 11.078125 -1.484375 C 11.054688 -1.472656 10.859375 -1.363281 10.484375 -1.15625 C 10.117188 -0.945312 9.863281 -0.804688 9.71875 -0.734375 C 9.570312 -0.671875 9.3125 -0.550781 8.9375 -0.375 C 8.5625 -0.195312 8.242188 -0.0703125 7.984375 0 C 7.265625 0.21875 6.613281 0.328125 6.03125 0.328125 C 3.382812 0.328125 2.0625 -1.484375 2.0625 -5.109375 Z M 2.0625 -5.109375 "/></g></g></g><g fill="#ffffff" fill-opacity="1"><g transform="translate(349.70419, 437.302582)"><g><path d="M 6.9375 -2.125 C 7.601562 -2.125 8.109375 -2.28125 8.453125 -2.59375 C 8.796875 -2.90625 8.96875 -3.398438 8.96875 -4.078125 C 8.96875 -4.765625 8.742188 -5.257812 8.296875 -5.5625 C 7.847656 -5.863281 7.320312 -6.101562 6.71875 -6.28125 C 6.125 -6.457031 5.789062 -6.554688 5.71875 -6.578125 C 5.65625 -6.609375 5.460938 -6.675781 5.140625 -6.78125 C 4.816406 -6.882812 4.507812 -6.988281 4.21875 -7.09375 C 3.925781 -7.195312 3.550781 -7.367188 3.09375 -7.609375 C 2.644531 -7.847656 2.316406 -8.101562 2.109375 -8.375 C 1.546875 -9.0625 1.265625 -9.914062 1.265625 -10.9375 C 1.265625 -12.289062 1.695312 -13.363281 2.5625 -14.15625 C 3.425781 -14.957031 4.679688 -15.359375 6.328125 -15.359375 C 7.984375 -15.359375 9.609375 -15.085938 11.203125 -14.546875 L 10.734375 -12.171875 C 8.953125 -12.597656 7.523438 -12.8125 6.453125 -12.8125 C 5.390625 -12.8125 4.734375 -12.671875 4.484375 -12.390625 C 4.234375 -12.109375 4.109375 -11.707031 4.109375 -11.1875 C 4.109375 -10.675781 4.351562 -10.265625 4.84375 -9.953125 C 5.332031 -9.640625 6.023438 -9.347656 6.921875 -9.078125 C 7.816406 -8.816406 8.359375 -8.65625 8.546875 -8.59375 C 8.742188 -8.53125 9.035156 -8.425781 9.421875 -8.28125 C 9.816406 -8.132812 10.09375 -8 10.25 -7.875 C 10.414062 -7.757812 10.628906 -7.59375 10.890625 -7.375 C 11.148438 -7.164062 11.335938 -6.929688 11.453125 -6.671875 C 11.734375 -6.054688 11.875 -5.375 11.875 -4.625 C 11.875 -3.113281 11.421875 -1.910156 10.515625 -1.015625 C 9.617188 -0.117188 8.347656 0.328125 6.703125 0.328125 C 5.878906 0.328125 5.007812 0.21875 4.09375 0 C 3.175781 -0.21875 2.210938 -0.550781 1.203125 -1 L 1.921875 -3.421875 C 3.929688 -2.554688 5.601562 -2.125 6.9375 -2.125 Z M 6.9375 -2.125 "/></g></g></g><g fill="#ffffff" fill-opacity="1"><g transform="translate(362.856197, 437.302582)"><g/></g></g><g fill="#ffffff" fill-opacity="1"><g transform="translate(368.892761, 437.302582)"><g><path d="M 7.265625 -2.359375 C 8.773438 -2.359375 9.53125 -3.179688 9.53125 -4.828125 C 9.53125 -5.523438 9.242188 -6.113281 8.671875 -6.59375 C 8.109375 -7.082031 7.328125 -7.550781 6.328125 -8 C 5.328125 -8.457031 4.753906 -8.722656 4.609375 -8.796875 C 4.460938 -8.867188 4.203125 -9.007812 3.828125 -9.21875 C 3.453125 -9.425781 3.191406 -9.597656 3.046875 -9.734375 C 2.898438 -9.867188 2.691406 -10.066406 2.421875 -10.328125 C 2.160156 -10.597656 1.976562 -10.867188 1.875 -11.140625 C 1.582031 -11.878906 1.4375 -12.601562 1.4375 -13.3125 C 1.4375 -14.757812 1.9375 -15.953125 2.9375 -16.890625 C 3.9375 -17.828125 5.363281 -18.296875 7.21875 -18.296875 C 8.570312 -18.296875 9.90625 -18.101562 11.21875 -17.71875 L 11.921875 -17.546875 L 11.4375 -15.03125 C 9.5625 -15.382812 8.128906 -15.5625 7.140625 -15.5625 C 6.160156 -15.5625 5.484375 -15.398438 5.109375 -15.078125 C 4.734375 -14.765625 4.546875 -14.257812 4.546875 -13.5625 C 4.546875 -12.875 4.78125 -12.335938 5.25 -11.953125 C 5.71875 -11.566406 6.265625 -11.222656 6.890625 -10.921875 C 7.515625 -10.628906 8.019531 -10.394531 8.40625 -10.21875 C 8.789062 -10.050781 9.082031 -9.921875 9.28125 -9.828125 C 9.476562 -9.734375 9.75 -9.585938 10.09375 -9.390625 C 10.4375 -9.191406 10.703125 -9.007812 10.890625 -8.84375 C 11.078125 -8.6875 11.296875 -8.472656 11.546875 -8.203125 C 11.804688 -7.941406 12 -7.671875 12.125 -7.390625 C 12.445312 -6.722656 12.609375 -6.003906 12.609375 -5.234375 C 12.609375 -3.578125 12.066406 -2.234375 10.984375 -1.203125 C 9.910156 -0.179688 8.5 0.328125 6.75 0.328125 C 5.863281 0.328125 4.9375 0.203125 3.96875 -0.046875 C 3 -0.304688 2.257812 -0.566406 1.75 -0.828125 L 0.953125 -1.234375 C 1.109375 -1.691406 1.234375 -2.0625 1.328125 -2.34375 C 1.429688 -2.632812 1.519531 -2.875 1.59375 -3.0625 C 1.664062 -3.257812 1.742188 -3.472656 1.828125 -3.703125 C 3.796875 -2.804688 5.609375 -2.359375 7.265625 -2.359375 Z M 7.265625 -2.359375 "/></g></g></g><g fill="#ffffff" fill-opacity="1"><g transform="translate(382.81539, 437.302582)"><g><path d="M 5.546875 0.328125 C 4.234375 0.328125 3.175781 -0.0820312 2.375 -0.90625 C 1.582031 -1.738281 1.1875 -2.976562 1.1875 -4.625 C 1.1875 -6.28125 1.71875 -7.484375 2.78125 -8.234375 C 3.851562 -8.992188 5.398438 -9.375 7.421875 -9.375 L 9.890625 -9.34375 C 9.890625 -11.007812 9.753906 -12.015625 9.484375 -12.359375 C 9.222656 -12.710938 8.707031 -12.890625 7.9375 -12.890625 C 7.164062 -12.890625 6.304688 -12.796875 5.359375 -12.609375 C 4.410156 -12.421875 3.40625 -12.128906 2.34375 -11.734375 L 1.546875 -13.921875 C 1.785156 -14.023438 2.101562 -14.15625 2.5 -14.3125 C 2.90625 -14.476562 3.65625 -14.691406 4.75 -14.953125 C 5.84375 -15.222656 6.84375 -15.359375 7.75 -15.359375 C 11.164062 -15.359375 12.875 -13.507812 12.875 -9.8125 L 12.875 0 L 10.96875 0 L 10.5625 -1.625 L 10.421875 -1.625 C 10.234375 -1.46875 9.984375 -1.28125 9.671875 -1.0625 C 9.359375 -0.851562 8.769531 -0.566406 7.90625 -0.203125 C 7.039062 0.148438 6.253906 0.328125 5.546875 0.328125 Z M 9.890625 -6.9375 C 9.191406 -7.039062 8.238281 -7.09375 7.03125 -7.09375 C 5.832031 -7.09375 5.085938 -6.945312 4.796875 -6.65625 C 4.421875 -6.3125 4.234375 -5.65625 4.234375 -4.6875 C 4.234375 -3.71875 4.359375 -3.054688 4.609375 -2.703125 C 4.859375 -2.359375 5.257812 -2.1875 5.8125 -2.1875 C 6.375 -2.1875 6.992188 -2.285156 7.671875 -2.484375 C 8.347656 -2.679688 9.085938 -2.96875 9.890625 -3.34375 Z M 4.90625 -20.1875 C 5.414062 -20.1875 6.359375 -20 7.734375 -19.625 C 9.117188 -19.257812 9.875 -19.078125 10 -19.078125 C 10.21875 -19.078125 10.460938 -19.441406 10.734375 -20.171875 L 12.359375 -19.9375 C 12.335938 -17.96875 11.632812 -16.984375 10.25 -16.984375 C 9.75 -16.984375 8.800781 -17.175781 7.40625 -17.5625 C 6.007812 -17.945312 5.253906 -18.140625 5.140625 -18.140625 C 4.898438 -18.140625 4.640625 -17.769531 4.359375 -17.03125 L 2.75 -17.234375 C 2.769531 -19.203125 3.488281 -20.1875 4.90625 -20.1875 Z M 4.90625 -20.1875 "/></g></g></g><g fill="#ffffff" fill-opacity="1"><g transform="translate(397.919646, 437.302582)"><g><path d="M 13.765625 -7.5 C 13.765625 -4.925781 13.300781 -2.976562 12.375 -1.65625 C 11.457031 -0.332031 9.894531 0.328125 7.6875 0.328125 C 5.488281 0.328125 3.921875 -0.332031 2.984375 -1.65625 C 2.054688 -2.976562 1.59375 -4.925781 1.59375 -7.5 C 1.59375 -10.070312 2.054688 -12.023438 2.984375 -13.359375 C 3.921875 -14.691406 5.488281 -15.359375 7.6875 -15.359375 C 9.894531 -15.359375 11.457031 -14.691406 12.375 -13.359375 C 13.300781 -12.023438 13.765625 -10.070312 13.765625 -7.5 Z M 5.296875 -3.09375 C 5.722656 -2.382812 6.523438 -2.03125 7.703125 -2.03125 C 8.890625 -2.03125 9.6875 -2.382812 10.09375 -3.09375 C 10.507812 -3.800781 10.71875 -5.269531 10.71875 -7.5 C 10.71875 -9.738281 10.507812 -11.207031 10.09375 -11.90625 C 9.6875 -12.613281 8.890625 -12.96875 7.703125 -12.96875 C 6.523438 -12.96875 5.722656 -12.613281 5.296875 -11.90625 C 4.878906 -11.207031 4.671875 -9.738281 4.671875 -7.5 C 4.671875 -5.269531 4.878906 -3.800781 5.296875 -3.09375 Z M 5.296875 -3.09375 "/></g></g></g><g fill="#ffffff" fill-opacity="1"><g transform="translate(413.280774, 437.302582)"><g/></g></g><g fill="#ffffff" fill-opacity="1"><g transform="translate(419.317338, 437.302582)"><g><path d="M 2.484375 -17.9375 C 4.898438 -18.175781 7 -18.296875 8.78125 -18.296875 C 10.5625 -18.296875 11.90625 -17.769531 12.8125 -16.71875 C 13.71875 -15.675781 14.171875 -14.144531 14.171875 -12.125 C 14.171875 -9.65625 13.554688 -7.941406 12.328125 -6.984375 C 11.265625 -6.128906 9.9375 -5.703125 8.34375 -5.703125 L 5.5 -5.828125 L 5.5 0 L 2.484375 0 L 2.59375 -8.34375 Z M 5.5 -8.5 C 6.488281 -8.332031 7.519531 -8.25 8.59375 -8.25 C 9.675781 -8.25 10.351562 -8.488281 10.625 -8.96875 C 10.90625 -9.457031 11.046875 -10.578125 11.046875 -12.328125 C 11.046875 -14.085938 10.804688 -15.148438 10.328125 -15.515625 C 10.015625 -15.773438 9.34375 -15.90625 8.3125 -15.90625 C 7.289062 -15.90625 6.351562 -15.832031 5.5 -15.6875 Z M 5.5 -8.5 "/></g></g></g><g fill="#ffffff" fill-opacity="1"><g transform="translate(434.832596, 437.302582)"><g><path d="M 5.546875 0.328125 C 4.234375 0.328125 3.175781 -0.0820312 2.375 -0.90625 C 1.582031 -1.738281 1.1875 -2.976562 1.1875 -4.625 C 1.1875 -6.28125 1.71875 -7.484375 2.78125 -8.234375 C 3.851562 -8.992188 5.398438 -9.375 7.421875 -9.375 L 9.890625 -9.34375 C 9.890625 -11.007812 9.753906 -12.015625 9.484375 -12.359375 C 9.222656 -12.710938 8.707031 -12.890625 7.9375 -12.890625 C 7.164062 -12.890625 6.304688 -12.796875 5.359375 -12.609375 C 4.410156 -12.421875 3.40625 -12.128906 2.34375 -11.734375 L 1.546875 -13.921875 C 1.785156 -14.023438 2.101562 -14.15625 2.5 -14.3125 C 2.90625 -14.476562 3.65625 -14.691406 4.75 -14.953125 C 5.84375 -15.222656 6.84375 -15.359375 7.75 -15.359375 C 11.164062 -15.359375 12.875 -13.507812 12.875 -9.8125 L 12.875 0 L 10.96875 0 L 10.5625 -1.625 L 10.421875 -1.625 C 10.234375 -1.46875 9.984375 -1.28125 9.671875 -1.0625 C 9.359375 -0.851562 8.769531 -0.566406 7.90625 -0.203125 C 7.039062 0.148438 6.253906 0.328125 5.546875 0.328125 Z M 9.890625 -6.9375 C 9.191406 -7.039062 8.238281 -7.09375 7.03125 -7.09375 C 5.832031 -7.09375 5.085938 -6.945312 4.796875 -6.65625 C 4.421875 -6.3125 4.234375 -5.65625 4.234375 -4.6875 C 4.234375 -3.71875 4.359375 -3.054688 4.609375 -2.703125 C 4.859375 -2.359375 5.257812 -2.1875 5.8125 -2.1875 C 6.375 -2.1875 6.992188 -2.285156 7.671875 -2.484375 C 8.347656 -2.679688 9.085938 -2.96875 9.890625 -3.34375 Z M 9.890625 -6.9375 "/></g></g></g><g fill="#ffffff" fill-opacity="1"><g transform="translate(449.936851, 437.302582)"><g><path d="M 2.0625 -5.109375 L 2.0625 -15.03125 L 5.03125 -15.03125 L 5.03125 -5.703125 C 5.03125 -4.054688 5.144531 -3.070312 5.375 -2.75 C 5.613281 -2.457031 6.046875 -2.3125 6.671875 -2.3125 C 7.703125 -2.3125 8.988281 -2.722656 10.53125 -3.546875 L 10.53125 -15.03125 L 13.515625 -15.03125 L 13.515625 0 L 11.5625 0 L 11.203125 -1.484375 L 11.078125 -1.484375 C 11.054688 -1.472656 10.859375 -1.363281 10.484375 -1.15625 C 10.117188 -0.945312 9.863281 -0.804688 9.71875 -0.734375 C 9.570312 -0.671875 9.3125 -0.550781 8.9375 -0.375 C 8.5625 -0.195312 8.242188 -0.0703125 7.984375 0 C 7.265625 0.21875 6.613281 0.328125 6.03125 0.328125 C 3.382812 0.328125 2.0625 -1.484375 2.0625 -5.109375 Z M 2.0625 -5.109375 "/></g></g></g><g fill="#ffffff" fill-opacity="1"><g transform="translate(465.83742, 437.302582)"><g><path d="M 2.109375 0 L 2.109375 -19.453125 L 5.09375 -19.453125 L 5.09375 0 Z M 2.109375 0 "/></g></g></g><g fill="#ffffff" fill-opacity="1"><g transform="translate(473.029917, 437.302582)"><g><path d="M 13.765625 -7.5 C 13.765625 -4.925781 13.300781 -2.976562 12.375 -1.65625 C 11.457031 -0.332031 9.894531 0.328125 7.6875 0.328125 C 5.488281 0.328125 3.921875 -0.332031 2.984375 -1.65625 C 2.054688 -2.976562 1.59375 -4.925781 1.59375 -7.5 C 1.59375 -10.070312 2.054688 -12.023438 2.984375 -13.359375 C 3.921875 -14.691406 5.488281 -15.359375 7.6875 -15.359375 C 9.894531 -15.359375 11.457031 -14.691406 12.375 -13.359375 C 13.300781 -12.023438 13.765625 -10.070312 13.765625 -7.5 Z M 5.296875 -3.09375 C 5.722656 -2.382812 6.523438 -2.03125 7.703125 -2.03125 C 8.890625 -2.03125 9.6875 -2.382812 10.09375 -3.09375 C 10.507812 -3.800781 10.71875 -5.269531 10.71875 -7.5 C 10.71875 -9.738281 10.507812 -11.207031 10.09375 -11.90625 C 9.6875 -12.613281 8.890625 -12.96875 7.703125 -12.96875 C 6.523438 -12.96875 5.722656 -12.613281 5.296875 -11.90625 C 4.878906 -11.207031 4.671875 -9.738281 4.671875 -7.5 C 4.671875 -5.269531 4.878906 -3.800781 5.296875 -3.09375 Z M 5.296875 -3.09375 "/></g></g></g><g fill="#ffffff" fill-opacity="1"><g transform="translate(488.391046, 437.302582)"><g/></g></g><g fill="#ffffff" fill-opacity="1"><g transform="translate(494.427621, 437.302582)"><g><path d="M 0.96875 -7.140625 L 0.96875 -9.65625 L 7.21875 -9.65625 L 7.21875 -7.140625 Z M 0.96875 -7.140625 "/></g></g></g><g fill="#ffffff" fill-opacity="1"><g transform="translate(502.621934, 437.302582)"><g/></g></g><g fill="#ffffff" fill-opacity="1"><g transform="translate(508.658486, 437.302582)"><g><path d="M 2.484375 0.03125 L 2.59375 -8.25 L 2.484375 -17.953125 L 5.515625 -17.953125 L 5.421875 -10 L 5.515625 0.03125 Z M 2.484375 0.03125 "/></g></g></g><g fill="#ffffff" fill-opacity="1"><g transform="translate(516.698692, 437.302582)"><g><path d="M 2.484375 0 L 2.484375 -17.953125 L 12.203125 -17.953125 L 12.203125 -15.265625 L 5.46875 -15.328125 L 5.375 -10.328125 L 11.375 -10.328125 L 11.375 -7.8125 L 5.375 -7.8125 L 5.5 0 Z M 2.484375 0 "/></g></g></g><g fill="#ffffff" fill-opacity="1"><g transform="translate(530.08187, 437.302582)"><g><path d="M 7.265625 -2.359375 C 8.773438 -2.359375 9.53125 -3.179688 9.53125 -4.828125 C 9.53125 -5.523438 9.242188 -6.113281 8.671875 -6.59375 C 8.109375 -7.082031 7.328125 -7.550781 6.328125 -8 C 5.328125 -8.457031 4.753906 -8.722656 4.609375 -8.796875 C 4.460938 -8.867188 4.203125 -9.007812 3.828125 -9.21875 C 3.453125 -9.425781 3.191406 -9.597656 3.046875 -9.734375 C 2.898438 -9.867188 2.691406 -10.066406 2.421875 -10.328125 C 2.160156 -10.597656 1.976562 -10.867188 1.875 -11.140625 C 1.582031 -11.878906 1.4375 -12.601562 1.4375 -13.3125 C 1.4375 -14.757812 1.9375 -15.953125 2.9375 -16.890625 C 3.9375 -17.828125 5.363281 -18.296875 7.21875 -18.296875 C 8.570312 -18.296875 9.90625 -18.101562 11.21875 -17.71875 L 11.921875 -17.546875 L 11.4375 -15.03125 C 9.5625 -15.382812 8.128906 -15.5625 7.140625 -15.5625 C 6.160156 -15.5625 5.484375 -15.398438 5.109375 -15.078125 C 4.734375 -14.765625 4.546875 -14.257812 4.546875 -13.5625 C 4.546875 -12.875 4.78125 -12.335938 5.25 -11.953125 C 5.71875 -11.566406 6.265625 -11.222656 6.890625 -10.921875 C 7.515625 -10.628906 8.019531 -10.394531 8.40625 -10.21875 C 8.789062 -10.050781 9.082031 -9.921875 9.28125 -9.828125 C 9.476562 -9.734375 9.75 -9.585938 10.09375 -9.390625 C 10.4375 -9.191406 10.703125 -9.007812 10.890625 -8.84375 C 11.078125 -8.6875 11.296875 -8.472656 11.546875 -8.203125 C 11.804688 -7.941406 12 -7.671875 12.125 -7.390625 C 12.445312 -6.722656 12.609375 -6.003906 12.609375 -5.234375 C 12.609375 -3.578125 12.066406 -2.234375 10.984375 -1.203125 C 9.910156 -0.179688 8.5 0.328125 6.75 0.328125 C 5.863281 0.328125 4.9375 0.203125 3.96875 -0.046875 C 3 -0.304688 2.257812 -0.566406 1.75 -0.828125 L 0.953125 -1.234375 C 1.109375 -1.691406 1.234375 -2.0625 1.328125 -2.34375 C 1.429688 -2.632812 1.519531 -2.875 1.59375 -3.0625 C 1.664062 -3.257812 1.742188 -3.472656 1.828125 -3.703125 C 3.796875 -2.804688 5.609375 -2.359375 7.265625 -2.359375 Z M 7.265625 -2.359375 "/></g></g></g><g fill="#ffffff" fill-opacity="1"><g transform="translate(544.0045, 437.302582)"><g><path d="M 2.484375 -17.9375 C 4.898438 -18.175781 7 -18.296875 8.78125 -18.296875 C 10.5625 -18.296875 11.90625 -17.769531 12.8125 -16.71875 C 13.71875 -15.675781 14.171875 -14.144531 14.171875 -12.125 C 14.171875 -9.65625 13.554688 -7.941406 12.328125 -6.984375 C 11.265625 -6.128906 9.9375 -5.703125 8.34375 -5.703125 L 5.5 -5.828125 L 5.5 0 L 2.484375 0 L 2.59375 -8.34375 Z M 5.5 -8.5 C 6.488281 -8.332031 7.519531 -8.25 8.59375 -8.25 C 9.675781 -8.25 10.351562 -8.488281 10.625 -8.96875 C 10.90625 -9.457031 11.046875 -10.578125 11.046875 -12.328125 C 11.046875 -14.085938 10.804688 -15.148438 10.328125 -15.515625 C 10.015625 -15.773438 9.34375 -15.90625 8.3125 -15.90625 C 7.289062 -15.90625 6.351562 -15.832031 5.5 -15.6875 Z M 5.5 -8.5 "/></g></g></g></svg>