<svg xmlns="http://www.w3.org/2000/svg" xmlns:xlink="http://www.w3.org/1999/xlink" width="540" zoomAndPan="magnify" viewBox="0 0 404.88 404.99999" height="540" preserveAspectRatio="xMidYMid meet" version="1.0"><defs><g/></defs><g fill="#ffffff" fill-opacity="1"><g transform="translate(0, 152.018322)"><g><path d="M 3.140625 0 L 3.140625 -26.578125 L 9.078125 -26.578125 L 8.953125 -16.03125 L 17.734375 -16.03125 L 17.609375 -26.578125 L 23.546875 -26.578125 L 23.546875 0 L 17.609375 0 L 17.734375 -10.96875 L 8.953125 -10.96875 L 9.078125 0 Z M 3.140625 0 "/></g></g></g><g fill="#ffffff" fill-opacity="1"><g transform="translate(26.682185, 152.018322)"><g><path d="M 9.03125 0 L 3.171875 0 L 3.171875 -22.21875 L 9.03125 -22.21875 Z M 9.40625 -24.828125 L 2.796875 -24.828125 L 2.796875 -28.765625 L 9.40625 -28.765625 Z M 9.40625 -24.828125 "/></g></g></g><g fill="#ffffff" fill-opacity="1"><g transform="translate(38.889469, 152.018322)"><g><path d="M 9.796875 -18.03125 C 8.835938 -18.03125 8.210938 -17.910156 7.921875 -17.671875 C 7.628906 -17.429688 7.484375 -17.070312 7.484375 -16.59375 C 7.484375 -16.113281 7.695312 -15.691406 8.125 -15.328125 C 8.550781 -14.960938 8.976562 -14.695312 9.40625 -14.53125 C 9.832031 -14.363281 10.328125 -14.195312 10.890625 -14.03125 C 11.460938 -13.875 12.3125 -13.628906 13.4375 -13.296875 C 14.5625 -12.972656 15.445312 -12.632812 16.09375 -12.28125 C 18.039062 -11.195312 19.015625 -9.460938 19.015625 -7.078125 C 19.015625 -4.703125 18.28125 -2.847656 16.8125 -1.515625 C 15.351562 -0.179688 13.300781 0.484375 10.65625 0.484375 C 9.269531 0.484375 7.820312 0.300781 6.3125 -0.0625 C 4.800781 -0.425781 3.628906 -0.785156 2.796875 -1.140625 L 1.59375 -1.703125 L 3.03125 -6.3125 C 6.226562 -4.945312 8.847656 -4.265625 10.890625 -4.265625 C 11.671875 -4.265625 12.25 -4.40625 12.625 -4.6875 C 13 -4.96875 13.1875 -5.472656 13.1875 -6.203125 C 13.1875 -6.648438 13.109375 -6.972656 12.953125 -7.171875 C 12.804688 -7.378906 12.679688 -7.539062 12.578125 -7.65625 C 12.484375 -7.769531 12.332031 -7.882812 12.125 -8 C 11.925781 -8.113281 11.757812 -8.203125 11.625 -8.265625 C 11.488281 -8.328125 11.28125 -8.40625 11 -8.5 C 10.71875 -8.601562 10.5 -8.679688 10.34375 -8.734375 C 10.195312 -8.785156 9.945312 -8.859375 9.59375 -8.953125 C 9.25 -9.054688 8.851562 -9.175781 8.40625 -9.3125 C 7.96875 -9.457031 7.632812 -9.566406 7.40625 -9.640625 C 7.175781 -9.710938 6.726562 -9.875 6.0625 -10.125 C 5.394531 -10.375 4.925781 -10.59375 4.65625 -10.78125 C 4.394531 -10.976562 4.03125 -11.257812 3.5625 -11.625 C 3.101562 -11.988281 2.769531 -12.375 2.5625 -12.78125 C 2.039062 -13.882812 1.78125 -14.988281 1.78125 -16.09375 C 1.78125 -18.164062 2.472656 -19.785156 3.859375 -20.953125 C 5.242188 -22.128906 7.316406 -22.71875 10.078125 -22.71875 C 12.835938 -22.71875 15.5 -22.289062 18.0625 -21.4375 L 17.203125 -16.890625 C 14.296875 -17.648438 11.828125 -18.03125 9.796875 -18.03125 Z M 9.796875 -18.03125 "/></g></g></g><g fill="#ffffff" fill-opacity="1"><g transform="translate(59.184563, 152.018322)"><g><path d="M 9.375 -21.125 L 13.90625 -21.125 L 13.90625 -16.625 L 9.296875 -16.625 L 9.296875 -7.296875 C 9.296875 -6.085938 9.410156 -5.316406 9.640625 -4.984375 C 9.867188 -4.660156 10.296875 -4.5 10.921875 -4.5 L 13.828125 -4.6875 L 13.828125 0.078125 C 12.597656 0.347656 11.238281 0.484375 9.75 0.484375 C 7.5625 0.484375 5.960938 -0.0625 4.953125 -1.15625 C 3.941406 -2.25 3.4375 -4.347656 3.4375 -7.453125 L 3.4375 -16.75 L 0.875 -16.75 L 0.875 -20.40625 L 3.703125 -20.9375 L 4.578125 -26.1875 L 9.375 -26.1875 Z M 9.375 -21.125 "/></g></g></g><g fill="#ffffff" fill-opacity="1"><g transform="translate(74.30195, 152.018322)"><g><path d="M 4.0625 -19.75 C 5.5625 -21.726562 8.070312 -22.71875 11.59375 -22.71875 C 15.125 -22.71875 17.625 -21.734375 19.09375 -19.765625 C 20.570312 -17.796875 21.3125 -14.910156 21.3125 -11.109375 C 21.3125 -7.304688 20.570312 -4.421875 19.09375 -2.453125 C 17.625 -0.492188 15.125 0.484375 11.59375 0.484375 C 8.070312 0.484375 5.5625 -0.5 4.0625 -2.46875 C 2.5625 -4.445312 1.8125 -7.328125 1.8125 -11.109375 C 1.8125 -14.890625 2.5625 -17.769531 4.0625 -19.75 Z M 15.34375 -11.109375 C 15.34375 -13.984375 15.082031 -15.890625 14.5625 -16.828125 C 14.050781 -17.773438 13.054688 -18.25 11.578125 -18.25 C 10.109375 -18.25 9.109375 -17.769531 8.578125 -16.8125 C 8.046875 -15.863281 7.78125 -13.960938 7.78125 -11.109375 C 7.78125 -8.265625 8.046875 -6.363281 8.578125 -5.40625 C 9.109375 -4.445312 10.109375 -3.96875 11.578125 -3.96875 C 13.054688 -3.96875 14.050781 -4.4375 14.5625 -5.375 C 15.082031 -6.320312 15.34375 -8.234375 15.34375 -11.109375 Z M 16.703125 -30.84375 L 17.875 -26.609375 L 6.46875 -24.421875 L 5.625 -27.546875 Z M 16.703125 -30.84375 "/></g></g></g><g fill="#ffffff" fill-opacity="1"><g transform="translate(97.431545, 152.018322)"><g><path d="M 8.59375 -20.65625 C 9.007812 -20.96875 9.753906 -21.390625 10.828125 -21.921875 C 11.898438 -22.453125 12.90625 -22.71875 13.84375 -22.71875 C 14.789062 -22.71875 15.539062 -22.578125 16.09375 -22.296875 L 15.640625 -17.234375 C 14.941406 -17.304688 14.25 -17.34375 13.5625 -17.34375 C 11.875 -17.34375 10.300781 -16.890625 8.84375 -15.984375 L 8.84375 0 L 2.984375 0 L 2.984375 -22.21875 L 6.609375 -22.21875 L 7.375 -19.875 L 7.59375 -19.875 C 7.84375 -20.082031 8.175781 -20.34375 8.59375 -20.65625 Z M 8.59375 -20.65625 "/></g></g></g><g fill="#ffffff" fill-opacity="1"><g transform="translate(113.682728, 152.018322)"><g><path d="M 9.03125 0 L 3.171875 0 L 3.171875 -22.21875 L 9.03125 -22.21875 Z M 9.40625 -24.828125 L 2.796875 -24.828125 L 2.796875 -28.765625 L 9.40625 -28.765625 Z M 9.40625 -24.828125 "/></g></g></g><g fill="#ffffff" fill-opacity="1"><g transform="translate(125.890013, 152.018322)"><g><path d="M 8.390625 0.484375 C 6.523438 0.484375 4.976562 -0.15625 3.75 -1.4375 C 2.53125 -2.71875 1.921875 -4.582031 1.921875 -7.03125 C 1.921875 -9.476562 2.785156 -11.253906 4.515625 -12.359375 C 6.242188 -13.460938 8.757812 -14.015625 12.0625 -14.015625 L 14.890625 -14.015625 C 14.890625 -15.710938 14.722656 -16.804688 14.390625 -17.296875 C 14.066406 -17.785156 13.332031 -18.03125 12.1875 -18.03125 C 11.039062 -18.03125 9.769531 -17.898438 8.375 -17.640625 C 6.976562 -17.390625 5.421875 -17.015625 3.703125 -16.515625 L 2.5 -20.75 C 3.53125 -21.226562 5.007812 -21.675781 6.9375 -22.09375 C 8.863281 -22.507812 10.582031 -22.71875 12.09375 -22.71875 C 15.195312 -22.71875 17.414062 -22.003906 18.75 -20.578125 C 20.082031 -19.148438 20.75 -17.078125 20.75 -14.359375 L 20.75 0 L 17.046875 0 L 16.296875 -2.453125 L 16.0625 -2.453125 C 15.757812 -2.222656 15.363281 -1.945312 14.875 -1.625 C 14.382812 -1.300781 13.457031 -0.867188 12.09375 -0.328125 C 10.726562 0.210938 9.492188 0.484375 8.390625 0.484375 Z M 14.890625 -9.671875 C 14.003906 -9.796875 12.820312 -9.859375 11.34375 -9.859375 C 9.875 -9.859375 8.929688 -9.671875 8.515625 -9.296875 C 8.109375 -8.921875 7.90625 -8.203125 7.90625 -7.140625 C 7.90625 -6.085938 8.070312 -5.351562 8.40625 -4.9375 C 8.75 -4.519531 9.273438 -4.3125 9.984375 -4.3125 C 11.285156 -4.3125 12.671875 -4.660156 14.140625 -5.359375 L 14.890625 -5.75 Z M 14.890625 -9.671875 "/></g></g></g><g fill="#ffffff" fill-opacity="1"><g transform="translate(149.39754, 152.018322)"><g><path d="M 9.796875 -18.03125 C 8.835938 -18.03125 8.210938 -17.910156 7.921875 -17.671875 C 7.628906 -17.429688 7.484375 -17.070312 7.484375 -16.59375 C 7.484375 -16.113281 7.695312 -15.691406 8.125 -15.328125 C 8.550781 -14.960938 8.976562 -14.695312 9.40625 -14.53125 C 9.832031 -14.363281 10.328125 -14.195312 10.890625 -14.03125 C 11.460938 -13.875 12.3125 -13.628906 13.4375 -13.296875 C 14.5625 -12.972656 15.445312 -12.632812 16.09375 -12.28125 C 18.039062 -11.195312 19.015625 -9.460938 19.015625 -7.078125 C 19.015625 -4.703125 18.28125 -2.847656 16.8125 -1.515625 C 15.351562 -0.179688 13.300781 0.484375 10.65625 0.484375 C 9.269531 0.484375 7.820312 0.300781 6.3125 -0.0625 C 4.800781 -0.425781 3.628906 -0.785156 2.796875 -1.140625 L 1.59375 -1.703125 L 3.03125 -6.3125 C 6.226562 -4.945312 8.847656 -4.265625 10.890625 -4.265625 C 11.671875 -4.265625 12.25 -4.40625 12.625 -4.6875 C 13 -4.96875 13.1875 -5.472656 13.1875 -6.203125 C 13.1875 -6.648438 13.109375 -6.972656 12.953125 -7.171875 C 12.804688 -7.378906 12.679688 -7.539062 12.578125 -7.65625 C 12.484375 -7.769531 12.332031 -7.882812 12.125 -8 C 11.925781 -8.113281 11.757812 -8.203125 11.625 -8.265625 C 11.488281 -8.328125 11.28125 -8.40625 11 -8.5 C 10.71875 -8.601562 10.5 -8.679688 10.34375 -8.734375 C 10.195312 -8.785156 9.945312 -8.859375 9.59375 -8.953125 C 9.25 -9.054688 8.851562 -9.175781 8.40625 -9.3125 C 7.96875 -9.457031 7.632812 -9.566406 7.40625 -9.640625 C 7.175781 -9.710938 6.726562 -9.875 6.0625 -10.125 C 5.394531 -10.375 4.925781 -10.59375 4.65625 -10.78125 C 4.394531 -10.976562 4.03125 -11.257812 3.5625 -11.625 C 3.101562 -11.988281 2.769531 -12.375 2.5625 -12.78125 C 2.039062 -13.882812 1.78125 -14.988281 1.78125 -16.09375 C 1.78125 -18.164062 2.472656 -19.785156 3.859375 -20.953125 C 5.242188 -22.128906 7.316406 -22.71875 10.078125 -22.71875 C 12.835938 -22.71875 15.5 -22.289062 18.0625 -21.4375 L 17.203125 -16.890625 C 14.296875 -17.648438 11.828125 -18.03125 9.796875 -18.03125 Z M 9.796875 -18.03125 "/></g></g></g><g fill="#ffffff" fill-opacity="1"><g transform="translate(169.692634, 152.018322)"><g/></g></g><g fill="#ffffff" fill-opacity="1"><g transform="translate(178.763061, 152.018322)"><g><path d="M 18.859375 -2.953125 C 16.285156 -0.660156 13.476562 0.484375 10.4375 0.484375 C 7.40625 0.484375 5.015625 -0.332031 3.265625 -1.96875 C 1.515625 -3.601562 0.640625 -5.476562 0.640625 -7.59375 C 0.640625 -10.644531 2.253906 -12.988281 5.484375 -14.625 C 3.535156 -16.1875 2.5625 -17.992188 2.5625 -20.046875 C 2.5625 -22.097656 3.304688 -23.78125 4.796875 -25.09375 C 6.285156 -26.40625 8.363281 -27.0625 11.03125 -27.0625 C 13.707031 -27.0625 15.738281 -26.398438 17.125 -25.078125 C 18.507812 -23.753906 19.203125 -22.160156 19.203125 -20.296875 C 19.203125 -17.929688 17.976562 -15.953125 15.53125 -14.359375 C 16.738281 -13.503906 17.960938 -12.457031 19.203125 -11.21875 C 19.878906 -12.4375 20.535156 -13.835938 21.171875 -15.421875 L 26.1875 -14.015625 C 25.28125 -11.722656 24.085938 -9.46875 22.609375 -7.25 C 24.117188 -5.039062 25.363281 -2.523438 26.34375 0.296875 L 20.53125 0.484375 C 20.21875 -0.390625 19.660156 -1.535156 18.859375 -2.953125 Z M 6.734375 -7.421875 C 6.734375 -6.429688 7.054688 -5.613281 7.703125 -4.96875 C 8.359375 -4.320312 9.21875 -4 10.28125 -4 C 11.34375 -4 12.394531 -4.28125 13.4375 -4.84375 C 14.476562 -5.414062 15.40625 -6.15625 16.21875 -7.0625 C 14.476562 -9.101562 12.625 -10.71875 10.65625 -11.90625 C 9.46875 -11.445312 8.515625 -10.832031 7.796875 -10.0625 C 7.085938 -9.300781 6.734375 -8.421875 6.734375 -7.421875 Z M 10.84375 -22.71875 C 9.28125 -22.71875 8.5 -21.921875 8.5 -20.328125 C 8.5 -18.898438 9.28125 -17.78125 10.84375 -16.96875 C 12.4375 -17.78125 13.234375 -18.914062 13.234375 -20.375 C 13.234375 -21.050781 13.035156 -21.609375 12.640625 -22.046875 C 12.253906 -22.492188 11.65625 -22.71875 10.84375 -22.71875 Z M 10.84375 -22.71875 "/></g></g></g><g fill="#ffffff" fill-opacity="1"><g transform="translate(205.29408, 152.018322)"><g/></g></g><g fill="#ffffff" fill-opacity="1"><g transform="translate(214.364497, 152.018322)"><g><path d="M 18.9375 -6.125 L 12.96875 -6.125 L 8.875 -19.921875 L 8.65625 -19.921875 L 8.875 0 L 2.984375 0 L 3.890625 -26.578125 L 11.484375 -26.578125 L 15.796875 -11.71875 L 16.03125 -11.71875 L 20.296875 -26.578125 L 27.859375 -26.578125 L 28.875 0 L 22.984375 0 L 23.125 -19.921875 L 22.90625 -19.921875 Z M 18.9375 -6.125 "/></g></g></g><g fill="#ffffff" fill-opacity="1"><g transform="translate(246.224376, 152.018322)"><g><path d="M 12.09375 0.484375 C 5.238281 0.484375 1.8125 -3.378906 1.8125 -11.109375 C 1.8125 -18.847656 5.210938 -22.71875 12.015625 -22.71875 C 15.066406 -22.71875 17.359375 -21.90625 18.890625 -20.28125 C 20.429688 -18.65625 21.203125 -15.960938 21.203125 -12.203125 L 21.203125 -9.078125 L 7.90625 -9.078125 C 7.90625 -6.953125 8.296875 -5.550781 9.078125 -4.875 C 9.597656 -4.394531 10.335938 -4.15625 11.296875 -4.15625 C 13.066406 -4.15625 15.3125 -4.554688 18.03125 -5.359375 L 19.359375 -5.78125 L 20.78125 -1.546875 C 19.65625 -1.015625 18.242188 -0.539062 16.546875 -0.125 C 14.859375 0.28125 13.375 0.484375 12.09375 0.484375 Z M 14.546875 -17.265625 C 14.097656 -17.828125 13.191406 -18.109375 11.828125 -18.109375 C 10.472656 -18.109375 9.503906 -17.78125 8.921875 -17.125 C 8.335938 -16.46875 8.007812 -15.191406 7.9375 -13.296875 L 15.234375 -13.453125 C 15.179688 -15.441406 14.953125 -16.710938 14.546875 -17.265625 Z M 14.546875 -17.265625 "/></g></g></g><g fill="#ffffff" fill-opacity="1"><g transform="translate(269.05164, 152.018322)"><g><path d="M 8.84375 0 L 2.984375 0 L 2.984375 -22.21875 L 6.734375 -22.21875 L 7.40625 -20 L 7.640625 -20 C 8.566406 -20.550781 9.296875 -20.972656 9.828125 -21.265625 C 10.359375 -21.554688 11.164062 -21.882812 12.25 -22.25 C 13.332031 -22.613281 14.351562 -22.796875 15.3125 -22.796875 C 17.601562 -22.796875 19.226562 -21.835938 20.1875 -19.921875 C 21.09375 -20.492188 21.832031 -20.941406 22.40625 -21.265625 C 22.988281 -21.597656 23.785156 -21.9375 24.796875 -22.28125 C 25.804688 -22.625 26.773438 -22.796875 27.703125 -22.796875 C 29.867188 -22.796875 31.398438 -22.066406 32.296875 -20.609375 C 33.191406 -19.160156 33.640625 -17.140625 33.640625 -14.546875 L 33.640625 0 L 27.703125 0 L 27.703125 -13.53125 C 27.703125 -15.46875 27.53125 -16.644531 27.1875 -17.0625 C 26.851562 -17.476562 26.320312 -17.6875 25.59375 -17.6875 C 24.207031 -17.6875 22.71875 -17.144531 21.125 -16.0625 C 21.175781 -15.257812 21.203125 -14.628906 21.203125 -14.171875 L 21.203125 0 L 15.34375 0 L 15.34375 -13.53125 C 15.34375 -15.5 15.175781 -16.679688 14.84375 -17.078125 C 14.519531 -17.484375 14.019531 -17.6875 13.34375 -17.6875 C 12.664062 -17.6875 11.894531 -17.53125 11.03125 -17.21875 C 10.175781 -16.90625 9.445312 -16.53125 8.84375 -16.09375 Z M 8.84375 0 "/></g></g></g><g fill="#ffffff" fill-opacity="1"><g transform="translate(305.182196, 152.018322)"><g><path d="M 4.0625 -19.75 C 5.5625 -21.726562 8.070312 -22.71875 11.59375 -22.71875 C 15.125 -22.71875 17.625 -21.734375 19.09375 -19.765625 C 20.570312 -17.796875 21.3125 -14.910156 21.3125 -11.109375 C 21.3125 -7.304688 20.570312 -4.421875 19.09375 -2.453125 C 17.625 -0.492188 15.125 0.484375 11.59375 0.484375 C 8.070312 0.484375 5.5625 -0.5 4.0625 -2.46875 C 2.5625 -4.445312 1.8125 -7.328125 1.8125 -11.109375 C 1.8125 -14.890625 2.5625 -17.769531 4.0625 -19.75 Z M 15.34375 -11.109375 C 15.34375 -13.984375 15.082031 -15.890625 14.5625 -16.828125 C 14.050781 -17.773438 13.054688 -18.25 11.578125 -18.25 C 10.109375 -18.25 9.109375 -17.769531 8.578125 -16.8125 C 8.046875 -15.863281 7.78125 -13.960938 7.78125 -11.109375 C 7.78125 -8.265625 8.046875 -6.363281 8.578125 -5.40625 C 9.109375 -4.445312 10.109375 -3.96875 11.578125 -3.96875 C 13.054688 -3.96875 14.050781 -4.4375 14.5625 -5.375 C 15.082031 -6.320312 15.34375 -8.234375 15.34375 -11.109375 Z M 16.703125 -30.84375 L 17.875 -26.609375 L 6.46875 -24.421875 L 5.625 -27.546875 Z M 16.703125 -30.84375 "/></g></g></g><g fill="#ffffff" fill-opacity="1"><g transform="translate(328.311791, 152.018322)"><g><path d="M 8.59375 -20.65625 C 9.007812 -20.96875 9.753906 -21.390625 10.828125 -21.921875 C 11.898438 -22.453125 12.90625 -22.71875 13.84375 -22.71875 C 14.789062 -22.71875 15.539062 -22.578125 16.09375 -22.296875 L 15.640625 -17.234375 C 14.941406 -17.304688 14.25 -17.34375 13.5625 -17.34375 C 11.875 -17.34375 10.300781 -16.890625 8.84375 -15.984375 L 8.84375 0 L 2.984375 0 L 2.984375 -22.21875 L 6.609375 -22.21875 L 7.375 -19.875 L 7.59375 -19.875 C 7.84375 -20.082031 8.175781 -20.34375 8.59375 -20.65625 Z M 8.59375 -20.65625 "/></g></g></g><g fill="#ffffff" fill-opacity="1"><g transform="translate(344.562963, 152.018322)"><g><path d="M 9.03125 0 L 3.171875 0 L 3.171875 -22.21875 L 9.03125 -22.21875 Z M 9.40625 -24.828125 L 2.796875 -24.828125 L 2.796875 -28.765625 L 9.40625 -28.765625 Z M 9.40625 -24.828125 "/></g></g></g><g fill="#ffffff" fill-opacity="1"><g transform="translate(356.770236, 152.018322)"><g><path d="M 8.390625 0.484375 C 6.523438 0.484375 4.976562 -0.15625 3.75 -1.4375 C 2.53125 -2.71875 1.921875 -4.582031 1.921875 -7.03125 C 1.921875 -9.476562 2.785156 -11.253906 4.515625 -12.359375 C 6.242188 -13.460938 8.757812 -14.015625 12.0625 -14.015625 L 14.890625 -14.015625 C 14.890625 -15.710938 14.722656 -16.804688 14.390625 -17.296875 C 14.066406 -17.785156 13.332031 -18.03125 12.1875 -18.03125 C 11.039062 -18.03125 9.769531 -17.898438 8.375 -17.640625 C 6.976562 -17.390625 5.421875 -17.015625 3.703125 -16.515625 L 2.5 -20.75 C 3.53125 -21.226562 5.007812 -21.675781 6.9375 -22.09375 C 8.863281 -22.507812 10.582031 -22.71875 12.09375 -22.71875 C 15.195312 -22.71875 17.414062 -22.003906 18.75 -20.578125 C 20.082031 -19.148438 20.75 -17.078125 20.75 -14.359375 L 20.75 0 L 17.046875 0 L 16.296875 -2.453125 L 16.0625 -2.453125 C 15.757812 -2.222656 15.363281 -1.945312 14.875 -1.625 C 14.382812 -1.300781 13.457031 -0.867188 12.09375 -0.328125 C 10.726562 0.210938 9.492188 0.484375 8.390625 0.484375 Z M 14.890625 -9.671875 C 14.003906 -9.796875 12.820312 -9.859375 11.34375 -9.859375 C 9.875 -9.859375 8.929688 -9.671875 8.515625 -9.296875 C 8.109375 -8.921875 7.90625 -8.203125 7.90625 -7.140625 C 7.90625 -6.085938 8.070312 -5.351562 8.40625 -4.9375 C 8.75 -4.519531 9.273438 -4.3125 9.984375 -4.3125 C 11.285156 -4.3125 12.671875 -4.660156 14.140625 -5.359375 L 14.890625 -5.75 Z M 14.890625 -9.671875 "/></g></g></g><g fill="#ffffff" fill-opacity="1"><g transform="translate(380.277764, 152.018322)"><g><path d="M 9.796875 -18.03125 C 8.835938 -18.03125 8.210938 -17.910156 7.921875 -17.671875 C 7.628906 -17.429688 7.484375 -17.070312 7.484375 -16.59375 C 7.484375 -16.113281 7.695312 -15.691406 8.125 -15.328125 C 8.550781 -14.960938 8.976562 -14.695312 9.40625 -14.53125 C 9.832031 -14.363281 10.328125 -14.195312 10.890625 -14.03125 C 11.460938 -13.875 12.3125 -13.628906 13.4375 -13.296875 C 14.5625 -12.972656 15.445312 -12.632812 16.09375 -12.28125 C 18.039062 -11.195312 19.015625 -9.460938 19.015625 -7.078125 C 19.015625 -4.703125 18.28125 -2.847656 16.8125 -1.515625 C 15.351562 -0.179688 13.300781 0.484375 10.65625 0.484375 C 9.269531 0.484375 7.820312 0.300781 6.3125 -0.0625 C 4.800781 -0.425781 3.628906 -0.785156 2.796875 -1.140625 L 1.59375 -1.703125 L 3.03125 -6.3125 C 6.226562 -4.945312 8.847656 -4.265625 10.890625 -4.265625 C 11.671875 -4.265625 12.25 -4.40625 12.625 -4.6875 C 13 -4.96875 13.1875 -5.472656 13.1875 -6.203125 C 13.1875 -6.648438 13.109375 -6.972656 12.953125 -7.171875 C 12.804688 -7.378906 12.679688 -7.539062 12.578125 -7.65625 C 12.484375 -7.769531 12.332031 -7.882812 12.125 -8 C 11.925781 -8.113281 11.757812 -8.203125 11.625 -8.265625 C 11.488281 -8.328125 11.28125 -8.40625 11 -8.5 C 10.71875 -8.601562 10.5 -8.679688 10.34375 -8.734375 C 10.195312 -8.785156 9.945312 -8.859375 9.59375 -8.953125 C 9.25 -9.054688 8.851562 -9.175781 8.40625 -9.3125 C 7.96875 -9.457031 7.632812 -9.566406 7.40625 -9.640625 C 7.175781 -9.710938 6.726562 -9.875 6.0625 -10.125 C 5.394531 -10.375 4.925781 -10.59375 4.65625 -10.78125 C 4.394531 -10.976562 4.03125 -11.257812 3.5625 -11.625 C 3.101562 -11.988281 2.769531 -12.375 2.5625 -12.78125 C 2.039062 -13.882812 1.78125 -14.988281 1.78125 -16.09375 C 1.78125 -18.164062 2.472656 -19.785156 3.859375 -20.953125 C 5.242188 -22.128906 7.316406 -22.71875 10.078125 -22.71875 C 12.835938 -22.71875 15.5 -22.289062 18.0625 -21.4375 L 17.203125 -16.890625 C 14.296875 -17.648438 11.828125 -18.03125 9.796875 -18.03125 Z M 9.796875 -18.03125 "/></g></g></g><g fill="#ffffff" fill-opacity="1"><g transform="translate(400.58048, 152.018322)"><g/></g></g><g fill="#ffffff" fill-opacity="1"><g transform="translate(49.051866, 180.814804)"><g><path d="M 8.625 0.34375 C 6.457031 0.34375 4.757812 -0.410156 3.53125 -1.921875 C 2.3125 -3.429688 1.703125 -5.828125 1.703125 -9.109375 C 1.703125 -13.597656 2.695312 -16.507812 4.6875 -17.84375 C 5.320312 -18.269531 5.984375 -18.5625 6.671875 -18.71875 C 7.367188 -18.875 8.394531 -18.953125 9.75 -18.953125 C 11.113281 -18.953125 12.523438 -18.773438 13.984375 -18.421875 L 13.625 -15.8125 C 11.957031 -16.0625 10.414062 -16.1875 9 -16.1875 C 7.59375 -16.1875 6.695312 -15.984375 6.3125 -15.578125 C 5.4375 -14.671875 5 -12.488281 5 -9.03125 C 5 -7.414062 5.148438 -6.066406 5.453125 -4.984375 C 5.753906 -3.910156 6.113281 -3.191406 6.53125 -2.828125 C 6.945312 -2.472656 7.554688 -2.296875 8.359375 -2.296875 C 9.171875 -2.296875 10.019531 -2.414062 10.90625 -2.65625 C 11.800781 -2.90625 12.765625 -3.269531 13.796875 -3.75 L 14.75 -1.390625 C 14.550781 -1.265625 14.28125 -1.101562 13.9375 -0.90625 C 13.59375 -0.707031 12.882812 -0.445312 11.8125 -0.125 C 10.75 0.1875 9.6875 0.34375 8.625 0.34375 Z M 8.625 0.34375 "/></g></g></g><g fill="#ffffff" fill-opacity="1"><g transform="translate(65.128624, 180.814804)"><g><path d="M 5.75 0.34375 C 4.382812 0.34375 3.285156 -0.0820312 2.453125 -0.9375 C 1.628906 -1.800781 1.21875 -3.085938 1.21875 -4.796875 C 1.21875 -6.515625 1.769531 -7.765625 2.875 -8.546875 C 3.988281 -9.328125 5.59375 -9.71875 7.6875 -9.71875 L 10.25 -9.6875 C 10.25 -11.414062 10.109375 -12.457031 9.828125 -12.8125 C 9.554688 -13.175781 9.019531 -13.359375 8.21875 -13.359375 C 7.425781 -13.359375 6.535156 -13.257812 5.546875 -13.0625 C 4.566406 -12.875 3.523438 -12.578125 2.421875 -12.171875 L 1.59375 -14.4375 C 1.84375 -14.539062 2.175781 -14.675781 2.59375 -14.84375 C 3.007812 -15.007812 3.785156 -15.226562 4.921875 -15.5 C 6.054688 -15.78125 7.097656 -15.921875 8.046875 -15.921875 C 11.578125 -15.921875 13.34375 -14.003906 13.34375 -10.171875 L 13.34375 0 L 11.375 0 L 10.9375 -1.671875 L 10.8125 -1.671875 C 10.613281 -1.515625 10.347656 -1.320312 10.015625 -1.09375 C 9.691406 -0.875 9.082031 -0.578125 8.1875 -0.203125 C 7.289062 0.160156 6.476562 0.34375 5.75 0.34375 Z M 10.25 -7.1875 C 9.519531 -7.289062 8.535156 -7.34375 7.296875 -7.34375 C 6.054688 -7.34375 5.285156 -7.191406 4.984375 -6.890625 C 4.585938 -6.535156 4.390625 -5.859375 4.390625 -4.859375 C 4.390625 -3.859375 4.519531 -3.175781 4.78125 -2.8125 C 5.039062 -2.445312 5.457031 -2.265625 6.03125 -2.265625 C 6.601562 -2.265625 7.238281 -2.363281 7.9375 -2.5625 C 8.644531 -2.769531 9.414062 -3.070312 10.25 -3.46875 Z M 4 -17.21875 L 3.109375 -18.5625 L 7 -21.40625 L 8.625 -21.40625 L 12.546875 -18.5625 L 11.609375 -17.21875 L 7.90625 -19.0625 L 7.71875 -19.0625 Z M 4 -17.21875 "/></g></g></g><g fill="#ffffff" fill-opacity="1"><g transform="translate(80.779502, 180.814804)"><g><path d="M 2.46875 0 L 2.46875 -15.578125 L 4.5 -15.578125 L 4.84375 -14.03125 L 4.984375 -14.03125 C 7.128906 -15.3125 8.960938 -15.953125 10.484375 -15.953125 C 12.015625 -15.953125 13.0625 -15.273438 13.625 -13.921875 C 14.320312 -14.347656 14.863281 -14.671875 15.25 -14.890625 C 15.644531 -15.117188 16.207031 -15.351562 16.9375 -15.59375 C 17.664062 -15.832031 18.359375 -15.953125 19.015625 -15.953125 C 20.453125 -15.953125 21.460938 -15.457031 22.046875 -14.46875 C 22.628906 -13.488281 22.921875 -12.070312 22.921875 -10.21875 L 22.921875 0 L 19.828125 0 L 19.828125 -9.484375 C 19.828125 -10.953125 19.722656 -11.929688 19.515625 -12.421875 C 19.316406 -12.910156 18.867188 -13.15625 18.171875 -13.15625 C 17.472656 -13.15625 16.734375 -13.003906 15.953125 -12.703125 C 15.179688 -12.398438 14.578125 -12.109375 14.140625 -11.828125 C 14.210938 -11.109375 14.25 -10.554688 14.25 -10.171875 L 14.25 0 L 11.15625 0 L 11.15625 -9.53125 C 11.15625 -11.5 10.925781 -12.632812 10.46875 -12.9375 C 10.25 -13.082031 9.921875 -13.15625 9.484375 -13.15625 C 8.378906 -13.15625 7.070312 -12.738281 5.5625 -11.90625 L 5.5625 0 Z M 2.46875 0 "/></g></g></g><g fill="#ffffff" fill-opacity="1"><g transform="translate(105.826239, 180.814804)"><g><path d="M 2.1875 4.421875 L 2.1875 -15.578125 L 4.203125 -15.578125 L 4.578125 -13.984375 L 4.71875 -13.984375 C 4.75 -13.992188 4.898438 -14.097656 5.171875 -14.296875 C 5.453125 -14.492188 5.664062 -14.640625 5.8125 -14.734375 C 5.96875 -14.835938 6.207031 -14.976562 6.53125 -15.15625 C 6.863281 -15.332031 7.160156 -15.460938 7.421875 -15.546875 C 8.171875 -15.796875 8.859375 -15.921875 9.484375 -15.921875 C 11.023438 -15.921875 12.238281 -15.273438 13.125 -13.984375 C 14.007812 -12.703125 14.453125 -10.726562 14.453125 -8.0625 C 14.453125 -2.457031 12.429688 0.34375 8.390625 0.34375 C 7.617188 0.34375 6.578125 0.238281 5.265625 0.03125 L 5.265625 4.421875 Z M 5.265625 -2.71875 C 6.472656 -2.394531 7.503906 -2.234375 8.359375 -2.234375 C 9.210938 -2.234375 9.804688 -2.359375 10.140625 -2.609375 C 10.890625 -3.191406 11.265625 -5.097656 11.265625 -8.328125 C 11.265625 -9.523438 11.234375 -10.457031 11.171875 -11.125 C 11.109375 -11.800781 10.972656 -12.289062 10.765625 -12.59375 C 10.566406 -12.894531 10.375 -13.070312 10.1875 -13.125 C 10 -13.175781 9.660156 -13.203125 9.171875 -13.203125 C 8.679688 -13.203125 8.101562 -13.09375 7.4375 -12.875 C 6.769531 -12.664062 6.046875 -12.359375 5.265625 -11.953125 Z M 5.265625 -2.71875 "/></g></g></g><g fill="#ffffff" fill-opacity="1"><g transform="translate(121.929608, 180.814804)"><g><path d="M 2.125 -5.296875 L 2.125 -15.578125 L 5.21875 -15.578125 L 5.21875 -5.90625 C 5.21875 -4.207031 5.332031 -3.1875 5.5625 -2.84375 C 5.8125 -2.539062 6.265625 -2.390625 6.921875 -2.390625 C 7.984375 -2.390625 9.316406 -2.816406 10.921875 -3.671875 L 10.921875 -15.578125 L 14 -15.578125 L 14 0 L 11.984375 0 L 11.609375 -1.546875 L 11.46875 -1.546875 C 11.457031 -1.523438 11.257812 -1.40625 10.875 -1.1875 C 10.488281 -0.976562 10.21875 -0.835938 10.0625 -0.765625 C 9.914062 -0.703125 9.648438 -0.578125 9.265625 -0.390625 C 8.878906 -0.203125 8.550781 -0.0703125 8.28125 0 C 7.53125 0.226562 6.851562 0.34375 6.25 0.34375 C 3.5 0.34375 2.125 -1.535156 2.125 -5.296875 Z M 2.125 -5.296875 "/></g></g></g><g fill="#ffffff" fill-opacity="1"><g transform="translate(138.405624, 180.814804)"><g><path d="M 7.1875 -2.203125 C 7.882812 -2.203125 8.410156 -2.363281 8.765625 -2.6875 C 9.117188 -3.007812 9.296875 -3.523438 9.296875 -4.234375 C 9.296875 -4.941406 9.0625 -5.453125 8.59375 -5.765625 C 8.132812 -6.078125 7.59375 -6.328125 6.96875 -6.515625 C 6.351562 -6.703125 6.007812 -6.804688 5.9375 -6.828125 C 5.863281 -6.859375 5.65625 -6.925781 5.3125 -7.03125 C 4.976562 -7.132812 4.660156 -7.238281 4.359375 -7.34375 C 4.054688 -7.457031 3.671875 -7.632812 3.203125 -7.875 C 2.734375 -8.125 2.394531 -8.394531 2.1875 -8.6875 C 1.59375 -9.394531 1.296875 -10.28125 1.296875 -11.34375 C 1.296875 -12.75 1.742188 -13.863281 2.640625 -14.6875 C 3.546875 -15.507812 4.851562 -15.921875 6.5625 -15.921875 C 8.269531 -15.921875 9.953125 -15.632812 11.609375 -15.0625 L 11.125 -12.625 C 9.28125 -13.0625 7.800781 -13.28125 6.6875 -13.28125 C 5.582031 -13.28125 4.898438 -13.132812 4.640625 -12.84375 C 4.390625 -12.550781 4.265625 -12.140625 4.265625 -11.609375 C 4.265625 -11.078125 4.515625 -10.644531 5.015625 -10.3125 C 5.523438 -9.988281 6.242188 -9.6875 7.171875 -9.40625 C 8.109375 -9.132812 8.671875 -8.96875 8.859375 -8.90625 C 9.054688 -8.84375 9.359375 -8.734375 9.765625 -8.578125 C 10.179688 -8.429688 10.472656 -8.296875 10.640625 -8.171875 C 10.804688 -8.046875 11.019531 -7.875 11.28125 -7.65625 C 11.550781 -7.4375 11.75 -7.191406 11.875 -6.921875 C 12.15625 -6.285156 12.296875 -5.578125 12.296875 -4.796875 C 12.296875 -3.234375 11.828125 -1.984375 10.890625 -1.046875 C 9.960938 -0.117188 8.648438 0.34375 6.953125 0.34375 C 6.097656 0.34375 5.195312 0.226562 4.25 0 C 3.300781 -0.226562 2.300781 -0.570312 1.25 -1.03125 L 2 -3.546875 C 4.070312 -2.648438 5.800781 -2.203125 7.1875 -2.203125 Z M 7.1875 -2.203125 "/></g></g></g><g fill="#ffffff" fill-opacity="1"><g transform="translate(152.033603, 180.814804)"><g/></g></g><g fill="#ffffff" fill-opacity="1"><g transform="translate(158.288635, 180.814804)"><g><path d="M 7.53125 -2.453125 C 9.09375 -2.453125 9.875 -3.300781 9.875 -5 C 9.875 -5.726562 9.582031 -6.34375 9 -6.84375 C 8.414062 -7.34375 7.601562 -7.828125 6.5625 -8.296875 C 5.519531 -8.765625 4.921875 -9.035156 4.765625 -9.109375 C 4.617188 -9.191406 4.347656 -9.335938 3.953125 -9.546875 C 3.566406 -9.765625 3.296875 -9.941406 3.140625 -10.078125 C 2.992188 -10.222656 2.785156 -10.429688 2.515625 -10.703125 C 2.242188 -10.984375 2.050781 -11.269531 1.9375 -11.5625 C 1.632812 -12.320312 1.484375 -13.066406 1.484375 -13.796875 C 1.484375 -15.304688 2.003906 -16.539062 3.046875 -17.5 C 4.085938 -18.46875 5.566406 -18.953125 7.484375 -18.953125 C 8.878906 -18.953125 10.265625 -18.757812 11.640625 -18.375 L 12.359375 -18.1875 L 11.84375 -15.578125 C 9.914062 -15.953125 8.441406 -16.140625 7.421875 -16.140625 C 6.398438 -16.140625 5.691406 -15.972656 5.296875 -15.640625 C 4.910156 -15.316406 4.71875 -14.796875 4.71875 -14.078125 C 4.71875 -13.359375 4.957031 -12.796875 5.4375 -12.390625 C 5.925781 -11.992188 6.492188 -11.640625 7.140625 -11.328125 C 7.796875 -11.015625 8.320312 -10.769531 8.71875 -10.59375 C 9.113281 -10.414062 9.414062 -10.273438 9.625 -10.171875 C 9.832031 -10.078125 10.113281 -9.925781 10.46875 -9.71875 C 10.820312 -9.519531 11.09375 -9.335938 11.28125 -9.171875 C 11.476562 -9.003906 11.707031 -8.78125 11.96875 -8.5 C 12.238281 -8.226562 12.4375 -7.953125 12.5625 -7.671875 C 12.90625 -6.972656 13.078125 -6.226562 13.078125 -5.4375 C 13.078125 -3.707031 12.515625 -2.3125 11.390625 -1.25 C 10.273438 -0.1875 8.8125 0.34375 7 0.34375 C 6.082031 0.34375 5.117188 0.210938 4.109375 -0.046875 C 3.109375 -0.316406 2.34375 -0.585938 1.8125 -0.859375 L 0.984375 -1.28125 C 1.140625 -1.757812 1.269531 -2.144531 1.375 -2.4375 C 1.488281 -2.726562 1.578125 -2.972656 1.640625 -3.171875 C 1.710938 -3.378906 1.796875 -3.597656 1.890625 -3.828125 C 3.929688 -2.910156 5.8125 -2.453125 7.53125 -2.453125 Z M 7.53125 -2.453125 "/></g></g></g><g fill="#ffffff" fill-opacity="1"><g transform="translate(172.715129, 180.814804)"><g><path d="M 5.75 0.34375 C 4.382812 0.34375 3.285156 -0.0820312 2.453125 -0.9375 C 1.628906 -1.800781 1.21875 -3.085938 1.21875 -4.796875 C 1.21875 -6.515625 1.769531 -7.765625 2.875 -8.546875 C 3.988281 -9.328125 5.59375 -9.71875 7.6875 -9.71875 L 10.25 -9.6875 C 10.25 -11.414062 10.109375 -12.457031 9.828125 -12.8125 C 9.554688 -13.175781 9.019531 -13.359375 8.21875 -13.359375 C 7.425781 -13.359375 6.535156 -13.257812 5.546875 -13.0625 C 4.566406 -12.875 3.523438 -12.578125 2.421875 -12.171875 L 1.59375 -14.4375 C 1.84375 -14.539062 2.175781 -14.675781 2.59375 -14.84375 C 3.007812 -15.007812 3.785156 -15.226562 4.921875 -15.5 C 6.054688 -15.78125 7.097656 -15.921875 8.046875 -15.921875 C 11.578125 -15.921875 13.34375 -14.003906 13.34375 -10.171875 L 13.34375 0 L 11.375 0 L 10.9375 -1.671875 L 10.8125 -1.671875 C 10.613281 -1.515625 10.347656 -1.320312 10.015625 -1.09375 C 9.691406 -0.875 9.082031 -0.578125 8.1875 -0.203125 C 7.289062 0.160156 6.476562 0.34375 5.75 0.34375 Z M 10.25 -7.1875 C 9.519531 -7.289062 8.535156 -7.34375 7.296875 -7.34375 C 6.054688 -7.34375 5.285156 -7.191406 4.984375 -6.890625 C 4.585938 -6.535156 4.390625 -5.859375 4.390625 -4.859375 C 4.390625 -3.859375 4.519531 -3.175781 4.78125 -2.8125 C 5.039062 -2.445312 5.457031 -2.265625 6.03125 -2.265625 C 6.601562 -2.265625 7.238281 -2.363281 7.9375 -2.5625 C 8.644531 -2.769531 9.414062 -3.070312 10.25 -3.46875 Z M 5.078125 -20.921875 C 5.617188 -20.921875 6.601562 -20.726562 8.03125 -20.34375 C 9.457031 -19.96875 10.234375 -19.78125 10.359375 -19.78125 C 10.585938 -19.78125 10.84375 -20.15625 11.125 -20.90625 L 12.8125 -20.65625 C 12.789062 -18.613281 12.0625 -17.59375 10.625 -17.59375 C 10.101562 -17.59375 9.117188 -17.789062 7.671875 -18.1875 C 6.234375 -18.59375 5.453125 -18.796875 5.328125 -18.796875 C 5.078125 -18.796875 4.8125 -18.414062 4.53125 -17.65625 L 2.84375 -17.859375 C 2.863281 -19.898438 3.609375 -20.921875 5.078125 -20.921875 Z M 5.078125 -20.921875 "/></g></g></g><g fill="#ffffff" fill-opacity="1"><g transform="translate(188.366007, 180.814804)"><g><path d="M 14.265625 -7.765625 C 14.265625 -5.109375 13.785156 -3.09375 12.828125 -1.71875 C 11.867188 -0.34375 10.25 0.34375 7.96875 0.34375 C 5.6875 0.34375 4.0625 -0.34375 3.09375 -1.71875 C 2.132812 -3.09375 1.65625 -5.109375 1.65625 -7.765625 C 1.65625 -10.429688 2.132812 -12.457031 3.09375 -13.84375 C 4.0625 -15.226562 5.6875 -15.921875 7.96875 -15.921875 C 10.25 -15.921875 11.867188 -15.226562 12.828125 -13.84375 C 13.785156 -12.457031 14.265625 -10.429688 14.265625 -7.765625 Z M 5.5 -3.203125 C 5.9375 -2.472656 6.765625 -2.109375 7.984375 -2.109375 C 9.210938 -2.109375 10.039062 -2.472656 10.46875 -3.203125 C 10.894531 -3.941406 11.109375 -5.46875 11.109375 -7.78125 C 11.109375 -10.101562 10.894531 -11.628906 10.46875 -12.359375 C 10.039062 -13.085938 9.210938 -13.453125 7.984375 -13.453125 C 6.765625 -13.453125 5.9375 -13.085938 5.5 -12.359375 C 5.0625 -11.628906 4.84375 -10.101562 4.84375 -7.78125 C 4.84375 -5.46875 5.0625 -3.941406 5.5 -3.203125 Z M 5.5 -3.203125 "/></g></g></g><g fill="#ffffff" fill-opacity="1"><g transform="translate(204.283064, 180.814804)"><g/></g></g><g fill="#ffffff" fill-opacity="1"><g transform="translate(210.538096, 180.814804)"><g><path d="M 2.578125 -18.578125 C 5.085938 -18.828125 7.265625 -18.953125 9.109375 -18.953125 C 10.953125 -18.953125 12.34375 -18.410156 13.28125 -17.328125 C 14.226562 -16.242188 14.703125 -14.65625 14.703125 -12.5625 C 14.703125 -10.007812 14.0625 -8.234375 12.78125 -7.234375 C 11.675781 -6.347656 10.300781 -5.90625 8.65625 -5.90625 L 5.703125 -6.046875 L 5.703125 0 L 2.578125 0 L 2.6875 -8.65625 Z M 5.703125 -8.8125 C 6.722656 -8.632812 7.789062 -8.546875 8.90625 -8.546875 C 10.03125 -8.546875 10.734375 -8.796875 11.015625 -9.296875 C 11.304688 -9.804688 11.453125 -10.96875 11.453125 -12.78125 C 11.453125 -14.601562 11.203125 -15.703125 10.703125 -16.078125 C 10.378906 -16.347656 9.6875 -16.484375 8.625 -16.484375 C 7.5625 -16.484375 6.585938 -16.410156 5.703125 -16.265625 Z M 5.703125 -8.8125 "/></g></g></g><g fill="#ffffff" fill-opacity="1"><g transform="translate(226.614854, 180.814804)"><g><path d="M 5.75 0.34375 C 4.382812 0.34375 3.285156 -0.0820312 2.453125 -0.9375 C 1.628906 -1.800781 1.21875 -3.085938 1.21875 -4.796875 C 1.21875 -6.515625 1.769531 -7.765625 2.875 -8.546875 C 3.988281 -9.328125 5.59375 -9.71875 7.6875 -9.71875 L 10.25 -9.6875 C 10.25 -11.414062 10.109375 -12.457031 9.828125 -12.8125 C 9.554688 -13.175781 9.019531 -13.359375 8.21875 -13.359375 C 7.425781 -13.359375 6.535156 -13.257812 5.546875 -13.0625 C 4.566406 -12.875 3.523438 -12.578125 2.421875 -12.171875 L 1.59375 -14.4375 C 1.84375 -14.539062 2.175781 -14.675781 2.59375 -14.84375 C 3.007812 -15.007812 3.785156 -15.226562 4.921875 -15.5 C 6.054688 -15.78125 7.097656 -15.921875 8.046875 -15.921875 C 11.578125 -15.921875 13.34375 -14.003906 13.34375 -10.171875 L 13.34375 0 L 11.375 0 L 10.9375 -1.671875 L 10.8125 -1.671875 C 10.613281 -1.515625 10.347656 -1.320312 10.015625 -1.09375 C 9.691406 -0.875 9.082031 -0.578125 8.1875 -0.203125 C 7.289062 0.160156 6.476562 0.34375 5.75 0.34375 Z M 10.25 -7.1875 C 9.519531 -7.289062 8.535156 -7.34375 7.296875 -7.34375 C 6.054688 -7.34375 5.285156 -7.191406 4.984375 -6.890625 C 4.585938 -6.535156 4.390625 -5.859375 4.390625 -4.859375 C 4.390625 -3.859375 4.519531 -3.175781 4.78125 -2.8125 C 5.039062 -2.445312 5.457031 -2.265625 6.03125 -2.265625 C 6.601562 -2.265625 7.238281 -2.363281 7.9375 -2.5625 C 8.644531 -2.769531 9.414062 -3.070312 10.25 -3.46875 Z M 10.25 -7.1875 "/></g></g></g><g fill="#ffffff" fill-opacity="1"><g transform="translate(242.265732, 180.814804)"><g><path d="M 2.125 -5.296875 L 2.125 -15.578125 L 5.21875 -15.578125 L 5.21875 -5.90625 C 5.21875 -4.207031 5.332031 -3.1875 5.5625 -2.84375 C 5.8125 -2.539062 6.265625 -2.390625 6.921875 -2.390625 C 7.984375 -2.390625 9.316406 -2.816406 10.921875 -3.671875 L 10.921875 -15.578125 L 14 -15.578125 L 14 0 L 11.984375 0 L 11.609375 -1.546875 L 11.46875 -1.546875 C 11.457031 -1.523438 11.257812 -1.40625 10.875 -1.1875 C 10.488281 -0.976562 10.21875 -0.835938 10.0625 -0.765625 C 9.914062 -0.703125 9.648438 -0.578125 9.265625 -0.390625 C 8.878906 -0.203125 8.550781 -0.0703125 8.28125 0 C 7.53125 0.226562 6.851562 0.34375 6.25 0.34375 C 3.5 0.34375 2.125 -1.535156 2.125 -5.296875 Z M 2.125 -5.296875 "/></g></g></g><g fill="#ffffff" fill-opacity="1"><g transform="translate(258.741737, 180.814804)"><g><path d="M 2.1875 0 L 2.1875 -20.15625 L 5.265625 -20.15625 L 5.265625 0 Z M 2.1875 0 "/></g></g></g><g fill="#ffffff" fill-opacity="1"><g transform="translate(266.194529, 180.814804)"><g><path d="M 14.265625 -7.765625 C 14.265625 -5.109375 13.785156 -3.09375 12.828125 -1.71875 C 11.867188 -0.34375 10.25 0.34375 7.96875 0.34375 C 5.6875 0.34375 4.0625 -0.34375 3.09375 -1.71875 C 2.132812 -3.09375 1.65625 -5.109375 1.65625 -7.765625 C 1.65625 -10.429688 2.132812 -12.457031 3.09375 -13.84375 C 4.0625 -15.226562 5.6875 -15.921875 7.96875 -15.921875 C 10.25 -15.921875 11.867188 -15.226562 12.828125 -13.84375 C 13.785156 -12.457031 14.265625 -10.429688 14.265625 -7.765625 Z M 5.5 -3.203125 C 5.9375 -2.472656 6.765625 -2.109375 7.984375 -2.109375 C 9.210938 -2.109375 10.039062 -2.472656 10.46875 -3.203125 C 10.894531 -3.941406 11.109375 -5.46875 11.109375 -7.78125 C 11.109375 -10.101562 10.894531 -11.628906 10.46875 -12.359375 C 10.039062 -13.085938 9.210938 -13.453125 7.984375 -13.453125 C 6.765625 -13.453125 5.9375 -13.085938 5.5 -12.359375 C 5.0625 -11.628906 4.84375 -10.101562 4.84375 -7.78125 C 4.84375 -5.46875 5.0625 -3.941406 5.5 -3.203125 Z M 5.5 -3.203125 "/></g></g></g><g fill="#ffffff" fill-opacity="1"><g transform="translate(282.111587, 180.814804)"><g/></g></g><g fill="#ffffff" fill-opacity="1"><g transform="translate(288.366607, 180.814804)"><g><path d="M 1.015625 -7.40625 L 1.015625 -10.015625 L 7.484375 -10.015625 L 7.484375 -7.40625 Z M 1.015625 -7.40625 "/></g></g></g><g fill="#ffffff" fill-opacity="1"><g transform="translate(296.857483, 180.814804)"><g/></g></g><g fill="#ffffff" fill-opacity="1"><g transform="translate(303.112525, 180.814804)"><g><path d="M 2.578125 0.03125 L 2.6875 -8.546875 L 2.578125 -18.609375 L 5.71875 -18.609375 L 5.625 -10.359375 L 5.71875 0.03125 Z M 2.578125 0.03125 "/></g></g></g><g fill="#ffffff" fill-opacity="1"><g transform="translate(311.443689, 180.814804)"><g><path d="M 2.578125 0 L 2.578125 -18.609375 L 12.640625 -18.609375 L 12.640625 -15.8125 L 5.671875 -15.890625 L 5.5625 -10.703125 L 11.796875 -10.703125 L 11.796875 -8.09375 L 5.5625 -8.09375 L 5.703125 0 Z M 2.578125 0 "/></g></g></g><g fill="#ffffff" fill-opacity="1"><g transform="translate(325.311237, 180.814804)"><g><path d="M 7.53125 -2.453125 C 9.09375 -2.453125 9.875 -3.300781 9.875 -5 C 9.875 -5.726562 9.582031 -6.34375 9 -6.84375 C 8.414062 -7.34375 7.601562 -7.828125 6.5625 -8.296875 C 5.519531 -8.765625 4.921875 -9.035156 4.765625 -9.109375 C 4.617188 -9.191406 4.347656 -9.335938 3.953125 -9.546875 C 3.566406 -9.765625 3.296875 -9.941406 3.140625 -10.078125 C 2.992188 -10.222656 2.785156 -10.429688 2.515625 -10.703125 C 2.242188 -10.984375 2.050781 -11.269531 1.9375 -11.5625 C 1.632812 -12.320312 1.484375 -13.066406 1.484375 -13.796875 C 1.484375 -15.304688 2.003906 -16.539062 3.046875 -17.5 C 4.085938 -18.46875 5.566406 -18.953125 7.484375 -18.953125 C 8.878906 -18.953125 10.265625 -18.757812 11.640625 -18.375 L 12.359375 -18.1875 L 11.84375 -15.578125 C 9.914062 -15.953125 8.441406 -16.140625 7.421875 -16.140625 C 6.398438 -16.140625 5.691406 -15.972656 5.296875 -15.640625 C 4.910156 -15.316406 4.71875 -14.796875 4.71875 -14.078125 C 4.71875 -13.359375 4.957031 -12.796875 5.4375 -12.390625 C 5.925781 -11.992188 6.492188 -11.640625 7.140625 -11.328125 C 7.796875 -11.015625 8.320312 -10.769531 8.71875 -10.59375 C 9.113281 -10.414062 9.414062 -10.273438 9.625 -10.171875 C 9.832031 -10.078125 10.113281 -9.925781 10.46875 -9.71875 C 10.820312 -9.519531 11.09375 -9.335938 11.28125 -9.171875 C 11.476562 -9.003906 11.707031 -8.78125 11.96875 -8.5 C 12.238281 -8.226562 12.4375 -7.953125 12.5625 -7.671875 C 12.90625 -6.972656 13.078125 -6.226562 13.078125 -5.4375 C 13.078125 -3.707031 12.515625 -2.3125 11.390625 -1.25 C 10.273438 -0.1875 8.8125 0.34375 7 0.34375 C 6.082031 0.34375 5.117188 0.210938 4.109375 -0.046875 C 3.109375 -0.316406 2.34375 -0.585938 1.8125 -0.859375 L 0.984375 -1.28125 C 1.140625 -1.757812 1.269531 -2.144531 1.375 -2.4375 C 1.488281 -2.726562 1.578125 -2.972656 1.640625 -3.171875 C 1.710938 -3.378906 1.796875 -3.597656 1.890625 -3.828125 C 3.929688 -2.910156 5.8125 -2.453125 7.53125 -2.453125 Z M 7.53125 -2.453125 "/></g></g></g><g fill="#ffffff" fill-opacity="1"><g transform="translate(339.737731, 180.814804)"><g><path d="M 2.578125 -18.578125 C 5.085938 -18.828125 7.265625 -18.953125 9.109375 -18.953125 C 10.953125 -18.953125 12.34375 -18.410156 13.28125 -17.328125 C 14.226562 -16.242188 14.703125 -14.65625 14.703125 -12.5625 C 14.703125 -10.007812 14.0625 -8.234375 12.78125 -7.234375 C 11.675781 -6.347656 10.300781 -5.90625 8.65625 -5.90625 L 5.703125 -6.046875 L 5.703125 0 L 2.578125 0 L 2.6875 -8.65625 Z M 5.703125 -8.8125 C 6.722656 -8.632812 7.789062 -8.546875 8.90625 -8.546875 C 10.03125 -8.546875 10.734375 -8.796875 11.015625 -9.296875 C 11.304688 -9.804688 11.453125 -10.96875 11.453125 -12.78125 C 11.453125 -14.601562 11.203125 -15.703125 10.703125 -16.078125 C 10.378906 -16.347656 9.6875 -16.484375 8.625 -16.484375 C 7.5625 -16.484375 6.585938 -16.410156 5.703125 -16.265625 Z M 5.703125 -8.8125 "/></g></g></g></svg>